G75*
%MOIN*%
%OFA0B0*%
%FSLAX25Y25*%
%IPPOS*%
%LPD*%
%AMOC8*
5,1,8,0,0,1.08239X$1,22.5*
%
%ADD10C,0.02200*%
%ADD11C,0.00800*%
%ADD12C,0.00600*%
%ADD13R,0.03000X0.01800*%
%ADD14R,0.01800X0.03000*%
%ADD15C,0.01600*%
D10*
X0071380Y0090000D02*
X0071620Y0090000D01*
X0086380Y0090000D02*
X0086620Y0090000D01*
X0156500Y0060120D02*
X0156500Y0059880D01*
X0176500Y0059880D02*
X0176500Y0060120D01*
X0226500Y0084880D02*
X0226500Y0085120D01*
X0226500Y0099880D02*
X0226500Y0100120D01*
X0226500Y0114880D02*
X0226500Y0115120D01*
X0226500Y0129880D02*
X0226500Y0130120D01*
X0226500Y0144880D02*
X0226500Y0145120D01*
D11*
X0022878Y0036102D02*
X0022878Y0021142D01*
X0022878Y0052638D02*
X0022878Y0067992D01*
X0070122Y0067992D01*
X0070122Y0052638D01*
X0070122Y0036102D02*
X0070122Y0021142D01*
X0086500Y0023937D02*
X0086500Y0036063D01*
X0091618Y0040000D02*
X0101500Y0040000D01*
X0106500Y0036063D02*
X0106500Y0023937D01*
X0101382Y0020000D02*
X0091618Y0020000D01*
X0091500Y0030000D02*
X0091502Y0030141D01*
X0091508Y0030282D01*
X0091518Y0030422D01*
X0091532Y0030562D01*
X0091550Y0030702D01*
X0091571Y0030841D01*
X0091597Y0030980D01*
X0091626Y0031118D01*
X0091660Y0031254D01*
X0091697Y0031390D01*
X0091738Y0031525D01*
X0091783Y0031659D01*
X0091832Y0031791D01*
X0091884Y0031922D01*
X0091940Y0032051D01*
X0092000Y0032178D01*
X0092063Y0032304D01*
X0092129Y0032428D01*
X0092200Y0032551D01*
X0092273Y0032671D01*
X0092350Y0032789D01*
X0092430Y0032905D01*
X0092514Y0033018D01*
X0092600Y0033129D01*
X0092690Y0033238D01*
X0092783Y0033344D01*
X0092878Y0033447D01*
X0092977Y0033548D01*
X0093078Y0033646D01*
X0093182Y0033741D01*
X0093289Y0033833D01*
X0093398Y0033922D01*
X0093510Y0034007D01*
X0093624Y0034090D01*
X0093740Y0034170D01*
X0093859Y0034246D01*
X0093980Y0034318D01*
X0094102Y0034388D01*
X0094227Y0034453D01*
X0094353Y0034516D01*
X0094481Y0034574D01*
X0094611Y0034629D01*
X0094742Y0034681D01*
X0094875Y0034728D01*
X0095009Y0034772D01*
X0095144Y0034813D01*
X0095280Y0034849D01*
X0095417Y0034881D01*
X0095555Y0034910D01*
X0095693Y0034935D01*
X0095833Y0034955D01*
X0095973Y0034972D01*
X0096113Y0034985D01*
X0096254Y0034994D01*
X0096394Y0034999D01*
X0096535Y0035000D01*
X0096676Y0034997D01*
X0096817Y0034990D01*
X0096957Y0034979D01*
X0097097Y0034964D01*
X0097237Y0034945D01*
X0097376Y0034923D01*
X0097514Y0034896D01*
X0097652Y0034866D01*
X0097788Y0034831D01*
X0097924Y0034793D01*
X0098058Y0034751D01*
X0098192Y0034705D01*
X0098324Y0034656D01*
X0098454Y0034602D01*
X0098583Y0034545D01*
X0098710Y0034485D01*
X0098836Y0034421D01*
X0098959Y0034353D01*
X0099081Y0034282D01*
X0099201Y0034208D01*
X0099318Y0034130D01*
X0099433Y0034049D01*
X0099546Y0033965D01*
X0099657Y0033878D01*
X0099765Y0033787D01*
X0099870Y0033694D01*
X0099973Y0033597D01*
X0100073Y0033498D01*
X0100170Y0033396D01*
X0100264Y0033291D01*
X0100355Y0033184D01*
X0100443Y0033074D01*
X0100528Y0032962D01*
X0100610Y0032847D01*
X0100689Y0032730D01*
X0100764Y0032611D01*
X0100836Y0032490D01*
X0100904Y0032367D01*
X0100969Y0032242D01*
X0101031Y0032115D01*
X0101088Y0031986D01*
X0101143Y0031856D01*
X0101193Y0031725D01*
X0101240Y0031592D01*
X0101283Y0031458D01*
X0101322Y0031322D01*
X0101357Y0031186D01*
X0101389Y0031049D01*
X0101416Y0030911D01*
X0101440Y0030772D01*
X0101460Y0030632D01*
X0101476Y0030492D01*
X0101488Y0030352D01*
X0101496Y0030211D01*
X0101500Y0030070D01*
X0101500Y0029930D01*
X0101496Y0029789D01*
X0101488Y0029648D01*
X0101476Y0029508D01*
X0101460Y0029368D01*
X0101440Y0029228D01*
X0101416Y0029089D01*
X0101389Y0028951D01*
X0101357Y0028814D01*
X0101322Y0028678D01*
X0101283Y0028542D01*
X0101240Y0028408D01*
X0101193Y0028275D01*
X0101143Y0028144D01*
X0101088Y0028014D01*
X0101031Y0027885D01*
X0100969Y0027758D01*
X0100904Y0027633D01*
X0100836Y0027510D01*
X0100764Y0027389D01*
X0100689Y0027270D01*
X0100610Y0027153D01*
X0100528Y0027038D01*
X0100443Y0026926D01*
X0100355Y0026816D01*
X0100264Y0026709D01*
X0100170Y0026604D01*
X0100073Y0026502D01*
X0099973Y0026403D01*
X0099870Y0026306D01*
X0099765Y0026213D01*
X0099657Y0026122D01*
X0099546Y0026035D01*
X0099433Y0025951D01*
X0099318Y0025870D01*
X0099201Y0025792D01*
X0099081Y0025718D01*
X0098959Y0025647D01*
X0098836Y0025579D01*
X0098710Y0025515D01*
X0098583Y0025455D01*
X0098454Y0025398D01*
X0098324Y0025344D01*
X0098192Y0025295D01*
X0098058Y0025249D01*
X0097924Y0025207D01*
X0097788Y0025169D01*
X0097652Y0025134D01*
X0097514Y0025104D01*
X0097376Y0025077D01*
X0097237Y0025055D01*
X0097097Y0025036D01*
X0096957Y0025021D01*
X0096817Y0025010D01*
X0096676Y0025003D01*
X0096535Y0025000D01*
X0096394Y0025001D01*
X0096254Y0025006D01*
X0096113Y0025015D01*
X0095973Y0025028D01*
X0095833Y0025045D01*
X0095693Y0025065D01*
X0095555Y0025090D01*
X0095417Y0025119D01*
X0095280Y0025151D01*
X0095144Y0025187D01*
X0095009Y0025228D01*
X0094875Y0025272D01*
X0094742Y0025319D01*
X0094611Y0025371D01*
X0094481Y0025426D01*
X0094353Y0025484D01*
X0094227Y0025547D01*
X0094102Y0025612D01*
X0093980Y0025682D01*
X0093859Y0025754D01*
X0093740Y0025830D01*
X0093624Y0025910D01*
X0093510Y0025993D01*
X0093398Y0026078D01*
X0093289Y0026167D01*
X0093182Y0026259D01*
X0093078Y0026354D01*
X0092977Y0026452D01*
X0092878Y0026553D01*
X0092783Y0026656D01*
X0092690Y0026762D01*
X0092600Y0026871D01*
X0092514Y0026982D01*
X0092430Y0027095D01*
X0092350Y0027211D01*
X0092273Y0027329D01*
X0092200Y0027449D01*
X0092129Y0027572D01*
X0092063Y0027696D01*
X0092000Y0027822D01*
X0091940Y0027949D01*
X0091884Y0028078D01*
X0091832Y0028209D01*
X0091783Y0028341D01*
X0091738Y0028475D01*
X0091697Y0028610D01*
X0091660Y0028746D01*
X0091626Y0028882D01*
X0091597Y0029020D01*
X0091571Y0029159D01*
X0091550Y0029298D01*
X0091532Y0029438D01*
X0091518Y0029578D01*
X0091508Y0029718D01*
X0091502Y0029859D01*
X0091500Y0030000D01*
X0105640Y0089449D02*
X0106400Y0090609D01*
X0106500Y0090669D02*
X0107420Y0089449D01*
X0108311Y0090669D02*
X0106500Y0090669D01*
X0104689Y0090669D01*
X0124689Y0090669D02*
X0126500Y0090669D01*
X0127420Y0089449D01*
X0128311Y0090669D02*
X0126500Y0090669D01*
X0126400Y0090609D02*
X0125640Y0089449D01*
X0119000Y0110000D02*
X0116500Y0112500D01*
X0116500Y0117500D01*
X0119000Y0120000D01*
X0134000Y0120000D01*
X0136500Y0122500D01*
X0136500Y0127500D01*
X0134000Y0130000D01*
X0119000Y0130000D01*
X0116500Y0132500D01*
X0116500Y0137500D01*
X0119000Y0140000D01*
X0134000Y0140000D01*
X0136500Y0137500D01*
X0136500Y0132500D01*
X0134000Y0130000D01*
X0134000Y0120000D02*
X0136500Y0117500D01*
X0136500Y0112500D01*
X0134000Y0110000D01*
X0119000Y0110000D01*
X0119000Y0120000D02*
X0116500Y0122500D01*
X0116500Y0127500D01*
X0119000Y0130000D01*
X0137819Y0117500D02*
X0137819Y0112500D01*
X0209383Y0061137D02*
X0217051Y0061137D01*
X0209383Y0061137D02*
X0209383Y0017811D01*
X0243617Y0017811D01*
X0243617Y0037677D01*
X0243617Y0056181D02*
X0243617Y0061137D01*
X0235949Y0061137D01*
D12*
X0191500Y0022500D02*
X0189000Y0025000D01*
X0184000Y0025000D01*
X0181500Y0022500D01*
X0179000Y0025000D01*
X0174000Y0025000D01*
X0171500Y0022500D01*
X0171500Y0017500D01*
X0174000Y0015000D01*
X0179000Y0015000D01*
X0181500Y0017500D01*
X0181500Y0022500D01*
X0181500Y0017500D02*
X0184000Y0015000D01*
X0189000Y0015000D01*
X0191500Y0017500D01*
X0191500Y0022500D01*
X0178500Y0073500D02*
X0154500Y0073500D01*
X0154340Y0073502D01*
X0154181Y0073508D01*
X0154022Y0073518D01*
X0153863Y0073531D01*
X0153704Y0073549D01*
X0153546Y0073570D01*
X0153389Y0073596D01*
X0153232Y0073625D01*
X0153076Y0073658D01*
X0152921Y0073695D01*
X0152766Y0073735D01*
X0152613Y0073780D01*
X0152461Y0073828D01*
X0152310Y0073880D01*
X0152161Y0073936D01*
X0152013Y0073995D01*
X0151866Y0074058D01*
X0151721Y0074124D01*
X0151578Y0074194D01*
X0151436Y0074268D01*
X0151296Y0074344D01*
X0151158Y0074425D01*
X0151023Y0074508D01*
X0150889Y0074595D01*
X0150757Y0074686D01*
X0150628Y0074779D01*
X0150501Y0074876D01*
X0150376Y0074975D01*
X0150254Y0075078D01*
X0150135Y0075184D01*
X0150018Y0075292D01*
X0149904Y0075404D01*
X0149792Y0075518D01*
X0149684Y0075635D01*
X0149578Y0075754D01*
X0149475Y0075876D01*
X0149376Y0076001D01*
X0149279Y0076128D01*
X0149186Y0076257D01*
X0149095Y0076389D01*
X0149008Y0076523D01*
X0148925Y0076658D01*
X0148844Y0076796D01*
X0148768Y0076936D01*
X0148694Y0077078D01*
X0148624Y0077221D01*
X0148558Y0077366D01*
X0148495Y0077513D01*
X0148436Y0077661D01*
X0148380Y0077810D01*
X0148328Y0077961D01*
X0148280Y0078113D01*
X0148235Y0078266D01*
X0148195Y0078421D01*
X0148158Y0078576D01*
X0148125Y0078732D01*
X0148096Y0078889D01*
X0148070Y0079046D01*
X0148049Y0079204D01*
X0148031Y0079363D01*
X0148018Y0079522D01*
X0148008Y0079681D01*
X0148002Y0079840D01*
X0148000Y0080000D01*
X0148002Y0080160D01*
X0148008Y0080319D01*
X0148018Y0080478D01*
X0148031Y0080637D01*
X0148049Y0080796D01*
X0148070Y0080954D01*
X0148096Y0081111D01*
X0148125Y0081268D01*
X0148158Y0081424D01*
X0148195Y0081579D01*
X0148235Y0081734D01*
X0148280Y0081887D01*
X0148328Y0082039D01*
X0148380Y0082190D01*
X0148436Y0082339D01*
X0148495Y0082487D01*
X0148558Y0082634D01*
X0148624Y0082779D01*
X0148694Y0082922D01*
X0148768Y0083064D01*
X0148844Y0083204D01*
X0148925Y0083342D01*
X0149008Y0083477D01*
X0149095Y0083611D01*
X0149186Y0083743D01*
X0149279Y0083872D01*
X0149376Y0083999D01*
X0149475Y0084124D01*
X0149578Y0084246D01*
X0149684Y0084365D01*
X0149792Y0084482D01*
X0149904Y0084596D01*
X0150018Y0084708D01*
X0150135Y0084816D01*
X0150254Y0084922D01*
X0150376Y0085025D01*
X0150501Y0085124D01*
X0150628Y0085221D01*
X0150757Y0085314D01*
X0150889Y0085405D01*
X0151023Y0085492D01*
X0151158Y0085575D01*
X0151296Y0085656D01*
X0151436Y0085732D01*
X0151578Y0085806D01*
X0151721Y0085876D01*
X0151866Y0085942D01*
X0152013Y0086005D01*
X0152161Y0086064D01*
X0152310Y0086120D01*
X0152461Y0086172D01*
X0152613Y0086220D01*
X0152766Y0086265D01*
X0152921Y0086305D01*
X0153076Y0086342D01*
X0153232Y0086375D01*
X0153389Y0086404D01*
X0153546Y0086430D01*
X0153704Y0086451D01*
X0153863Y0086469D01*
X0154022Y0086482D01*
X0154181Y0086492D01*
X0154340Y0086498D01*
X0154500Y0086500D01*
X0178500Y0086500D01*
X0178660Y0086498D01*
X0178819Y0086492D01*
X0178978Y0086482D01*
X0179137Y0086469D01*
X0179296Y0086451D01*
X0179454Y0086430D01*
X0179611Y0086404D01*
X0179768Y0086375D01*
X0179924Y0086342D01*
X0180079Y0086305D01*
X0180234Y0086265D01*
X0180387Y0086220D01*
X0180539Y0086172D01*
X0180690Y0086120D01*
X0180839Y0086064D01*
X0180987Y0086005D01*
X0181134Y0085942D01*
X0181279Y0085876D01*
X0181422Y0085806D01*
X0181564Y0085732D01*
X0181704Y0085656D01*
X0181842Y0085575D01*
X0181977Y0085492D01*
X0182111Y0085405D01*
X0182243Y0085314D01*
X0182372Y0085221D01*
X0182499Y0085124D01*
X0182624Y0085025D01*
X0182746Y0084922D01*
X0182865Y0084816D01*
X0182982Y0084708D01*
X0183096Y0084596D01*
X0183208Y0084482D01*
X0183316Y0084365D01*
X0183422Y0084246D01*
X0183525Y0084124D01*
X0183624Y0083999D01*
X0183721Y0083872D01*
X0183814Y0083743D01*
X0183905Y0083611D01*
X0183992Y0083477D01*
X0184075Y0083342D01*
X0184156Y0083204D01*
X0184232Y0083064D01*
X0184306Y0082922D01*
X0184376Y0082779D01*
X0184442Y0082634D01*
X0184505Y0082487D01*
X0184564Y0082339D01*
X0184620Y0082190D01*
X0184672Y0082039D01*
X0184720Y0081887D01*
X0184765Y0081734D01*
X0184805Y0081579D01*
X0184842Y0081424D01*
X0184875Y0081268D01*
X0184904Y0081111D01*
X0184930Y0080954D01*
X0184951Y0080796D01*
X0184969Y0080637D01*
X0184982Y0080478D01*
X0184992Y0080319D01*
X0184998Y0080160D01*
X0185000Y0080000D01*
X0184998Y0079840D01*
X0184992Y0079681D01*
X0184982Y0079522D01*
X0184969Y0079363D01*
X0184951Y0079204D01*
X0184930Y0079046D01*
X0184904Y0078889D01*
X0184875Y0078732D01*
X0184842Y0078576D01*
X0184805Y0078421D01*
X0184765Y0078266D01*
X0184720Y0078113D01*
X0184672Y0077961D01*
X0184620Y0077810D01*
X0184564Y0077661D01*
X0184505Y0077513D01*
X0184442Y0077366D01*
X0184376Y0077221D01*
X0184306Y0077078D01*
X0184232Y0076936D01*
X0184156Y0076796D01*
X0184075Y0076658D01*
X0183992Y0076523D01*
X0183905Y0076389D01*
X0183814Y0076257D01*
X0183721Y0076128D01*
X0183624Y0076001D01*
X0183525Y0075876D01*
X0183422Y0075754D01*
X0183316Y0075635D01*
X0183208Y0075518D01*
X0183096Y0075404D01*
X0182982Y0075292D01*
X0182865Y0075184D01*
X0182746Y0075078D01*
X0182624Y0074975D01*
X0182499Y0074876D01*
X0182372Y0074779D01*
X0182243Y0074686D01*
X0182111Y0074595D01*
X0181977Y0074508D01*
X0181842Y0074425D01*
X0181704Y0074344D01*
X0181564Y0074268D01*
X0181422Y0074194D01*
X0181279Y0074124D01*
X0181134Y0074058D01*
X0180987Y0073995D01*
X0180839Y0073936D01*
X0180690Y0073880D01*
X0180539Y0073828D01*
X0180387Y0073780D01*
X0180234Y0073735D01*
X0180079Y0073695D01*
X0179924Y0073658D01*
X0179768Y0073625D01*
X0179611Y0073596D01*
X0179454Y0073570D01*
X0179296Y0073549D01*
X0179137Y0073531D01*
X0178978Y0073518D01*
X0178819Y0073508D01*
X0178660Y0073502D01*
X0178500Y0073500D01*
X0171500Y0080000D02*
X0169000Y0080000D01*
X0169000Y0077000D01*
X0167500Y0077000D02*
X0165500Y0077000D01*
X0165500Y0083000D01*
X0167500Y0083000D01*
X0167500Y0077000D01*
X0169000Y0080000D02*
X0169000Y0083000D01*
X0164000Y0083000D02*
X0164000Y0080000D01*
X0161500Y0080000D01*
X0164000Y0080000D02*
X0164000Y0077000D01*
X0167701Y0111201D02*
X0167701Y0137402D01*
X0169098Y0138799D01*
X0195299Y0138799D01*
X0195299Y0111201D01*
X0167701Y0111201D01*
X0169286Y0135800D02*
X0169288Y0135875D01*
X0169294Y0135949D01*
X0169304Y0136023D01*
X0169317Y0136096D01*
X0169335Y0136169D01*
X0169356Y0136240D01*
X0169381Y0136311D01*
X0169410Y0136380D01*
X0169443Y0136447D01*
X0169479Y0136512D01*
X0169518Y0136576D01*
X0169560Y0136637D01*
X0169606Y0136696D01*
X0169655Y0136753D01*
X0169707Y0136806D01*
X0169761Y0136857D01*
X0169818Y0136906D01*
X0169878Y0136950D01*
X0169940Y0136992D01*
X0170004Y0137031D01*
X0170070Y0137066D01*
X0170137Y0137097D01*
X0170207Y0137125D01*
X0170277Y0137149D01*
X0170349Y0137170D01*
X0170422Y0137186D01*
X0170495Y0137199D01*
X0170570Y0137208D01*
X0170644Y0137213D01*
X0170719Y0137214D01*
X0170793Y0137211D01*
X0170868Y0137204D01*
X0170941Y0137193D01*
X0171015Y0137179D01*
X0171087Y0137160D01*
X0171158Y0137138D01*
X0171228Y0137112D01*
X0171297Y0137082D01*
X0171363Y0137049D01*
X0171428Y0137012D01*
X0171491Y0136972D01*
X0171552Y0136928D01*
X0171610Y0136882D01*
X0171666Y0136832D01*
X0171719Y0136780D01*
X0171770Y0136725D01*
X0171817Y0136667D01*
X0171861Y0136607D01*
X0171902Y0136544D01*
X0171940Y0136480D01*
X0171974Y0136414D01*
X0172005Y0136345D01*
X0172032Y0136276D01*
X0172055Y0136205D01*
X0172074Y0136133D01*
X0172090Y0136060D01*
X0172102Y0135986D01*
X0172110Y0135912D01*
X0172114Y0135837D01*
X0172114Y0135763D01*
X0172110Y0135688D01*
X0172102Y0135614D01*
X0172090Y0135540D01*
X0172074Y0135467D01*
X0172055Y0135395D01*
X0172032Y0135324D01*
X0172005Y0135255D01*
X0171974Y0135186D01*
X0171940Y0135120D01*
X0171902Y0135056D01*
X0171861Y0134993D01*
X0171817Y0134933D01*
X0171770Y0134875D01*
X0171719Y0134820D01*
X0171666Y0134768D01*
X0171610Y0134718D01*
X0171552Y0134672D01*
X0171491Y0134628D01*
X0171428Y0134588D01*
X0171363Y0134551D01*
X0171297Y0134518D01*
X0171228Y0134488D01*
X0171158Y0134462D01*
X0171087Y0134440D01*
X0171015Y0134421D01*
X0170941Y0134407D01*
X0170868Y0134396D01*
X0170793Y0134389D01*
X0170719Y0134386D01*
X0170644Y0134387D01*
X0170570Y0134392D01*
X0170495Y0134401D01*
X0170422Y0134414D01*
X0170349Y0134430D01*
X0170277Y0134451D01*
X0170207Y0134475D01*
X0170137Y0134503D01*
X0170070Y0134534D01*
X0170004Y0134569D01*
X0169940Y0134608D01*
X0169878Y0134650D01*
X0169818Y0134694D01*
X0169761Y0134743D01*
X0169707Y0134794D01*
X0169655Y0134847D01*
X0169606Y0134904D01*
X0169560Y0134963D01*
X0169518Y0135024D01*
X0169479Y0135088D01*
X0169443Y0135153D01*
X0169410Y0135220D01*
X0169381Y0135289D01*
X0169356Y0135360D01*
X0169335Y0135431D01*
X0169317Y0135504D01*
X0169304Y0135577D01*
X0169294Y0135651D01*
X0169288Y0135725D01*
X0169286Y0135800D01*
X0086972Y0136516D02*
X0086972Y0113484D01*
X0046028Y0113484D01*
X0046028Y0136516D01*
X0086972Y0136516D01*
X0081325Y0132677D02*
X0081327Y0132762D01*
X0081333Y0132846D01*
X0081343Y0132931D01*
X0081357Y0133014D01*
X0081374Y0133097D01*
X0081396Y0133179D01*
X0081422Y0133260D01*
X0081451Y0133340D01*
X0081484Y0133418D01*
X0081520Y0133494D01*
X0081560Y0133569D01*
X0081604Y0133642D01*
X0081651Y0133713D01*
X0081701Y0133781D01*
X0081754Y0133847D01*
X0081811Y0133910D01*
X0081870Y0133971D01*
X0081932Y0134029D01*
X0081997Y0134084D01*
X0082064Y0134136D01*
X0082133Y0134184D01*
X0082205Y0134229D01*
X0082279Y0134271D01*
X0082355Y0134309D01*
X0082432Y0134344D01*
X0082511Y0134375D01*
X0082591Y0134403D01*
X0082673Y0134426D01*
X0082755Y0134446D01*
X0082838Y0134462D01*
X0082922Y0134474D01*
X0083007Y0134482D01*
X0083092Y0134486D01*
X0083176Y0134486D01*
X0083261Y0134482D01*
X0083346Y0134474D01*
X0083430Y0134462D01*
X0083513Y0134446D01*
X0083595Y0134426D01*
X0083677Y0134403D01*
X0083757Y0134375D01*
X0083836Y0134344D01*
X0083913Y0134309D01*
X0083989Y0134271D01*
X0084063Y0134229D01*
X0084135Y0134184D01*
X0084204Y0134136D01*
X0084271Y0134084D01*
X0084336Y0134029D01*
X0084398Y0133971D01*
X0084457Y0133910D01*
X0084514Y0133847D01*
X0084567Y0133781D01*
X0084617Y0133713D01*
X0084664Y0133642D01*
X0084708Y0133569D01*
X0084748Y0133494D01*
X0084784Y0133418D01*
X0084817Y0133340D01*
X0084846Y0133260D01*
X0084872Y0133179D01*
X0084894Y0133097D01*
X0084911Y0133014D01*
X0084925Y0132931D01*
X0084935Y0132846D01*
X0084941Y0132762D01*
X0084943Y0132677D01*
X0084941Y0132592D01*
X0084935Y0132508D01*
X0084925Y0132423D01*
X0084911Y0132340D01*
X0084894Y0132257D01*
X0084872Y0132175D01*
X0084846Y0132094D01*
X0084817Y0132014D01*
X0084784Y0131936D01*
X0084748Y0131860D01*
X0084708Y0131785D01*
X0084664Y0131712D01*
X0084617Y0131641D01*
X0084567Y0131573D01*
X0084514Y0131507D01*
X0084457Y0131444D01*
X0084398Y0131383D01*
X0084336Y0131325D01*
X0084271Y0131270D01*
X0084204Y0131218D01*
X0084135Y0131170D01*
X0084063Y0131125D01*
X0083989Y0131083D01*
X0083913Y0131045D01*
X0083836Y0131010D01*
X0083757Y0130979D01*
X0083677Y0130951D01*
X0083595Y0130928D01*
X0083513Y0130908D01*
X0083430Y0130892D01*
X0083346Y0130880D01*
X0083261Y0130872D01*
X0083176Y0130868D01*
X0083092Y0130868D01*
X0083007Y0130872D01*
X0082922Y0130880D01*
X0082838Y0130892D01*
X0082755Y0130908D01*
X0082673Y0130928D01*
X0082591Y0130951D01*
X0082511Y0130979D01*
X0082432Y0131010D01*
X0082355Y0131045D01*
X0082279Y0131083D01*
X0082205Y0131125D01*
X0082133Y0131170D01*
X0082064Y0131218D01*
X0081997Y0131270D01*
X0081932Y0131325D01*
X0081870Y0131383D01*
X0081811Y0131444D01*
X0081754Y0131507D01*
X0081701Y0131573D01*
X0081651Y0131641D01*
X0081604Y0131712D01*
X0081560Y0131785D01*
X0081520Y0131860D01*
X0081484Y0131936D01*
X0081451Y0132014D01*
X0081422Y0132094D01*
X0081396Y0132175D01*
X0081374Y0132257D01*
X0081357Y0132340D01*
X0081343Y0132423D01*
X0081333Y0132508D01*
X0081327Y0132592D01*
X0081325Y0132677D01*
X0082100Y0213819D02*
X0082100Y0217600D01*
X0078991Y0217600D01*
X0073911Y0217600D02*
X0070900Y0217600D01*
X0070900Y0213819D01*
X0095900Y0213819D02*
X0095900Y0217600D01*
X0098911Y0217600D01*
X0103991Y0217600D02*
X0107100Y0217600D01*
X0107100Y0213819D01*
X0120900Y0213819D02*
X0120900Y0217600D01*
X0123911Y0217600D01*
X0128991Y0217600D02*
X0132100Y0217600D01*
X0132100Y0213819D01*
X0145900Y0213819D02*
X0145900Y0217600D01*
X0148911Y0217600D01*
X0153991Y0217600D02*
X0157100Y0217600D01*
X0157100Y0213819D01*
X0170900Y0213819D02*
X0170900Y0217600D01*
X0173911Y0217600D01*
X0178991Y0217600D02*
X0182100Y0217600D01*
X0182100Y0213819D01*
X0195900Y0213819D02*
X0195900Y0217600D01*
X0198911Y0217600D01*
X0203991Y0217600D02*
X0207100Y0217600D01*
X0207100Y0213819D01*
X0151500Y0232500D02*
X0149000Y0230000D01*
X0144000Y0230000D01*
X0141500Y0232500D01*
X0139000Y0230000D01*
X0134000Y0230000D01*
X0131500Y0232500D01*
X0131500Y0237500D01*
X0134000Y0240000D01*
X0139000Y0240000D01*
X0141500Y0237500D01*
X0144000Y0240000D01*
X0149000Y0240000D01*
X0151500Y0237500D01*
X0151500Y0232500D01*
X0141500Y0232500D02*
X0141500Y0237500D01*
X0131500Y0237500D02*
X0129000Y0240000D01*
X0124000Y0240000D01*
X0121500Y0237500D01*
X0119000Y0240000D01*
X0114000Y0240000D01*
X0111500Y0237500D01*
X0109000Y0240000D01*
X0104000Y0240000D01*
X0101500Y0237500D01*
X0099000Y0240000D01*
X0094000Y0240000D01*
X0091500Y0237500D01*
X0091500Y0232500D01*
X0094000Y0230000D01*
X0099000Y0230000D01*
X0101500Y0232500D01*
X0101500Y0237500D01*
X0101500Y0232500D02*
X0104000Y0230000D01*
X0109000Y0230000D01*
X0111500Y0232500D01*
X0111500Y0237500D01*
X0111500Y0232500D02*
X0114000Y0230000D01*
X0119000Y0230000D01*
X0121500Y0232500D01*
X0121500Y0237500D01*
X0121500Y0232500D02*
X0124000Y0230000D01*
X0129000Y0230000D01*
X0131500Y0232500D01*
D13*
X0131500Y0190000D03*
X0156500Y0190000D03*
X0181500Y0190000D03*
X0206500Y0190000D03*
X0101500Y0190000D03*
X0071500Y0190000D03*
X0086500Y0065000D03*
X0106500Y0065000D03*
X0126500Y0065000D03*
D14*
X0131500Y0165000D03*
X0101500Y0165000D03*
X0071500Y0165000D03*
X0161500Y0165000D03*
X0191500Y0165000D03*
X0221500Y0165000D03*
D15*
X0178500Y0088500D02*
X0154500Y0088500D01*
X0154293Y0088497D01*
X0154086Y0088490D01*
X0153880Y0088477D01*
X0153673Y0088460D01*
X0153468Y0088437D01*
X0153262Y0088409D01*
X0153058Y0088377D01*
X0152854Y0088339D01*
X0152652Y0088297D01*
X0152450Y0088249D01*
X0152250Y0088197D01*
X0152051Y0088140D01*
X0151854Y0088078D01*
X0151658Y0088011D01*
X0151464Y0087939D01*
X0151271Y0087863D01*
X0151081Y0087782D01*
X0150892Y0087696D01*
X0150706Y0087606D01*
X0150522Y0087512D01*
X0150340Y0087412D01*
X0150161Y0087309D01*
X0149984Y0087201D01*
X0149810Y0087089D01*
X0149639Y0086973D01*
X0149470Y0086852D01*
X0149305Y0086728D01*
X0149143Y0086599D01*
X0148984Y0086467D01*
X0148828Y0086331D01*
X0148675Y0086191D01*
X0148526Y0086047D01*
X0148381Y0085900D01*
X0148239Y0085749D01*
X0148101Y0085595D01*
X0147966Y0085437D01*
X0147836Y0085277D01*
X0147710Y0085113D01*
X0147587Y0084946D01*
X0147469Y0084776D01*
X0147354Y0084603D01*
X0147244Y0084428D01*
X0147139Y0084250D01*
X0147037Y0084069D01*
X0146941Y0083887D01*
X0146848Y0083701D01*
X0146760Y0083514D01*
X0146677Y0083324D01*
X0146598Y0083133D01*
X0146524Y0082940D01*
X0146455Y0082744D01*
X0146391Y0082548D01*
X0146331Y0082350D01*
X0146276Y0082150D01*
X0146226Y0081949D01*
X0146181Y0081747D01*
X0146141Y0081544D01*
X0146106Y0081340D01*
X0146076Y0081135D01*
X0146051Y0080930D01*
X0146031Y0080724D01*
X0146016Y0080517D01*
X0146006Y0080310D01*
X0146001Y0080103D01*
X0146001Y0079897D01*
X0146006Y0079690D01*
X0146016Y0079483D01*
X0146031Y0079276D01*
X0146051Y0079070D01*
X0146076Y0078865D01*
X0146106Y0078660D01*
X0146141Y0078456D01*
X0146181Y0078253D01*
X0146226Y0078051D01*
X0146276Y0077850D01*
X0146331Y0077650D01*
X0146391Y0077452D01*
X0146455Y0077256D01*
X0146524Y0077060D01*
X0146598Y0076867D01*
X0146677Y0076676D01*
X0146760Y0076486D01*
X0146848Y0076299D01*
X0146941Y0076113D01*
X0147037Y0075931D01*
X0147139Y0075750D01*
X0147244Y0075572D01*
X0147354Y0075397D01*
X0147469Y0075224D01*
X0147587Y0075054D01*
X0147710Y0074887D01*
X0147836Y0074723D01*
X0147966Y0074563D01*
X0148101Y0074405D01*
X0148239Y0074251D01*
X0148381Y0074100D01*
X0148526Y0073953D01*
X0148675Y0073809D01*
X0148828Y0073669D01*
X0148984Y0073533D01*
X0149143Y0073401D01*
X0149305Y0073272D01*
X0149470Y0073148D01*
X0149639Y0073027D01*
X0149810Y0072911D01*
X0149984Y0072799D01*
X0150161Y0072691D01*
X0150340Y0072588D01*
X0150522Y0072488D01*
X0150706Y0072394D01*
X0150892Y0072304D01*
X0151081Y0072218D01*
X0151271Y0072137D01*
X0151464Y0072061D01*
X0151658Y0071989D01*
X0151854Y0071922D01*
X0152051Y0071860D01*
X0152250Y0071803D01*
X0152450Y0071751D01*
X0152652Y0071703D01*
X0152854Y0071661D01*
X0153058Y0071623D01*
X0153262Y0071591D01*
X0153468Y0071563D01*
X0153673Y0071540D01*
X0153880Y0071523D01*
X0154086Y0071510D01*
X0154293Y0071503D01*
X0154500Y0071500D01*
X0178500Y0071500D01*
X0178707Y0071503D01*
X0178914Y0071510D01*
X0179120Y0071523D01*
X0179327Y0071540D01*
X0179532Y0071563D01*
X0179738Y0071591D01*
X0179942Y0071623D01*
X0180146Y0071661D01*
X0180348Y0071703D01*
X0180550Y0071751D01*
X0180750Y0071803D01*
X0180949Y0071860D01*
X0181146Y0071922D01*
X0181342Y0071989D01*
X0181536Y0072061D01*
X0181729Y0072137D01*
X0181919Y0072218D01*
X0182108Y0072304D01*
X0182294Y0072394D01*
X0182478Y0072488D01*
X0182660Y0072588D01*
X0182839Y0072691D01*
X0183016Y0072799D01*
X0183190Y0072911D01*
X0183361Y0073027D01*
X0183530Y0073148D01*
X0183695Y0073272D01*
X0183857Y0073401D01*
X0184016Y0073533D01*
X0184172Y0073669D01*
X0184325Y0073809D01*
X0184474Y0073953D01*
X0184619Y0074100D01*
X0184761Y0074251D01*
X0184899Y0074405D01*
X0185034Y0074563D01*
X0185164Y0074723D01*
X0185290Y0074887D01*
X0185413Y0075054D01*
X0185531Y0075224D01*
X0185646Y0075397D01*
X0185756Y0075572D01*
X0185861Y0075750D01*
X0185963Y0075931D01*
X0186059Y0076113D01*
X0186152Y0076299D01*
X0186240Y0076486D01*
X0186323Y0076676D01*
X0186402Y0076867D01*
X0186476Y0077060D01*
X0186545Y0077256D01*
X0186609Y0077452D01*
X0186669Y0077650D01*
X0186724Y0077850D01*
X0186774Y0078051D01*
X0186819Y0078253D01*
X0186859Y0078456D01*
X0186894Y0078660D01*
X0186924Y0078865D01*
X0186949Y0079070D01*
X0186969Y0079276D01*
X0186984Y0079483D01*
X0186994Y0079690D01*
X0186999Y0079897D01*
X0186999Y0080103D01*
X0186994Y0080310D01*
X0186984Y0080517D01*
X0186969Y0080724D01*
X0186949Y0080930D01*
X0186924Y0081135D01*
X0186894Y0081340D01*
X0186859Y0081544D01*
X0186819Y0081747D01*
X0186774Y0081949D01*
X0186724Y0082150D01*
X0186669Y0082350D01*
X0186609Y0082548D01*
X0186545Y0082744D01*
X0186476Y0082940D01*
X0186402Y0083133D01*
X0186323Y0083324D01*
X0186240Y0083514D01*
X0186152Y0083701D01*
X0186059Y0083887D01*
X0185963Y0084069D01*
X0185861Y0084250D01*
X0185756Y0084428D01*
X0185646Y0084603D01*
X0185531Y0084776D01*
X0185413Y0084946D01*
X0185290Y0085113D01*
X0185164Y0085277D01*
X0185034Y0085437D01*
X0184899Y0085595D01*
X0184761Y0085749D01*
X0184619Y0085900D01*
X0184474Y0086047D01*
X0184325Y0086191D01*
X0184172Y0086331D01*
X0184016Y0086467D01*
X0183857Y0086599D01*
X0183695Y0086728D01*
X0183530Y0086852D01*
X0183361Y0086973D01*
X0183190Y0087089D01*
X0183016Y0087201D01*
X0182839Y0087309D01*
X0182660Y0087412D01*
X0182478Y0087512D01*
X0182294Y0087606D01*
X0182108Y0087696D01*
X0181919Y0087782D01*
X0181729Y0087863D01*
X0181536Y0087939D01*
X0181342Y0088011D01*
X0181146Y0088078D01*
X0180949Y0088140D01*
X0180750Y0088197D01*
X0180550Y0088249D01*
X0180348Y0088297D01*
X0180146Y0088339D01*
X0179942Y0088377D01*
X0179738Y0088409D01*
X0179532Y0088437D01*
X0179327Y0088460D01*
X0179120Y0088477D01*
X0178914Y0088490D01*
X0178707Y0088497D01*
X0178500Y0088500D01*
M02*
