G75*
%MOIN*%
%OFA0B0*%
%FSLAX25Y25*%
%IPPOS*%
%LPD*%
%AMOC8*
5,1,8,0,0,1.08239X$1,22.5*
%
%ADD10C,0.00000*%
%ADD11C,0.00400*%
%ADD12R,0.04331X0.03937*%
%ADD13R,0.03937X0.04331*%
%ADD14C,0.04959*%
%ADD15OC8,0.07400*%
%ADD16C,0.16598*%
%ADD17C,0.16200*%
%ADD18C,0.06400*%
%ADD19R,0.03150X0.03150*%
%ADD20R,0.03000X0.06000*%
%ADD21R,0.03150X0.03543*%
%ADD22R,0.05000X0.02200*%
%ADD23R,0.02200X0.05000*%
%ADD24R,0.01370X0.05500*%
%ADD25C,0.06600*%
%ADD26C,0.13000*%
%ADD27C,0.05600*%
%ADD28R,0.16929X0.08268*%
%ADD29C,0.00800*%
%ADD30C,0.04000*%
%ADD31C,0.01000*%
D10*
X0001500Y0010000D02*
X0001500Y0253701D01*
X0266421Y0253701D01*
X0266421Y0010000D01*
X0001500Y0010000D01*
X0005988Y0020000D02*
X0005990Y0020148D01*
X0005996Y0020296D01*
X0006006Y0020444D01*
X0006020Y0020591D01*
X0006038Y0020738D01*
X0006059Y0020884D01*
X0006085Y0021030D01*
X0006115Y0021175D01*
X0006148Y0021319D01*
X0006186Y0021462D01*
X0006227Y0021604D01*
X0006272Y0021745D01*
X0006320Y0021885D01*
X0006373Y0022024D01*
X0006429Y0022161D01*
X0006489Y0022296D01*
X0006552Y0022430D01*
X0006619Y0022562D01*
X0006690Y0022692D01*
X0006764Y0022820D01*
X0006841Y0022946D01*
X0006922Y0023070D01*
X0007006Y0023192D01*
X0007093Y0023311D01*
X0007184Y0023428D01*
X0007278Y0023543D01*
X0007374Y0023655D01*
X0007474Y0023765D01*
X0007576Y0023871D01*
X0007682Y0023975D01*
X0007790Y0024076D01*
X0007901Y0024174D01*
X0008014Y0024270D01*
X0008130Y0024362D01*
X0008248Y0024451D01*
X0008369Y0024536D01*
X0008492Y0024619D01*
X0008617Y0024698D01*
X0008744Y0024774D01*
X0008873Y0024846D01*
X0009004Y0024915D01*
X0009137Y0024980D01*
X0009272Y0025041D01*
X0009408Y0025099D01*
X0009545Y0025154D01*
X0009684Y0025204D01*
X0009825Y0025251D01*
X0009966Y0025294D01*
X0010109Y0025334D01*
X0010253Y0025369D01*
X0010397Y0025401D01*
X0010543Y0025428D01*
X0010689Y0025452D01*
X0010836Y0025472D01*
X0010983Y0025488D01*
X0011130Y0025500D01*
X0011278Y0025508D01*
X0011426Y0025512D01*
X0011574Y0025512D01*
X0011722Y0025508D01*
X0011870Y0025500D01*
X0012017Y0025488D01*
X0012164Y0025472D01*
X0012311Y0025452D01*
X0012457Y0025428D01*
X0012603Y0025401D01*
X0012747Y0025369D01*
X0012891Y0025334D01*
X0013034Y0025294D01*
X0013175Y0025251D01*
X0013316Y0025204D01*
X0013455Y0025154D01*
X0013592Y0025099D01*
X0013728Y0025041D01*
X0013863Y0024980D01*
X0013996Y0024915D01*
X0014127Y0024846D01*
X0014256Y0024774D01*
X0014383Y0024698D01*
X0014508Y0024619D01*
X0014631Y0024536D01*
X0014752Y0024451D01*
X0014870Y0024362D01*
X0014986Y0024270D01*
X0015099Y0024174D01*
X0015210Y0024076D01*
X0015318Y0023975D01*
X0015424Y0023871D01*
X0015526Y0023765D01*
X0015626Y0023655D01*
X0015722Y0023543D01*
X0015816Y0023428D01*
X0015907Y0023311D01*
X0015994Y0023192D01*
X0016078Y0023070D01*
X0016159Y0022946D01*
X0016236Y0022820D01*
X0016310Y0022692D01*
X0016381Y0022562D01*
X0016448Y0022430D01*
X0016511Y0022296D01*
X0016571Y0022161D01*
X0016627Y0022024D01*
X0016680Y0021885D01*
X0016728Y0021745D01*
X0016773Y0021604D01*
X0016814Y0021462D01*
X0016852Y0021319D01*
X0016885Y0021175D01*
X0016915Y0021030D01*
X0016941Y0020884D01*
X0016962Y0020738D01*
X0016980Y0020591D01*
X0016994Y0020444D01*
X0017004Y0020296D01*
X0017010Y0020148D01*
X0017012Y0020000D01*
X0017010Y0019852D01*
X0017004Y0019704D01*
X0016994Y0019556D01*
X0016980Y0019409D01*
X0016962Y0019262D01*
X0016941Y0019116D01*
X0016915Y0018970D01*
X0016885Y0018825D01*
X0016852Y0018681D01*
X0016814Y0018538D01*
X0016773Y0018396D01*
X0016728Y0018255D01*
X0016680Y0018115D01*
X0016627Y0017976D01*
X0016571Y0017839D01*
X0016511Y0017704D01*
X0016448Y0017570D01*
X0016381Y0017438D01*
X0016310Y0017308D01*
X0016236Y0017180D01*
X0016159Y0017054D01*
X0016078Y0016930D01*
X0015994Y0016808D01*
X0015907Y0016689D01*
X0015816Y0016572D01*
X0015722Y0016457D01*
X0015626Y0016345D01*
X0015526Y0016235D01*
X0015424Y0016129D01*
X0015318Y0016025D01*
X0015210Y0015924D01*
X0015099Y0015826D01*
X0014986Y0015730D01*
X0014870Y0015638D01*
X0014752Y0015549D01*
X0014631Y0015464D01*
X0014508Y0015381D01*
X0014383Y0015302D01*
X0014256Y0015226D01*
X0014127Y0015154D01*
X0013996Y0015085D01*
X0013863Y0015020D01*
X0013728Y0014959D01*
X0013592Y0014901D01*
X0013455Y0014846D01*
X0013316Y0014796D01*
X0013175Y0014749D01*
X0013034Y0014706D01*
X0012891Y0014666D01*
X0012747Y0014631D01*
X0012603Y0014599D01*
X0012457Y0014572D01*
X0012311Y0014548D01*
X0012164Y0014528D01*
X0012017Y0014512D01*
X0011870Y0014500D01*
X0011722Y0014492D01*
X0011574Y0014488D01*
X0011426Y0014488D01*
X0011278Y0014492D01*
X0011130Y0014500D01*
X0010983Y0014512D01*
X0010836Y0014528D01*
X0010689Y0014548D01*
X0010543Y0014572D01*
X0010397Y0014599D01*
X0010253Y0014631D01*
X0010109Y0014666D01*
X0009966Y0014706D01*
X0009825Y0014749D01*
X0009684Y0014796D01*
X0009545Y0014846D01*
X0009408Y0014901D01*
X0009272Y0014959D01*
X0009137Y0015020D01*
X0009004Y0015085D01*
X0008873Y0015154D01*
X0008744Y0015226D01*
X0008617Y0015302D01*
X0008492Y0015381D01*
X0008369Y0015464D01*
X0008248Y0015549D01*
X0008130Y0015638D01*
X0008014Y0015730D01*
X0007901Y0015826D01*
X0007790Y0015924D01*
X0007682Y0016025D01*
X0007576Y0016129D01*
X0007474Y0016235D01*
X0007374Y0016345D01*
X0007278Y0016457D01*
X0007184Y0016572D01*
X0007093Y0016689D01*
X0007006Y0016808D01*
X0006922Y0016930D01*
X0006841Y0017054D01*
X0006764Y0017180D01*
X0006690Y0017308D01*
X0006619Y0017438D01*
X0006552Y0017570D01*
X0006489Y0017704D01*
X0006429Y0017839D01*
X0006373Y0017976D01*
X0006320Y0018115D01*
X0006272Y0018255D01*
X0006227Y0018396D01*
X0006186Y0018538D01*
X0006148Y0018681D01*
X0006115Y0018825D01*
X0006085Y0018970D01*
X0006059Y0019116D01*
X0006038Y0019262D01*
X0006020Y0019409D01*
X0006006Y0019556D01*
X0005996Y0019704D01*
X0005990Y0019852D01*
X0005988Y0020000D01*
X0250988Y0020000D02*
X0250990Y0020148D01*
X0250996Y0020296D01*
X0251006Y0020444D01*
X0251020Y0020591D01*
X0251038Y0020738D01*
X0251059Y0020884D01*
X0251085Y0021030D01*
X0251115Y0021175D01*
X0251148Y0021319D01*
X0251186Y0021462D01*
X0251227Y0021604D01*
X0251272Y0021745D01*
X0251320Y0021885D01*
X0251373Y0022024D01*
X0251429Y0022161D01*
X0251489Y0022296D01*
X0251552Y0022430D01*
X0251619Y0022562D01*
X0251690Y0022692D01*
X0251764Y0022820D01*
X0251841Y0022946D01*
X0251922Y0023070D01*
X0252006Y0023192D01*
X0252093Y0023311D01*
X0252184Y0023428D01*
X0252278Y0023543D01*
X0252374Y0023655D01*
X0252474Y0023765D01*
X0252576Y0023871D01*
X0252682Y0023975D01*
X0252790Y0024076D01*
X0252901Y0024174D01*
X0253014Y0024270D01*
X0253130Y0024362D01*
X0253248Y0024451D01*
X0253369Y0024536D01*
X0253492Y0024619D01*
X0253617Y0024698D01*
X0253744Y0024774D01*
X0253873Y0024846D01*
X0254004Y0024915D01*
X0254137Y0024980D01*
X0254272Y0025041D01*
X0254408Y0025099D01*
X0254545Y0025154D01*
X0254684Y0025204D01*
X0254825Y0025251D01*
X0254966Y0025294D01*
X0255109Y0025334D01*
X0255253Y0025369D01*
X0255397Y0025401D01*
X0255543Y0025428D01*
X0255689Y0025452D01*
X0255836Y0025472D01*
X0255983Y0025488D01*
X0256130Y0025500D01*
X0256278Y0025508D01*
X0256426Y0025512D01*
X0256574Y0025512D01*
X0256722Y0025508D01*
X0256870Y0025500D01*
X0257017Y0025488D01*
X0257164Y0025472D01*
X0257311Y0025452D01*
X0257457Y0025428D01*
X0257603Y0025401D01*
X0257747Y0025369D01*
X0257891Y0025334D01*
X0258034Y0025294D01*
X0258175Y0025251D01*
X0258316Y0025204D01*
X0258455Y0025154D01*
X0258592Y0025099D01*
X0258728Y0025041D01*
X0258863Y0024980D01*
X0258996Y0024915D01*
X0259127Y0024846D01*
X0259256Y0024774D01*
X0259383Y0024698D01*
X0259508Y0024619D01*
X0259631Y0024536D01*
X0259752Y0024451D01*
X0259870Y0024362D01*
X0259986Y0024270D01*
X0260099Y0024174D01*
X0260210Y0024076D01*
X0260318Y0023975D01*
X0260424Y0023871D01*
X0260526Y0023765D01*
X0260626Y0023655D01*
X0260722Y0023543D01*
X0260816Y0023428D01*
X0260907Y0023311D01*
X0260994Y0023192D01*
X0261078Y0023070D01*
X0261159Y0022946D01*
X0261236Y0022820D01*
X0261310Y0022692D01*
X0261381Y0022562D01*
X0261448Y0022430D01*
X0261511Y0022296D01*
X0261571Y0022161D01*
X0261627Y0022024D01*
X0261680Y0021885D01*
X0261728Y0021745D01*
X0261773Y0021604D01*
X0261814Y0021462D01*
X0261852Y0021319D01*
X0261885Y0021175D01*
X0261915Y0021030D01*
X0261941Y0020884D01*
X0261962Y0020738D01*
X0261980Y0020591D01*
X0261994Y0020444D01*
X0262004Y0020296D01*
X0262010Y0020148D01*
X0262012Y0020000D01*
X0262010Y0019852D01*
X0262004Y0019704D01*
X0261994Y0019556D01*
X0261980Y0019409D01*
X0261962Y0019262D01*
X0261941Y0019116D01*
X0261915Y0018970D01*
X0261885Y0018825D01*
X0261852Y0018681D01*
X0261814Y0018538D01*
X0261773Y0018396D01*
X0261728Y0018255D01*
X0261680Y0018115D01*
X0261627Y0017976D01*
X0261571Y0017839D01*
X0261511Y0017704D01*
X0261448Y0017570D01*
X0261381Y0017438D01*
X0261310Y0017308D01*
X0261236Y0017180D01*
X0261159Y0017054D01*
X0261078Y0016930D01*
X0260994Y0016808D01*
X0260907Y0016689D01*
X0260816Y0016572D01*
X0260722Y0016457D01*
X0260626Y0016345D01*
X0260526Y0016235D01*
X0260424Y0016129D01*
X0260318Y0016025D01*
X0260210Y0015924D01*
X0260099Y0015826D01*
X0259986Y0015730D01*
X0259870Y0015638D01*
X0259752Y0015549D01*
X0259631Y0015464D01*
X0259508Y0015381D01*
X0259383Y0015302D01*
X0259256Y0015226D01*
X0259127Y0015154D01*
X0258996Y0015085D01*
X0258863Y0015020D01*
X0258728Y0014959D01*
X0258592Y0014901D01*
X0258455Y0014846D01*
X0258316Y0014796D01*
X0258175Y0014749D01*
X0258034Y0014706D01*
X0257891Y0014666D01*
X0257747Y0014631D01*
X0257603Y0014599D01*
X0257457Y0014572D01*
X0257311Y0014548D01*
X0257164Y0014528D01*
X0257017Y0014512D01*
X0256870Y0014500D01*
X0256722Y0014492D01*
X0256574Y0014488D01*
X0256426Y0014488D01*
X0256278Y0014492D01*
X0256130Y0014500D01*
X0255983Y0014512D01*
X0255836Y0014528D01*
X0255689Y0014548D01*
X0255543Y0014572D01*
X0255397Y0014599D01*
X0255253Y0014631D01*
X0255109Y0014666D01*
X0254966Y0014706D01*
X0254825Y0014749D01*
X0254684Y0014796D01*
X0254545Y0014846D01*
X0254408Y0014901D01*
X0254272Y0014959D01*
X0254137Y0015020D01*
X0254004Y0015085D01*
X0253873Y0015154D01*
X0253744Y0015226D01*
X0253617Y0015302D01*
X0253492Y0015381D01*
X0253369Y0015464D01*
X0253248Y0015549D01*
X0253130Y0015638D01*
X0253014Y0015730D01*
X0252901Y0015826D01*
X0252790Y0015924D01*
X0252682Y0016025D01*
X0252576Y0016129D01*
X0252474Y0016235D01*
X0252374Y0016345D01*
X0252278Y0016457D01*
X0252184Y0016572D01*
X0252093Y0016689D01*
X0252006Y0016808D01*
X0251922Y0016930D01*
X0251841Y0017054D01*
X0251764Y0017180D01*
X0251690Y0017308D01*
X0251619Y0017438D01*
X0251552Y0017570D01*
X0251489Y0017704D01*
X0251429Y0017839D01*
X0251373Y0017976D01*
X0251320Y0018115D01*
X0251272Y0018255D01*
X0251227Y0018396D01*
X0251186Y0018538D01*
X0251148Y0018681D01*
X0251115Y0018825D01*
X0251085Y0018970D01*
X0251059Y0019116D01*
X0251038Y0019262D01*
X0251020Y0019409D01*
X0251006Y0019556D01*
X0250996Y0019704D01*
X0250990Y0019852D01*
X0250988Y0020000D01*
X0250988Y0240000D02*
X0250990Y0240148D01*
X0250996Y0240296D01*
X0251006Y0240444D01*
X0251020Y0240591D01*
X0251038Y0240738D01*
X0251059Y0240884D01*
X0251085Y0241030D01*
X0251115Y0241175D01*
X0251148Y0241319D01*
X0251186Y0241462D01*
X0251227Y0241604D01*
X0251272Y0241745D01*
X0251320Y0241885D01*
X0251373Y0242024D01*
X0251429Y0242161D01*
X0251489Y0242296D01*
X0251552Y0242430D01*
X0251619Y0242562D01*
X0251690Y0242692D01*
X0251764Y0242820D01*
X0251841Y0242946D01*
X0251922Y0243070D01*
X0252006Y0243192D01*
X0252093Y0243311D01*
X0252184Y0243428D01*
X0252278Y0243543D01*
X0252374Y0243655D01*
X0252474Y0243765D01*
X0252576Y0243871D01*
X0252682Y0243975D01*
X0252790Y0244076D01*
X0252901Y0244174D01*
X0253014Y0244270D01*
X0253130Y0244362D01*
X0253248Y0244451D01*
X0253369Y0244536D01*
X0253492Y0244619D01*
X0253617Y0244698D01*
X0253744Y0244774D01*
X0253873Y0244846D01*
X0254004Y0244915D01*
X0254137Y0244980D01*
X0254272Y0245041D01*
X0254408Y0245099D01*
X0254545Y0245154D01*
X0254684Y0245204D01*
X0254825Y0245251D01*
X0254966Y0245294D01*
X0255109Y0245334D01*
X0255253Y0245369D01*
X0255397Y0245401D01*
X0255543Y0245428D01*
X0255689Y0245452D01*
X0255836Y0245472D01*
X0255983Y0245488D01*
X0256130Y0245500D01*
X0256278Y0245508D01*
X0256426Y0245512D01*
X0256574Y0245512D01*
X0256722Y0245508D01*
X0256870Y0245500D01*
X0257017Y0245488D01*
X0257164Y0245472D01*
X0257311Y0245452D01*
X0257457Y0245428D01*
X0257603Y0245401D01*
X0257747Y0245369D01*
X0257891Y0245334D01*
X0258034Y0245294D01*
X0258175Y0245251D01*
X0258316Y0245204D01*
X0258455Y0245154D01*
X0258592Y0245099D01*
X0258728Y0245041D01*
X0258863Y0244980D01*
X0258996Y0244915D01*
X0259127Y0244846D01*
X0259256Y0244774D01*
X0259383Y0244698D01*
X0259508Y0244619D01*
X0259631Y0244536D01*
X0259752Y0244451D01*
X0259870Y0244362D01*
X0259986Y0244270D01*
X0260099Y0244174D01*
X0260210Y0244076D01*
X0260318Y0243975D01*
X0260424Y0243871D01*
X0260526Y0243765D01*
X0260626Y0243655D01*
X0260722Y0243543D01*
X0260816Y0243428D01*
X0260907Y0243311D01*
X0260994Y0243192D01*
X0261078Y0243070D01*
X0261159Y0242946D01*
X0261236Y0242820D01*
X0261310Y0242692D01*
X0261381Y0242562D01*
X0261448Y0242430D01*
X0261511Y0242296D01*
X0261571Y0242161D01*
X0261627Y0242024D01*
X0261680Y0241885D01*
X0261728Y0241745D01*
X0261773Y0241604D01*
X0261814Y0241462D01*
X0261852Y0241319D01*
X0261885Y0241175D01*
X0261915Y0241030D01*
X0261941Y0240884D01*
X0261962Y0240738D01*
X0261980Y0240591D01*
X0261994Y0240444D01*
X0262004Y0240296D01*
X0262010Y0240148D01*
X0262012Y0240000D01*
X0262010Y0239852D01*
X0262004Y0239704D01*
X0261994Y0239556D01*
X0261980Y0239409D01*
X0261962Y0239262D01*
X0261941Y0239116D01*
X0261915Y0238970D01*
X0261885Y0238825D01*
X0261852Y0238681D01*
X0261814Y0238538D01*
X0261773Y0238396D01*
X0261728Y0238255D01*
X0261680Y0238115D01*
X0261627Y0237976D01*
X0261571Y0237839D01*
X0261511Y0237704D01*
X0261448Y0237570D01*
X0261381Y0237438D01*
X0261310Y0237308D01*
X0261236Y0237180D01*
X0261159Y0237054D01*
X0261078Y0236930D01*
X0260994Y0236808D01*
X0260907Y0236689D01*
X0260816Y0236572D01*
X0260722Y0236457D01*
X0260626Y0236345D01*
X0260526Y0236235D01*
X0260424Y0236129D01*
X0260318Y0236025D01*
X0260210Y0235924D01*
X0260099Y0235826D01*
X0259986Y0235730D01*
X0259870Y0235638D01*
X0259752Y0235549D01*
X0259631Y0235464D01*
X0259508Y0235381D01*
X0259383Y0235302D01*
X0259256Y0235226D01*
X0259127Y0235154D01*
X0258996Y0235085D01*
X0258863Y0235020D01*
X0258728Y0234959D01*
X0258592Y0234901D01*
X0258455Y0234846D01*
X0258316Y0234796D01*
X0258175Y0234749D01*
X0258034Y0234706D01*
X0257891Y0234666D01*
X0257747Y0234631D01*
X0257603Y0234599D01*
X0257457Y0234572D01*
X0257311Y0234548D01*
X0257164Y0234528D01*
X0257017Y0234512D01*
X0256870Y0234500D01*
X0256722Y0234492D01*
X0256574Y0234488D01*
X0256426Y0234488D01*
X0256278Y0234492D01*
X0256130Y0234500D01*
X0255983Y0234512D01*
X0255836Y0234528D01*
X0255689Y0234548D01*
X0255543Y0234572D01*
X0255397Y0234599D01*
X0255253Y0234631D01*
X0255109Y0234666D01*
X0254966Y0234706D01*
X0254825Y0234749D01*
X0254684Y0234796D01*
X0254545Y0234846D01*
X0254408Y0234901D01*
X0254272Y0234959D01*
X0254137Y0235020D01*
X0254004Y0235085D01*
X0253873Y0235154D01*
X0253744Y0235226D01*
X0253617Y0235302D01*
X0253492Y0235381D01*
X0253369Y0235464D01*
X0253248Y0235549D01*
X0253130Y0235638D01*
X0253014Y0235730D01*
X0252901Y0235826D01*
X0252790Y0235924D01*
X0252682Y0236025D01*
X0252576Y0236129D01*
X0252474Y0236235D01*
X0252374Y0236345D01*
X0252278Y0236457D01*
X0252184Y0236572D01*
X0252093Y0236689D01*
X0252006Y0236808D01*
X0251922Y0236930D01*
X0251841Y0237054D01*
X0251764Y0237180D01*
X0251690Y0237308D01*
X0251619Y0237438D01*
X0251552Y0237570D01*
X0251489Y0237704D01*
X0251429Y0237839D01*
X0251373Y0237976D01*
X0251320Y0238115D01*
X0251272Y0238255D01*
X0251227Y0238396D01*
X0251186Y0238538D01*
X0251148Y0238681D01*
X0251115Y0238825D01*
X0251085Y0238970D01*
X0251059Y0239116D01*
X0251038Y0239262D01*
X0251020Y0239409D01*
X0251006Y0239556D01*
X0250996Y0239704D01*
X0250990Y0239852D01*
X0250988Y0240000D01*
X0005988Y0240000D02*
X0005990Y0240148D01*
X0005996Y0240296D01*
X0006006Y0240444D01*
X0006020Y0240591D01*
X0006038Y0240738D01*
X0006059Y0240884D01*
X0006085Y0241030D01*
X0006115Y0241175D01*
X0006148Y0241319D01*
X0006186Y0241462D01*
X0006227Y0241604D01*
X0006272Y0241745D01*
X0006320Y0241885D01*
X0006373Y0242024D01*
X0006429Y0242161D01*
X0006489Y0242296D01*
X0006552Y0242430D01*
X0006619Y0242562D01*
X0006690Y0242692D01*
X0006764Y0242820D01*
X0006841Y0242946D01*
X0006922Y0243070D01*
X0007006Y0243192D01*
X0007093Y0243311D01*
X0007184Y0243428D01*
X0007278Y0243543D01*
X0007374Y0243655D01*
X0007474Y0243765D01*
X0007576Y0243871D01*
X0007682Y0243975D01*
X0007790Y0244076D01*
X0007901Y0244174D01*
X0008014Y0244270D01*
X0008130Y0244362D01*
X0008248Y0244451D01*
X0008369Y0244536D01*
X0008492Y0244619D01*
X0008617Y0244698D01*
X0008744Y0244774D01*
X0008873Y0244846D01*
X0009004Y0244915D01*
X0009137Y0244980D01*
X0009272Y0245041D01*
X0009408Y0245099D01*
X0009545Y0245154D01*
X0009684Y0245204D01*
X0009825Y0245251D01*
X0009966Y0245294D01*
X0010109Y0245334D01*
X0010253Y0245369D01*
X0010397Y0245401D01*
X0010543Y0245428D01*
X0010689Y0245452D01*
X0010836Y0245472D01*
X0010983Y0245488D01*
X0011130Y0245500D01*
X0011278Y0245508D01*
X0011426Y0245512D01*
X0011574Y0245512D01*
X0011722Y0245508D01*
X0011870Y0245500D01*
X0012017Y0245488D01*
X0012164Y0245472D01*
X0012311Y0245452D01*
X0012457Y0245428D01*
X0012603Y0245401D01*
X0012747Y0245369D01*
X0012891Y0245334D01*
X0013034Y0245294D01*
X0013175Y0245251D01*
X0013316Y0245204D01*
X0013455Y0245154D01*
X0013592Y0245099D01*
X0013728Y0245041D01*
X0013863Y0244980D01*
X0013996Y0244915D01*
X0014127Y0244846D01*
X0014256Y0244774D01*
X0014383Y0244698D01*
X0014508Y0244619D01*
X0014631Y0244536D01*
X0014752Y0244451D01*
X0014870Y0244362D01*
X0014986Y0244270D01*
X0015099Y0244174D01*
X0015210Y0244076D01*
X0015318Y0243975D01*
X0015424Y0243871D01*
X0015526Y0243765D01*
X0015626Y0243655D01*
X0015722Y0243543D01*
X0015816Y0243428D01*
X0015907Y0243311D01*
X0015994Y0243192D01*
X0016078Y0243070D01*
X0016159Y0242946D01*
X0016236Y0242820D01*
X0016310Y0242692D01*
X0016381Y0242562D01*
X0016448Y0242430D01*
X0016511Y0242296D01*
X0016571Y0242161D01*
X0016627Y0242024D01*
X0016680Y0241885D01*
X0016728Y0241745D01*
X0016773Y0241604D01*
X0016814Y0241462D01*
X0016852Y0241319D01*
X0016885Y0241175D01*
X0016915Y0241030D01*
X0016941Y0240884D01*
X0016962Y0240738D01*
X0016980Y0240591D01*
X0016994Y0240444D01*
X0017004Y0240296D01*
X0017010Y0240148D01*
X0017012Y0240000D01*
X0017010Y0239852D01*
X0017004Y0239704D01*
X0016994Y0239556D01*
X0016980Y0239409D01*
X0016962Y0239262D01*
X0016941Y0239116D01*
X0016915Y0238970D01*
X0016885Y0238825D01*
X0016852Y0238681D01*
X0016814Y0238538D01*
X0016773Y0238396D01*
X0016728Y0238255D01*
X0016680Y0238115D01*
X0016627Y0237976D01*
X0016571Y0237839D01*
X0016511Y0237704D01*
X0016448Y0237570D01*
X0016381Y0237438D01*
X0016310Y0237308D01*
X0016236Y0237180D01*
X0016159Y0237054D01*
X0016078Y0236930D01*
X0015994Y0236808D01*
X0015907Y0236689D01*
X0015816Y0236572D01*
X0015722Y0236457D01*
X0015626Y0236345D01*
X0015526Y0236235D01*
X0015424Y0236129D01*
X0015318Y0236025D01*
X0015210Y0235924D01*
X0015099Y0235826D01*
X0014986Y0235730D01*
X0014870Y0235638D01*
X0014752Y0235549D01*
X0014631Y0235464D01*
X0014508Y0235381D01*
X0014383Y0235302D01*
X0014256Y0235226D01*
X0014127Y0235154D01*
X0013996Y0235085D01*
X0013863Y0235020D01*
X0013728Y0234959D01*
X0013592Y0234901D01*
X0013455Y0234846D01*
X0013316Y0234796D01*
X0013175Y0234749D01*
X0013034Y0234706D01*
X0012891Y0234666D01*
X0012747Y0234631D01*
X0012603Y0234599D01*
X0012457Y0234572D01*
X0012311Y0234548D01*
X0012164Y0234528D01*
X0012017Y0234512D01*
X0011870Y0234500D01*
X0011722Y0234492D01*
X0011574Y0234488D01*
X0011426Y0234488D01*
X0011278Y0234492D01*
X0011130Y0234500D01*
X0010983Y0234512D01*
X0010836Y0234528D01*
X0010689Y0234548D01*
X0010543Y0234572D01*
X0010397Y0234599D01*
X0010253Y0234631D01*
X0010109Y0234666D01*
X0009966Y0234706D01*
X0009825Y0234749D01*
X0009684Y0234796D01*
X0009545Y0234846D01*
X0009408Y0234901D01*
X0009272Y0234959D01*
X0009137Y0235020D01*
X0009004Y0235085D01*
X0008873Y0235154D01*
X0008744Y0235226D01*
X0008617Y0235302D01*
X0008492Y0235381D01*
X0008369Y0235464D01*
X0008248Y0235549D01*
X0008130Y0235638D01*
X0008014Y0235730D01*
X0007901Y0235826D01*
X0007790Y0235924D01*
X0007682Y0236025D01*
X0007576Y0236129D01*
X0007474Y0236235D01*
X0007374Y0236345D01*
X0007278Y0236457D01*
X0007184Y0236572D01*
X0007093Y0236689D01*
X0007006Y0236808D01*
X0006922Y0236930D01*
X0006841Y0237054D01*
X0006764Y0237180D01*
X0006690Y0237308D01*
X0006619Y0237438D01*
X0006552Y0237570D01*
X0006489Y0237704D01*
X0006429Y0237839D01*
X0006373Y0237976D01*
X0006320Y0238115D01*
X0006272Y0238255D01*
X0006227Y0238396D01*
X0006186Y0238538D01*
X0006148Y0238681D01*
X0006115Y0238825D01*
X0006085Y0238970D01*
X0006059Y0239116D01*
X0006038Y0239262D01*
X0006020Y0239409D01*
X0006006Y0239556D01*
X0005996Y0239704D01*
X0005990Y0239852D01*
X0005988Y0240000D01*
D11*
X0031700Y0233933D02*
X0032567Y0234800D01*
X0031700Y0233933D02*
X0031700Y0232198D01*
X0032567Y0231330D01*
X0033435Y0231330D01*
X0034302Y0232198D01*
X0034302Y0233933D01*
X0035170Y0234800D01*
X0036037Y0234800D01*
X0036904Y0233933D01*
X0036904Y0232198D01*
X0036037Y0231330D01*
X0036904Y0229644D02*
X0031700Y0229644D01*
X0034302Y0229644D02*
X0035170Y0228776D01*
X0035170Y0227041D01*
X0034302Y0226174D01*
X0031700Y0226174D01*
X0032567Y0224487D02*
X0034302Y0224487D01*
X0035170Y0223620D01*
X0035170Y0221885D01*
X0034302Y0221018D01*
X0033435Y0221018D01*
X0033435Y0224487D01*
X0032567Y0224487D02*
X0031700Y0223620D01*
X0031700Y0221885D01*
X0034302Y0219331D02*
X0034302Y0217596D01*
X0034302Y0215893D02*
X0034302Y0214158D01*
X0035170Y0212456D02*
X0035170Y0211588D01*
X0031700Y0211588D01*
X0031700Y0210721D02*
X0031700Y0212456D01*
X0031700Y0215026D02*
X0036037Y0215026D01*
X0036904Y0214158D01*
X0036904Y0211588D02*
X0037772Y0211588D01*
X0041780Y0211572D02*
X0042647Y0210705D01*
X0041780Y0211572D02*
X0041780Y0213307D01*
X0042647Y0214174D01*
X0046117Y0214174D01*
X0046984Y0213307D01*
X0046984Y0211572D01*
X0046117Y0210705D01*
X0044382Y0209018D02*
X0045250Y0208151D01*
X0045250Y0206416D01*
X0044382Y0205548D01*
X0042647Y0205548D01*
X0041780Y0206416D01*
X0041780Y0208151D01*
X0042647Y0209018D01*
X0044382Y0209018D01*
X0045250Y0203862D02*
X0041780Y0203862D01*
X0045250Y0203862D02*
X0045250Y0201259D01*
X0044382Y0200392D01*
X0041780Y0200392D01*
X0042647Y0197838D02*
X0041780Y0196970D01*
X0042647Y0197838D02*
X0046117Y0197838D01*
X0045250Y0198705D02*
X0045250Y0196970D01*
X0045250Y0195268D02*
X0041780Y0195268D01*
X0043515Y0195268D02*
X0045250Y0193533D01*
X0045250Y0192665D01*
X0044382Y0190971D02*
X0042647Y0190971D01*
X0041780Y0190103D01*
X0041780Y0188368D01*
X0042647Y0187501D01*
X0044382Y0187501D01*
X0045250Y0188368D01*
X0045250Y0190103D01*
X0044382Y0190971D01*
X0041780Y0185814D02*
X0041780Y0184079D01*
X0041780Y0184947D02*
X0046984Y0184947D01*
X0046984Y0185814D01*
X0046984Y0182377D02*
X0046984Y0181509D01*
X0041780Y0181509D01*
X0041780Y0180642D02*
X0041780Y0182377D01*
X0042647Y0178939D02*
X0044382Y0178939D01*
X0045250Y0178072D01*
X0045250Y0176337D01*
X0044382Y0175469D01*
X0043515Y0175469D01*
X0043515Y0178939D01*
X0042647Y0178939D02*
X0041780Y0178072D01*
X0041780Y0176337D01*
X0041780Y0173783D02*
X0045250Y0173783D01*
X0043515Y0173783D02*
X0045250Y0172048D01*
X0045250Y0171180D01*
X0036037Y0168618D02*
X0032567Y0168618D01*
X0031700Y0167751D01*
X0031700Y0166048D02*
X0031700Y0164313D01*
X0031700Y0165181D02*
X0035170Y0165181D01*
X0035170Y0166048D01*
X0035170Y0167751D02*
X0035170Y0169486D01*
X0034302Y0171172D02*
X0032567Y0171172D01*
X0031700Y0172040D01*
X0031700Y0173775D01*
X0032567Y0174642D01*
X0034302Y0174642D01*
X0035170Y0173775D01*
X0035170Y0172040D01*
X0034302Y0171172D01*
X0034302Y0176329D02*
X0032567Y0176329D01*
X0031700Y0177196D01*
X0031700Y0179798D01*
X0036904Y0179798D01*
X0035170Y0179798D02*
X0035170Y0177196D01*
X0034302Y0176329D01*
X0034302Y0181485D02*
X0032567Y0181485D01*
X0031700Y0182353D01*
X0031700Y0184087D01*
X0032567Y0184955D01*
X0034302Y0184955D01*
X0035170Y0184087D01*
X0035170Y0182353D01*
X0034302Y0181485D01*
X0034302Y0186642D02*
X0033435Y0187509D01*
X0033435Y0190111D01*
X0033435Y0188376D02*
X0031700Y0186642D01*
X0034302Y0186642D02*
X0036037Y0186642D01*
X0036904Y0187509D01*
X0036904Y0190111D01*
X0031700Y0190111D01*
X0031700Y0196954D02*
X0031700Y0199557D01*
X0032567Y0200424D01*
X0034302Y0200424D01*
X0035170Y0199557D01*
X0035170Y0196954D01*
X0036904Y0196954D02*
X0031700Y0196954D01*
X0031700Y0202127D02*
X0031700Y0203862D01*
X0031700Y0202994D02*
X0036904Y0202994D01*
X0036904Y0203862D01*
X0035170Y0206416D02*
X0034302Y0205548D01*
X0033435Y0205548D01*
X0033435Y0209018D01*
X0034302Y0209018D02*
X0035170Y0208151D01*
X0035170Y0206416D01*
X0034302Y0209018D02*
X0032567Y0209018D01*
X0031700Y0208151D01*
X0031700Y0206416D01*
X0031700Y0218463D02*
X0036037Y0218463D01*
X0036904Y0217596D01*
X0041780Y0221018D02*
X0044382Y0223620D01*
X0043515Y0224487D02*
X0046984Y0221018D01*
X0046984Y0224487D02*
X0041780Y0224487D01*
X0041780Y0226174D02*
X0043515Y0227909D01*
X0043515Y0227041D02*
X0043515Y0229644D01*
X0041780Y0229644D02*
X0046984Y0229644D01*
X0046984Y0227041D01*
X0046117Y0226174D01*
X0044382Y0226174D01*
X0043515Y0227041D01*
X0044382Y0231330D02*
X0044382Y0234800D01*
X0045250Y0234800D02*
X0046984Y0233065D01*
X0045250Y0231330D01*
X0041780Y0231330D01*
X0041780Y0234800D02*
X0045250Y0234800D01*
X0037772Y0165181D02*
X0036904Y0165181D01*
X0034302Y0162610D02*
X0032567Y0162610D01*
X0031700Y0161743D01*
X0031700Y0159141D01*
X0031700Y0157454D02*
X0031700Y0154852D01*
X0032567Y0153984D01*
X0033435Y0154852D01*
X0033435Y0156587D01*
X0034302Y0157454D01*
X0035170Y0156587D01*
X0035170Y0153984D01*
X0035170Y0159141D02*
X0035170Y0161743D01*
X0034302Y0162610D01*
D12*
X0068154Y0165000D03*
X0074846Y0165000D03*
X0098154Y0165000D03*
X0104846Y0165000D03*
X0128154Y0165000D03*
X0134846Y0165000D03*
X0158154Y0165000D03*
X0164846Y0165000D03*
X0188154Y0165000D03*
X0194846Y0165000D03*
X0218154Y0165000D03*
X0224846Y0165000D03*
X0223154Y0145000D03*
X0229846Y0145000D03*
X0229846Y0130000D03*
X0223154Y0130000D03*
X0223154Y0115000D03*
X0229846Y0115000D03*
X0229846Y0100000D03*
X0223154Y0100000D03*
X0223154Y0085000D03*
X0229846Y0085000D03*
X0179846Y0060000D03*
X0173154Y0060000D03*
X0159846Y0060000D03*
X0153154Y0060000D03*
D13*
X0126500Y0061654D03*
X0126500Y0068346D03*
X0106500Y0068346D03*
X0106500Y0061654D03*
X0086500Y0061654D03*
X0086500Y0068346D03*
X0086500Y0086654D03*
X0086500Y0093346D03*
X0071500Y0093346D03*
X0071500Y0086654D03*
X0071500Y0186654D03*
X0071500Y0193346D03*
X0101500Y0193346D03*
X0101500Y0186654D03*
X0131500Y0186654D03*
X0131500Y0193346D03*
X0156500Y0193346D03*
X0156500Y0186654D03*
X0181500Y0186654D03*
X0181500Y0193346D03*
X0206500Y0193346D03*
X0206500Y0186654D03*
D14*
X0196421Y0040000D03*
X0186579Y0040000D03*
D15*
X0131500Y0115000D03*
X0121500Y0115000D03*
X0121500Y0125000D03*
X0131500Y0125000D03*
X0131500Y0135000D03*
X0121500Y0135000D03*
D16*
X0226500Y0059637D03*
D17*
X0241309Y0047126D03*
X0226600Y0030815D03*
D18*
X0186500Y0023200D02*
X0186500Y0016800D01*
X0176500Y0016800D02*
X0176500Y0023200D01*
X0146500Y0231800D02*
X0146500Y0238200D01*
X0136500Y0238200D02*
X0136500Y0231800D01*
X0126500Y0231800D02*
X0126500Y0238200D01*
X0116500Y0238200D02*
X0116500Y0231800D01*
X0106500Y0231800D02*
X0106500Y0238200D01*
X0096500Y0238200D02*
X0096500Y0231800D01*
D19*
X0106500Y0092953D03*
X0106500Y0087047D03*
X0126500Y0087047D03*
X0126500Y0092953D03*
D20*
X0104000Y0041000D03*
X0089000Y0041000D03*
X0089000Y0019000D03*
X0104000Y0019000D03*
D21*
X0105240Y0211063D03*
X0097760Y0211063D03*
X0101500Y0218937D03*
X0080240Y0211063D03*
X0072760Y0211063D03*
X0076500Y0218937D03*
X0122760Y0211063D03*
X0130240Y0211063D03*
X0126500Y0218937D03*
X0147760Y0211063D03*
X0155240Y0211063D03*
X0151500Y0218937D03*
X0172760Y0211063D03*
X0180240Y0211063D03*
X0176500Y0218937D03*
X0197760Y0211063D03*
X0205240Y0211063D03*
X0201500Y0218937D03*
D22*
X0198400Y0136024D03*
X0198400Y0132874D03*
X0198400Y0129724D03*
X0198400Y0126575D03*
X0198400Y0123425D03*
X0198400Y0120276D03*
X0198400Y0117126D03*
X0198400Y0113976D03*
X0164600Y0113976D03*
X0164600Y0117126D03*
X0164600Y0120276D03*
X0164600Y0123425D03*
X0164600Y0126575D03*
X0164600Y0129724D03*
X0164600Y0132874D03*
X0164600Y0136024D03*
D23*
X0170476Y0141900D03*
X0173626Y0141900D03*
X0176776Y0141900D03*
X0179925Y0141900D03*
X0183075Y0141900D03*
X0186224Y0141900D03*
X0189374Y0141900D03*
X0192524Y0141900D03*
X0192524Y0108100D03*
X0189374Y0108100D03*
X0186224Y0108100D03*
X0183075Y0108100D03*
X0179925Y0108100D03*
X0176776Y0108100D03*
X0173626Y0108100D03*
X0170476Y0108100D03*
D24*
X0083134Y0110606D03*
X0080575Y0110606D03*
X0078016Y0110606D03*
X0075457Y0110606D03*
X0072898Y0110606D03*
X0070339Y0110606D03*
X0067780Y0110606D03*
X0065220Y0110606D03*
X0062661Y0110606D03*
X0060102Y0110606D03*
X0057543Y0110606D03*
X0054984Y0110606D03*
X0052425Y0110606D03*
X0049866Y0110606D03*
X0049866Y0139394D03*
X0052425Y0139394D03*
X0054984Y0139394D03*
X0057543Y0139394D03*
X0060102Y0139394D03*
X0062661Y0139394D03*
X0065220Y0139394D03*
X0067780Y0139394D03*
X0070339Y0139394D03*
X0072898Y0139394D03*
X0075457Y0139394D03*
X0078016Y0139394D03*
X0080575Y0139394D03*
X0083134Y0139394D03*
D25*
X0051421Y0062800D03*
X0051421Y0055000D03*
X0041579Y0055000D03*
X0041579Y0062800D03*
D26*
X0022800Y0044300D03*
X0070200Y0044300D03*
D27*
X0157000Y0080000D03*
X0176000Y0080000D03*
D28*
X0159020Y0030000D03*
X0123980Y0030000D03*
D29*
X0129900Y0030000D01*
X0159500Y0059600D01*
X0159846Y0060000D01*
X0160300Y0060400D01*
X0173100Y0060400D01*
X0173154Y0060000D01*
X0173900Y0059600D01*
X0193100Y0040400D01*
X0196300Y0040400D01*
X0196421Y0040000D01*
X0186700Y0020400D02*
X0186500Y0020000D01*
X0185900Y0020400D01*
X0177100Y0020400D01*
X0176500Y0020000D01*
X0176300Y0020400D01*
X0169100Y0020400D01*
X0159500Y0030000D01*
X0159020Y0030000D01*
X0186700Y0020400D02*
X0225900Y0059600D01*
X0226500Y0059637D01*
X0225900Y0060400D01*
X0223500Y0062800D01*
X0223500Y0084400D01*
X0223154Y0085000D01*
X0223500Y0085200D01*
X0223500Y0099600D01*
X0223154Y0100000D01*
X0223500Y0100400D01*
X0223500Y0114800D01*
X0223154Y0115000D01*
X0223500Y0115600D01*
X0223500Y0130000D01*
X0223154Y0130000D01*
X0229846Y0130000D02*
X0229900Y0130000D01*
X0229900Y0115600D01*
X0229846Y0115000D01*
X0229900Y0114800D01*
X0229900Y0100400D01*
X0229846Y0100000D01*
X0229900Y0099600D01*
X0229900Y0085200D01*
X0229846Y0085000D01*
X0229900Y0084400D01*
X0229900Y0070000D01*
X0241100Y0058800D01*
X0241100Y0047600D01*
X0241309Y0047126D01*
X0241900Y0046800D01*
X0226700Y0031600D01*
X0226600Y0030815D01*
X0179846Y0060000D02*
X0179500Y0060400D01*
X0179500Y0076400D01*
X0176300Y0079600D01*
X0176000Y0080000D01*
X0175500Y0080400D01*
X0167500Y0088400D01*
X0167500Y0110800D01*
X0168300Y0111600D01*
X0168300Y0115600D01*
X0167500Y0116400D01*
X0165100Y0116400D01*
X0164600Y0117126D01*
X0164600Y0113976D02*
X0164300Y0113200D01*
X0164300Y0087600D01*
X0157100Y0080400D01*
X0157000Y0080000D01*
X0156300Y0079600D01*
X0153900Y0077200D01*
X0153900Y0060400D01*
X0153154Y0060000D01*
X0129900Y0065200D02*
X0126700Y0062000D01*
X0126500Y0061654D01*
X0125900Y0062000D01*
X0106700Y0062000D01*
X0106500Y0061654D01*
X0105900Y0061200D01*
X0101100Y0056400D01*
X0101100Y0024400D01*
X0091500Y0014800D01*
X0086700Y0014800D01*
X0085900Y0015600D01*
X0085900Y0061200D01*
X0086500Y0061654D01*
X0085900Y0062000D01*
X0075500Y0072400D01*
X0053100Y0050000D01*
X0049900Y0050000D01*
X0046700Y0053200D01*
X0046700Y0058800D01*
X0050700Y0062800D01*
X0051421Y0062800D01*
X0051500Y0062800D01*
X0062700Y0074000D01*
X0062700Y0110000D01*
X0062661Y0110606D01*
X0065100Y0110800D02*
X0065100Y0114000D01*
X0064300Y0114800D01*
X0058700Y0114800D01*
X0057900Y0114000D01*
X0057900Y0110800D01*
X0057543Y0110606D01*
X0052425Y0110606D02*
X0052300Y0110000D01*
X0052300Y0073200D01*
X0041900Y0062800D01*
X0041579Y0062800D01*
X0036300Y0064400D02*
X0036300Y0060400D01*
X0041100Y0055600D01*
X0041579Y0055000D01*
X0051421Y0055000D02*
X0051500Y0055600D01*
X0071500Y0075600D01*
X0071500Y0086654D01*
X0071500Y0086800D01*
X0065100Y0093200D01*
X0065100Y0110000D01*
X0065220Y0110606D01*
X0065100Y0110800D01*
X0067780Y0110606D02*
X0068300Y0110000D01*
X0068300Y0106800D01*
X0069100Y0106000D01*
X0086700Y0106000D01*
X0099500Y0093200D01*
X0105900Y0093200D01*
X0106500Y0092953D01*
X0109100Y0090000D02*
X0109900Y0090800D01*
X0109900Y0106800D01*
X0081100Y0135600D01*
X0081100Y0138800D01*
X0080575Y0139394D01*
X0083134Y0139394D02*
X0083500Y0138800D01*
X0111500Y0110800D01*
X0111500Y0102800D01*
X0124300Y0090000D01*
X0129100Y0090000D01*
X0138700Y0099600D01*
X0138700Y0118800D01*
X0165900Y0146000D01*
X0175500Y0146000D01*
X0176300Y0145200D01*
X0176300Y0142000D01*
X0176776Y0141900D01*
X0179500Y0142000D02*
X0179925Y0141900D01*
X0179500Y0142000D02*
X0179500Y0145200D01*
X0177100Y0147600D01*
X0143500Y0147600D01*
X0131500Y0135600D01*
X0131500Y0135000D01*
X0133900Y0130000D02*
X0119500Y0130000D01*
X0104300Y0145200D01*
X0049900Y0145200D01*
X0047500Y0142800D01*
X0047500Y0136400D01*
X0069900Y0114000D01*
X0069900Y0110800D01*
X0070339Y0110606D01*
X0075457Y0110606D02*
X0075500Y0110800D01*
X0075500Y0125200D01*
X0079500Y0125200D01*
X0075500Y0125200D02*
X0065900Y0134800D01*
X0067500Y0136400D01*
X0067500Y0138800D01*
X0067780Y0139394D01*
X0065900Y0134800D02*
X0059500Y0134800D01*
X0057900Y0136400D01*
X0057900Y0138800D01*
X0057543Y0139394D01*
X0072898Y0139394D02*
X0073100Y0138800D01*
X0073100Y0136400D01*
X0102700Y0106800D01*
X0097100Y0093200D02*
X0086700Y0093200D01*
X0086500Y0093346D01*
X0091500Y0090000D02*
X0088300Y0086800D01*
X0086700Y0086800D01*
X0086500Y0086654D01*
X0086700Y0086000D01*
X0086700Y0068400D01*
X0086500Y0068346D01*
X0086700Y0067600D01*
X0089900Y0064400D01*
X0089900Y0042000D01*
X0089100Y0041200D01*
X0089000Y0041000D01*
X0089100Y0040400D01*
X0089100Y0019600D01*
X0089000Y0019000D01*
X0104000Y0019000D02*
X0104300Y0019600D01*
X0104300Y0030000D01*
X0123980Y0030000D01*
X0104300Y0030000D02*
X0104300Y0040400D01*
X0104000Y0041000D01*
X0129900Y0065200D02*
X0129900Y0088400D01*
X0151500Y0110000D01*
X0161900Y0120400D01*
X0160300Y0122000D01*
X0160300Y0125200D01*
X0161100Y0126000D01*
X0164300Y0126000D01*
X0164600Y0126575D01*
X0165100Y0129200D02*
X0164600Y0129724D01*
X0164300Y0130000D01*
X0157100Y0130000D01*
X0165100Y0129200D02*
X0167500Y0129200D01*
X0168300Y0128400D01*
X0168300Y0124400D01*
X0167500Y0123600D01*
X0165100Y0123600D01*
X0164600Y0123425D01*
X0164300Y0120400D02*
X0161900Y0120400D01*
X0164300Y0120400D02*
X0164600Y0120276D01*
X0180300Y0123600D02*
X0180300Y0108400D01*
X0179925Y0108100D01*
X0183075Y0108100D02*
X0183500Y0108400D01*
X0183500Y0110800D01*
X0185100Y0112400D01*
X0193900Y0112400D01*
X0194700Y0111600D01*
X0201900Y0111600D01*
X0202700Y0112400D01*
X0202700Y0120600D01*
X0220300Y0138200D01*
X0224300Y0138200D01*
X0233900Y0137800D01*
X0233900Y0172400D01*
X0201900Y0204400D01*
X0201900Y0212400D01*
X0199500Y0214800D01*
X0196300Y0214800D01*
X0181900Y0200400D01*
X0181900Y0194000D01*
X0181500Y0193346D01*
X0181100Y0186800D02*
X0181500Y0186654D01*
X0181900Y0186000D01*
X0187500Y0180400D01*
X0187500Y0165200D01*
X0188154Y0165000D01*
X0191500Y0161200D02*
X0161900Y0161200D01*
X0158700Y0164400D01*
X0158154Y0165000D01*
X0157900Y0165200D01*
X0135500Y0165200D01*
X0134846Y0165000D01*
X0134700Y0164400D01*
X0131500Y0161200D01*
X0131500Y0146800D01*
X0131500Y0142000D02*
X0133100Y0142000D01*
X0131500Y0142000D02*
X0126700Y0146800D01*
X0080300Y0146800D01*
X0064300Y0162800D01*
X0064300Y0171600D01*
X0071500Y0178800D01*
X0071500Y0186654D01*
X0074700Y0190000D02*
X0071500Y0193200D01*
X0071500Y0193346D01*
X0071500Y0194000D01*
X0072300Y0194800D01*
X0072300Y0210800D01*
X0072760Y0211063D01*
X0080240Y0211063D02*
X0080300Y0210800D01*
X0080300Y0165200D01*
X0075500Y0165200D01*
X0074846Y0165000D01*
X0080300Y0165200D02*
X0097900Y0165200D01*
X0098154Y0165000D01*
X0098700Y0164400D01*
X0101900Y0161200D01*
X0131500Y0161200D01*
X0128154Y0165000D02*
X0128300Y0165200D01*
X0128300Y0190000D01*
X0131500Y0193200D01*
X0131500Y0193346D01*
X0131500Y0194000D01*
X0123500Y0202000D01*
X0123500Y0210800D01*
X0122760Y0211063D01*
X0121100Y0214800D02*
X0126700Y0214800D01*
X0129900Y0211600D01*
X0130240Y0211063D01*
X0130700Y0211600D01*
X0142700Y0211600D01*
X0145900Y0214800D01*
X0151500Y0214800D01*
X0154700Y0211600D01*
X0155240Y0211063D01*
X0155500Y0211600D01*
X0158700Y0214800D01*
X0174700Y0214800D01*
X0177900Y0211600D01*
X0179500Y0211600D01*
X0180240Y0211063D01*
X0173100Y0210800D02*
X0172760Y0211063D01*
X0173100Y0210800D02*
X0173100Y0194800D01*
X0181100Y0186800D01*
X0164300Y0178800D02*
X0157100Y0186000D01*
X0156500Y0186654D01*
X0156300Y0186800D01*
X0148300Y0194800D01*
X0148300Y0210800D01*
X0147760Y0211063D01*
X0151500Y0218937D02*
X0151500Y0219600D01*
X0141900Y0219600D01*
X0126500Y0235000D01*
X0125900Y0226000D02*
X0117100Y0234800D01*
X0116500Y0235000D01*
X0106500Y0235000D02*
X0105900Y0234800D01*
X0101900Y0230800D01*
X0101900Y0219600D01*
X0101500Y0218937D01*
X0101900Y0214800D02*
X0105100Y0211600D01*
X0105240Y0211063D01*
X0105900Y0211600D01*
X0117900Y0211600D01*
X0121100Y0214800D01*
X0125900Y0219600D02*
X0126500Y0218937D01*
X0125900Y0219600D02*
X0125900Y0226000D01*
X0136500Y0235000D02*
X0137100Y0234800D01*
X0145100Y0226800D01*
X0149100Y0226800D01*
X0156300Y0219600D01*
X0176300Y0219600D01*
X0176500Y0218937D01*
X0181100Y0219600D02*
X0165900Y0234800D01*
X0146700Y0234800D01*
X0146500Y0235000D01*
X0181100Y0219600D02*
X0201100Y0219600D01*
X0201500Y0218937D01*
X0197760Y0211063D02*
X0197900Y0210800D01*
X0197900Y0202000D01*
X0205900Y0194000D01*
X0206500Y0193346D01*
X0206700Y0193200D01*
X0224300Y0175600D01*
X0224300Y0165200D01*
X0224846Y0165000D01*
X0218700Y0164400D02*
X0218154Y0165000D01*
X0218700Y0164400D02*
X0229100Y0154000D01*
X0229100Y0148400D01*
X0220300Y0148400D01*
X0219500Y0147600D01*
X0219500Y0145200D01*
X0201100Y0126800D01*
X0198700Y0126800D01*
X0198400Y0126575D01*
X0197900Y0126800D01*
X0188300Y0126800D01*
X0185100Y0120400D02*
X0188300Y0117200D01*
X0197900Y0117200D01*
X0198400Y0117126D01*
X0198400Y0113976D02*
X0197900Y0114000D01*
X0185100Y0114000D01*
X0183500Y0115600D01*
X0186224Y0108100D02*
X0186700Y0107600D01*
X0186700Y0101200D01*
X0192300Y0095600D01*
X0192300Y0098800D02*
X0196300Y0098800D01*
X0199500Y0100400D02*
X0197100Y0102800D01*
X0193100Y0102800D01*
X0193100Y0107600D01*
X0192524Y0108100D01*
X0189900Y0107600D02*
X0189374Y0108100D01*
X0189900Y0107600D02*
X0189900Y0101200D01*
X0192300Y0098800D01*
X0194700Y0092400D02*
X0189900Y0092400D01*
X0183500Y0098800D01*
X0194700Y0092400D02*
X0199500Y0097200D01*
X0199500Y0100400D01*
X0198400Y0123425D02*
X0198700Y0123600D01*
X0201900Y0123600D01*
X0222700Y0144400D01*
X0223154Y0145000D01*
X0229100Y0145200D02*
X0229100Y0148400D01*
X0229100Y0145200D02*
X0229846Y0145000D01*
X0235500Y0135600D02*
X0229900Y0130000D01*
X0235500Y0135600D02*
X0235500Y0173200D01*
X0205900Y0202800D01*
X0205900Y0210800D01*
X0205240Y0211063D01*
X0206500Y0186654D02*
X0205900Y0186000D01*
X0205900Y0149200D01*
X0180300Y0123600D01*
X0172300Y0138000D02*
X0168300Y0138000D01*
X0167500Y0138800D01*
X0161100Y0138800D01*
X0143500Y0121200D01*
X0143500Y0106800D01*
X0137100Y0113200D02*
X0137100Y0126800D01*
X0133900Y0130000D01*
X0121500Y0125000D02*
X0121100Y0125200D01*
X0114700Y0131600D01*
X0113100Y0131600D01*
X0121100Y0115600D02*
X0121500Y0115000D01*
X0121100Y0115600D02*
X0093100Y0143600D01*
X0076300Y0143600D01*
X0075500Y0142800D01*
X0075500Y0139600D01*
X0075457Y0139394D01*
X0068154Y0165000D02*
X0068300Y0165200D01*
X0068300Y0173200D01*
X0074700Y0179600D01*
X0074700Y0190000D01*
X0080240Y0211063D02*
X0080300Y0211600D01*
X0093100Y0211600D01*
X0096300Y0214800D01*
X0101900Y0214800D01*
X0097760Y0211063D02*
X0097900Y0210800D01*
X0097900Y0190000D01*
X0101100Y0186800D01*
X0101500Y0186654D01*
X0101900Y0186000D01*
X0104300Y0183600D01*
X0104300Y0165200D01*
X0104846Y0165000D01*
X0131500Y0170000D02*
X0131500Y0186654D01*
X0126700Y0193200D02*
X0101900Y0193200D01*
X0101500Y0193346D01*
X0076500Y0218937D02*
X0077100Y0219600D01*
X0081100Y0219600D01*
X0096500Y0235000D01*
X0156500Y0193346D02*
X0157100Y0193200D01*
X0182700Y0167600D01*
X0191500Y0161200D02*
X0194700Y0164400D01*
X0194846Y0165000D01*
X0173626Y0141900D02*
X0173100Y0141200D01*
X0173100Y0138800D01*
X0172300Y0138000D01*
X0164846Y0165000D02*
X0164300Y0165200D01*
X0164300Y0178800D01*
X0137100Y0113200D02*
X0126700Y0102800D01*
X0126700Y0093200D01*
X0126500Y0092953D01*
X0126500Y0087047D02*
X0126700Y0086800D01*
X0126700Y0068400D01*
X0126500Y0068346D01*
X0106700Y0068400D02*
X0106500Y0068346D01*
X0106700Y0068400D02*
X0106700Y0086800D01*
X0106500Y0087047D01*
X0109100Y0090000D02*
X0100300Y0090000D01*
X0097100Y0093200D01*
X0078016Y0110606D02*
X0077900Y0110800D01*
X0075500Y0110800D01*
X0071500Y0093346D02*
X0071500Y0093200D01*
X0074700Y0090000D01*
X0074700Y0073200D01*
X0075500Y0072400D01*
X0049900Y0078000D02*
X0036300Y0064400D01*
X0049900Y0078000D02*
X0049900Y0110000D01*
X0049866Y0110606D01*
D30*
X0079500Y0125200D03*
X0102700Y0106800D03*
X0091500Y0090000D03*
X0113100Y0131600D03*
X0133100Y0142000D03*
X0131500Y0146800D03*
X0157100Y0130000D03*
X0151500Y0110000D03*
X0143500Y0106800D03*
X0183500Y0098800D03*
X0192300Y0095600D03*
X0196300Y0098800D03*
X0193100Y0102800D03*
X0183500Y0115600D03*
X0185100Y0120400D03*
X0188300Y0126800D03*
X0182700Y0167600D03*
X0131500Y0170000D03*
X0126700Y0193200D03*
D31*
X0123431Y0190671D02*
X0105568Y0190671D01*
X0105568Y0190700D02*
X0123402Y0190700D01*
X0124378Y0189724D01*
X0125800Y0189135D01*
X0125800Y0169068D01*
X0125118Y0169068D01*
X0123888Y0167838D01*
X0123888Y0162162D01*
X0125118Y0160931D01*
X0131189Y0160931D01*
X0131968Y0161711D01*
X0132102Y0161634D01*
X0132484Y0161531D01*
X0134362Y0161531D01*
X0134362Y0164516D01*
X0135331Y0164516D01*
X0135331Y0165484D01*
X0138512Y0165484D01*
X0138512Y0167166D01*
X0138410Y0167547D01*
X0138212Y0167890D01*
X0137933Y0168169D01*
X0137591Y0168366D01*
X0137209Y0168468D01*
X0135331Y0168468D01*
X0135331Y0165484D01*
X0134362Y0165484D01*
X0134362Y0167064D01*
X0134976Y0167678D01*
X0135600Y0169184D01*
X0135600Y0170816D01*
X0134976Y0172322D01*
X0134000Y0173298D01*
X0134000Y0182388D01*
X0134338Y0182388D01*
X0135568Y0183618D01*
X0135568Y0189689D01*
X0135257Y0190000D01*
X0135568Y0190311D01*
X0135568Y0196382D01*
X0134338Y0197612D01*
X0131424Y0197612D01*
X0126000Y0203036D01*
X0126000Y0207987D01*
X0126435Y0208421D01*
X0126435Y0213704D01*
X0125204Y0214935D01*
X0120315Y0214935D01*
X0119085Y0213704D01*
X0119085Y0208421D01*
X0120315Y0207191D01*
X0121000Y0207191D01*
X0121000Y0201503D01*
X0121381Y0200584D01*
X0125022Y0196943D01*
X0124378Y0196676D01*
X0123402Y0195700D01*
X0105568Y0195700D01*
X0105568Y0196382D01*
X0104338Y0197612D01*
X0100400Y0197612D01*
X0100400Y0207387D01*
X0101435Y0208421D01*
X0101435Y0213704D01*
X0100204Y0214935D01*
X0095315Y0214935D01*
X0094085Y0213704D01*
X0094085Y0208421D01*
X0095315Y0207191D01*
X0095400Y0207191D01*
X0095400Y0189503D01*
X0095781Y0188584D01*
X0097431Y0186933D01*
X0097431Y0183618D01*
X0098662Y0182388D01*
X0101800Y0182388D01*
X0101800Y0169057D01*
X0101032Y0168289D01*
X0100898Y0168366D01*
X0100516Y0168468D01*
X0098638Y0168468D01*
X0098638Y0165484D01*
X0097669Y0165484D01*
X0097669Y0164516D01*
X0094488Y0164516D01*
X0094488Y0162834D01*
X0094590Y0162453D01*
X0094788Y0162110D01*
X0095067Y0161831D01*
X0095409Y0161634D01*
X0095791Y0161531D01*
X0097669Y0161531D01*
X0097669Y0164516D01*
X0098638Y0164516D01*
X0098638Y0161531D01*
X0100516Y0161531D01*
X0100898Y0161634D01*
X0101032Y0161711D01*
X0101811Y0160931D01*
X0107882Y0160931D01*
X0109112Y0162162D01*
X0109112Y0167838D01*
X0107882Y0169068D01*
X0106800Y0169068D01*
X0106800Y0184097D01*
X0106419Y0185016D01*
X0105568Y0185867D01*
X0105568Y0189689D01*
X0105257Y0190000D01*
X0105568Y0190311D01*
X0105568Y0190700D01*
X0105568Y0189672D02*
X0124502Y0189672D01*
X0125800Y0188674D02*
X0105568Y0188674D01*
X0105568Y0187675D02*
X0125800Y0187675D01*
X0125800Y0186677D02*
X0105568Y0186677D01*
X0105757Y0185678D02*
X0125800Y0185678D01*
X0125800Y0184680D02*
X0106559Y0184680D01*
X0106800Y0183681D02*
X0125800Y0183681D01*
X0125800Y0182683D02*
X0106800Y0182683D01*
X0106800Y0181684D02*
X0125800Y0181684D01*
X0125800Y0180686D02*
X0106800Y0180686D01*
X0106800Y0179687D02*
X0125800Y0179687D01*
X0125800Y0178689D02*
X0106800Y0178689D01*
X0106800Y0177690D02*
X0125800Y0177690D01*
X0125800Y0176692D02*
X0106800Y0176692D01*
X0106800Y0175693D02*
X0125800Y0175693D01*
X0125800Y0174695D02*
X0106800Y0174695D01*
X0106800Y0173696D02*
X0125800Y0173696D01*
X0125800Y0172698D02*
X0106800Y0172698D01*
X0106800Y0171699D02*
X0125800Y0171699D01*
X0125800Y0170701D02*
X0106800Y0170701D01*
X0106800Y0169702D02*
X0125800Y0169702D01*
X0124754Y0168704D02*
X0108246Y0168704D01*
X0109112Y0167705D02*
X0123888Y0167705D01*
X0123888Y0166707D02*
X0109112Y0166707D01*
X0109112Y0165708D02*
X0123888Y0165708D01*
X0123888Y0164710D02*
X0109112Y0164710D01*
X0109112Y0163711D02*
X0123888Y0163711D01*
X0123888Y0162713D02*
X0109112Y0162713D01*
X0108664Y0161714D02*
X0124336Y0161714D01*
X0134362Y0161714D02*
X0135331Y0161714D01*
X0135331Y0161531D02*
X0137209Y0161531D01*
X0137591Y0161634D01*
X0137933Y0161831D01*
X0138212Y0162110D01*
X0138410Y0162453D01*
X0138512Y0162834D01*
X0138512Y0164516D01*
X0135331Y0164516D01*
X0135331Y0161531D01*
X0135331Y0162713D02*
X0134362Y0162713D01*
X0134362Y0163711D02*
X0135331Y0163711D01*
X0135331Y0164710D02*
X0157669Y0164710D01*
X0157669Y0164516D02*
X0154488Y0164516D01*
X0154488Y0162834D01*
X0154590Y0162453D01*
X0154788Y0162110D01*
X0155067Y0161831D01*
X0155409Y0161634D01*
X0155791Y0161531D01*
X0157669Y0161531D01*
X0157669Y0164516D01*
X0157669Y0165484D01*
X0154488Y0165484D01*
X0154488Y0167166D01*
X0154590Y0167547D01*
X0154788Y0167890D01*
X0155067Y0168169D01*
X0155409Y0168366D01*
X0155791Y0168468D01*
X0157669Y0168468D01*
X0157669Y0165484D01*
X0158638Y0165484D01*
X0158638Y0168468D01*
X0160516Y0168468D01*
X0160898Y0168366D01*
X0161032Y0168289D01*
X0161800Y0169057D01*
X0161800Y0177764D01*
X0157176Y0182388D01*
X0153662Y0182388D01*
X0152431Y0183618D01*
X0152431Y0187133D01*
X0146181Y0193384D01*
X0145800Y0194303D01*
X0145800Y0207191D01*
X0145315Y0207191D01*
X0144085Y0208421D01*
X0144085Y0213704D01*
X0145315Y0214935D01*
X0150204Y0214935D01*
X0151435Y0213704D01*
X0151435Y0208421D01*
X0150800Y0207787D01*
X0150800Y0195836D01*
X0152431Y0194204D01*
X0152431Y0196382D01*
X0153662Y0197612D01*
X0159338Y0197612D01*
X0160568Y0196382D01*
X0160568Y0193267D01*
X0182136Y0171700D01*
X0183516Y0171700D01*
X0185000Y0171085D01*
X0185000Y0179364D01*
X0181976Y0182388D01*
X0178662Y0182388D01*
X0177431Y0183618D01*
X0177431Y0186933D01*
X0170981Y0193384D01*
X0170600Y0194303D01*
X0170600Y0207191D01*
X0170315Y0207191D01*
X0169085Y0208421D01*
X0169085Y0213704D01*
X0170315Y0214935D01*
X0175204Y0214935D01*
X0176435Y0213704D01*
X0176435Y0208421D01*
X0175600Y0207587D01*
X0175600Y0195836D01*
X0177431Y0194004D01*
X0177431Y0196382D01*
X0178662Y0197612D01*
X0179400Y0197612D01*
X0179400Y0200897D01*
X0179781Y0201816D01*
X0194181Y0216216D01*
X0194884Y0216919D01*
X0195320Y0217100D01*
X0180603Y0217100D01*
X0180175Y0217277D01*
X0180175Y0216295D01*
X0178945Y0215065D01*
X0174055Y0215065D01*
X0172825Y0216295D01*
X0172825Y0217100D01*
X0155803Y0217100D01*
X0155175Y0217360D01*
X0155175Y0216295D01*
X0153945Y0215065D01*
X0149055Y0215065D01*
X0147825Y0216295D01*
X0147825Y0217100D01*
X0141403Y0217100D01*
X0140484Y0217481D01*
X0130080Y0227885D01*
X0129502Y0227307D01*
X0128275Y0226799D01*
X0128400Y0226497D01*
X0128400Y0222809D01*
X0128945Y0222809D01*
X0130175Y0221579D01*
X0130175Y0216295D01*
X0128945Y0215065D01*
X0124055Y0215065D01*
X0122825Y0216295D01*
X0122825Y0221579D01*
X0123400Y0222153D01*
X0123400Y0224964D01*
X0120280Y0228085D01*
X0119502Y0227307D01*
X0117554Y0226500D01*
X0115446Y0226500D01*
X0113498Y0227307D01*
X0112007Y0228798D01*
X0111500Y0230022D01*
X0110993Y0228798D01*
X0109502Y0227307D01*
X0107554Y0226500D01*
X0105446Y0226500D01*
X0104400Y0226933D01*
X0104400Y0222353D01*
X0105175Y0221579D01*
X0105175Y0216295D01*
X0103945Y0215065D01*
X0099055Y0215065D01*
X0097825Y0216295D01*
X0097825Y0221579D01*
X0099055Y0222809D01*
X0099400Y0222809D01*
X0099400Y0227265D01*
X0097554Y0226500D01*
X0095446Y0226500D01*
X0093498Y0227307D01*
X0092920Y0227885D01*
X0082516Y0217481D01*
X0081597Y0217100D01*
X0080175Y0217100D01*
X0080175Y0216295D01*
X0078945Y0215065D01*
X0074055Y0215065D01*
X0072825Y0216295D01*
X0072825Y0221579D01*
X0074055Y0222809D01*
X0078945Y0222809D01*
X0079653Y0222100D01*
X0080064Y0222100D01*
X0091200Y0233236D01*
X0091200Y0239254D01*
X0092007Y0241202D01*
X0093498Y0242693D01*
X0095446Y0243500D01*
X0097554Y0243500D01*
X0099502Y0242693D01*
X0100993Y0241202D01*
X0101500Y0239978D01*
X0102007Y0241202D01*
X0103498Y0242693D01*
X0105446Y0243500D01*
X0107554Y0243500D01*
X0109502Y0242693D01*
X0110993Y0241202D01*
X0111500Y0239978D01*
X0112007Y0241202D01*
X0113498Y0242693D01*
X0115446Y0243500D01*
X0117554Y0243500D01*
X0119502Y0242693D01*
X0120993Y0241202D01*
X0121500Y0239978D01*
X0122007Y0241202D01*
X0123498Y0242693D01*
X0125446Y0243500D01*
X0127554Y0243500D01*
X0129502Y0242693D01*
X0130993Y0241202D01*
X0131500Y0239978D01*
X0132007Y0241202D01*
X0133498Y0242693D01*
X0135446Y0243500D01*
X0137554Y0243500D01*
X0139502Y0242693D01*
X0140993Y0241202D01*
X0141500Y0239978D01*
X0142007Y0241202D01*
X0143498Y0242693D01*
X0145446Y0243500D01*
X0147554Y0243500D01*
X0149502Y0242693D01*
X0150993Y0241202D01*
X0151800Y0239254D01*
X0151800Y0237300D01*
X0166397Y0237300D01*
X0167316Y0236919D01*
X0168019Y0236216D01*
X0182136Y0222100D01*
X0198347Y0222100D01*
X0199055Y0222809D01*
X0203945Y0222809D01*
X0205175Y0221579D01*
X0205175Y0216295D01*
X0203945Y0215065D01*
X0202770Y0215065D01*
X0203316Y0214519D01*
X0203501Y0214335D01*
X0204953Y0214335D01*
X0204953Y0211350D01*
X0205528Y0211350D01*
X0208315Y0211350D01*
X0208315Y0213032D01*
X0208213Y0213414D01*
X0208015Y0213756D01*
X0207736Y0214035D01*
X0207394Y0214232D01*
X0207012Y0214335D01*
X0205528Y0214335D01*
X0205528Y0211350D01*
X0205528Y0210776D01*
X0208315Y0210776D01*
X0208315Y0209094D01*
X0208213Y0208712D01*
X0208015Y0208370D01*
X0207736Y0208091D01*
X0207394Y0207894D01*
X0207012Y0207791D01*
X0205528Y0207791D01*
X0205528Y0210776D01*
X0204953Y0210776D01*
X0204953Y0207791D01*
X0204400Y0207791D01*
X0204400Y0205436D01*
X0235316Y0174519D01*
X0235316Y0174519D01*
X0236019Y0173816D01*
X0236400Y0172897D01*
X0236400Y0138243D01*
X0236419Y0138193D01*
X0236400Y0137748D01*
X0236400Y0137303D01*
X0236379Y0137253D01*
X0236377Y0137199D01*
X0236190Y0136795D01*
X0236019Y0136384D01*
X0235981Y0136346D01*
X0235959Y0136297D01*
X0235631Y0135995D01*
X0235316Y0135681D01*
X0235266Y0135660D01*
X0235227Y0135623D01*
X0234809Y0135470D01*
X0234397Y0135300D01*
X0234343Y0135300D01*
X0234293Y0135281D01*
X0233848Y0135300D01*
X0233403Y0135300D01*
X0233353Y0135321D01*
X0224248Y0135700D01*
X0221336Y0135700D01*
X0205200Y0119564D01*
X0205200Y0111903D01*
X0204819Y0110984D01*
X0204019Y0110184D01*
X0203316Y0109481D01*
X0202397Y0109100D01*
X0195724Y0109100D01*
X0195724Y0105975D01*
X0196398Y0105300D01*
X0197597Y0105300D01*
X0198516Y0104919D01*
X0199219Y0104216D01*
X0201619Y0101816D01*
X0202000Y0100897D01*
X0202000Y0096703D01*
X0201619Y0095784D01*
X0200916Y0095081D01*
X0196116Y0090281D01*
X0195197Y0089900D01*
X0189403Y0089900D01*
X0188484Y0090281D01*
X0187781Y0090984D01*
X0184064Y0094700D01*
X0182684Y0094700D01*
X0181178Y0095324D01*
X0180024Y0096478D01*
X0179400Y0097984D01*
X0179400Y0099616D01*
X0180024Y0101122D01*
X0181178Y0102276D01*
X0182684Y0102900D01*
X0184200Y0102900D01*
X0184200Y0103500D01*
X0170000Y0103500D01*
X0170000Y0089436D01*
X0174679Y0084757D01*
X0175025Y0084900D01*
X0176975Y0084900D01*
X0178776Y0084154D01*
X0180154Y0082776D01*
X0180900Y0080975D01*
X0180900Y0079025D01*
X0180757Y0078679D01*
X0181619Y0077816D01*
X0182000Y0076897D01*
X0182000Y0064068D01*
X0182882Y0064068D01*
X0184112Y0062838D01*
X0184112Y0057162D01*
X0182882Y0055931D01*
X0176811Y0055931D01*
X0176032Y0056711D01*
X0175898Y0056634D01*
X0175516Y0056531D01*
X0173638Y0056531D01*
X0173638Y0059516D01*
X0173638Y0060484D01*
X0175581Y0060484D01*
X0175581Y0059516D01*
X0173638Y0059516D01*
X0172669Y0059516D01*
X0169488Y0059516D01*
X0169488Y0057834D01*
X0169590Y0057453D01*
X0169788Y0057110D01*
X0170067Y0056831D01*
X0170409Y0056634D01*
X0170791Y0056531D01*
X0172669Y0056531D01*
X0172669Y0059516D01*
X0172669Y0060484D01*
X0169488Y0060484D01*
X0169488Y0062166D01*
X0169590Y0062547D01*
X0169788Y0062890D01*
X0170067Y0063169D01*
X0170409Y0063366D01*
X0170791Y0063468D01*
X0172669Y0063468D01*
X0172669Y0060484D01*
X0173638Y0060484D01*
X0173638Y0063468D01*
X0175516Y0063468D01*
X0175898Y0063366D01*
X0176032Y0063289D01*
X0176811Y0064068D01*
X0177000Y0064068D01*
X0177000Y0075111D01*
X0176975Y0075100D01*
X0175025Y0075100D01*
X0173224Y0075846D01*
X0171846Y0077224D01*
X0171100Y0079025D01*
X0171100Y0080975D01*
X0171185Y0081180D01*
X0166300Y0086064D01*
X0161698Y0081462D01*
X0161900Y0080975D01*
X0161900Y0079025D01*
X0161154Y0077224D01*
X0159776Y0075846D01*
X0157975Y0075100D01*
X0156400Y0075100D01*
X0156400Y0063857D01*
X0156968Y0063289D01*
X0157102Y0063366D01*
X0157484Y0063468D01*
X0159362Y0063468D01*
X0159362Y0060484D01*
X0160331Y0060484D01*
X0163512Y0060484D01*
X0163512Y0062166D01*
X0163410Y0062547D01*
X0163212Y0062890D01*
X0162933Y0063169D01*
X0162591Y0063366D01*
X0162209Y0063468D01*
X0160331Y0063468D01*
X0160331Y0060484D01*
X0160331Y0059516D01*
X0163512Y0059516D01*
X0163512Y0057834D01*
X0163410Y0057453D01*
X0163212Y0057110D01*
X0162933Y0056831D01*
X0162591Y0056634D01*
X0162209Y0056531D01*
X0160331Y0056531D01*
X0160331Y0059516D01*
X0159362Y0059516D01*
X0159362Y0056531D01*
X0157484Y0056531D01*
X0157102Y0056634D01*
X0156968Y0056711D01*
X0156189Y0055931D01*
X0150118Y0055931D01*
X0148888Y0057162D01*
X0148888Y0062838D01*
X0150118Y0064068D01*
X0151400Y0064068D01*
X0151400Y0077697D01*
X0151781Y0078616D01*
X0152126Y0078962D01*
X0152100Y0079025D01*
X0152100Y0080975D01*
X0152846Y0082776D01*
X0154224Y0084154D01*
X0156025Y0084900D01*
X0157975Y0084900D01*
X0158038Y0084874D01*
X0161800Y0088636D01*
X0161800Y0110776D01*
X0161230Y0110776D01*
X0160000Y0112007D01*
X0160000Y0114964D01*
X0155600Y0110564D01*
X0155600Y0109184D01*
X0154976Y0107678D01*
X0153822Y0106524D01*
X0152316Y0105900D01*
X0150936Y0105900D01*
X0132400Y0087364D01*
X0132400Y0064703D01*
X0132019Y0063784D01*
X0130568Y0062333D01*
X0130568Y0058618D01*
X0129338Y0057388D01*
X0123662Y0057388D01*
X0122431Y0058618D01*
X0122431Y0059500D01*
X0110568Y0059500D01*
X0110568Y0058618D01*
X0109338Y0057388D01*
X0105624Y0057388D01*
X0103600Y0055364D01*
X0103600Y0045500D01*
X0103750Y0045500D01*
X0103750Y0041250D01*
X0104250Y0041250D01*
X0104250Y0045500D01*
X0105697Y0045500D01*
X0106079Y0045398D01*
X0106421Y0045200D01*
X0106700Y0044921D01*
X0106898Y0044579D01*
X0107000Y0044197D01*
X0107000Y0041250D01*
X0104250Y0041250D01*
X0104250Y0040750D01*
X0107000Y0040750D01*
X0107000Y0037803D01*
X0106898Y0037421D01*
X0106700Y0037079D01*
X0106421Y0036800D01*
X0106079Y0036602D01*
X0105697Y0036500D01*
X0104250Y0036500D01*
X0104250Y0040750D01*
X0103750Y0040750D01*
X0103750Y0036500D01*
X0103600Y0036500D01*
X0103600Y0023903D01*
X0103433Y0023500D01*
X0103750Y0023500D01*
X0103750Y0019250D01*
X0104250Y0019250D01*
X0104250Y0023500D01*
X0105697Y0023500D01*
X0106079Y0023398D01*
X0106421Y0023200D01*
X0106700Y0022921D01*
X0163043Y0022921D01*
X0162198Y0023766D02*
X0167684Y0018281D01*
X0168603Y0017900D01*
X0171200Y0017900D01*
X0171200Y0015746D01*
X0172007Y0013798D01*
X0173498Y0012307D01*
X0173997Y0012100D01*
X0003600Y0012100D01*
X0003600Y0250000D01*
X0264321Y0250000D01*
X0264321Y0012100D01*
X0189003Y0012100D01*
X0189502Y0012307D01*
X0190993Y0013798D01*
X0191800Y0015746D01*
X0191800Y0021964D01*
X0220772Y0050936D01*
X0222486Y0049946D01*
X0225131Y0049238D01*
X0227869Y0049238D01*
X0230514Y0049946D01*
X0232590Y0051145D01*
X0232426Y0050806D01*
X0232070Y0049788D01*
X0231830Y0048737D01*
X0231709Y0047665D01*
X0231709Y0047626D01*
X0240809Y0047626D01*
X0240809Y0046626D01*
X0231709Y0046626D01*
X0231709Y0046587D01*
X0231830Y0045515D01*
X0232070Y0044464D01*
X0232426Y0043446D01*
X0232894Y0042475D01*
X0233468Y0041562D01*
X0234140Y0040719D01*
X0234902Y0039957D01*
X0235745Y0039284D01*
X0236658Y0038711D01*
X0237630Y0038243D01*
X0238648Y0037887D01*
X0239699Y0037647D01*
X0240770Y0037526D01*
X0240809Y0037526D01*
X0240809Y0046626D01*
X0241809Y0046626D01*
X0241809Y0037526D01*
X0241849Y0037526D01*
X0242920Y0037647D01*
X0243971Y0037887D01*
X0244989Y0038243D01*
X0245960Y0038711D01*
X0246873Y0039284D01*
X0247716Y0039957D01*
X0248479Y0040719D01*
X0249151Y0041562D01*
X0249725Y0042475D01*
X0250193Y0043446D01*
X0250549Y0044464D01*
X0250789Y0045515D01*
X0250909Y0046587D01*
X0250909Y0046626D01*
X0241809Y0046626D01*
X0241809Y0047626D01*
X0240809Y0047626D01*
X0240809Y0056726D01*
X0240770Y0056726D01*
X0239699Y0056605D01*
X0238648Y0056365D01*
X0237630Y0056009D01*
X0236658Y0055541D01*
X0235850Y0055033D01*
X0236191Y0055623D01*
X0236899Y0058268D01*
X0236899Y0061006D01*
X0236191Y0063651D01*
X0234821Y0066022D01*
X0232885Y0067958D01*
X0230514Y0069328D01*
X0227869Y0070036D01*
X0226000Y0070036D01*
X0226000Y0080931D01*
X0226189Y0080931D01*
X0226968Y0081711D01*
X0227102Y0081634D01*
X0227484Y0081531D01*
X0229362Y0081531D01*
X0229362Y0084516D01*
X0230331Y0084516D01*
X0230331Y0085484D01*
X0233512Y0085484D01*
X0233512Y0087166D01*
X0233410Y0087547D01*
X0233212Y0087890D01*
X0232933Y0088169D01*
X0232591Y0088366D01*
X0232209Y0088468D01*
X0230331Y0088468D01*
X0230331Y0085484D01*
X0229362Y0085484D01*
X0229362Y0088468D01*
X0227484Y0088468D01*
X0227102Y0088366D01*
X0226968Y0088289D01*
X0226189Y0089068D01*
X0226000Y0089068D01*
X0226000Y0095931D01*
X0226189Y0095931D01*
X0226968Y0096711D01*
X0227102Y0096634D01*
X0227484Y0096531D01*
X0229362Y0096531D01*
X0229362Y0099516D01*
X0230331Y0099516D01*
X0230331Y0100484D01*
X0233512Y0100484D01*
X0233512Y0102166D01*
X0233410Y0102547D01*
X0233212Y0102890D01*
X0232933Y0103169D01*
X0232591Y0103366D01*
X0232209Y0103468D01*
X0230331Y0103468D01*
X0230331Y0100484D01*
X0229362Y0100484D01*
X0229362Y0103468D01*
X0227484Y0103468D01*
X0227102Y0103366D01*
X0226968Y0103289D01*
X0226189Y0104068D01*
X0226000Y0104068D01*
X0226000Y0110931D01*
X0226189Y0110931D01*
X0226968Y0111711D01*
X0227102Y0111634D01*
X0227484Y0111531D01*
X0229362Y0111531D01*
X0229362Y0114516D01*
X0230331Y0114516D01*
X0230331Y0115484D01*
X0233512Y0115484D01*
X0233512Y0117166D01*
X0233410Y0117547D01*
X0233212Y0117890D01*
X0232933Y0118169D01*
X0232591Y0118366D01*
X0232209Y0118468D01*
X0230331Y0118468D01*
X0230331Y0115484D01*
X0229362Y0115484D01*
X0229362Y0118468D01*
X0227484Y0118468D01*
X0227102Y0118366D01*
X0226968Y0118289D01*
X0226189Y0119068D01*
X0226000Y0119068D01*
X0226000Y0125931D01*
X0226189Y0125931D01*
X0226968Y0126711D01*
X0227102Y0126634D01*
X0227484Y0126531D01*
X0229362Y0126531D01*
X0229362Y0129516D01*
X0230331Y0129516D01*
X0230331Y0130484D01*
X0233512Y0130484D01*
X0233512Y0132166D01*
X0233410Y0132547D01*
X0233212Y0132890D01*
X0232933Y0133169D01*
X0232591Y0133366D01*
X0232209Y0133468D01*
X0230331Y0133468D01*
X0230331Y0130484D01*
X0229362Y0130484D01*
X0229362Y0133468D01*
X0227484Y0133468D01*
X0227102Y0133366D01*
X0226968Y0133289D01*
X0226189Y0134068D01*
X0220118Y0134068D01*
X0218888Y0132838D01*
X0218888Y0127162D01*
X0220118Y0125931D01*
X0221000Y0125931D01*
X0221000Y0119068D01*
X0220118Y0119068D01*
X0218888Y0117838D01*
X0218888Y0112162D01*
X0220118Y0110931D01*
X0221000Y0110931D01*
X0221000Y0104068D01*
X0220118Y0104068D01*
X0218888Y0102838D01*
X0218888Y0097162D01*
X0220118Y0095931D01*
X0221000Y0095931D01*
X0221000Y0089068D01*
X0220118Y0089068D01*
X0218888Y0087838D01*
X0218888Y0082162D01*
X0220118Y0080931D01*
X0221000Y0080931D01*
X0221000Y0068470D01*
X0220115Y0067958D01*
X0218179Y0066022D01*
X0216809Y0063651D01*
X0216101Y0061006D01*
X0216101Y0058268D01*
X0216809Y0055623D01*
X0217387Y0054623D01*
X0189980Y0027215D01*
X0189502Y0027693D01*
X0187554Y0028500D01*
X0185446Y0028500D01*
X0183498Y0027693D01*
X0182007Y0026202D01*
X0181500Y0024978D01*
X0180993Y0026202D01*
X0179502Y0027693D01*
X0177554Y0028500D01*
X0175446Y0028500D01*
X0173498Y0027693D01*
X0172007Y0026202D01*
X0171200Y0024254D01*
X0171200Y0022900D01*
X0170136Y0022900D01*
X0168812Y0024224D01*
X0169584Y0024996D01*
X0169584Y0035004D01*
X0168354Y0036234D01*
X0149685Y0036234D01*
X0148455Y0035004D01*
X0148455Y0024996D01*
X0149685Y0023766D01*
X0162198Y0023766D01*
X0164042Y0021923D02*
X0107000Y0021923D01*
X0107000Y0022197D02*
X0106898Y0022579D01*
X0106700Y0022921D01*
X0107000Y0022197D02*
X0107000Y0019250D01*
X0104250Y0019250D01*
X0104250Y0018750D01*
X0107000Y0018750D01*
X0107000Y0015803D01*
X0106898Y0015421D01*
X0106700Y0015079D01*
X0106421Y0014800D01*
X0106079Y0014602D01*
X0105697Y0014500D01*
X0104250Y0014500D01*
X0104250Y0018750D01*
X0103750Y0018750D01*
X0103750Y0014500D01*
X0102303Y0014500D01*
X0101921Y0014602D01*
X0101579Y0014800D01*
X0101300Y0015079D01*
X0101102Y0015421D01*
X0101000Y0015803D01*
X0101000Y0018750D01*
X0103750Y0018750D01*
X0103750Y0019250D01*
X0101000Y0019250D01*
X0101000Y0020764D01*
X0092916Y0012681D01*
X0091997Y0012300D01*
X0086203Y0012300D01*
X0085284Y0012681D01*
X0084581Y0013384D01*
X0083781Y0014184D01*
X0083400Y0015103D01*
X0083400Y0057650D01*
X0082431Y0058618D01*
X0082431Y0061933D01*
X0075500Y0068864D01*
X0055219Y0048584D01*
X0054516Y0047881D01*
X0053597Y0047500D01*
X0049403Y0047500D01*
X0048484Y0047881D01*
X0045290Y0051074D01*
X0044638Y0050422D01*
X0042653Y0049600D01*
X0040505Y0049600D01*
X0038520Y0050422D01*
X0037001Y0051941D01*
X0036179Y0053926D01*
X0036179Y0056074D01*
X0036446Y0056719D01*
X0034181Y0058984D01*
X0033800Y0059903D01*
X0033800Y0064897D01*
X0034181Y0065816D01*
X0034884Y0066519D01*
X0047400Y0079036D01*
X0047400Y0106668D01*
X0047081Y0106986D01*
X0047081Y0114226D01*
X0048311Y0115456D01*
X0056539Y0115456D01*
X0057139Y0114856D01*
X0057543Y0114856D01*
X0057543Y0114452D01*
X0057543Y0114452D01*
X0057543Y0114452D01*
X0057543Y0114856D01*
X0057947Y0114856D01*
X0058547Y0115456D01*
X0064216Y0115456D01*
X0064816Y0114856D01*
X0065220Y0114856D01*
X0065220Y0114452D01*
X0065220Y0114452D01*
X0065221Y0114452D01*
X0065221Y0114856D01*
X0065508Y0114856D01*
X0045381Y0134984D01*
X0045000Y0135903D01*
X0045000Y0143297D01*
X0045381Y0144216D01*
X0046084Y0144919D01*
X0048484Y0147319D01*
X0049403Y0147700D01*
X0075864Y0147700D01*
X0062181Y0161384D01*
X0061800Y0162303D01*
X0061800Y0172097D01*
X0062181Y0173016D01*
X0062884Y0173719D01*
X0069000Y0179836D01*
X0069000Y0182388D01*
X0068662Y0182388D01*
X0067431Y0183618D01*
X0067431Y0189689D01*
X0067743Y0190000D01*
X0067431Y0190311D01*
X0067431Y0196382D01*
X0068662Y0197612D01*
X0069800Y0197612D01*
X0069800Y0207707D01*
X0069085Y0208421D01*
X0069085Y0213704D01*
X0070315Y0214935D01*
X0075204Y0214935D01*
X0076435Y0213704D01*
X0076435Y0208421D01*
X0075204Y0207191D01*
X0074800Y0207191D01*
X0074800Y0197150D01*
X0075568Y0196382D01*
X0075568Y0192667D01*
X0076819Y0191416D01*
X0077200Y0190497D01*
X0077200Y0179103D01*
X0076819Y0178184D01*
X0076116Y0177481D01*
X0070800Y0172164D01*
X0070800Y0169068D01*
X0071189Y0169068D01*
X0071968Y0168289D01*
X0072102Y0168366D01*
X0072484Y0168468D01*
X0074362Y0168468D01*
X0074362Y0165484D01*
X0075331Y0165484D01*
X0078512Y0165484D01*
X0078512Y0167166D01*
X0078410Y0167547D01*
X0078212Y0167890D01*
X0077933Y0168169D01*
X0077591Y0168366D01*
X0077209Y0168468D01*
X0075331Y0168468D01*
X0075331Y0165484D01*
X0075331Y0164516D01*
X0078512Y0164516D01*
X0078512Y0162834D01*
X0078410Y0162453D01*
X0078212Y0162110D01*
X0077933Y0161831D01*
X0077591Y0161634D01*
X0077209Y0161531D01*
X0075331Y0161531D01*
X0075331Y0164516D01*
X0074362Y0164516D01*
X0074362Y0161531D01*
X0072484Y0161531D01*
X0072102Y0161634D01*
X0071968Y0161711D01*
X0071189Y0160931D01*
X0069704Y0160931D01*
X0081336Y0149300D01*
X0127197Y0149300D01*
X0128116Y0148919D01*
X0131331Y0145705D01*
X0132284Y0146100D01*
X0133916Y0146100D01*
X0135422Y0145476D01*
X0136576Y0144322D01*
X0136608Y0144244D01*
X0142084Y0149719D01*
X0143003Y0150100D01*
X0177597Y0150100D01*
X0178516Y0149719D01*
X0179219Y0149016D01*
X0181619Y0146616D01*
X0181667Y0146500D01*
X0194493Y0146500D01*
X0195724Y0145270D01*
X0195724Y0142559D01*
X0203400Y0150236D01*
X0203400Y0182650D01*
X0202431Y0183618D01*
X0202431Y0189689D01*
X0202743Y0190000D01*
X0202431Y0190311D01*
X0202431Y0193933D01*
X0195781Y0200584D01*
X0195400Y0201503D01*
X0195400Y0207191D01*
X0195315Y0207191D01*
X0194085Y0208421D01*
X0194085Y0209050D01*
X0184400Y0199364D01*
X0184400Y0197550D01*
X0185568Y0196382D01*
X0185568Y0190311D01*
X0185257Y0190000D01*
X0185568Y0189689D01*
X0185568Y0185867D01*
X0189619Y0181816D01*
X0190000Y0180897D01*
X0190000Y0169068D01*
X0191189Y0169068D01*
X0191968Y0168289D01*
X0192102Y0168366D01*
X0192484Y0168468D01*
X0194362Y0168468D01*
X0194362Y0165484D01*
X0195331Y0165484D01*
X0198512Y0165484D01*
X0198512Y0167166D01*
X0198410Y0167547D01*
X0198212Y0167890D01*
X0197933Y0168169D01*
X0197591Y0168366D01*
X0197209Y0168468D01*
X0195331Y0168468D01*
X0195331Y0165484D01*
X0195331Y0164516D01*
X0198512Y0164516D01*
X0198512Y0162834D01*
X0198410Y0162453D01*
X0198212Y0162110D01*
X0197933Y0161831D01*
X0197591Y0161634D01*
X0197209Y0161531D01*
X0195331Y0161531D01*
X0195331Y0164516D01*
X0194362Y0164516D01*
X0194362Y0161531D01*
X0192484Y0161531D01*
X0192102Y0161634D01*
X0191968Y0161711D01*
X0191189Y0160931D01*
X0185118Y0160931D01*
X0183888Y0162162D01*
X0183888Y0163654D01*
X0183516Y0163500D01*
X0181884Y0163500D01*
X0180378Y0164124D01*
X0179224Y0165278D01*
X0178600Y0166784D01*
X0178600Y0168164D01*
X0160568Y0186196D01*
X0160568Y0186067D01*
X0166419Y0180216D01*
X0166800Y0179297D01*
X0166800Y0169068D01*
X0167882Y0169068D01*
X0169112Y0167838D01*
X0169112Y0162162D01*
X0167882Y0160931D01*
X0161811Y0160931D01*
X0161032Y0161711D01*
X0160898Y0161634D01*
X0160516Y0161531D01*
X0158638Y0161531D01*
X0158638Y0164516D01*
X0157669Y0164516D01*
X0157669Y0163711D02*
X0158638Y0163711D01*
X0158638Y0162713D02*
X0157669Y0162713D01*
X0157669Y0161714D02*
X0158638Y0161714D01*
X0155270Y0161714D02*
X0137730Y0161714D01*
X0138479Y0162713D02*
X0154521Y0162713D01*
X0154488Y0163711D02*
X0138512Y0163711D01*
X0138512Y0165708D02*
X0154488Y0165708D01*
X0154488Y0166707D02*
X0138512Y0166707D01*
X0138318Y0167705D02*
X0154682Y0167705D01*
X0157669Y0167705D02*
X0158638Y0167705D01*
X0158638Y0166707D02*
X0157669Y0166707D01*
X0157669Y0165708D02*
X0158638Y0165708D01*
X0161447Y0168704D02*
X0135401Y0168704D01*
X0135331Y0167705D02*
X0134987Y0167705D01*
X0135331Y0166707D02*
X0134362Y0166707D01*
X0134362Y0165708D02*
X0135331Y0165708D01*
X0135600Y0169702D02*
X0161800Y0169702D01*
X0161800Y0170701D02*
X0135600Y0170701D01*
X0135234Y0171699D02*
X0161800Y0171699D01*
X0161800Y0172698D02*
X0134600Y0172698D01*
X0134000Y0173696D02*
X0161800Y0173696D01*
X0161800Y0174695D02*
X0134000Y0174695D01*
X0134000Y0175693D02*
X0161800Y0175693D01*
X0161800Y0176692D02*
X0134000Y0176692D01*
X0134000Y0177690D02*
X0161800Y0177690D01*
X0160876Y0178689D02*
X0134000Y0178689D01*
X0134000Y0179687D02*
X0159877Y0179687D01*
X0158879Y0180686D02*
X0134000Y0180686D01*
X0134000Y0181684D02*
X0157880Y0181684D01*
X0160957Y0185678D02*
X0161086Y0185678D01*
X0161956Y0184680D02*
X0162085Y0184680D01*
X0162954Y0183681D02*
X0163083Y0183681D01*
X0163953Y0182683D02*
X0164082Y0182683D01*
X0164951Y0181684D02*
X0165080Y0181684D01*
X0165950Y0180686D02*
X0166079Y0180686D01*
X0166638Y0179687D02*
X0167077Y0179687D01*
X0166800Y0178689D02*
X0168076Y0178689D01*
X0169074Y0177690D02*
X0166800Y0177690D01*
X0166800Y0176692D02*
X0170073Y0176692D01*
X0171071Y0175693D02*
X0166800Y0175693D01*
X0166800Y0174695D02*
X0172070Y0174695D01*
X0173068Y0173696D02*
X0166800Y0173696D01*
X0166800Y0172698D02*
X0174067Y0172698D01*
X0175065Y0171699D02*
X0166800Y0171699D01*
X0166800Y0170701D02*
X0176064Y0170701D01*
X0177062Y0169702D02*
X0166800Y0169702D01*
X0168246Y0168704D02*
X0178061Y0168704D01*
X0178600Y0167705D02*
X0169112Y0167705D01*
X0169112Y0166707D02*
X0178632Y0166707D01*
X0179046Y0165708D02*
X0169112Y0165708D01*
X0169112Y0164710D02*
X0179792Y0164710D01*
X0181375Y0163711D02*
X0169112Y0163711D01*
X0169112Y0162713D02*
X0183888Y0162713D01*
X0184336Y0161714D02*
X0168664Y0161714D01*
X0181138Y0172698D02*
X0185000Y0172698D01*
X0185000Y0173696D02*
X0180139Y0173696D01*
X0179141Y0174695D02*
X0185000Y0174695D01*
X0185000Y0175693D02*
X0178142Y0175693D01*
X0177144Y0176692D02*
X0185000Y0176692D01*
X0185000Y0177690D02*
X0176145Y0177690D01*
X0175147Y0178689D02*
X0185000Y0178689D01*
X0184677Y0179687D02*
X0174148Y0179687D01*
X0173150Y0180686D02*
X0183679Y0180686D01*
X0182680Y0181684D02*
X0172151Y0181684D01*
X0171153Y0182683D02*
X0178367Y0182683D01*
X0177431Y0183681D02*
X0170154Y0183681D01*
X0169156Y0184680D02*
X0177431Y0184680D01*
X0177431Y0185678D02*
X0168157Y0185678D01*
X0167159Y0186677D02*
X0177431Y0186677D01*
X0176689Y0187675D02*
X0166160Y0187675D01*
X0165162Y0188674D02*
X0175690Y0188674D01*
X0174692Y0189672D02*
X0164163Y0189672D01*
X0163165Y0190671D02*
X0173693Y0190671D01*
X0172695Y0191670D02*
X0162166Y0191670D01*
X0161167Y0192668D02*
X0171696Y0192668D01*
X0170864Y0193667D02*
X0160568Y0193667D01*
X0160568Y0194665D02*
X0170600Y0194665D01*
X0170600Y0195664D02*
X0160568Y0195664D01*
X0160288Y0196662D02*
X0170600Y0196662D01*
X0170600Y0197661D02*
X0150800Y0197661D01*
X0150800Y0198659D02*
X0170600Y0198659D01*
X0170600Y0199658D02*
X0150800Y0199658D01*
X0150800Y0200656D02*
X0170600Y0200656D01*
X0170600Y0201655D02*
X0150800Y0201655D01*
X0150800Y0202653D02*
X0170600Y0202653D01*
X0170600Y0203652D02*
X0150800Y0203652D01*
X0150800Y0204650D02*
X0170600Y0204650D01*
X0170600Y0205649D02*
X0150800Y0205649D01*
X0150800Y0206647D02*
X0170600Y0206647D01*
X0169861Y0207646D02*
X0150800Y0207646D01*
X0151435Y0208644D02*
X0152307Y0208644D01*
X0152268Y0208712D02*
X0152465Y0208370D01*
X0152744Y0208091D01*
X0153086Y0207894D01*
X0153468Y0207791D01*
X0154953Y0207791D01*
X0154953Y0210776D01*
X0152165Y0210776D01*
X0152165Y0209094D01*
X0152268Y0208712D01*
X0152165Y0209643D02*
X0151435Y0209643D01*
X0151435Y0210641D02*
X0152165Y0210641D01*
X0152165Y0211350D02*
X0154953Y0211350D01*
X0154953Y0210776D01*
X0155528Y0210776D01*
X0155528Y0211350D01*
X0158315Y0211350D01*
X0158315Y0213032D01*
X0158213Y0213414D01*
X0158015Y0213756D01*
X0157736Y0214035D01*
X0157394Y0214232D01*
X0157012Y0214335D01*
X0155528Y0214335D01*
X0155528Y0211350D01*
X0154953Y0211350D01*
X0154953Y0214335D01*
X0153468Y0214335D01*
X0153086Y0214232D01*
X0152744Y0214035D01*
X0152465Y0213756D01*
X0152268Y0213414D01*
X0152165Y0213032D01*
X0152165Y0211350D01*
X0152165Y0211640D02*
X0151435Y0211640D01*
X0151435Y0212638D02*
X0152165Y0212638D01*
X0152396Y0213637D02*
X0151435Y0213637D01*
X0150504Y0214635D02*
X0170016Y0214635D01*
X0169085Y0213637D02*
X0158084Y0213637D01*
X0158315Y0212638D02*
X0169085Y0212638D01*
X0169085Y0211640D02*
X0158315Y0211640D01*
X0158315Y0210776D02*
X0155528Y0210776D01*
X0155528Y0207791D01*
X0157012Y0207791D01*
X0157394Y0207894D01*
X0157736Y0208091D01*
X0158015Y0208370D01*
X0158213Y0208712D01*
X0158315Y0209094D01*
X0158315Y0210776D01*
X0158315Y0210641D02*
X0169085Y0210641D01*
X0169085Y0209643D02*
X0158315Y0209643D01*
X0158173Y0208644D02*
X0169085Y0208644D01*
X0175659Y0207646D02*
X0185610Y0207646D01*
X0186609Y0208644D02*
X0183173Y0208644D01*
X0183213Y0208712D02*
X0183315Y0209094D01*
X0183315Y0210776D01*
X0180528Y0210776D01*
X0180528Y0211350D01*
X0183315Y0211350D01*
X0183315Y0213032D01*
X0183213Y0213414D01*
X0183015Y0213756D01*
X0182736Y0214035D01*
X0182394Y0214232D01*
X0182012Y0214335D01*
X0180528Y0214335D01*
X0180528Y0211350D01*
X0179953Y0211350D01*
X0179953Y0210776D01*
X0177165Y0210776D01*
X0177165Y0209094D01*
X0177268Y0208712D01*
X0177465Y0208370D01*
X0177744Y0208091D01*
X0178086Y0207894D01*
X0178468Y0207791D01*
X0179953Y0207791D01*
X0179953Y0210776D01*
X0180528Y0210776D01*
X0180528Y0207791D01*
X0182012Y0207791D01*
X0182394Y0207894D01*
X0182736Y0208091D01*
X0183015Y0208370D01*
X0183213Y0208712D01*
X0183315Y0209643D02*
X0187607Y0209643D01*
X0188606Y0210641D02*
X0183315Y0210641D01*
X0183315Y0211640D02*
X0189604Y0211640D01*
X0190603Y0212638D02*
X0183315Y0212638D01*
X0183084Y0213637D02*
X0191601Y0213637D01*
X0192600Y0214635D02*
X0175504Y0214635D01*
X0176435Y0213637D02*
X0177396Y0213637D01*
X0177465Y0213756D02*
X0177268Y0213414D01*
X0177165Y0213032D01*
X0177165Y0211350D01*
X0179953Y0211350D01*
X0179953Y0214335D01*
X0178468Y0214335D01*
X0178086Y0214232D01*
X0177744Y0214035D01*
X0177465Y0213756D01*
X0177165Y0212638D02*
X0176435Y0212638D01*
X0176435Y0211640D02*
X0177165Y0211640D01*
X0177165Y0210641D02*
X0176435Y0210641D01*
X0176435Y0209643D02*
X0177165Y0209643D01*
X0177307Y0208644D02*
X0176435Y0208644D01*
X0175600Y0206647D02*
X0184612Y0206647D01*
X0183613Y0205649D02*
X0175600Y0205649D01*
X0175600Y0204650D02*
X0182615Y0204650D01*
X0181616Y0203652D02*
X0175600Y0203652D01*
X0175600Y0202653D02*
X0180618Y0202653D01*
X0179714Y0201655D02*
X0175600Y0201655D01*
X0175600Y0200656D02*
X0179400Y0200656D01*
X0179400Y0199658D02*
X0175600Y0199658D01*
X0175600Y0198659D02*
X0179400Y0198659D01*
X0179400Y0197661D02*
X0175600Y0197661D01*
X0175600Y0196662D02*
X0177712Y0196662D01*
X0177431Y0195664D02*
X0175772Y0195664D01*
X0176770Y0194665D02*
X0177431Y0194665D01*
X0184400Y0197661D02*
X0198704Y0197661D01*
X0197705Y0198659D02*
X0184400Y0198659D01*
X0184693Y0199658D02*
X0196707Y0199658D01*
X0195751Y0200656D02*
X0185692Y0200656D01*
X0186690Y0201655D02*
X0195400Y0201655D01*
X0195400Y0202653D02*
X0187689Y0202653D01*
X0188687Y0203652D02*
X0195400Y0203652D01*
X0195400Y0204650D02*
X0189686Y0204650D01*
X0190684Y0205649D02*
X0195400Y0205649D01*
X0195400Y0206647D02*
X0191683Y0206647D01*
X0192681Y0207646D02*
X0194861Y0207646D01*
X0194085Y0208644D02*
X0193680Y0208644D01*
X0193598Y0215634D02*
X0179513Y0215634D01*
X0180175Y0216632D02*
X0194597Y0216632D01*
X0198870Y0222623D02*
X0181612Y0222623D01*
X0180614Y0223622D02*
X0264321Y0223622D01*
X0264321Y0224620D02*
X0179615Y0224620D01*
X0178617Y0225619D02*
X0264321Y0225619D01*
X0264321Y0226617D02*
X0177618Y0226617D01*
X0176620Y0227616D02*
X0264321Y0227616D01*
X0264321Y0228614D02*
X0175621Y0228614D01*
X0174623Y0229613D02*
X0264321Y0229613D01*
X0264321Y0230611D02*
X0173624Y0230611D01*
X0172626Y0231610D02*
X0264321Y0231610D01*
X0264321Y0232608D02*
X0258546Y0232608D01*
X0258014Y0232388D02*
X0260812Y0233547D01*
X0262953Y0235688D01*
X0264112Y0238486D01*
X0264112Y0241514D01*
X0262953Y0244312D01*
X0260812Y0246453D01*
X0258014Y0247612D01*
X0254986Y0247612D01*
X0252188Y0246453D01*
X0250047Y0244312D01*
X0248888Y0241514D01*
X0248888Y0238486D01*
X0250047Y0235688D01*
X0252188Y0233547D01*
X0254986Y0232388D01*
X0258014Y0232388D01*
X0260872Y0233607D02*
X0264321Y0233607D01*
X0264321Y0234605D02*
X0261870Y0234605D01*
X0262869Y0235604D02*
X0264321Y0235604D01*
X0264321Y0236603D02*
X0263332Y0236603D01*
X0263745Y0237601D02*
X0264321Y0237601D01*
X0264321Y0238600D02*
X0264112Y0238600D01*
X0264112Y0239598D02*
X0264321Y0239598D01*
X0264321Y0240597D02*
X0264112Y0240597D01*
X0264078Y0241595D02*
X0264321Y0241595D01*
X0264321Y0242594D02*
X0263665Y0242594D01*
X0263251Y0243592D02*
X0264321Y0243592D01*
X0264321Y0244591D02*
X0262674Y0244591D01*
X0261676Y0245589D02*
X0264321Y0245589D01*
X0264321Y0246588D02*
X0260487Y0246588D01*
X0258076Y0247586D02*
X0264321Y0247586D01*
X0264321Y0248585D02*
X0003600Y0248585D01*
X0003600Y0249583D02*
X0264321Y0249583D01*
X0254924Y0247586D02*
X0013076Y0247586D01*
X0013014Y0247612D02*
X0009986Y0247612D01*
X0007188Y0246453D01*
X0005047Y0244312D01*
X0003888Y0241514D01*
X0003888Y0238486D01*
X0005047Y0235688D01*
X0007188Y0233547D01*
X0009986Y0232388D01*
X0013014Y0232388D01*
X0015812Y0233547D01*
X0017953Y0235688D01*
X0019112Y0238486D01*
X0019112Y0241514D01*
X0017953Y0244312D01*
X0015812Y0246453D01*
X0013014Y0247612D01*
X0015487Y0246588D02*
X0252513Y0246588D01*
X0251324Y0245589D02*
X0016676Y0245589D01*
X0017674Y0244591D02*
X0250326Y0244591D01*
X0249749Y0243592D02*
X0018251Y0243592D01*
X0018665Y0242594D02*
X0093398Y0242594D01*
X0092400Y0241595D02*
X0019078Y0241595D01*
X0019112Y0240597D02*
X0091756Y0240597D01*
X0091342Y0239598D02*
X0019112Y0239598D01*
X0019112Y0238600D02*
X0091200Y0238600D01*
X0091200Y0237601D02*
X0018745Y0237601D01*
X0018332Y0236603D02*
X0031117Y0236603D01*
X0031615Y0237100D02*
X0029400Y0234885D01*
X0029400Y0232188D01*
X0029400Y0231245D01*
X0029416Y0231229D01*
X0029724Y0230921D01*
X0029400Y0230596D01*
X0029400Y0228691D01*
X0030182Y0227909D01*
X0029400Y0227127D01*
X0029400Y0225221D01*
X0029724Y0224897D01*
X0029400Y0224572D01*
X0029400Y0220932D01*
X0030158Y0220174D01*
X0029400Y0219416D01*
X0029400Y0217511D01*
X0030166Y0216745D01*
X0029400Y0215978D01*
X0029400Y0214073D01*
X0029732Y0213741D01*
X0029400Y0213408D01*
X0029400Y0209768D01*
X0029732Y0209436D01*
X0029400Y0209103D01*
X0029400Y0205463D01*
X0029724Y0205139D01*
X0029400Y0204814D01*
X0029400Y0201174D01*
X0029732Y0200842D01*
X0029400Y0200509D01*
X0029400Y0196002D01*
X0030747Y0194654D01*
X0036122Y0194654D01*
X0037857Y0194654D01*
X0039204Y0196002D01*
X0039204Y0197907D01*
X0037857Y0199254D01*
X0037470Y0199254D01*
X0037470Y0200509D01*
X0037470Y0200509D01*
X0037470Y0200509D01*
X0037285Y0200694D01*
X0037857Y0200694D01*
X0039204Y0202042D01*
X0039204Y0204814D01*
X0037857Y0206162D01*
X0037470Y0206162D01*
X0037470Y0207198D01*
X0037470Y0208141D01*
X0037470Y0209103D01*
X0037470Y0209103D01*
X0037470Y0209103D01*
X0037285Y0209288D01*
X0038725Y0209288D01*
X0039768Y0210332D01*
X0040238Y0209861D01*
X0039480Y0209103D01*
X0039480Y0206426D01*
X0039480Y0205463D01*
X0039804Y0205139D01*
X0039480Y0204814D01*
X0039480Y0202909D01*
X0040262Y0202127D01*
X0039480Y0201345D01*
X0039480Y0199439D01*
X0040238Y0198681D01*
X0039480Y0197923D01*
X0039480Y0196220D01*
X0039480Y0194315D01*
X0040827Y0192968D01*
X0041392Y0192968D01*
X0039480Y0191056D01*
X0039480Y0188378D01*
X0039480Y0187416D01*
X0039804Y0187091D01*
X0039480Y0186767D01*
X0039480Y0179689D01*
X0039812Y0179357D01*
X0039480Y0179024D01*
X0039480Y0175384D01*
X0039804Y0175060D01*
X0039480Y0174735D01*
X0039480Y0172830D01*
X0040827Y0171483D01*
X0042562Y0171483D01*
X0042950Y0171095D01*
X0042950Y0170228D01*
X0044297Y0168880D01*
X0046202Y0168880D01*
X0047550Y0170228D01*
X0047550Y0174735D01*
X0047225Y0175060D01*
X0047550Y0175384D01*
X0047550Y0177119D01*
X0047550Y0178062D01*
X0047550Y0179024D01*
X0047550Y0179024D01*
X0047365Y0179209D01*
X0047937Y0179209D01*
X0049284Y0180557D01*
X0049284Y0183329D01*
X0048952Y0183662D01*
X0049284Y0183994D01*
X0049284Y0186767D01*
X0047937Y0188114D01*
X0047550Y0188114D01*
X0047550Y0189151D01*
X0047550Y0190113D01*
X0047550Y0191056D01*
X0047550Y0191056D01*
X0047221Y0191384D01*
X0047550Y0191713D01*
X0047550Y0196018D01*
X0048417Y0196885D01*
X0048417Y0198791D01*
X0047225Y0199982D01*
X0047550Y0200307D01*
X0047550Y0204814D01*
X0047225Y0205139D01*
X0047550Y0205463D01*
X0047550Y0207198D01*
X0047550Y0208160D01*
X0047550Y0208885D01*
X0047937Y0209272D01*
X0049284Y0210620D01*
X0049284Y0212354D01*
X0049284Y0212354D01*
X0049284Y0213317D01*
X0049284Y0214260D01*
X0048161Y0215383D01*
X0047937Y0215607D01*
X0047086Y0216458D01*
X0047070Y0216474D01*
X0047070Y0216474D01*
X0046127Y0216474D01*
X0041695Y0216474D01*
X0040827Y0215607D01*
X0039480Y0214260D01*
X0039480Y0213133D01*
X0039204Y0213408D01*
X0039204Y0215111D01*
X0038438Y0215877D01*
X0039204Y0216643D01*
X0039204Y0218549D01*
X0037145Y0220608D01*
X0037470Y0220932D01*
X0037470Y0222667D01*
X0037470Y0223610D01*
X0037470Y0224572D01*
X0037470Y0224573D01*
X0036712Y0225331D01*
X0037470Y0226089D01*
X0037470Y0227344D01*
X0037857Y0227344D01*
X0039204Y0228691D01*
X0039204Y0230596D01*
X0038880Y0230921D01*
X0039204Y0231245D01*
X0039204Y0232980D01*
X0039204Y0232980D01*
X0039204Y0233942D01*
X0039204Y0234885D01*
X0039204Y0234885D01*
X0039204Y0234885D01*
X0038081Y0236009D01*
X0037857Y0236233D01*
X0037006Y0237084D01*
X0036990Y0237100D01*
X0036990Y0237100D01*
X0036047Y0237100D01*
X0035179Y0237100D01*
X0034217Y0237100D01*
X0033869Y0236752D01*
X0033520Y0237100D01*
X0031615Y0237100D01*
X0030119Y0235604D02*
X0017869Y0235604D01*
X0016870Y0234605D02*
X0029400Y0234605D01*
X0029400Y0233607D02*
X0015872Y0233607D01*
X0013546Y0232608D02*
X0029400Y0232608D01*
X0029400Y0231610D02*
X0003600Y0231610D01*
X0003600Y0232608D02*
X0009454Y0232608D01*
X0007128Y0233607D02*
X0003600Y0233607D01*
X0003600Y0234605D02*
X0006130Y0234605D01*
X0005131Y0235604D02*
X0003600Y0235604D01*
X0003600Y0236603D02*
X0004668Y0236603D01*
X0004255Y0237601D02*
X0003600Y0237601D01*
X0003600Y0238600D02*
X0003888Y0238600D01*
X0003888Y0239598D02*
X0003600Y0239598D01*
X0003600Y0240597D02*
X0003888Y0240597D01*
X0003922Y0241595D02*
X0003600Y0241595D01*
X0003600Y0242594D02*
X0004335Y0242594D01*
X0004749Y0243592D02*
X0003600Y0243592D01*
X0003600Y0244591D02*
X0005326Y0244591D01*
X0006324Y0245589D02*
X0003600Y0245589D01*
X0003600Y0246588D02*
X0007513Y0246588D01*
X0009924Y0247586D02*
X0003600Y0247586D01*
X0003600Y0230611D02*
X0029415Y0230611D01*
X0029400Y0231245D02*
X0029400Y0231245D01*
X0029400Y0229613D02*
X0003600Y0229613D01*
X0003600Y0228614D02*
X0029476Y0228614D01*
X0029889Y0227616D02*
X0003600Y0227616D01*
X0003600Y0226617D02*
X0029400Y0226617D01*
X0029400Y0225619D02*
X0003600Y0225619D01*
X0003600Y0224620D02*
X0029448Y0224620D01*
X0029400Y0223622D02*
X0003600Y0223622D01*
X0003600Y0222623D02*
X0029400Y0222623D01*
X0029400Y0221625D02*
X0003600Y0221625D01*
X0003600Y0220626D02*
X0029706Y0220626D01*
X0029612Y0219628D02*
X0003600Y0219628D01*
X0003600Y0218629D02*
X0029400Y0218629D01*
X0029400Y0217631D02*
X0003600Y0217631D01*
X0003600Y0216632D02*
X0030054Y0216632D01*
X0029400Y0215634D02*
X0003600Y0215634D01*
X0003600Y0214635D02*
X0029400Y0214635D01*
X0029628Y0213637D02*
X0003600Y0213637D01*
X0003600Y0212638D02*
X0029400Y0212638D01*
X0029400Y0211640D02*
X0003600Y0211640D01*
X0003600Y0210641D02*
X0029400Y0210641D01*
X0029525Y0209643D02*
X0003600Y0209643D01*
X0003600Y0208644D02*
X0029400Y0208644D01*
X0029400Y0207646D02*
X0003600Y0207646D01*
X0003600Y0206647D02*
X0029400Y0206647D01*
X0029400Y0205649D02*
X0003600Y0205649D01*
X0003600Y0204650D02*
X0029400Y0204650D01*
X0029400Y0203652D02*
X0003600Y0203652D01*
X0003600Y0202653D02*
X0029400Y0202653D01*
X0029400Y0201655D02*
X0003600Y0201655D01*
X0003600Y0200656D02*
X0029547Y0200656D01*
X0029400Y0199658D02*
X0003600Y0199658D01*
X0003600Y0198659D02*
X0029400Y0198659D01*
X0029400Y0197661D02*
X0003600Y0197661D01*
X0003600Y0196662D02*
X0029400Y0196662D01*
X0029738Y0195664D02*
X0003600Y0195664D01*
X0003600Y0194665D02*
X0030737Y0194665D01*
X0030747Y0192411D02*
X0029400Y0191064D01*
X0029400Y0189159D01*
X0030182Y0188376D01*
X0029400Y0187594D01*
X0029400Y0185689D01*
X0029724Y0185365D01*
X0029400Y0185040D01*
X0029400Y0182362D01*
X0029400Y0181400D01*
X0029724Y0181076D01*
X0029400Y0180751D01*
X0029400Y0177206D01*
X0029400Y0176244D01*
X0030158Y0175485D01*
X0029400Y0174727D01*
X0029400Y0172050D01*
X0029400Y0171087D01*
X0030267Y0170220D01*
X0030267Y0170220D01*
X0030523Y0169964D01*
X0030592Y0169895D01*
X0030491Y0169795D01*
X0030267Y0169571D01*
X0029400Y0168703D01*
X0029400Y0167001D01*
X0029400Y0163361D01*
X0029732Y0163028D01*
X0029400Y0162696D01*
X0029400Y0154862D01*
X0029400Y0153899D01*
X0030267Y0153032D01*
X0030267Y0153032D01*
X0030523Y0152776D01*
X0031615Y0151684D01*
X0032577Y0151684D01*
X0033520Y0151684D01*
X0033520Y0151684D01*
X0033540Y0151704D01*
X0033869Y0152033D01*
X0034217Y0151684D01*
X0036122Y0151684D01*
X0037470Y0153032D01*
X0037470Y0155634D01*
X0037470Y0156577D01*
X0037470Y0157539D01*
X0037470Y0157539D01*
X0037470Y0157539D01*
X0037145Y0157864D01*
X0037470Y0158188D01*
X0037470Y0160790D01*
X0037470Y0161753D01*
X0037470Y0162696D01*
X0037285Y0162881D01*
X0038725Y0162881D01*
X0040072Y0164228D01*
X0040072Y0166133D01*
X0038725Y0167481D01*
X0038152Y0167481D01*
X0038337Y0167666D01*
X0038337Y0169571D01*
X0037145Y0170763D01*
X0037470Y0171087D01*
X0037470Y0172822D01*
X0037470Y0173784D01*
X0037470Y0174727D01*
X0037470Y0174727D01*
X0036712Y0175485D01*
X0037470Y0176244D01*
X0037470Y0177498D01*
X0037857Y0177498D01*
X0039204Y0178846D01*
X0039204Y0180751D01*
X0037857Y0182098D01*
X0037470Y0182098D01*
X0037470Y0183135D01*
X0037470Y0184097D01*
X0037470Y0184822D01*
X0038337Y0185689D01*
X0039204Y0186556D01*
X0039204Y0191064D01*
X0037857Y0192411D01*
X0032482Y0192411D01*
X0030747Y0192411D01*
X0030006Y0191670D02*
X0003600Y0191670D01*
X0003600Y0192668D02*
X0041092Y0192668D01*
X0040128Y0193667D02*
X0003600Y0193667D01*
X0003600Y0190671D02*
X0029400Y0190671D01*
X0029400Y0189672D02*
X0003600Y0189672D01*
X0003600Y0188674D02*
X0029885Y0188674D01*
X0029481Y0187675D02*
X0003600Y0187675D01*
X0003600Y0186677D02*
X0029400Y0186677D01*
X0029410Y0185678D02*
X0003600Y0185678D01*
X0003600Y0184680D02*
X0029400Y0184680D01*
X0029400Y0183681D02*
X0003600Y0183681D01*
X0003600Y0182683D02*
X0029400Y0182683D01*
X0029400Y0181684D02*
X0003600Y0181684D01*
X0003600Y0180686D02*
X0029400Y0180686D01*
X0029400Y0179687D02*
X0003600Y0179687D01*
X0003600Y0178689D02*
X0029400Y0178689D01*
X0029400Y0177690D02*
X0003600Y0177690D01*
X0003600Y0176692D02*
X0029400Y0176692D01*
X0029950Y0175693D02*
X0003600Y0175693D01*
X0003600Y0174695D02*
X0029400Y0174695D01*
X0029400Y0173696D02*
X0003600Y0173696D01*
X0003600Y0172698D02*
X0029400Y0172698D01*
X0029400Y0171699D02*
X0003600Y0171699D01*
X0003600Y0170701D02*
X0029786Y0170701D01*
X0030399Y0169702D02*
X0003600Y0169702D01*
X0003600Y0168704D02*
X0029400Y0168704D01*
X0029400Y0167705D02*
X0003600Y0167705D01*
X0003600Y0166707D02*
X0029400Y0166707D01*
X0029400Y0167001D02*
X0029400Y0167001D01*
X0029400Y0165708D02*
X0003600Y0165708D01*
X0003600Y0164710D02*
X0029400Y0164710D01*
X0029400Y0163711D02*
X0003600Y0163711D01*
X0003600Y0162713D02*
X0029417Y0162713D01*
X0029400Y0161714D02*
X0003600Y0161714D01*
X0003600Y0160716D02*
X0029400Y0160716D01*
X0029400Y0159717D02*
X0003600Y0159717D01*
X0003600Y0158719D02*
X0029400Y0158719D01*
X0029400Y0157720D02*
X0003600Y0157720D01*
X0003600Y0156722D02*
X0029400Y0156722D01*
X0029400Y0155723D02*
X0003600Y0155723D01*
X0003600Y0154725D02*
X0029400Y0154725D01*
X0029573Y0153726D02*
X0003600Y0153726D01*
X0003600Y0152728D02*
X0030572Y0152728D01*
X0031570Y0151729D02*
X0003600Y0151729D01*
X0003600Y0150731D02*
X0072834Y0150731D01*
X0071835Y0151729D02*
X0036167Y0151729D01*
X0037165Y0152728D02*
X0070837Y0152728D01*
X0069838Y0153726D02*
X0037470Y0153726D01*
X0037470Y0154725D02*
X0068840Y0154725D01*
X0067841Y0155723D02*
X0037470Y0155723D01*
X0037470Y0155634D02*
X0037470Y0155634D01*
X0037470Y0156722D02*
X0066843Y0156722D01*
X0065844Y0157720D02*
X0037289Y0157720D01*
X0037470Y0158719D02*
X0064846Y0158719D01*
X0063847Y0159717D02*
X0037470Y0159717D01*
X0037470Y0160716D02*
X0062849Y0160716D01*
X0062044Y0161714D02*
X0037470Y0161714D01*
X0037470Y0160790D02*
X0037470Y0160790D01*
X0037470Y0162696D02*
X0037470Y0162696D01*
X0037470Y0162696D01*
X0037453Y0162713D02*
X0061800Y0162713D01*
X0061800Y0163711D02*
X0039555Y0163711D01*
X0040072Y0164710D02*
X0061800Y0164710D01*
X0061800Y0165708D02*
X0040072Y0165708D01*
X0039498Y0166707D02*
X0061800Y0166707D01*
X0061800Y0167705D02*
X0038337Y0167705D01*
X0038337Y0168704D02*
X0061800Y0168704D01*
X0061800Y0169702D02*
X0047024Y0169702D01*
X0047550Y0170701D02*
X0061800Y0170701D01*
X0061800Y0171699D02*
X0047550Y0171699D01*
X0047550Y0172698D02*
X0062049Y0172698D01*
X0062861Y0173696D02*
X0047550Y0173696D01*
X0047550Y0174695D02*
X0063859Y0174695D01*
X0064858Y0175693D02*
X0047550Y0175693D01*
X0047550Y0176692D02*
X0065856Y0176692D01*
X0066855Y0177690D02*
X0047550Y0177690D01*
X0047550Y0177119D02*
X0047550Y0177119D01*
X0047550Y0178689D02*
X0067853Y0178689D01*
X0068852Y0179687D02*
X0048415Y0179687D01*
X0047550Y0179024D02*
X0047550Y0179024D01*
X0049284Y0180686D02*
X0069000Y0180686D01*
X0069000Y0181684D02*
X0049284Y0181684D01*
X0049284Y0182683D02*
X0068367Y0182683D01*
X0067431Y0183681D02*
X0048972Y0183681D01*
X0049284Y0184680D02*
X0067431Y0184680D01*
X0067431Y0185678D02*
X0049284Y0185678D01*
X0049284Y0186677D02*
X0067431Y0186677D01*
X0067431Y0187675D02*
X0048376Y0187675D01*
X0047550Y0188674D02*
X0067431Y0188674D01*
X0067431Y0189672D02*
X0047550Y0189672D01*
X0047550Y0189151D02*
X0047550Y0189151D01*
X0047550Y0190671D02*
X0067431Y0190671D01*
X0067431Y0191670D02*
X0047506Y0191670D01*
X0047550Y0191056D02*
X0047550Y0191056D01*
X0047550Y0192668D02*
X0067431Y0192668D01*
X0067431Y0193667D02*
X0047550Y0193667D01*
X0047550Y0194665D02*
X0067431Y0194665D01*
X0067431Y0195664D02*
X0047550Y0195664D01*
X0048194Y0196662D02*
X0067712Y0196662D01*
X0069800Y0197661D02*
X0048417Y0197661D01*
X0048417Y0198659D02*
X0069800Y0198659D01*
X0069800Y0199658D02*
X0047550Y0199658D01*
X0047550Y0200656D02*
X0069800Y0200656D01*
X0069800Y0201655D02*
X0047550Y0201655D01*
X0047550Y0202653D02*
X0069800Y0202653D01*
X0069800Y0203652D02*
X0047550Y0203652D01*
X0047550Y0204650D02*
X0069800Y0204650D01*
X0069800Y0205649D02*
X0047550Y0205649D01*
X0047550Y0206647D02*
X0069800Y0206647D01*
X0069800Y0207646D02*
X0047550Y0207646D01*
X0047550Y0207198D02*
X0047550Y0207198D01*
X0047550Y0208644D02*
X0069085Y0208644D01*
X0069085Y0209643D02*
X0048308Y0209643D01*
X0049284Y0210641D02*
X0069085Y0210641D01*
X0069085Y0211640D02*
X0049284Y0211640D01*
X0049284Y0212638D02*
X0069085Y0212638D01*
X0069085Y0213637D02*
X0049284Y0213637D01*
X0049284Y0214260D02*
X0049284Y0214260D01*
X0049284Y0214260D01*
X0048909Y0214635D02*
X0070016Y0214635D01*
X0072825Y0216632D02*
X0039193Y0216632D01*
X0039204Y0217631D02*
X0072825Y0217631D01*
X0072825Y0218629D02*
X0039124Y0218629D01*
X0039917Y0219628D02*
X0038125Y0219628D01*
X0037164Y0220626D02*
X0039480Y0220626D01*
X0039480Y0220065D02*
X0040827Y0218718D01*
X0042733Y0218718D01*
X0044382Y0220367D01*
X0046032Y0218718D01*
X0047937Y0218718D01*
X0049284Y0220065D01*
X0049284Y0221970D01*
X0048502Y0222752D01*
X0049284Y0223535D01*
X0049284Y0225440D01*
X0048960Y0225764D01*
X0049284Y0226089D01*
X0049284Y0230596D01*
X0048526Y0231354D01*
X0049265Y0232093D01*
X0049284Y0232112D01*
X0049284Y0234018D01*
X0046202Y0237100D01*
X0043430Y0237100D01*
X0040827Y0237100D01*
X0039480Y0235753D01*
X0039480Y0233847D01*
X0040262Y0233065D01*
X0039480Y0232283D01*
X0039480Y0228691D01*
X0040262Y0227909D01*
X0039480Y0227127D01*
X0039480Y0223535D01*
X0040262Y0222752D01*
X0039480Y0221970D01*
X0039480Y0220065D01*
X0039480Y0221625D02*
X0037470Y0221625D01*
X0037470Y0222623D02*
X0040133Y0222623D01*
X0039480Y0223622D02*
X0037470Y0223622D01*
X0037470Y0224573D02*
X0037470Y0224573D01*
X0037422Y0224620D02*
X0039480Y0224620D01*
X0039480Y0225619D02*
X0037000Y0225619D01*
X0037470Y0226617D02*
X0039480Y0226617D01*
X0039969Y0227616D02*
X0038129Y0227616D01*
X0039128Y0228614D02*
X0039556Y0228614D01*
X0039480Y0229613D02*
X0039204Y0229613D01*
X0039189Y0230611D02*
X0039480Y0230611D01*
X0039480Y0231610D02*
X0039204Y0231610D01*
X0039204Y0232608D02*
X0039805Y0232608D01*
X0039720Y0233607D02*
X0039204Y0233607D01*
X0039204Y0234605D02*
X0039480Y0234605D01*
X0039480Y0235604D02*
X0038486Y0235604D01*
X0037857Y0236233D02*
X0037857Y0236233D01*
X0037487Y0236603D02*
X0040330Y0236603D01*
X0046700Y0236603D02*
X0091200Y0236603D01*
X0091200Y0235604D02*
X0047698Y0235604D01*
X0048697Y0234605D02*
X0091200Y0234605D01*
X0091200Y0233607D02*
X0049284Y0233607D01*
X0049284Y0232608D02*
X0090573Y0232608D01*
X0089574Y0231610D02*
X0048782Y0231610D01*
X0049269Y0230611D02*
X0088576Y0230611D01*
X0087577Y0229613D02*
X0049284Y0229613D01*
X0049284Y0228614D02*
X0086579Y0228614D01*
X0085580Y0227616D02*
X0049284Y0227616D01*
X0049284Y0226617D02*
X0084582Y0226617D01*
X0083583Y0225619D02*
X0049105Y0225619D01*
X0049284Y0224620D02*
X0082585Y0224620D01*
X0081586Y0223622D02*
X0049284Y0223622D01*
X0048631Y0222623D02*
X0073870Y0222623D01*
X0072872Y0221625D02*
X0049284Y0221625D01*
X0049284Y0220626D02*
X0072825Y0220626D01*
X0072825Y0219628D02*
X0048847Y0219628D01*
X0045121Y0219628D02*
X0043643Y0219628D01*
X0040854Y0215634D02*
X0038682Y0215634D01*
X0039204Y0214635D02*
X0039856Y0214635D01*
X0039480Y0213637D02*
X0039204Y0213637D01*
X0039079Y0209643D02*
X0040019Y0209643D01*
X0039480Y0208644D02*
X0037470Y0208644D01*
X0037470Y0207646D02*
X0039480Y0207646D01*
X0039480Y0206647D02*
X0037470Y0206647D01*
X0037470Y0207198D02*
X0037470Y0207198D01*
X0038370Y0205649D02*
X0039480Y0205649D01*
X0039480Y0204650D02*
X0039204Y0204650D01*
X0039204Y0203652D02*
X0039480Y0203652D01*
X0039736Y0202653D02*
X0039204Y0202653D01*
X0038818Y0201655D02*
X0039790Y0201655D01*
X0039480Y0200656D02*
X0037323Y0200656D01*
X0037470Y0199658D02*
X0039480Y0199658D01*
X0040216Y0198659D02*
X0038452Y0198659D01*
X0039204Y0197661D02*
X0039480Y0197661D01*
X0039480Y0196662D02*
X0039204Y0196662D01*
X0039480Y0196220D02*
X0039480Y0196220D01*
X0039480Y0195664D02*
X0038866Y0195664D01*
X0039480Y0194665D02*
X0037868Y0194665D01*
X0038599Y0191670D02*
X0040094Y0191670D01*
X0039480Y0190671D02*
X0039204Y0190671D01*
X0039204Y0189672D02*
X0039480Y0189672D01*
X0039480Y0188674D02*
X0039204Y0188674D01*
X0039204Y0187675D02*
X0039480Y0187675D01*
X0039480Y0186677D02*
X0039204Y0186677D01*
X0039480Y0185678D02*
X0038327Y0185678D01*
X0037470Y0184680D02*
X0039480Y0184680D01*
X0039480Y0183681D02*
X0037470Y0183681D01*
X0037470Y0183135D02*
X0037470Y0183135D01*
X0037470Y0182683D02*
X0039480Y0182683D01*
X0039480Y0181684D02*
X0038271Y0181684D01*
X0039204Y0180686D02*
X0039480Y0180686D01*
X0039482Y0179687D02*
X0039204Y0179687D01*
X0039048Y0178689D02*
X0039480Y0178689D01*
X0039480Y0177690D02*
X0038049Y0177690D01*
X0037470Y0176692D02*
X0039480Y0176692D01*
X0039480Y0175693D02*
X0036919Y0175693D01*
X0037470Y0174727D02*
X0037470Y0174727D01*
X0037470Y0174695D02*
X0039480Y0174695D01*
X0039480Y0173696D02*
X0037470Y0173696D01*
X0037470Y0172822D02*
X0037470Y0172822D01*
X0037470Y0172698D02*
X0039612Y0172698D01*
X0040611Y0171699D02*
X0037470Y0171699D01*
X0037207Y0170701D02*
X0042950Y0170701D01*
X0043475Y0169702D02*
X0038206Y0169702D01*
X0030267Y0169571D02*
X0030267Y0169571D01*
X0031615Y0151684D02*
X0031615Y0151684D01*
X0031615Y0151684D01*
X0033565Y0151729D02*
X0034172Y0151729D01*
X0045184Y0143741D02*
X0003600Y0143741D01*
X0003600Y0144739D02*
X0045904Y0144739D01*
X0046902Y0145738D02*
X0003600Y0145738D01*
X0003600Y0146737D02*
X0047901Y0146737D01*
X0045000Y0142742D02*
X0003600Y0142742D01*
X0003600Y0141744D02*
X0045000Y0141744D01*
X0045000Y0140745D02*
X0003600Y0140745D01*
X0003600Y0139747D02*
X0045000Y0139747D01*
X0045000Y0138748D02*
X0003600Y0138748D01*
X0003600Y0137750D02*
X0045000Y0137750D01*
X0045000Y0136751D02*
X0003600Y0136751D01*
X0003600Y0135753D02*
X0045062Y0135753D01*
X0045610Y0134754D02*
X0003600Y0134754D01*
X0003600Y0133756D02*
X0046609Y0133756D01*
X0047607Y0132757D02*
X0003600Y0132757D01*
X0003600Y0131759D02*
X0048606Y0131759D01*
X0049604Y0130760D02*
X0003600Y0130760D01*
X0003600Y0129762D02*
X0050603Y0129762D01*
X0051601Y0128763D02*
X0003600Y0128763D01*
X0003600Y0127765D02*
X0052600Y0127765D01*
X0053598Y0126766D02*
X0003600Y0126766D01*
X0003600Y0125768D02*
X0054597Y0125768D01*
X0055595Y0124769D02*
X0003600Y0124769D01*
X0003600Y0123771D02*
X0056594Y0123771D01*
X0057592Y0122772D02*
X0003600Y0122772D01*
X0003600Y0121774D02*
X0058591Y0121774D01*
X0059589Y0120775D02*
X0003600Y0120775D01*
X0003600Y0119777D02*
X0060588Y0119777D01*
X0061586Y0118778D02*
X0003600Y0118778D01*
X0003600Y0117780D02*
X0062585Y0117780D01*
X0063583Y0116781D02*
X0003600Y0116781D01*
X0003600Y0115783D02*
X0064582Y0115783D01*
X0065220Y0114784D02*
X0065221Y0114784D01*
X0068657Y0118778D02*
X0087186Y0118778D01*
X0086188Y0119777D02*
X0067659Y0119777D01*
X0066660Y0120775D02*
X0085189Y0120775D01*
X0084191Y0121774D02*
X0065662Y0121774D01*
X0064663Y0122772D02*
X0083192Y0122772D01*
X0082194Y0123771D02*
X0063665Y0123771D01*
X0062666Y0124769D02*
X0081195Y0124769D01*
X0080197Y0125768D02*
X0061668Y0125768D01*
X0060669Y0126766D02*
X0079198Y0126766D01*
X0078200Y0127765D02*
X0059671Y0127765D01*
X0058672Y0128763D02*
X0077201Y0128763D01*
X0076203Y0129762D02*
X0057674Y0129762D01*
X0056675Y0130760D02*
X0075204Y0130760D01*
X0074206Y0131759D02*
X0055677Y0131759D01*
X0054678Y0132757D02*
X0073207Y0132757D01*
X0072209Y0133756D02*
X0053680Y0133756D01*
X0052892Y0134544D02*
X0056539Y0134544D01*
X0057139Y0135144D01*
X0057543Y0135144D01*
X0057543Y0135548D01*
X0057543Y0135548D01*
X0057543Y0135548D01*
X0057543Y0135144D01*
X0057947Y0135144D01*
X0058547Y0134544D01*
X0066775Y0134544D01*
X0067375Y0135144D01*
X0067779Y0135144D01*
X0067779Y0135548D01*
X0067780Y0135548D01*
X0067780Y0135144D01*
X0068184Y0135144D01*
X0068784Y0134544D01*
X0071421Y0134544D01*
X0071684Y0134281D01*
X0098600Y0107364D01*
X0098600Y0105984D01*
X0099224Y0104478D01*
X0100378Y0103324D01*
X0101884Y0102700D01*
X0103516Y0102700D01*
X0105022Y0103324D01*
X0106176Y0104478D01*
X0106800Y0105984D01*
X0106800Y0106364D01*
X0107400Y0105764D01*
X0107400Y0096628D01*
X0104055Y0096628D01*
X0103128Y0095700D01*
X0100536Y0095700D01*
X0088819Y0107416D01*
X0088116Y0108119D01*
X0087197Y0108500D01*
X0085919Y0108500D01*
X0085919Y0114226D01*
X0084689Y0115456D01*
X0079020Y0115456D01*
X0078420Y0114856D01*
X0078016Y0114856D01*
X0078016Y0114452D01*
X0078016Y0114452D01*
X0078016Y0114856D01*
X0077133Y0114856D01*
X0076752Y0114754D01*
X0076736Y0114745D01*
X0076721Y0114754D01*
X0076339Y0114856D01*
X0075457Y0114856D01*
X0075457Y0114452D01*
X0075457Y0114452D01*
X0075457Y0114856D01*
X0075053Y0114856D01*
X0074453Y0115456D01*
X0071979Y0115456D01*
X0071316Y0116119D01*
X0052892Y0134544D01*
X0056750Y0134754D02*
X0058337Y0134754D01*
X0066986Y0134754D02*
X0068573Y0134754D01*
X0067780Y0135548D02*
X0067780Y0135548D01*
X0075829Y0147735D02*
X0003600Y0147735D01*
X0003600Y0148734D02*
X0074831Y0148734D01*
X0073832Y0149732D02*
X0003600Y0149732D01*
X0003600Y0114784D02*
X0047639Y0114784D01*
X0047081Y0113786D02*
X0003600Y0113786D01*
X0003600Y0112787D02*
X0047081Y0112787D01*
X0047081Y0111789D02*
X0003600Y0111789D01*
X0003600Y0110790D02*
X0047081Y0110790D01*
X0047081Y0109792D02*
X0003600Y0109792D01*
X0003600Y0108793D02*
X0047081Y0108793D01*
X0047081Y0107795D02*
X0003600Y0107795D01*
X0003600Y0106796D02*
X0047271Y0106796D01*
X0047400Y0105798D02*
X0003600Y0105798D01*
X0003600Y0104799D02*
X0047400Y0104799D01*
X0047400Y0103801D02*
X0003600Y0103801D01*
X0003600Y0102802D02*
X0047400Y0102802D01*
X0047400Y0101803D02*
X0003600Y0101803D01*
X0003600Y0100805D02*
X0047400Y0100805D01*
X0047400Y0099806D02*
X0003600Y0099806D01*
X0003600Y0098808D02*
X0047400Y0098808D01*
X0047400Y0097809D02*
X0003600Y0097809D01*
X0003600Y0096811D02*
X0047400Y0096811D01*
X0047400Y0095812D02*
X0003600Y0095812D01*
X0003600Y0094814D02*
X0047400Y0094814D01*
X0047400Y0093815D02*
X0003600Y0093815D01*
X0003600Y0092817D02*
X0047400Y0092817D01*
X0047400Y0091818D02*
X0003600Y0091818D01*
X0003600Y0090820D02*
X0047400Y0090820D01*
X0047400Y0089821D02*
X0003600Y0089821D01*
X0003600Y0088823D02*
X0047400Y0088823D01*
X0047400Y0087824D02*
X0003600Y0087824D01*
X0003600Y0086826D02*
X0047400Y0086826D01*
X0047400Y0085827D02*
X0003600Y0085827D01*
X0003600Y0084829D02*
X0047400Y0084829D01*
X0047400Y0083830D02*
X0003600Y0083830D01*
X0003600Y0082832D02*
X0047400Y0082832D01*
X0047400Y0081833D02*
X0003600Y0081833D01*
X0003600Y0080835D02*
X0047400Y0080835D01*
X0047400Y0079836D02*
X0003600Y0079836D01*
X0003600Y0078838D02*
X0047202Y0078838D01*
X0046204Y0077839D02*
X0003600Y0077839D01*
X0003600Y0076841D02*
X0045205Y0076841D01*
X0044207Y0075842D02*
X0003600Y0075842D01*
X0003600Y0074844D02*
X0043208Y0074844D01*
X0042210Y0073845D02*
X0003600Y0073845D01*
X0003600Y0072847D02*
X0041211Y0072847D01*
X0040213Y0071848D02*
X0003600Y0071848D01*
X0003600Y0070850D02*
X0039214Y0070850D01*
X0038216Y0069851D02*
X0003600Y0069851D01*
X0003600Y0068853D02*
X0037217Y0068853D01*
X0036219Y0067854D02*
X0003600Y0067854D01*
X0003600Y0066856D02*
X0035220Y0066856D01*
X0034222Y0065857D02*
X0003600Y0065857D01*
X0003600Y0064859D02*
X0033800Y0064859D01*
X0033800Y0063860D02*
X0003600Y0063860D01*
X0003600Y0062862D02*
X0033800Y0062862D01*
X0033800Y0061863D02*
X0003600Y0061863D01*
X0003600Y0060865D02*
X0033800Y0060865D01*
X0033815Y0059866D02*
X0003600Y0059866D01*
X0003600Y0058868D02*
X0034297Y0058868D01*
X0035295Y0057869D02*
X0003600Y0057869D01*
X0003600Y0056870D02*
X0036294Y0056870D01*
X0036179Y0055872D02*
X0003600Y0055872D01*
X0003600Y0054873D02*
X0036179Y0054873D01*
X0036200Y0053875D02*
X0003600Y0053875D01*
X0003600Y0052876D02*
X0021033Y0052876D01*
X0021089Y0052900D02*
X0017928Y0051591D01*
X0015509Y0049172D01*
X0014200Y0046011D01*
X0014200Y0042589D01*
X0015509Y0039428D01*
X0017928Y0037009D01*
X0021089Y0035700D01*
X0024511Y0035700D01*
X0027672Y0037009D01*
X0030091Y0039428D01*
X0031400Y0042589D01*
X0031400Y0046011D01*
X0030091Y0049172D01*
X0027672Y0051591D01*
X0024511Y0052900D01*
X0021089Y0052900D01*
X0018622Y0051878D02*
X0003600Y0051878D01*
X0003600Y0050879D02*
X0017217Y0050879D01*
X0016219Y0049881D02*
X0003600Y0049881D01*
X0003600Y0048882D02*
X0015390Y0048882D01*
X0014976Y0047884D02*
X0003600Y0047884D01*
X0003600Y0046885D02*
X0014562Y0046885D01*
X0014200Y0045887D02*
X0003600Y0045887D01*
X0003600Y0044888D02*
X0014200Y0044888D01*
X0014200Y0043890D02*
X0003600Y0043890D01*
X0003600Y0042891D02*
X0014200Y0042891D01*
X0014489Y0041893D02*
X0003600Y0041893D01*
X0003600Y0040894D02*
X0014902Y0040894D01*
X0015316Y0039896D02*
X0003600Y0039896D01*
X0003600Y0038897D02*
X0016040Y0038897D01*
X0017039Y0037899D02*
X0003600Y0037899D01*
X0003600Y0036900D02*
X0018192Y0036900D01*
X0020602Y0035902D02*
X0003600Y0035902D01*
X0003600Y0034903D02*
X0083400Y0034903D01*
X0083400Y0033905D02*
X0003600Y0033905D01*
X0003600Y0032906D02*
X0083400Y0032906D01*
X0083400Y0031908D02*
X0003600Y0031908D01*
X0003600Y0030909D02*
X0083400Y0030909D01*
X0083400Y0029911D02*
X0003600Y0029911D01*
X0003600Y0028912D02*
X0083400Y0028912D01*
X0083400Y0027914D02*
X0003600Y0027914D01*
X0003600Y0026915D02*
X0008304Y0026915D01*
X0007188Y0026453D02*
X0005047Y0024312D01*
X0003888Y0021514D01*
X0003888Y0018486D01*
X0005047Y0015688D01*
X0007188Y0013547D01*
X0009986Y0012388D01*
X0013014Y0012388D01*
X0015812Y0013547D01*
X0017953Y0015688D01*
X0019112Y0018486D01*
X0019112Y0021514D01*
X0017953Y0024312D01*
X0015812Y0026453D01*
X0013014Y0027612D01*
X0009986Y0027612D01*
X0007188Y0026453D01*
X0006652Y0025917D02*
X0003600Y0025917D01*
X0003600Y0024918D02*
X0005653Y0024918D01*
X0004885Y0023920D02*
X0003600Y0023920D01*
X0003600Y0022921D02*
X0004471Y0022921D01*
X0004057Y0021923D02*
X0003600Y0021923D01*
X0003600Y0020924D02*
X0003888Y0020924D01*
X0003888Y0019926D02*
X0003600Y0019926D01*
X0003600Y0018927D02*
X0003888Y0018927D01*
X0004119Y0017929D02*
X0003600Y0017929D01*
X0003600Y0016930D02*
X0004533Y0016930D01*
X0004946Y0015932D02*
X0003600Y0015932D01*
X0003600Y0014933D02*
X0005802Y0014933D01*
X0006801Y0013934D02*
X0003600Y0013934D01*
X0003600Y0012936D02*
X0008663Y0012936D01*
X0014337Y0012936D02*
X0085028Y0012936D01*
X0084030Y0013934D02*
X0016199Y0013934D01*
X0017198Y0014933D02*
X0083470Y0014933D01*
X0083400Y0015932D02*
X0018054Y0015932D01*
X0018467Y0016930D02*
X0083400Y0016930D01*
X0083400Y0017929D02*
X0018881Y0017929D01*
X0019112Y0018927D02*
X0083400Y0018927D01*
X0083400Y0019926D02*
X0019112Y0019926D01*
X0019112Y0020924D02*
X0083400Y0020924D01*
X0083400Y0021923D02*
X0018943Y0021923D01*
X0018529Y0022921D02*
X0083400Y0022921D01*
X0083400Y0023920D02*
X0018115Y0023920D01*
X0017347Y0024918D02*
X0083400Y0024918D01*
X0083400Y0025917D02*
X0016348Y0025917D01*
X0014696Y0026915D02*
X0083400Y0026915D01*
X0083400Y0035902D02*
X0072398Y0035902D01*
X0071911Y0035700D02*
X0075072Y0037009D01*
X0077491Y0039428D01*
X0078800Y0042589D01*
X0078800Y0046011D01*
X0077491Y0049172D01*
X0075072Y0051591D01*
X0071911Y0052900D01*
X0068489Y0052900D01*
X0065328Y0051591D01*
X0062909Y0049172D01*
X0061600Y0046011D01*
X0061600Y0042589D01*
X0062909Y0039428D01*
X0065328Y0037009D01*
X0068489Y0035700D01*
X0071911Y0035700D01*
X0074808Y0036900D02*
X0083400Y0036900D01*
X0083400Y0037899D02*
X0075961Y0037899D01*
X0076960Y0038897D02*
X0083400Y0038897D01*
X0083400Y0039896D02*
X0077684Y0039896D01*
X0078098Y0040894D02*
X0083400Y0040894D01*
X0083400Y0041893D02*
X0078511Y0041893D01*
X0078800Y0042891D02*
X0083400Y0042891D01*
X0083400Y0043890D02*
X0078800Y0043890D01*
X0078800Y0044888D02*
X0083400Y0044888D01*
X0083400Y0045887D02*
X0078800Y0045887D01*
X0078438Y0046885D02*
X0083400Y0046885D01*
X0083400Y0047884D02*
X0078024Y0047884D01*
X0077610Y0048882D02*
X0083400Y0048882D01*
X0083400Y0049881D02*
X0076781Y0049881D01*
X0075783Y0050879D02*
X0083400Y0050879D01*
X0083400Y0051878D02*
X0074378Y0051878D01*
X0071967Y0052876D02*
X0083400Y0052876D01*
X0083400Y0053875D02*
X0060510Y0053875D01*
X0059512Y0052876D02*
X0068433Y0052876D01*
X0066022Y0051878D02*
X0058513Y0051878D01*
X0057515Y0050879D02*
X0064617Y0050879D01*
X0063619Y0049881D02*
X0056516Y0049881D01*
X0055518Y0048882D02*
X0062790Y0048882D01*
X0062376Y0047884D02*
X0054519Y0047884D01*
X0048481Y0047884D02*
X0030624Y0047884D01*
X0030210Y0048882D02*
X0047482Y0048882D01*
X0046484Y0049881D02*
X0043331Y0049881D01*
X0045095Y0050879D02*
X0045485Y0050879D01*
X0039826Y0049881D02*
X0029381Y0049881D01*
X0028383Y0050879D02*
X0038063Y0050879D01*
X0037064Y0051878D02*
X0026978Y0051878D01*
X0024567Y0052876D02*
X0036613Y0052876D01*
X0031038Y0046885D02*
X0061962Y0046885D01*
X0061600Y0045887D02*
X0031400Y0045887D01*
X0031400Y0044888D02*
X0061600Y0044888D01*
X0061600Y0043890D02*
X0031400Y0043890D01*
X0031400Y0042891D02*
X0061600Y0042891D01*
X0061889Y0041893D02*
X0031111Y0041893D01*
X0030698Y0040894D02*
X0062302Y0040894D01*
X0062716Y0039896D02*
X0030284Y0039896D01*
X0029560Y0038897D02*
X0063440Y0038897D01*
X0064439Y0037899D02*
X0028561Y0037899D01*
X0027408Y0036900D02*
X0065592Y0036900D01*
X0068002Y0035902D02*
X0024998Y0035902D01*
X0051021Y0055400D02*
X0051021Y0057400D01*
X0051821Y0057400D01*
X0051821Y0055400D01*
X0051021Y0055400D01*
X0051021Y0055872D02*
X0051821Y0055872D01*
X0051821Y0056870D02*
X0051021Y0056870D01*
X0054734Y0058476D02*
X0055999Y0059741D01*
X0056821Y0061726D01*
X0056821Y0063874D01*
X0056613Y0064377D01*
X0064819Y0072584D01*
X0065200Y0073503D01*
X0065200Y0106356D01*
X0065220Y0106356D01*
X0065220Y0106760D01*
X0065220Y0106760D01*
X0065221Y0106760D02*
X0065221Y0106356D01*
X0065625Y0106356D01*
X0065886Y0106095D01*
X0066181Y0105384D01*
X0066884Y0104681D01*
X0067684Y0103881D01*
X0068603Y0103500D01*
X0085664Y0103500D01*
X0093464Y0095700D01*
X0090568Y0095700D01*
X0090568Y0096382D01*
X0089338Y0097612D01*
X0083662Y0097612D01*
X0082431Y0096382D01*
X0082431Y0090311D01*
X0082743Y0090000D01*
X0082431Y0089689D01*
X0082431Y0083618D01*
X0083662Y0082388D01*
X0084200Y0082388D01*
X0084200Y0072612D01*
X0083662Y0072612D01*
X0082431Y0071382D01*
X0082431Y0069004D01*
X0077619Y0073816D01*
X0077200Y0074236D01*
X0077200Y0090497D01*
X0076819Y0091416D01*
X0075568Y0092667D01*
X0075568Y0096382D01*
X0074338Y0097612D01*
X0068662Y0097612D01*
X0067431Y0096382D01*
X0067431Y0090311D01*
X0068211Y0089532D01*
X0068134Y0089398D01*
X0068031Y0089016D01*
X0068031Y0087138D01*
X0071016Y0087138D01*
X0071016Y0086169D01*
X0071984Y0086169D01*
X0071984Y0082988D01*
X0072200Y0082988D01*
X0072200Y0072703D01*
X0072220Y0072655D01*
X0056001Y0056437D01*
X0055870Y0056843D01*
X0055527Y0057516D01*
X0055082Y0058127D01*
X0054734Y0058476D01*
X0055126Y0058868D02*
X0058432Y0058868D01*
X0059430Y0059866D02*
X0056051Y0059866D01*
X0056464Y0060865D02*
X0060429Y0060865D01*
X0061428Y0061863D02*
X0056821Y0061863D01*
X0056821Y0062862D02*
X0062426Y0062862D01*
X0063425Y0063860D02*
X0056821Y0063860D01*
X0057094Y0064859D02*
X0064423Y0064859D01*
X0065422Y0065857D02*
X0058093Y0065857D01*
X0059091Y0066856D02*
X0066420Y0066856D01*
X0067419Y0067854D02*
X0060090Y0067854D01*
X0061088Y0068853D02*
X0068417Y0068853D01*
X0069416Y0069851D02*
X0062087Y0069851D01*
X0063085Y0070850D02*
X0070414Y0070850D01*
X0071413Y0071848D02*
X0064084Y0071848D01*
X0064928Y0072847D02*
X0072200Y0072847D01*
X0072200Y0073845D02*
X0065200Y0073845D01*
X0065200Y0074844D02*
X0072200Y0074844D01*
X0072200Y0075842D02*
X0065200Y0075842D01*
X0065200Y0076841D02*
X0072200Y0076841D01*
X0072200Y0077839D02*
X0065200Y0077839D01*
X0065200Y0078838D02*
X0072200Y0078838D01*
X0072200Y0079836D02*
X0065200Y0079836D01*
X0065200Y0080835D02*
X0072200Y0080835D01*
X0072200Y0081833D02*
X0065200Y0081833D01*
X0065200Y0082832D02*
X0072200Y0082832D01*
X0071984Y0083830D02*
X0071016Y0083830D01*
X0071016Y0082988D02*
X0071016Y0086169D01*
X0068031Y0086169D01*
X0068031Y0084291D01*
X0068134Y0083909D01*
X0068331Y0083567D01*
X0068610Y0083288D01*
X0068953Y0083090D01*
X0069334Y0082988D01*
X0071016Y0082988D01*
X0071016Y0084829D02*
X0071984Y0084829D01*
X0071984Y0085827D02*
X0071016Y0085827D01*
X0071016Y0086826D02*
X0065200Y0086826D01*
X0065200Y0087824D02*
X0068031Y0087824D01*
X0068031Y0088823D02*
X0065200Y0088823D01*
X0065200Y0089821D02*
X0067921Y0089821D01*
X0067431Y0090820D02*
X0065200Y0090820D01*
X0065200Y0091818D02*
X0067431Y0091818D01*
X0067431Y0092817D02*
X0065200Y0092817D01*
X0065200Y0093815D02*
X0067431Y0093815D01*
X0067431Y0094814D02*
X0065200Y0094814D01*
X0065200Y0095812D02*
X0067431Y0095812D01*
X0067861Y0096811D02*
X0065200Y0096811D01*
X0065200Y0097809D02*
X0091355Y0097809D01*
X0092354Y0096811D02*
X0090139Y0096811D01*
X0090568Y0095812D02*
X0093352Y0095812D01*
X0090356Y0098808D02*
X0065200Y0098808D01*
X0065200Y0099806D02*
X0089358Y0099806D01*
X0088359Y0100805D02*
X0065200Y0100805D01*
X0065200Y0101803D02*
X0087361Y0101803D01*
X0086362Y0102802D02*
X0065200Y0102802D01*
X0065200Y0103801D02*
X0067877Y0103801D01*
X0066765Y0104799D02*
X0065200Y0104799D01*
X0065200Y0105798D02*
X0066009Y0105798D01*
X0065221Y0106760D02*
X0065220Y0106760D01*
X0075139Y0096811D02*
X0082861Y0096811D01*
X0082431Y0095812D02*
X0075568Y0095812D01*
X0075568Y0094814D02*
X0082431Y0094814D01*
X0082431Y0093815D02*
X0075568Y0093815D01*
X0075568Y0092817D02*
X0082431Y0092817D01*
X0082431Y0091818D02*
X0076417Y0091818D01*
X0077066Y0090820D02*
X0082431Y0090820D01*
X0082564Y0089821D02*
X0077200Y0089821D01*
X0077200Y0088823D02*
X0082431Y0088823D01*
X0082431Y0087824D02*
X0077200Y0087824D01*
X0077200Y0086826D02*
X0082431Y0086826D01*
X0082431Y0085827D02*
X0077200Y0085827D01*
X0077200Y0084829D02*
X0082431Y0084829D01*
X0082431Y0083830D02*
X0077200Y0083830D01*
X0077200Y0082832D02*
X0083218Y0082832D01*
X0084200Y0081833D02*
X0077200Y0081833D01*
X0077200Y0080835D02*
X0084200Y0080835D01*
X0084200Y0079836D02*
X0077200Y0079836D01*
X0077200Y0078838D02*
X0084200Y0078838D01*
X0084200Y0077839D02*
X0077200Y0077839D01*
X0077200Y0076841D02*
X0084200Y0076841D01*
X0084200Y0075842D02*
X0077200Y0075842D01*
X0077200Y0074844D02*
X0084200Y0074844D01*
X0084200Y0073845D02*
X0077590Y0073845D01*
X0077619Y0073816D02*
X0077619Y0073816D01*
X0078589Y0072847D02*
X0084200Y0072847D01*
X0082898Y0071848D02*
X0079587Y0071848D01*
X0080586Y0070850D02*
X0082431Y0070850D01*
X0082431Y0069851D02*
X0081584Y0069851D01*
X0077509Y0066856D02*
X0073491Y0066856D01*
X0074490Y0067854D02*
X0076510Y0067854D01*
X0075512Y0068853D02*
X0075488Y0068853D01*
X0072493Y0065857D02*
X0078507Y0065857D01*
X0079506Y0064859D02*
X0071494Y0064859D01*
X0070496Y0063860D02*
X0080504Y0063860D01*
X0081503Y0062862D02*
X0069497Y0062862D01*
X0068499Y0061863D02*
X0082431Y0061863D01*
X0082431Y0060865D02*
X0067500Y0060865D01*
X0066502Y0059866D02*
X0082431Y0059866D01*
X0082431Y0058868D02*
X0065503Y0058868D01*
X0064505Y0057869D02*
X0083181Y0057869D01*
X0083400Y0056870D02*
X0063506Y0056870D01*
X0062508Y0055872D02*
X0083400Y0055872D01*
X0083400Y0054873D02*
X0061509Y0054873D01*
X0057433Y0057869D02*
X0055270Y0057869D01*
X0055855Y0056870D02*
X0056435Y0056870D01*
X0065200Y0083830D02*
X0068179Y0083830D01*
X0068031Y0084829D02*
X0065200Y0084829D01*
X0065200Y0085827D02*
X0068031Y0085827D01*
X0089439Y0106796D02*
X0098600Y0106796D01*
X0098677Y0105798D02*
X0090438Y0105798D01*
X0091436Y0104799D02*
X0099091Y0104799D01*
X0099901Y0103801D02*
X0092435Y0103801D01*
X0093434Y0102802D02*
X0101638Y0102802D01*
X0103762Y0102802D02*
X0107400Y0102802D01*
X0107400Y0103801D02*
X0105499Y0103801D01*
X0106309Y0104799D02*
X0107400Y0104799D01*
X0107367Y0105798D02*
X0106723Y0105798D01*
X0107400Y0101803D02*
X0094432Y0101803D01*
X0095431Y0100805D02*
X0107400Y0100805D01*
X0107400Y0099806D02*
X0096429Y0099806D01*
X0097428Y0098808D02*
X0107400Y0098808D01*
X0107400Y0097809D02*
X0098426Y0097809D01*
X0099425Y0096811D02*
X0107400Y0096811D01*
X0103240Y0095812D02*
X0100423Y0095812D01*
X0098170Y0107795D02*
X0088441Y0107795D01*
X0088819Y0107416D02*
X0088819Y0107416D01*
X0085919Y0108793D02*
X0097171Y0108793D01*
X0096173Y0109792D02*
X0085919Y0109792D01*
X0085919Y0110790D02*
X0095174Y0110790D01*
X0094176Y0111789D02*
X0085919Y0111789D01*
X0085919Y0112787D02*
X0093177Y0112787D01*
X0092179Y0113786D02*
X0085919Y0113786D01*
X0085361Y0114784D02*
X0091180Y0114784D01*
X0090182Y0115783D02*
X0071653Y0115783D01*
X0070654Y0116781D02*
X0089183Y0116781D01*
X0088185Y0117780D02*
X0069656Y0117780D01*
X0075457Y0114784D02*
X0075457Y0114784D01*
X0076608Y0114784D02*
X0076864Y0114784D01*
X0078016Y0114784D02*
X0078016Y0114784D01*
X0077790Y0110606D02*
X0077790Y0110606D01*
X0075683Y0110606D01*
X0075683Y0110606D01*
X0077642Y0110606D01*
X0077790Y0110606D01*
X0057543Y0114784D02*
X0057543Y0114784D01*
X0080903Y0149732D02*
X0142114Y0149732D01*
X0141098Y0148734D02*
X0128302Y0148734D01*
X0129301Y0147735D02*
X0140099Y0147735D01*
X0139101Y0146737D02*
X0130299Y0146737D01*
X0131298Y0145738D02*
X0131411Y0145738D01*
X0134789Y0145738D02*
X0138102Y0145738D01*
X0137104Y0144739D02*
X0136159Y0144739D01*
X0129156Y0140809D02*
X0129159Y0140800D01*
X0129098Y0140800D01*
X0126076Y0137778D01*
X0123654Y0140200D01*
X0122000Y0140200D01*
X0122000Y0135500D01*
X0121000Y0135500D01*
X0121000Y0140200D01*
X0119346Y0140200D01*
X0116300Y0137154D01*
X0116300Y0136736D01*
X0108736Y0144300D01*
X0125664Y0144300D01*
X0129156Y0140809D01*
X0129043Y0140745D02*
X0112290Y0140745D01*
X0113289Y0139747D02*
X0118893Y0139747D01*
X0117895Y0138748D02*
X0114287Y0138748D01*
X0115286Y0137750D02*
X0116896Y0137750D01*
X0116300Y0136751D02*
X0116284Y0136751D01*
X0121000Y0136751D02*
X0122000Y0136751D01*
X0122000Y0135753D02*
X0121000Y0135753D01*
X0121000Y0137750D02*
X0122000Y0137750D01*
X0122000Y0138748D02*
X0121000Y0138748D01*
X0121000Y0139747D02*
X0122000Y0139747D01*
X0124107Y0139747D02*
X0128045Y0139747D01*
X0127046Y0138748D02*
X0125105Y0138748D01*
X0128221Y0141744D02*
X0111292Y0141744D01*
X0110293Y0142742D02*
X0127222Y0142742D01*
X0126223Y0143741D02*
X0109295Y0143741D01*
X0098638Y0161714D02*
X0097669Y0161714D01*
X0097669Y0162713D02*
X0098638Y0162713D01*
X0098638Y0163711D02*
X0097669Y0163711D01*
X0097669Y0164710D02*
X0075331Y0164710D01*
X0075331Y0165708D02*
X0074362Y0165708D01*
X0074362Y0166707D02*
X0075331Y0166707D01*
X0075331Y0167705D02*
X0074362Y0167705D01*
X0071553Y0168704D02*
X0101447Y0168704D01*
X0101800Y0169702D02*
X0070800Y0169702D01*
X0070800Y0170701D02*
X0101800Y0170701D01*
X0101800Y0171699D02*
X0070800Y0171699D01*
X0071333Y0172698D02*
X0101800Y0172698D01*
X0101800Y0173696D02*
X0072332Y0173696D01*
X0073330Y0174695D02*
X0101800Y0174695D01*
X0101800Y0175693D02*
X0074329Y0175693D01*
X0075327Y0176692D02*
X0101800Y0176692D01*
X0101800Y0177690D02*
X0076326Y0177690D01*
X0077029Y0178689D02*
X0101800Y0178689D01*
X0101800Y0179687D02*
X0077200Y0179687D01*
X0077200Y0180686D02*
X0101800Y0180686D01*
X0101800Y0181684D02*
X0077200Y0181684D01*
X0077200Y0182683D02*
X0098367Y0182683D01*
X0097431Y0183681D02*
X0077200Y0183681D01*
X0077200Y0184680D02*
X0097431Y0184680D01*
X0097431Y0185678D02*
X0077200Y0185678D01*
X0077200Y0186677D02*
X0097431Y0186677D01*
X0096689Y0187675D02*
X0077200Y0187675D01*
X0077200Y0188674D02*
X0095743Y0188674D01*
X0095400Y0189672D02*
X0077200Y0189672D01*
X0077128Y0190671D02*
X0095400Y0190671D01*
X0095400Y0191670D02*
X0076566Y0191670D01*
X0075568Y0192668D02*
X0095400Y0192668D01*
X0095400Y0193667D02*
X0075568Y0193667D01*
X0075568Y0194665D02*
X0095400Y0194665D01*
X0095400Y0195664D02*
X0075568Y0195664D01*
X0075288Y0196662D02*
X0095400Y0196662D01*
X0095400Y0197661D02*
X0074800Y0197661D01*
X0074800Y0198659D02*
X0095400Y0198659D01*
X0095400Y0199658D02*
X0074800Y0199658D01*
X0074800Y0200656D02*
X0095400Y0200656D01*
X0095400Y0201655D02*
X0074800Y0201655D01*
X0074800Y0202653D02*
X0095400Y0202653D01*
X0095400Y0203652D02*
X0074800Y0203652D01*
X0074800Y0204650D02*
X0095400Y0204650D01*
X0095400Y0205649D02*
X0074800Y0205649D01*
X0074800Y0206647D02*
X0095400Y0206647D01*
X0094861Y0207646D02*
X0075659Y0207646D01*
X0076435Y0208644D02*
X0077307Y0208644D01*
X0077268Y0208712D02*
X0077465Y0208370D01*
X0077744Y0208091D01*
X0078086Y0207894D01*
X0078468Y0207791D01*
X0079953Y0207791D01*
X0079953Y0210776D01*
X0077165Y0210776D01*
X0077165Y0209094D01*
X0077268Y0208712D01*
X0077165Y0209643D02*
X0076435Y0209643D01*
X0076435Y0210641D02*
X0077165Y0210641D01*
X0077165Y0211350D02*
X0079953Y0211350D01*
X0079953Y0210776D01*
X0080528Y0210776D01*
X0080528Y0211350D01*
X0083315Y0211350D01*
X0083315Y0213032D01*
X0083213Y0213414D01*
X0083015Y0213756D01*
X0082736Y0214035D01*
X0082394Y0214232D01*
X0082012Y0214335D01*
X0080528Y0214335D01*
X0080528Y0211350D01*
X0079953Y0211350D01*
X0079953Y0214335D01*
X0078468Y0214335D01*
X0078086Y0214232D01*
X0077744Y0214035D01*
X0077465Y0213756D01*
X0077268Y0213414D01*
X0077165Y0213032D01*
X0077165Y0211350D01*
X0077165Y0211640D02*
X0076435Y0211640D01*
X0076435Y0212638D02*
X0077165Y0212638D01*
X0077396Y0213637D02*
X0076435Y0213637D01*
X0075504Y0214635D02*
X0095016Y0214635D01*
X0094085Y0213637D02*
X0083084Y0213637D01*
X0083315Y0212638D02*
X0094085Y0212638D01*
X0094085Y0211640D02*
X0083315Y0211640D01*
X0083315Y0210776D02*
X0080528Y0210776D01*
X0080528Y0207791D01*
X0082012Y0207791D01*
X0082394Y0207894D01*
X0082736Y0208091D01*
X0083015Y0208370D01*
X0083213Y0208712D01*
X0083315Y0209094D01*
X0083315Y0210776D01*
X0083315Y0210641D02*
X0094085Y0210641D01*
X0094085Y0209643D02*
X0083315Y0209643D01*
X0083173Y0208644D02*
X0094085Y0208644D01*
X0100400Y0206647D02*
X0121000Y0206647D01*
X0121000Y0205649D02*
X0100400Y0205649D01*
X0100400Y0204650D02*
X0121000Y0204650D01*
X0121000Y0203652D02*
X0100400Y0203652D01*
X0100400Y0202653D02*
X0121000Y0202653D01*
X0121000Y0201655D02*
X0100400Y0201655D01*
X0100400Y0200656D02*
X0121351Y0200656D01*
X0122307Y0199658D02*
X0100400Y0199658D01*
X0100400Y0198659D02*
X0123305Y0198659D01*
X0124304Y0197661D02*
X0100400Y0197661D01*
X0105288Y0196662D02*
X0124364Y0196662D01*
X0128379Y0200656D02*
X0145800Y0200656D01*
X0145800Y0199658D02*
X0129378Y0199658D01*
X0130376Y0198659D02*
X0145800Y0198659D01*
X0145800Y0197661D02*
X0131375Y0197661D01*
X0135288Y0196662D02*
X0145800Y0196662D01*
X0145800Y0195664D02*
X0135568Y0195664D01*
X0135568Y0194665D02*
X0145800Y0194665D01*
X0146064Y0193667D02*
X0135568Y0193667D01*
X0135568Y0192668D02*
X0146896Y0192668D01*
X0147895Y0191670D02*
X0135568Y0191670D01*
X0135568Y0190671D02*
X0148893Y0190671D01*
X0149892Y0189672D02*
X0135568Y0189672D01*
X0135568Y0188674D02*
X0150890Y0188674D01*
X0151889Y0187675D02*
X0135568Y0187675D01*
X0135568Y0186677D02*
X0152431Y0186677D01*
X0152431Y0185678D02*
X0135568Y0185678D01*
X0135568Y0184680D02*
X0152431Y0184680D01*
X0152431Y0183681D02*
X0135568Y0183681D01*
X0134633Y0182683D02*
X0153367Y0182683D01*
X0152431Y0194665D02*
X0151970Y0194665D01*
X0152431Y0195664D02*
X0150972Y0195664D01*
X0150800Y0196662D02*
X0152712Y0196662D01*
X0145800Y0201655D02*
X0127381Y0201655D01*
X0126382Y0202653D02*
X0145800Y0202653D01*
X0145800Y0203652D02*
X0126000Y0203652D01*
X0126000Y0204650D02*
X0145800Y0204650D01*
X0145800Y0205649D02*
X0126000Y0205649D01*
X0126000Y0206647D02*
X0145800Y0206647D01*
X0144861Y0207646D02*
X0126000Y0207646D01*
X0126435Y0208644D02*
X0127307Y0208644D01*
X0127268Y0208712D02*
X0127465Y0208370D01*
X0127744Y0208091D01*
X0128086Y0207894D01*
X0128468Y0207791D01*
X0129953Y0207791D01*
X0129953Y0210776D01*
X0127165Y0210776D01*
X0127165Y0209094D01*
X0127268Y0208712D01*
X0127165Y0209643D02*
X0126435Y0209643D01*
X0126435Y0210641D02*
X0127165Y0210641D01*
X0127165Y0211350D02*
X0129953Y0211350D01*
X0129953Y0210776D01*
X0130528Y0210776D01*
X0130528Y0211350D01*
X0133315Y0211350D01*
X0133315Y0213032D01*
X0133213Y0213414D01*
X0133015Y0213756D01*
X0132736Y0214035D01*
X0132394Y0214232D01*
X0132012Y0214335D01*
X0130528Y0214335D01*
X0130528Y0211350D01*
X0129953Y0211350D01*
X0129953Y0214335D01*
X0128468Y0214335D01*
X0128086Y0214232D01*
X0127744Y0214035D01*
X0127465Y0213756D01*
X0127268Y0213414D01*
X0127165Y0213032D01*
X0127165Y0211350D01*
X0127165Y0211640D02*
X0126435Y0211640D01*
X0126435Y0212638D02*
X0127165Y0212638D01*
X0127396Y0213637D02*
X0126435Y0213637D01*
X0125504Y0214635D02*
X0145016Y0214635D01*
X0144085Y0213637D02*
X0133084Y0213637D01*
X0133315Y0212638D02*
X0144085Y0212638D01*
X0144085Y0211640D02*
X0133315Y0211640D01*
X0133315Y0210776D02*
X0130528Y0210776D01*
X0130528Y0207791D01*
X0132012Y0207791D01*
X0132394Y0207894D01*
X0132736Y0208091D01*
X0133015Y0208370D01*
X0133213Y0208712D01*
X0133315Y0209094D01*
X0133315Y0210776D01*
X0133315Y0210641D02*
X0144085Y0210641D01*
X0144085Y0209643D02*
X0133315Y0209643D01*
X0133173Y0208644D02*
X0144085Y0208644D01*
X0148487Y0215634D02*
X0129513Y0215634D01*
X0130175Y0216632D02*
X0147825Y0216632D01*
X0140334Y0217631D02*
X0130175Y0217631D01*
X0130175Y0218629D02*
X0139335Y0218629D01*
X0138337Y0219628D02*
X0130175Y0219628D01*
X0130175Y0220626D02*
X0137338Y0220626D01*
X0136340Y0221625D02*
X0130128Y0221625D01*
X0129130Y0222623D02*
X0135341Y0222623D01*
X0134343Y0223622D02*
X0128400Y0223622D01*
X0128400Y0224620D02*
X0133344Y0224620D01*
X0132346Y0225619D02*
X0128400Y0225619D01*
X0128350Y0226617D02*
X0131347Y0226617D01*
X0130349Y0227616D02*
X0129811Y0227616D01*
X0123400Y0224620D02*
X0104400Y0224620D01*
X0104400Y0223622D02*
X0123400Y0223622D01*
X0123400Y0222623D02*
X0104400Y0222623D01*
X0105128Y0221625D02*
X0122872Y0221625D01*
X0122825Y0220626D02*
X0105175Y0220626D01*
X0105175Y0219628D02*
X0122825Y0219628D01*
X0122825Y0218629D02*
X0105175Y0218629D01*
X0105175Y0217631D02*
X0122825Y0217631D01*
X0122825Y0216632D02*
X0105175Y0216632D01*
X0104513Y0215634D02*
X0123487Y0215634D01*
X0120016Y0214635D02*
X0100504Y0214635D01*
X0101435Y0213637D02*
X0102396Y0213637D01*
X0102465Y0213756D02*
X0102268Y0213414D01*
X0102165Y0213032D01*
X0102165Y0211350D01*
X0104953Y0211350D01*
X0104953Y0210776D01*
X0102165Y0210776D01*
X0102165Y0209094D01*
X0102268Y0208712D01*
X0102465Y0208370D01*
X0102744Y0208091D01*
X0103086Y0207894D01*
X0103468Y0207791D01*
X0104953Y0207791D01*
X0104953Y0210776D01*
X0105528Y0210776D01*
X0105528Y0211350D01*
X0108315Y0211350D01*
X0108315Y0213032D01*
X0108213Y0213414D01*
X0108015Y0213756D01*
X0107736Y0214035D01*
X0107394Y0214232D01*
X0107012Y0214335D01*
X0105528Y0214335D01*
X0105528Y0211350D01*
X0104953Y0211350D01*
X0104953Y0214335D01*
X0103468Y0214335D01*
X0103086Y0214232D01*
X0102744Y0214035D01*
X0102465Y0213756D01*
X0102165Y0212638D02*
X0101435Y0212638D01*
X0101435Y0211640D02*
X0102165Y0211640D01*
X0102165Y0210641D02*
X0101435Y0210641D01*
X0101435Y0209643D02*
X0102165Y0209643D01*
X0102307Y0208644D02*
X0101435Y0208644D01*
X0100659Y0207646D02*
X0119861Y0207646D01*
X0119085Y0208644D02*
X0108173Y0208644D01*
X0108213Y0208712D02*
X0108315Y0209094D01*
X0108315Y0210776D01*
X0105528Y0210776D01*
X0105528Y0207791D01*
X0107012Y0207791D01*
X0107394Y0207894D01*
X0107736Y0208091D01*
X0108015Y0208370D01*
X0108213Y0208712D01*
X0108315Y0209643D02*
X0119085Y0209643D01*
X0119085Y0210641D02*
X0108315Y0210641D01*
X0108315Y0211640D02*
X0119085Y0211640D01*
X0119085Y0212638D02*
X0108315Y0212638D01*
X0108084Y0213637D02*
X0119085Y0213637D01*
X0129953Y0213637D02*
X0130528Y0213637D01*
X0130528Y0212638D02*
X0129953Y0212638D01*
X0129953Y0211640D02*
X0130528Y0211640D01*
X0130528Y0210641D02*
X0129953Y0210641D01*
X0129953Y0209643D02*
X0130528Y0209643D01*
X0130528Y0208644D02*
X0129953Y0208644D01*
X0122746Y0225619D02*
X0104400Y0225619D01*
X0104400Y0226617D02*
X0105162Y0226617D01*
X0107838Y0226617D02*
X0115162Y0226617D01*
X0113189Y0227616D02*
X0109811Y0227616D01*
X0110810Y0228614D02*
X0112190Y0228614D01*
X0111669Y0229613D02*
X0111331Y0229613D01*
X0117838Y0226617D02*
X0121747Y0226617D01*
X0120749Y0227616D02*
X0119811Y0227616D01*
X0121244Y0240597D02*
X0121756Y0240597D01*
X0122400Y0241595D02*
X0120600Y0241595D01*
X0119602Y0242594D02*
X0123398Y0242594D01*
X0129602Y0242594D02*
X0133398Y0242594D01*
X0132400Y0241595D02*
X0130600Y0241595D01*
X0131244Y0240597D02*
X0131756Y0240597D01*
X0139602Y0242594D02*
X0143398Y0242594D01*
X0142400Y0241595D02*
X0140600Y0241595D01*
X0141244Y0240597D02*
X0141756Y0240597D01*
X0149602Y0242594D02*
X0249335Y0242594D01*
X0248922Y0241595D02*
X0150600Y0241595D01*
X0151244Y0240597D02*
X0248888Y0240597D01*
X0248888Y0239598D02*
X0151658Y0239598D01*
X0151800Y0238600D02*
X0248888Y0238600D01*
X0249255Y0237601D02*
X0151800Y0237601D01*
X0167633Y0236603D02*
X0249668Y0236603D01*
X0250131Y0235604D02*
X0168632Y0235604D01*
X0169630Y0234605D02*
X0251130Y0234605D01*
X0252128Y0233607D02*
X0170629Y0233607D01*
X0171627Y0232608D02*
X0254454Y0232608D01*
X0264321Y0222623D02*
X0204130Y0222623D01*
X0205128Y0221625D02*
X0264321Y0221625D01*
X0264321Y0220626D02*
X0205175Y0220626D01*
X0205175Y0219628D02*
X0264321Y0219628D01*
X0264321Y0218629D02*
X0205175Y0218629D01*
X0205175Y0217631D02*
X0264321Y0217631D01*
X0264321Y0216632D02*
X0205175Y0216632D01*
X0204513Y0215634D02*
X0264321Y0215634D01*
X0264321Y0214635D02*
X0203200Y0214635D01*
X0204953Y0213637D02*
X0205528Y0213637D01*
X0205528Y0212638D02*
X0204953Y0212638D01*
X0204953Y0211640D02*
X0205528Y0211640D01*
X0205528Y0210641D02*
X0204953Y0210641D01*
X0204953Y0209643D02*
X0205528Y0209643D01*
X0205528Y0208644D02*
X0204953Y0208644D01*
X0204400Y0207646D02*
X0264321Y0207646D01*
X0264321Y0208644D02*
X0208173Y0208644D01*
X0208315Y0209643D02*
X0264321Y0209643D01*
X0264321Y0210641D02*
X0208315Y0210641D01*
X0208315Y0211640D02*
X0264321Y0211640D01*
X0264321Y0212638D02*
X0208315Y0212638D01*
X0208084Y0213637D02*
X0264321Y0213637D01*
X0264321Y0206647D02*
X0204400Y0206647D01*
X0204400Y0205649D02*
X0264321Y0205649D01*
X0264321Y0204650D02*
X0205185Y0204650D01*
X0206184Y0203652D02*
X0264321Y0203652D01*
X0264321Y0202653D02*
X0207182Y0202653D01*
X0208181Y0201655D02*
X0264321Y0201655D01*
X0264321Y0200656D02*
X0209179Y0200656D01*
X0210178Y0199658D02*
X0264321Y0199658D01*
X0264321Y0198659D02*
X0211176Y0198659D01*
X0212175Y0197661D02*
X0264321Y0197661D01*
X0264321Y0196662D02*
X0213173Y0196662D01*
X0214172Y0195664D02*
X0264321Y0195664D01*
X0264321Y0194665D02*
X0215170Y0194665D01*
X0216169Y0193667D02*
X0264321Y0193667D01*
X0264321Y0192668D02*
X0217167Y0192668D01*
X0218166Y0191670D02*
X0264321Y0191670D01*
X0264321Y0190671D02*
X0219165Y0190671D01*
X0220163Y0189672D02*
X0264321Y0189672D01*
X0264321Y0188674D02*
X0221162Y0188674D01*
X0222160Y0187675D02*
X0264321Y0187675D01*
X0264321Y0186677D02*
X0223159Y0186677D01*
X0224157Y0185678D02*
X0264321Y0185678D01*
X0264321Y0184680D02*
X0225156Y0184680D01*
X0226154Y0183681D02*
X0264321Y0183681D01*
X0264321Y0182683D02*
X0227153Y0182683D01*
X0228151Y0181684D02*
X0264321Y0181684D01*
X0264321Y0180686D02*
X0229150Y0180686D01*
X0230148Y0179687D02*
X0264321Y0179687D01*
X0264321Y0178689D02*
X0231147Y0178689D01*
X0232145Y0177690D02*
X0264321Y0177690D01*
X0264321Y0176692D02*
X0233144Y0176692D01*
X0234142Y0175693D02*
X0264321Y0175693D01*
X0264321Y0174695D02*
X0235141Y0174695D01*
X0236069Y0173696D02*
X0264321Y0173696D01*
X0264321Y0172698D02*
X0236400Y0172698D01*
X0236400Y0171699D02*
X0264321Y0171699D01*
X0264321Y0170701D02*
X0236400Y0170701D01*
X0236400Y0169702D02*
X0264321Y0169702D01*
X0264321Y0168704D02*
X0236400Y0168704D01*
X0236400Y0167705D02*
X0264321Y0167705D01*
X0264321Y0166707D02*
X0236400Y0166707D01*
X0236400Y0165708D02*
X0264321Y0165708D01*
X0264321Y0164710D02*
X0236400Y0164710D01*
X0236400Y0163711D02*
X0264321Y0163711D01*
X0264321Y0162713D02*
X0236400Y0162713D01*
X0236400Y0161714D02*
X0264321Y0161714D01*
X0264321Y0160716D02*
X0236400Y0160716D01*
X0236400Y0159717D02*
X0264321Y0159717D01*
X0264321Y0158719D02*
X0236400Y0158719D01*
X0236400Y0157720D02*
X0264321Y0157720D01*
X0264321Y0156722D02*
X0236400Y0156722D01*
X0236400Y0155723D02*
X0264321Y0155723D01*
X0264321Y0154725D02*
X0236400Y0154725D01*
X0236400Y0153726D02*
X0264321Y0153726D01*
X0264321Y0152728D02*
X0236400Y0152728D01*
X0236400Y0151729D02*
X0264321Y0151729D01*
X0264321Y0150731D02*
X0236400Y0150731D01*
X0236400Y0149732D02*
X0264321Y0149732D01*
X0264321Y0148734D02*
X0236400Y0148734D01*
X0236400Y0147735D02*
X0264321Y0147735D01*
X0264321Y0146737D02*
X0236400Y0146737D01*
X0236400Y0145738D02*
X0264321Y0145738D01*
X0264321Y0144739D02*
X0236400Y0144739D01*
X0236400Y0143741D02*
X0264321Y0143741D01*
X0264321Y0142742D02*
X0236400Y0142742D01*
X0236400Y0141744D02*
X0264321Y0141744D01*
X0264321Y0140745D02*
X0236400Y0140745D01*
X0236400Y0139747D02*
X0264321Y0139747D01*
X0264321Y0138748D02*
X0236400Y0138748D01*
X0236400Y0137750D02*
X0264321Y0137750D01*
X0264321Y0136751D02*
X0236172Y0136751D01*
X0235388Y0135753D02*
X0264321Y0135753D01*
X0264321Y0134754D02*
X0220390Y0134754D01*
X0219806Y0133756D02*
X0219391Y0133756D01*
X0218888Y0132757D02*
X0218393Y0132757D01*
X0218888Y0131759D02*
X0217394Y0131759D01*
X0216396Y0130760D02*
X0218888Y0130760D01*
X0218888Y0129762D02*
X0215397Y0129762D01*
X0214399Y0128763D02*
X0218888Y0128763D01*
X0218888Y0127765D02*
X0213400Y0127765D01*
X0212402Y0126766D02*
X0219284Y0126766D01*
X0221000Y0125768D02*
X0211403Y0125768D01*
X0210405Y0124769D02*
X0221000Y0124769D01*
X0221000Y0123771D02*
X0209406Y0123771D01*
X0208408Y0122772D02*
X0221000Y0122772D01*
X0221000Y0121774D02*
X0207409Y0121774D01*
X0206411Y0120775D02*
X0221000Y0120775D01*
X0221000Y0119777D02*
X0205412Y0119777D01*
X0205200Y0118778D02*
X0219828Y0118778D01*
X0218888Y0117780D02*
X0205200Y0117780D01*
X0205200Y0116781D02*
X0218888Y0116781D01*
X0218888Y0115783D02*
X0205200Y0115783D01*
X0205200Y0114784D02*
X0218888Y0114784D01*
X0218888Y0113786D02*
X0205200Y0113786D01*
X0205200Y0112787D02*
X0218888Y0112787D01*
X0219261Y0111789D02*
X0205153Y0111789D01*
X0204626Y0110790D02*
X0221000Y0110790D01*
X0221000Y0109792D02*
X0203627Y0109792D01*
X0198636Y0104799D02*
X0221000Y0104799D01*
X0221000Y0105798D02*
X0195901Y0105798D01*
X0195724Y0106796D02*
X0221000Y0106796D01*
X0221000Y0107795D02*
X0195724Y0107795D01*
X0195724Y0108793D02*
X0221000Y0108793D01*
X0226000Y0108793D02*
X0264321Y0108793D01*
X0264321Y0107795D02*
X0226000Y0107795D01*
X0226000Y0106796D02*
X0264321Y0106796D01*
X0264321Y0105798D02*
X0226000Y0105798D01*
X0226000Y0104799D02*
X0264321Y0104799D01*
X0264321Y0103801D02*
X0226457Y0103801D01*
X0229362Y0102802D02*
X0230331Y0102802D01*
X0230331Y0101803D02*
X0229362Y0101803D01*
X0229362Y0100805D02*
X0230331Y0100805D01*
X0230331Y0099806D02*
X0264321Y0099806D01*
X0264321Y0098808D02*
X0233512Y0098808D01*
X0233512Y0099516D02*
X0233512Y0097834D01*
X0233410Y0097453D01*
X0233212Y0097110D01*
X0232933Y0096831D01*
X0232591Y0096634D01*
X0232209Y0096531D01*
X0230331Y0096531D01*
X0230331Y0099516D01*
X0233512Y0099516D01*
X0233512Y0100805D02*
X0264321Y0100805D01*
X0264321Y0101803D02*
X0233512Y0101803D01*
X0233263Y0102802D02*
X0264321Y0102802D01*
X0264321Y0097809D02*
X0233505Y0097809D01*
X0232898Y0096811D02*
X0264321Y0096811D01*
X0264321Y0095812D02*
X0226000Y0095812D01*
X0226000Y0094814D02*
X0264321Y0094814D01*
X0264321Y0093815D02*
X0226000Y0093815D01*
X0226000Y0092817D02*
X0264321Y0092817D01*
X0264321Y0091818D02*
X0226000Y0091818D01*
X0226000Y0090820D02*
X0264321Y0090820D01*
X0264321Y0089821D02*
X0226000Y0089821D01*
X0226434Y0088823D02*
X0264321Y0088823D01*
X0264321Y0087824D02*
X0233250Y0087824D01*
X0233512Y0086826D02*
X0264321Y0086826D01*
X0264321Y0085827D02*
X0233512Y0085827D01*
X0233512Y0084516D02*
X0230331Y0084516D01*
X0230331Y0081531D01*
X0232209Y0081531D01*
X0232591Y0081634D01*
X0232933Y0081831D01*
X0233212Y0082110D01*
X0233410Y0082453D01*
X0233512Y0082834D01*
X0233512Y0084516D01*
X0233512Y0083830D02*
X0264321Y0083830D01*
X0264321Y0082832D02*
X0233511Y0082832D01*
X0232935Y0081833D02*
X0264321Y0081833D01*
X0264321Y0080835D02*
X0226000Y0080835D01*
X0226000Y0079836D02*
X0264321Y0079836D01*
X0264321Y0078838D02*
X0226000Y0078838D01*
X0226000Y0077839D02*
X0264321Y0077839D01*
X0264321Y0076841D02*
X0226000Y0076841D01*
X0226000Y0075842D02*
X0264321Y0075842D01*
X0264321Y0074844D02*
X0226000Y0074844D01*
X0226000Y0073845D02*
X0264321Y0073845D01*
X0264321Y0072847D02*
X0226000Y0072847D01*
X0226000Y0071848D02*
X0264321Y0071848D01*
X0264321Y0070850D02*
X0226000Y0070850D01*
X0228560Y0069851D02*
X0264321Y0069851D01*
X0264321Y0068853D02*
X0231337Y0068853D01*
X0232990Y0067854D02*
X0264321Y0067854D01*
X0264321Y0066856D02*
X0233988Y0066856D01*
X0234917Y0065857D02*
X0264321Y0065857D01*
X0264321Y0064859D02*
X0235493Y0064859D01*
X0236070Y0063860D02*
X0264321Y0063860D01*
X0264321Y0062862D02*
X0236402Y0062862D01*
X0236670Y0061863D02*
X0264321Y0061863D01*
X0264321Y0060865D02*
X0236899Y0060865D01*
X0236899Y0059866D02*
X0264321Y0059866D01*
X0264321Y0058868D02*
X0236899Y0058868D01*
X0236792Y0057869D02*
X0264321Y0057869D01*
X0264321Y0056870D02*
X0236525Y0056870D01*
X0236257Y0055872D02*
X0237345Y0055872D01*
X0240809Y0055872D02*
X0241809Y0055872D01*
X0241809Y0056726D02*
X0241809Y0047626D01*
X0250909Y0047626D01*
X0250909Y0047665D01*
X0250789Y0048737D01*
X0250549Y0049788D01*
X0250193Y0050806D01*
X0249725Y0051777D01*
X0249151Y0052690D01*
X0248479Y0053533D01*
X0247716Y0054295D01*
X0246873Y0054968D01*
X0245960Y0055541D01*
X0244989Y0056009D01*
X0243971Y0056365D01*
X0242920Y0056605D01*
X0241849Y0056726D01*
X0241809Y0056726D01*
X0241809Y0054873D02*
X0240809Y0054873D01*
X0240809Y0053875D02*
X0241809Y0053875D01*
X0241809Y0052876D02*
X0240809Y0052876D01*
X0240809Y0051878D02*
X0241809Y0051878D01*
X0241809Y0050879D02*
X0240809Y0050879D01*
X0240809Y0049881D02*
X0241809Y0049881D01*
X0241809Y0048882D02*
X0240809Y0048882D01*
X0240809Y0047884D02*
X0241809Y0047884D01*
X0241809Y0046885D02*
X0264321Y0046885D01*
X0264321Y0045887D02*
X0250831Y0045887D01*
X0250646Y0044888D02*
X0264321Y0044888D01*
X0264321Y0043890D02*
X0250348Y0043890D01*
X0249925Y0042891D02*
X0264321Y0042891D01*
X0264321Y0041893D02*
X0249359Y0041893D01*
X0248619Y0040894D02*
X0264321Y0040894D01*
X0264321Y0039896D02*
X0247640Y0039896D01*
X0246258Y0038897D02*
X0264321Y0038897D01*
X0264321Y0037899D02*
X0244006Y0037899D01*
X0241809Y0037899D02*
X0240809Y0037899D01*
X0240809Y0038897D02*
X0241809Y0038897D01*
X0241809Y0039896D02*
X0240809Y0039896D01*
X0240809Y0040894D02*
X0241809Y0040894D01*
X0241809Y0041893D02*
X0240809Y0041893D01*
X0240809Y0042891D02*
X0241809Y0042891D01*
X0241809Y0043890D02*
X0240809Y0043890D01*
X0240809Y0044888D02*
X0241809Y0044888D01*
X0241809Y0045887D02*
X0240809Y0045887D01*
X0240809Y0046885D02*
X0216721Y0046885D01*
X0215722Y0045887D02*
X0231788Y0045887D01*
X0231973Y0044888D02*
X0214724Y0044888D01*
X0213725Y0043890D02*
X0232271Y0043890D01*
X0232694Y0042891D02*
X0212727Y0042891D01*
X0211728Y0041893D02*
X0233260Y0041893D01*
X0234000Y0040894D02*
X0210730Y0040894D01*
X0209731Y0039896D02*
X0223485Y0039896D01*
X0223938Y0040054D02*
X0222920Y0039698D01*
X0221949Y0039230D01*
X0221036Y0038657D01*
X0220193Y0037984D01*
X0219431Y0037222D01*
X0218758Y0036379D01*
X0218185Y0035466D01*
X0217717Y0034495D01*
X0217361Y0033477D01*
X0217121Y0032426D01*
X0217000Y0031354D01*
X0217000Y0031315D01*
X0226100Y0031315D01*
X0226100Y0040415D01*
X0226061Y0040415D01*
X0224989Y0040294D01*
X0223938Y0040054D01*
X0226100Y0039896D02*
X0227100Y0039896D01*
X0227100Y0040415D02*
X0227139Y0040415D01*
X0228211Y0040294D01*
X0229262Y0040054D01*
X0230280Y0039698D01*
X0231251Y0039230D01*
X0232164Y0038657D01*
X0233007Y0037984D01*
X0233769Y0037222D01*
X0234442Y0036379D01*
X0235015Y0035466D01*
X0235483Y0034495D01*
X0235839Y0033477D01*
X0236079Y0032426D01*
X0236200Y0031354D01*
X0236200Y0031315D01*
X0227100Y0031315D01*
X0226100Y0031315D01*
X0226100Y0030315D01*
X0217000Y0030315D01*
X0217000Y0030276D01*
X0217121Y0029204D01*
X0217361Y0028153D01*
X0217717Y0027135D01*
X0218185Y0026164D01*
X0218758Y0025251D01*
X0219431Y0024408D01*
X0220193Y0023646D01*
X0221036Y0022973D01*
X0221949Y0022400D01*
X0222920Y0021932D01*
X0223938Y0021576D01*
X0224989Y0021336D01*
X0226061Y0021215D01*
X0226100Y0021215D01*
X0226100Y0030315D01*
X0227100Y0030315D01*
X0227100Y0031315D01*
X0227100Y0040415D01*
X0227100Y0038897D02*
X0226100Y0038897D01*
X0226100Y0037899D02*
X0227100Y0037899D01*
X0227100Y0036900D02*
X0226100Y0036900D01*
X0226100Y0035902D02*
X0227100Y0035902D01*
X0227100Y0034903D02*
X0226100Y0034903D01*
X0226100Y0033905D02*
X0227100Y0033905D01*
X0227100Y0032906D02*
X0226100Y0032906D01*
X0226100Y0031908D02*
X0227100Y0031908D01*
X0227100Y0030909D02*
X0264321Y0030909D01*
X0264321Y0029911D02*
X0236159Y0029911D01*
X0236200Y0030276D02*
X0236200Y0030315D01*
X0227100Y0030315D01*
X0227100Y0021215D01*
X0227139Y0021215D01*
X0228211Y0021336D01*
X0229262Y0021576D01*
X0230280Y0021932D01*
X0231251Y0022400D01*
X0232164Y0022973D01*
X0233007Y0023646D01*
X0233769Y0024408D01*
X0234442Y0025251D01*
X0235015Y0026164D01*
X0235483Y0027135D01*
X0235839Y0028153D01*
X0236079Y0029204D01*
X0236200Y0030276D01*
X0236013Y0028912D02*
X0264321Y0028912D01*
X0264321Y0027914D02*
X0235756Y0027914D01*
X0235377Y0026915D02*
X0253304Y0026915D01*
X0252188Y0026453D02*
X0250047Y0024312D01*
X0248888Y0021514D01*
X0248888Y0018486D01*
X0250047Y0015688D01*
X0252188Y0013547D01*
X0254986Y0012388D01*
X0258014Y0012388D01*
X0260812Y0013547D01*
X0262953Y0015688D01*
X0264112Y0018486D01*
X0264112Y0021514D01*
X0262953Y0024312D01*
X0260812Y0026453D01*
X0258014Y0027612D01*
X0254986Y0027612D01*
X0252188Y0026453D01*
X0251652Y0025917D02*
X0234860Y0025917D01*
X0234176Y0024918D02*
X0250653Y0024918D01*
X0249885Y0023920D02*
X0233281Y0023920D01*
X0232081Y0022921D02*
X0249471Y0022921D01*
X0249057Y0021923D02*
X0230253Y0021923D01*
X0227100Y0021923D02*
X0226100Y0021923D01*
X0226100Y0022921D02*
X0227100Y0022921D01*
X0227100Y0023920D02*
X0226100Y0023920D01*
X0226100Y0024918D02*
X0227100Y0024918D01*
X0227100Y0025917D02*
X0226100Y0025917D01*
X0226100Y0026915D02*
X0227100Y0026915D01*
X0227100Y0027914D02*
X0226100Y0027914D01*
X0226100Y0028912D02*
X0227100Y0028912D01*
X0227100Y0029911D02*
X0226100Y0029911D01*
X0226100Y0030909D02*
X0200745Y0030909D01*
X0201743Y0031908D02*
X0217062Y0031908D01*
X0217230Y0032906D02*
X0202742Y0032906D01*
X0203740Y0033905D02*
X0217510Y0033905D01*
X0217914Y0034903D02*
X0204739Y0034903D01*
X0205737Y0035902D02*
X0218458Y0035902D01*
X0219174Y0036900D02*
X0206736Y0036900D01*
X0207734Y0037899D02*
X0220107Y0037899D01*
X0221419Y0038897D02*
X0208733Y0038897D01*
X0205656Y0042891D02*
X0199158Y0042891D01*
X0198958Y0043091D02*
X0198306Y0043527D01*
X0197582Y0043827D01*
X0196813Y0043980D01*
X0196561Y0043980D01*
X0196561Y0040140D01*
X0196281Y0040140D01*
X0196281Y0039860D01*
X0192442Y0039860D01*
X0192442Y0039608D01*
X0192595Y0038839D01*
X0192895Y0038115D01*
X0193330Y0037463D01*
X0193884Y0036909D01*
X0194536Y0036473D01*
X0195260Y0036173D01*
X0196029Y0036020D01*
X0196281Y0036020D01*
X0196281Y0039860D01*
X0196561Y0039860D01*
X0196561Y0036020D01*
X0196813Y0036020D01*
X0197582Y0036173D01*
X0198306Y0036473D01*
X0198958Y0036909D01*
X0199512Y0037463D01*
X0199948Y0038115D01*
X0200248Y0038839D01*
X0200401Y0039608D01*
X0200401Y0039860D01*
X0196561Y0039860D01*
X0196561Y0040140D01*
X0200401Y0040140D01*
X0200401Y0040392D01*
X0200248Y0041161D01*
X0199948Y0041885D01*
X0199512Y0042537D01*
X0198958Y0043091D01*
X0199943Y0041893D02*
X0204657Y0041893D01*
X0203659Y0040894D02*
X0200301Y0040894D01*
X0200259Y0038897D02*
X0201662Y0038897D01*
X0200663Y0037899D02*
X0199803Y0037899D01*
X0199665Y0036900D02*
X0198945Y0036900D01*
X0198666Y0035902D02*
X0188652Y0035902D01*
X0189173Y0036118D02*
X0190461Y0037406D01*
X0191158Y0039089D01*
X0191158Y0040911D01*
X0190461Y0042594D01*
X0189173Y0043882D01*
X0187490Y0044580D01*
X0185668Y0044580D01*
X0183985Y0043882D01*
X0182696Y0042594D01*
X0181999Y0040911D01*
X0181999Y0039089D01*
X0182696Y0037406D01*
X0183985Y0036118D01*
X0185668Y0035420D01*
X0187490Y0035420D01*
X0189173Y0036118D01*
X0189955Y0036900D02*
X0193897Y0036900D01*
X0193039Y0037899D02*
X0190665Y0037899D01*
X0191079Y0038897D02*
X0192583Y0038897D01*
X0192442Y0040140D02*
X0196281Y0040140D01*
X0196281Y0043980D01*
X0196029Y0043980D01*
X0195260Y0043827D01*
X0194536Y0043527D01*
X0193884Y0043091D01*
X0193330Y0042537D01*
X0192895Y0041885D01*
X0192595Y0041161D01*
X0192442Y0040392D01*
X0192442Y0040140D01*
X0192542Y0040894D02*
X0191158Y0040894D01*
X0191158Y0039896D02*
X0196281Y0039896D01*
X0196561Y0039896D02*
X0202660Y0039896D01*
X0206654Y0043890D02*
X0197264Y0043890D01*
X0196561Y0043890D02*
X0196281Y0043890D01*
X0195578Y0043890D02*
X0189155Y0043890D01*
X0190164Y0042891D02*
X0193685Y0042891D01*
X0192900Y0041893D02*
X0190752Y0041893D01*
X0196281Y0041893D02*
X0196561Y0041893D01*
X0196561Y0042891D02*
X0196281Y0042891D01*
X0196281Y0040894D02*
X0196561Y0040894D01*
X0196561Y0038897D02*
X0196281Y0038897D01*
X0196281Y0037899D02*
X0196561Y0037899D01*
X0196561Y0036900D02*
X0196281Y0036900D01*
X0197668Y0034903D02*
X0169584Y0034903D01*
X0169584Y0033905D02*
X0196669Y0033905D01*
X0195671Y0032906D02*
X0169584Y0032906D01*
X0169584Y0031908D02*
X0194672Y0031908D01*
X0193674Y0030909D02*
X0169584Y0030909D01*
X0169584Y0029911D02*
X0192675Y0029911D01*
X0191677Y0028912D02*
X0169584Y0028912D01*
X0169584Y0027914D02*
X0174030Y0027914D01*
X0172720Y0026915D02*
X0169584Y0026915D01*
X0169584Y0025917D02*
X0171889Y0025917D01*
X0171475Y0024918D02*
X0169506Y0024918D01*
X0169116Y0023920D02*
X0171200Y0023920D01*
X0171200Y0022921D02*
X0170114Y0022921D01*
X0167037Y0018927D02*
X0104250Y0018927D01*
X0103750Y0018927D02*
X0099163Y0018927D01*
X0100161Y0019926D02*
X0101000Y0019926D01*
X0101000Y0017929D02*
X0098164Y0017929D01*
X0097166Y0016930D02*
X0101000Y0016930D01*
X0101000Y0015932D02*
X0096167Y0015932D01*
X0095169Y0014933D02*
X0101446Y0014933D01*
X0103750Y0014933D02*
X0104250Y0014933D01*
X0104250Y0015932D02*
X0103750Y0015932D01*
X0103750Y0016930D02*
X0104250Y0016930D01*
X0104250Y0017929D02*
X0103750Y0017929D01*
X0103750Y0019926D02*
X0104250Y0019926D01*
X0104250Y0020924D02*
X0103750Y0020924D01*
X0103750Y0021923D02*
X0104250Y0021923D01*
X0104250Y0022921D02*
X0103750Y0022921D01*
X0103600Y0023920D02*
X0149532Y0023920D01*
X0148533Y0024918D02*
X0133618Y0024918D01*
X0133645Y0024945D02*
X0133843Y0025287D01*
X0133945Y0025669D01*
X0133945Y0029500D01*
X0124480Y0029500D01*
X0124480Y0024366D01*
X0132642Y0024366D01*
X0133024Y0024468D01*
X0133366Y0024666D01*
X0133645Y0024945D01*
X0133945Y0025917D02*
X0148455Y0025917D01*
X0148455Y0026915D02*
X0133945Y0026915D01*
X0133945Y0027914D02*
X0148455Y0027914D01*
X0148455Y0028912D02*
X0133945Y0028912D01*
X0133945Y0030500D02*
X0133945Y0034331D01*
X0133843Y0034713D01*
X0133645Y0035055D01*
X0133366Y0035334D01*
X0133024Y0035532D01*
X0132642Y0035634D01*
X0124480Y0035634D01*
X0124480Y0030500D01*
X0123480Y0030500D01*
X0123480Y0029500D01*
X0114016Y0029500D01*
X0114016Y0025669D01*
X0114118Y0025287D01*
X0114315Y0024945D01*
X0114595Y0024666D01*
X0114937Y0024468D01*
X0115318Y0024366D01*
X0123480Y0024366D01*
X0123480Y0029500D01*
X0124480Y0029500D01*
X0124480Y0030500D01*
X0133945Y0030500D01*
X0133945Y0030909D02*
X0148455Y0030909D01*
X0148455Y0029911D02*
X0124480Y0029911D01*
X0124480Y0030909D02*
X0123480Y0030909D01*
X0123480Y0030500D02*
X0123480Y0035634D01*
X0115318Y0035634D01*
X0114937Y0035532D01*
X0114595Y0035334D01*
X0114315Y0035055D01*
X0114118Y0034713D01*
X0114016Y0034331D01*
X0114016Y0030500D01*
X0123480Y0030500D01*
X0123480Y0029911D02*
X0103600Y0029911D01*
X0103600Y0030909D02*
X0114016Y0030909D01*
X0114016Y0031908D02*
X0103600Y0031908D01*
X0103600Y0032906D02*
X0114016Y0032906D01*
X0114016Y0033905D02*
X0103600Y0033905D01*
X0103600Y0034903D02*
X0114228Y0034903D01*
X0114016Y0028912D02*
X0103600Y0028912D01*
X0103600Y0027914D02*
X0114016Y0027914D01*
X0114016Y0026915D02*
X0103600Y0026915D01*
X0103600Y0025917D02*
X0114016Y0025917D01*
X0114342Y0024918D02*
X0103600Y0024918D01*
X0107000Y0020924D02*
X0165040Y0020924D01*
X0166039Y0019926D02*
X0107000Y0019926D01*
X0107000Y0017929D02*
X0168534Y0017929D01*
X0171200Y0016930D02*
X0107000Y0016930D01*
X0107000Y0015932D02*
X0171200Y0015932D01*
X0171537Y0014933D02*
X0106554Y0014933D01*
X0094170Y0013934D02*
X0171950Y0013934D01*
X0172869Y0012936D02*
X0093172Y0012936D01*
X0103600Y0035902D02*
X0149353Y0035902D01*
X0148455Y0034903D02*
X0133733Y0034903D01*
X0133945Y0033905D02*
X0148455Y0033905D01*
X0148455Y0032906D02*
X0133945Y0032906D01*
X0133945Y0031908D02*
X0148455Y0031908D01*
X0168686Y0035902D02*
X0184506Y0035902D01*
X0183202Y0036900D02*
X0106522Y0036900D01*
X0107000Y0037899D02*
X0182492Y0037899D01*
X0182079Y0038897D02*
X0107000Y0038897D01*
X0107000Y0039896D02*
X0181999Y0039896D01*
X0181999Y0040894D02*
X0104250Y0040894D01*
X0104250Y0039896D02*
X0103750Y0039896D01*
X0103750Y0038897D02*
X0104250Y0038897D01*
X0104250Y0037899D02*
X0103750Y0037899D01*
X0103750Y0036900D02*
X0104250Y0036900D01*
X0104250Y0041893D02*
X0103750Y0041893D01*
X0103750Y0042891D02*
X0104250Y0042891D01*
X0104250Y0043890D02*
X0103750Y0043890D01*
X0103750Y0044888D02*
X0104250Y0044888D01*
X0103600Y0045887D02*
X0208651Y0045887D01*
X0207653Y0044888D02*
X0106719Y0044888D01*
X0107000Y0043890D02*
X0184003Y0043890D01*
X0182994Y0042891D02*
X0107000Y0042891D01*
X0107000Y0041893D02*
X0182406Y0041893D01*
X0198748Y0028912D02*
X0217187Y0028912D01*
X0217041Y0029911D02*
X0199746Y0029911D01*
X0197749Y0027914D02*
X0217444Y0027914D01*
X0217823Y0026915D02*
X0196751Y0026915D01*
X0195752Y0025917D02*
X0218340Y0025917D01*
X0219024Y0024918D02*
X0194754Y0024918D01*
X0193755Y0023920D02*
X0219919Y0023920D01*
X0221119Y0022921D02*
X0192757Y0022921D01*
X0191800Y0021923D02*
X0222947Y0021923D01*
X0235970Y0032906D02*
X0264321Y0032906D01*
X0264321Y0031908D02*
X0236138Y0031908D01*
X0235690Y0033905D02*
X0264321Y0033905D01*
X0264321Y0034903D02*
X0235286Y0034903D01*
X0234742Y0035902D02*
X0264321Y0035902D01*
X0264321Y0036900D02*
X0234026Y0036900D01*
X0233093Y0037899D02*
X0238613Y0037899D01*
X0236361Y0038897D02*
X0231781Y0038897D01*
X0229715Y0039896D02*
X0234979Y0039896D01*
X0231734Y0047884D02*
X0217719Y0047884D01*
X0218718Y0048882D02*
X0231863Y0048882D01*
X0232103Y0049881D02*
X0230269Y0049881D01*
X0232130Y0050879D02*
X0232462Y0050879D01*
X0222731Y0049881D02*
X0219716Y0049881D01*
X0220715Y0050879D02*
X0220870Y0050879D01*
X0216639Y0053875D02*
X0103600Y0053875D01*
X0103600Y0054873D02*
X0217242Y0054873D01*
X0216743Y0055872D02*
X0104108Y0055872D01*
X0105106Y0056870D02*
X0149179Y0056870D01*
X0148888Y0057869D02*
X0129819Y0057869D01*
X0130568Y0058868D02*
X0148888Y0058868D01*
X0148888Y0059866D02*
X0130568Y0059866D01*
X0130568Y0060865D02*
X0148888Y0060865D01*
X0148888Y0061863D02*
X0130568Y0061863D01*
X0131097Y0062862D02*
X0148911Y0062862D01*
X0149910Y0063860D02*
X0132051Y0063860D01*
X0132400Y0064859D02*
X0151400Y0064859D01*
X0151400Y0065857D02*
X0132400Y0065857D01*
X0132400Y0066856D02*
X0151400Y0066856D01*
X0151400Y0067854D02*
X0132400Y0067854D01*
X0132400Y0068853D02*
X0151400Y0068853D01*
X0151400Y0069851D02*
X0132400Y0069851D01*
X0132400Y0070850D02*
X0151400Y0070850D01*
X0151400Y0071848D02*
X0132400Y0071848D01*
X0132400Y0072847D02*
X0151400Y0072847D01*
X0151400Y0073845D02*
X0132400Y0073845D01*
X0132400Y0074844D02*
X0151400Y0074844D01*
X0151400Y0075842D02*
X0132400Y0075842D01*
X0132400Y0076841D02*
X0151400Y0076841D01*
X0151459Y0077839D02*
X0132400Y0077839D01*
X0132400Y0078838D02*
X0152002Y0078838D01*
X0152100Y0079836D02*
X0132400Y0079836D01*
X0132400Y0080835D02*
X0152100Y0080835D01*
X0152456Y0081833D02*
X0132400Y0081833D01*
X0132400Y0082832D02*
X0152902Y0082832D01*
X0153901Y0083830D02*
X0132400Y0083830D01*
X0132400Y0084829D02*
X0155853Y0084829D01*
X0158992Y0085827D02*
X0132400Y0085827D01*
X0132400Y0086826D02*
X0159990Y0086826D01*
X0160989Y0087824D02*
X0132860Y0087824D01*
X0133858Y0088823D02*
X0161800Y0088823D01*
X0161800Y0089821D02*
X0134857Y0089821D01*
X0135855Y0090820D02*
X0161800Y0090820D01*
X0161800Y0091818D02*
X0136854Y0091818D01*
X0137852Y0092817D02*
X0161800Y0092817D01*
X0161800Y0093815D02*
X0138851Y0093815D01*
X0139849Y0094814D02*
X0161800Y0094814D01*
X0161800Y0095812D02*
X0140848Y0095812D01*
X0141846Y0096811D02*
X0161800Y0096811D01*
X0161800Y0097809D02*
X0142845Y0097809D01*
X0143843Y0098808D02*
X0161800Y0098808D01*
X0161800Y0099806D02*
X0144842Y0099806D01*
X0145841Y0100805D02*
X0161800Y0100805D01*
X0161800Y0101803D02*
X0146839Y0101803D01*
X0147838Y0102802D02*
X0161800Y0102802D01*
X0161800Y0103801D02*
X0148836Y0103801D01*
X0149835Y0104799D02*
X0161800Y0104799D01*
X0161800Y0105798D02*
X0150833Y0105798D01*
X0154094Y0106796D02*
X0161800Y0106796D01*
X0161800Y0107795D02*
X0155024Y0107795D01*
X0155438Y0108793D02*
X0161800Y0108793D01*
X0161800Y0109792D02*
X0155600Y0109792D01*
X0155826Y0110790D02*
X0161216Y0110790D01*
X0160218Y0111789D02*
X0156824Y0111789D01*
X0157823Y0112787D02*
X0160000Y0112787D01*
X0160000Y0113786D02*
X0158821Y0113786D01*
X0159820Y0114784D02*
X0160000Y0114784D01*
X0156743Y0118778D02*
X0146000Y0118778D01*
X0146000Y0117780D02*
X0155744Y0117780D01*
X0154746Y0116781D02*
X0146000Y0116781D01*
X0146000Y0115783D02*
X0153747Y0115783D01*
X0152749Y0114784D02*
X0146000Y0114784D01*
X0146000Y0113786D02*
X0149926Y0113786D01*
X0149178Y0113476D02*
X0148024Y0112322D01*
X0147400Y0110816D01*
X0147400Y0109436D01*
X0147008Y0109044D01*
X0146976Y0109122D01*
X0146000Y0110098D01*
X0146000Y0120164D01*
X0160000Y0134164D01*
X0160000Y0130904D01*
X0160600Y0130304D01*
X0160600Y0129774D01*
X0161130Y0129774D01*
X0161180Y0129724D01*
X0161130Y0129674D01*
X0160600Y0129674D01*
X0160600Y0129145D01*
X0160000Y0128545D01*
X0160000Y0128250D01*
X0159684Y0128119D01*
X0158981Y0127416D01*
X0158181Y0126616D01*
X0157800Y0125697D01*
X0157800Y0121503D01*
X0158181Y0120584D01*
X0158364Y0120400D01*
X0152064Y0114100D01*
X0150684Y0114100D01*
X0149178Y0113476D01*
X0148489Y0112787D02*
X0146000Y0112787D01*
X0146000Y0111789D02*
X0147803Y0111789D01*
X0147400Y0110790D02*
X0146000Y0110790D01*
X0146307Y0109792D02*
X0147400Y0109792D01*
X0146000Y0119777D02*
X0157741Y0119777D01*
X0158101Y0120775D02*
X0146611Y0120775D01*
X0147609Y0121774D02*
X0157800Y0121774D01*
X0157800Y0122772D02*
X0148608Y0122772D01*
X0149606Y0123771D02*
X0157800Y0123771D01*
X0157800Y0124769D02*
X0150605Y0124769D01*
X0151603Y0125768D02*
X0157829Y0125768D01*
X0158331Y0126766D02*
X0152602Y0126766D01*
X0153600Y0127765D02*
X0159329Y0127765D01*
X0160219Y0128763D02*
X0154599Y0128763D01*
X0155597Y0129762D02*
X0161142Y0129762D01*
X0160144Y0130760D02*
X0156596Y0130760D01*
X0157594Y0131759D02*
X0160000Y0131759D01*
X0160000Y0132757D02*
X0158593Y0132757D01*
X0159591Y0133756D02*
X0160000Y0133756D01*
X0178486Y0149732D02*
X0202897Y0149732D01*
X0203400Y0150731D02*
X0079905Y0150731D01*
X0078906Y0151729D02*
X0203400Y0151729D01*
X0203400Y0152728D02*
X0077908Y0152728D01*
X0076909Y0153726D02*
X0203400Y0153726D01*
X0203400Y0154725D02*
X0075911Y0154725D01*
X0074912Y0155723D02*
X0203400Y0155723D01*
X0203400Y0156722D02*
X0073914Y0156722D01*
X0072915Y0157720D02*
X0203400Y0157720D01*
X0203400Y0158719D02*
X0071917Y0158719D01*
X0070918Y0159717D02*
X0203400Y0159717D01*
X0203400Y0160716D02*
X0069920Y0160716D01*
X0074362Y0161714D02*
X0075331Y0161714D01*
X0075331Y0162713D02*
X0074362Y0162713D01*
X0074362Y0163711D02*
X0075331Y0163711D01*
X0077730Y0161714D02*
X0095270Y0161714D01*
X0094521Y0162713D02*
X0078479Y0162713D01*
X0078512Y0163711D02*
X0094488Y0163711D01*
X0094488Y0165484D02*
X0097669Y0165484D01*
X0097669Y0168468D01*
X0095791Y0168468D01*
X0095409Y0168366D01*
X0095067Y0168169D01*
X0094788Y0167890D01*
X0094590Y0167547D01*
X0094488Y0167166D01*
X0094488Y0165484D01*
X0094488Y0165708D02*
X0078512Y0165708D01*
X0078512Y0166707D02*
X0094488Y0166707D01*
X0094682Y0167705D02*
X0078318Y0167705D01*
X0097669Y0167705D02*
X0098638Y0167705D01*
X0098638Y0166707D02*
X0097669Y0166707D01*
X0097669Y0165708D02*
X0098638Y0165708D01*
X0104953Y0208644D02*
X0105528Y0208644D01*
X0105528Y0209643D02*
X0104953Y0209643D01*
X0104953Y0210641D02*
X0105528Y0210641D01*
X0105528Y0211640D02*
X0104953Y0211640D01*
X0104953Y0212638D02*
X0105528Y0212638D01*
X0105528Y0213637D02*
X0104953Y0213637D01*
X0098487Y0215634D02*
X0079513Y0215634D01*
X0080175Y0216632D02*
X0097825Y0216632D01*
X0097825Y0217631D02*
X0082666Y0217631D01*
X0083665Y0218629D02*
X0097825Y0218629D01*
X0097825Y0219628D02*
X0084663Y0219628D01*
X0085662Y0220626D02*
X0097825Y0220626D01*
X0097872Y0221625D02*
X0086660Y0221625D01*
X0087659Y0222623D02*
X0098870Y0222623D01*
X0099400Y0223622D02*
X0088657Y0223622D01*
X0089656Y0224620D02*
X0099400Y0224620D01*
X0099400Y0225619D02*
X0090654Y0225619D01*
X0091653Y0226617D02*
X0095162Y0226617D01*
X0093189Y0227616D02*
X0092651Y0227616D01*
X0097838Y0226617D02*
X0099400Y0226617D01*
X0101244Y0240597D02*
X0101756Y0240597D01*
X0102400Y0241595D02*
X0100600Y0241595D01*
X0099602Y0242594D02*
X0103398Y0242594D01*
X0109602Y0242594D02*
X0113398Y0242594D01*
X0112400Y0241595D02*
X0110600Y0241595D01*
X0111244Y0240597D02*
X0111756Y0240597D01*
X0080588Y0222623D02*
X0079130Y0222623D01*
X0073487Y0215634D02*
X0047910Y0215634D01*
X0047937Y0215607D02*
X0047937Y0215607D01*
X0037470Y0222667D02*
X0037470Y0222667D01*
X0079953Y0213637D02*
X0080528Y0213637D01*
X0080528Y0212638D02*
X0079953Y0212638D01*
X0079953Y0211640D02*
X0080528Y0211640D01*
X0080528Y0210641D02*
X0079953Y0210641D01*
X0079953Y0209643D02*
X0080528Y0209643D01*
X0080528Y0208644D02*
X0079953Y0208644D01*
X0154513Y0215634D02*
X0173487Y0215634D01*
X0172825Y0216632D02*
X0155175Y0216632D01*
X0154953Y0213637D02*
X0155528Y0213637D01*
X0155528Y0212638D02*
X0154953Y0212638D01*
X0154953Y0211640D02*
X0155528Y0211640D01*
X0155528Y0210641D02*
X0154953Y0210641D01*
X0154953Y0209643D02*
X0155528Y0209643D01*
X0155528Y0208644D02*
X0154953Y0208644D01*
X0179953Y0208644D02*
X0180528Y0208644D01*
X0180528Y0209643D02*
X0179953Y0209643D01*
X0179953Y0210641D02*
X0180528Y0210641D01*
X0180528Y0211640D02*
X0179953Y0211640D01*
X0179953Y0212638D02*
X0180528Y0212638D01*
X0180528Y0213637D02*
X0179953Y0213637D01*
X0185288Y0196662D02*
X0199702Y0196662D01*
X0200701Y0195664D02*
X0185568Y0195664D01*
X0185568Y0194665D02*
X0201699Y0194665D01*
X0202431Y0193667D02*
X0185568Y0193667D01*
X0185568Y0192668D02*
X0202431Y0192668D01*
X0202431Y0191670D02*
X0185568Y0191670D01*
X0185568Y0190671D02*
X0202431Y0190671D01*
X0202431Y0189672D02*
X0185568Y0189672D01*
X0185568Y0188674D02*
X0202431Y0188674D01*
X0202431Y0187675D02*
X0185568Y0187675D01*
X0185568Y0186677D02*
X0202431Y0186677D01*
X0202431Y0185678D02*
X0185757Y0185678D01*
X0186756Y0184680D02*
X0202431Y0184680D01*
X0202431Y0183681D02*
X0187754Y0183681D01*
X0188753Y0182683D02*
X0203367Y0182683D01*
X0203400Y0181684D02*
X0189674Y0181684D01*
X0190000Y0180686D02*
X0203400Y0180686D01*
X0203400Y0179687D02*
X0190000Y0179687D01*
X0190000Y0178689D02*
X0203400Y0178689D01*
X0203400Y0177690D02*
X0190000Y0177690D01*
X0190000Y0176692D02*
X0203400Y0176692D01*
X0203400Y0175693D02*
X0190000Y0175693D01*
X0190000Y0174695D02*
X0203400Y0174695D01*
X0203400Y0173696D02*
X0190000Y0173696D01*
X0190000Y0172698D02*
X0203400Y0172698D01*
X0203400Y0171699D02*
X0190000Y0171699D01*
X0190000Y0170701D02*
X0203400Y0170701D01*
X0203400Y0169702D02*
X0190000Y0169702D01*
X0191553Y0168704D02*
X0203400Y0168704D01*
X0203400Y0167705D02*
X0198318Y0167705D01*
X0198512Y0166707D02*
X0203400Y0166707D01*
X0203400Y0165708D02*
X0198512Y0165708D01*
X0198512Y0163711D02*
X0203400Y0163711D01*
X0203400Y0162713D02*
X0198479Y0162713D01*
X0197730Y0161714D02*
X0203400Y0161714D01*
X0203400Y0164710D02*
X0195331Y0164710D01*
X0195331Y0165708D02*
X0194362Y0165708D01*
X0194362Y0166707D02*
X0195331Y0166707D01*
X0195331Y0167705D02*
X0194362Y0167705D01*
X0194362Y0163711D02*
X0195331Y0163711D01*
X0195331Y0162713D02*
X0194362Y0162713D01*
X0194362Y0161714D02*
X0195331Y0161714D01*
X0208400Y0161714D02*
X0215270Y0161714D01*
X0215409Y0161634D02*
X0215791Y0161531D01*
X0217669Y0161531D01*
X0217669Y0164516D01*
X0214488Y0164516D01*
X0214488Y0162834D01*
X0214590Y0162453D01*
X0214788Y0162110D01*
X0215067Y0161831D01*
X0215409Y0161634D01*
X0214521Y0162713D02*
X0208400Y0162713D01*
X0208400Y0163711D02*
X0214488Y0163711D01*
X0214488Y0165484D02*
X0217669Y0165484D01*
X0217669Y0164516D01*
X0218638Y0164516D01*
X0218638Y0161531D01*
X0220516Y0161531D01*
X0220898Y0161634D01*
X0221032Y0161711D01*
X0221811Y0160931D01*
X0227882Y0160931D01*
X0229112Y0162162D01*
X0229112Y0167838D01*
X0227882Y0169068D01*
X0226800Y0169068D01*
X0226800Y0175964D01*
X0231400Y0171364D01*
X0231400Y0148468D01*
X0230331Y0148468D01*
X0230331Y0145484D01*
X0229362Y0145484D01*
X0227419Y0145484D01*
X0227419Y0144516D01*
X0229362Y0144516D01*
X0229362Y0145484D01*
X0229362Y0148468D01*
X0227484Y0148468D01*
X0227102Y0148366D01*
X0226968Y0148289D01*
X0226189Y0149068D01*
X0220118Y0149068D01*
X0218888Y0147838D01*
X0218888Y0144124D01*
X0203000Y0128236D01*
X0203000Y0137993D01*
X0201770Y0139224D01*
X0199459Y0139224D01*
X0208019Y0147784D01*
X0208400Y0148703D01*
X0208400Y0182388D01*
X0209338Y0182388D01*
X0210568Y0183618D01*
X0210568Y0185796D01*
X0221800Y0174564D01*
X0221800Y0169057D01*
X0221032Y0168289D01*
X0220898Y0168366D01*
X0220516Y0168468D01*
X0218638Y0168468D01*
X0218638Y0165484D01*
X0217669Y0165484D01*
X0217669Y0168468D01*
X0215791Y0168468D01*
X0215409Y0168366D01*
X0215067Y0168169D01*
X0214788Y0167890D01*
X0214590Y0167547D01*
X0214488Y0167166D01*
X0214488Y0165484D01*
X0214488Y0165708D02*
X0208400Y0165708D01*
X0208400Y0164710D02*
X0217669Y0164710D01*
X0217669Y0165708D02*
X0218638Y0165708D01*
X0218638Y0166707D02*
X0217669Y0166707D01*
X0217669Y0167705D02*
X0218638Y0167705D01*
X0221447Y0168704D02*
X0208400Y0168704D01*
X0208400Y0169702D02*
X0221800Y0169702D01*
X0221800Y0170701D02*
X0208400Y0170701D01*
X0208400Y0171699D02*
X0221800Y0171699D01*
X0221800Y0172698D02*
X0208400Y0172698D01*
X0208400Y0173696D02*
X0221800Y0173696D01*
X0221670Y0174695D02*
X0208400Y0174695D01*
X0208400Y0175693D02*
X0220671Y0175693D01*
X0219673Y0176692D02*
X0208400Y0176692D01*
X0208400Y0177690D02*
X0218674Y0177690D01*
X0217676Y0178689D02*
X0208400Y0178689D01*
X0208400Y0179687D02*
X0216677Y0179687D01*
X0215679Y0180686D02*
X0208400Y0180686D01*
X0208400Y0181684D02*
X0214680Y0181684D01*
X0213682Y0182683D02*
X0209633Y0182683D01*
X0210568Y0183681D02*
X0212683Y0183681D01*
X0211685Y0184680D02*
X0210568Y0184680D01*
X0210568Y0185678D02*
X0210686Y0185678D01*
X0226800Y0175693D02*
X0227071Y0175693D01*
X0226800Y0174695D02*
X0228070Y0174695D01*
X0229068Y0173696D02*
X0226800Y0173696D01*
X0226800Y0172698D02*
X0230067Y0172698D01*
X0231065Y0171699D02*
X0226800Y0171699D01*
X0226800Y0170701D02*
X0231400Y0170701D01*
X0231400Y0169702D02*
X0226800Y0169702D01*
X0228246Y0168704D02*
X0231400Y0168704D01*
X0231400Y0167705D02*
X0229112Y0167705D01*
X0229112Y0166707D02*
X0231400Y0166707D01*
X0231400Y0165708D02*
X0229112Y0165708D01*
X0229112Y0164710D02*
X0231400Y0164710D01*
X0231400Y0163711D02*
X0229112Y0163711D01*
X0229112Y0162713D02*
X0231400Y0162713D01*
X0231400Y0161714D02*
X0228664Y0161714D01*
X0231400Y0160716D02*
X0208400Y0160716D01*
X0208400Y0159717D02*
X0231400Y0159717D01*
X0231400Y0158719D02*
X0208400Y0158719D01*
X0208400Y0157720D02*
X0231400Y0157720D01*
X0231400Y0156722D02*
X0208400Y0156722D01*
X0208400Y0155723D02*
X0231400Y0155723D01*
X0231400Y0154725D02*
X0208400Y0154725D01*
X0208400Y0153726D02*
X0231400Y0153726D01*
X0231400Y0152728D02*
X0208400Y0152728D01*
X0208400Y0151729D02*
X0231400Y0151729D01*
X0231400Y0150731D02*
X0208400Y0150731D01*
X0208400Y0149732D02*
X0231400Y0149732D01*
X0231400Y0148734D02*
X0226524Y0148734D01*
X0229362Y0147735D02*
X0230331Y0147735D01*
X0230331Y0146737D02*
X0229362Y0146737D01*
X0229362Y0145738D02*
X0230331Y0145738D01*
X0230331Y0144516D02*
X0229362Y0144516D01*
X0229362Y0141531D01*
X0227484Y0141531D01*
X0227102Y0141634D01*
X0226968Y0141711D01*
X0226189Y0140931D01*
X0222767Y0140931D01*
X0222536Y0140700D01*
X0223857Y0140700D01*
X0223907Y0140719D01*
X0224352Y0140700D01*
X0224797Y0140700D01*
X0224847Y0140679D01*
X0231400Y0140406D01*
X0231400Y0141531D01*
X0230331Y0141531D01*
X0230331Y0144516D01*
X0230331Y0143741D02*
X0229362Y0143741D01*
X0229362Y0144739D02*
X0227419Y0144739D01*
X0229362Y0142742D02*
X0230331Y0142742D01*
X0230331Y0141744D02*
X0229362Y0141744D01*
X0231400Y0140745D02*
X0222581Y0140745D01*
X0218505Y0143741D02*
X0203976Y0143741D01*
X0202978Y0142742D02*
X0217507Y0142742D01*
X0216508Y0141744D02*
X0201979Y0141744D01*
X0200981Y0140745D02*
X0215510Y0140745D01*
X0214511Y0139747D02*
X0199982Y0139747D01*
X0202245Y0138748D02*
X0213513Y0138748D01*
X0212514Y0137750D02*
X0203000Y0137750D01*
X0203000Y0136751D02*
X0211516Y0136751D01*
X0210517Y0135753D02*
X0203000Y0135753D01*
X0203000Y0134754D02*
X0209519Y0134754D01*
X0208520Y0133756D02*
X0203000Y0133756D01*
X0203000Y0132757D02*
X0207522Y0132757D01*
X0206523Y0131759D02*
X0203000Y0131759D01*
X0203000Y0130760D02*
X0205525Y0130760D01*
X0204526Y0129762D02*
X0203000Y0129762D01*
X0203000Y0128763D02*
X0203528Y0128763D01*
X0194980Y0126575D02*
X0194930Y0126525D01*
X0194400Y0126525D01*
X0194400Y0125995D01*
X0193800Y0125395D01*
X0193800Y0119700D01*
X0189336Y0119700D01*
X0189200Y0119836D01*
X0189200Y0121216D01*
X0188576Y0122722D01*
X0187422Y0123876D01*
X0185916Y0124500D01*
X0184736Y0124500D01*
X0193800Y0133564D01*
X0193800Y0131694D01*
X0193800Y0127755D01*
X0194400Y0127155D01*
X0194400Y0126625D01*
X0194930Y0126625D01*
X0194980Y0126575D01*
X0194400Y0126766D02*
X0187002Y0126766D01*
X0186003Y0125768D02*
X0194173Y0125768D01*
X0193800Y0124769D02*
X0185005Y0124769D01*
X0187528Y0123771D02*
X0193800Y0123771D01*
X0193800Y0122772D02*
X0188526Y0122772D01*
X0188969Y0121774D02*
X0193800Y0121774D01*
X0193800Y0120775D02*
X0189200Y0120775D01*
X0189259Y0119777D02*
X0193800Y0119777D01*
X0193800Y0127765D02*
X0188000Y0127765D01*
X0188999Y0128763D02*
X0193800Y0128763D01*
X0193800Y0129762D02*
X0189997Y0129762D01*
X0190996Y0130760D02*
X0193800Y0130760D01*
X0193800Y0131759D02*
X0191994Y0131759D01*
X0192993Y0132757D02*
X0193800Y0132757D01*
X0195724Y0142742D02*
X0195907Y0142742D01*
X0195724Y0143741D02*
X0196905Y0143741D01*
X0197904Y0144739D02*
X0195724Y0144739D01*
X0195255Y0145738D02*
X0198902Y0145738D01*
X0199901Y0146737D02*
X0181499Y0146737D01*
X0180501Y0147735D02*
X0200899Y0147735D01*
X0201898Y0148734D02*
X0179502Y0148734D01*
X0204975Y0144739D02*
X0218888Y0144739D01*
X0218888Y0145738D02*
X0205974Y0145738D01*
X0206972Y0146737D02*
X0218888Y0146737D01*
X0218888Y0147735D02*
X0207971Y0147735D01*
X0208400Y0148734D02*
X0219783Y0148734D01*
X0218638Y0161714D02*
X0217669Y0161714D01*
X0217669Y0162713D02*
X0218638Y0162713D01*
X0218638Y0163711D02*
X0217669Y0163711D01*
X0214488Y0166707D02*
X0208400Y0166707D01*
X0208400Y0167705D02*
X0214682Y0167705D01*
X0185000Y0171699D02*
X0183517Y0171699D01*
X0226501Y0133756D02*
X0264321Y0133756D01*
X0264321Y0132757D02*
X0233288Y0132757D01*
X0233512Y0131759D02*
X0264321Y0131759D01*
X0264321Y0130760D02*
X0233512Y0130760D01*
X0233512Y0129516D02*
X0230331Y0129516D01*
X0230331Y0126531D01*
X0232209Y0126531D01*
X0232591Y0126634D01*
X0232933Y0126831D01*
X0233212Y0127110D01*
X0233410Y0127453D01*
X0233512Y0127834D01*
X0233512Y0129516D01*
X0233512Y0128763D02*
X0264321Y0128763D01*
X0264321Y0127765D02*
X0233493Y0127765D01*
X0232820Y0126766D02*
X0264321Y0126766D01*
X0264321Y0125768D02*
X0226000Y0125768D01*
X0226000Y0124769D02*
X0264321Y0124769D01*
X0264321Y0123771D02*
X0226000Y0123771D01*
X0226000Y0122772D02*
X0264321Y0122772D01*
X0264321Y0121774D02*
X0226000Y0121774D01*
X0226000Y0120775D02*
X0264321Y0120775D01*
X0264321Y0119777D02*
X0226000Y0119777D01*
X0226479Y0118778D02*
X0264321Y0118778D01*
X0264321Y0117780D02*
X0233276Y0117780D01*
X0233512Y0116781D02*
X0264321Y0116781D01*
X0264321Y0115783D02*
X0233512Y0115783D01*
X0233512Y0114516D02*
X0230331Y0114516D01*
X0230331Y0111531D01*
X0232209Y0111531D01*
X0232591Y0111634D01*
X0232933Y0111831D01*
X0233212Y0112110D01*
X0233410Y0112453D01*
X0233512Y0112834D01*
X0233512Y0114516D01*
X0233512Y0113786D02*
X0264321Y0113786D01*
X0264321Y0114784D02*
X0230331Y0114784D01*
X0230331Y0113786D02*
X0229362Y0113786D01*
X0229362Y0112787D02*
X0230331Y0112787D01*
X0230331Y0111789D02*
X0229362Y0111789D01*
X0232859Y0111789D02*
X0264321Y0111789D01*
X0264321Y0112787D02*
X0233499Y0112787D01*
X0230331Y0115783D02*
X0229362Y0115783D01*
X0229362Y0116781D02*
X0230331Y0116781D01*
X0230331Y0117780D02*
X0229362Y0117780D01*
X0226000Y0110790D02*
X0264321Y0110790D01*
X0264321Y0109792D02*
X0226000Y0109792D01*
X0219850Y0103801D02*
X0199635Y0103801D01*
X0200634Y0102802D02*
X0218888Y0102802D01*
X0218888Y0101803D02*
X0201625Y0101803D01*
X0202000Y0100805D02*
X0218888Y0100805D01*
X0218888Y0099806D02*
X0202000Y0099806D01*
X0202000Y0098808D02*
X0218888Y0098808D01*
X0218888Y0097809D02*
X0202000Y0097809D01*
X0202000Y0096811D02*
X0219239Y0096811D01*
X0221000Y0095812D02*
X0201631Y0095812D01*
X0200649Y0094814D02*
X0221000Y0094814D01*
X0221000Y0093815D02*
X0199651Y0093815D01*
X0198652Y0092817D02*
X0221000Y0092817D01*
X0221000Y0091818D02*
X0197654Y0091818D01*
X0196655Y0090820D02*
X0221000Y0090820D01*
X0221000Y0089821D02*
X0170000Y0089821D01*
X0170000Y0090820D02*
X0187945Y0090820D01*
X0186946Y0091818D02*
X0170000Y0091818D01*
X0170000Y0092817D02*
X0185948Y0092817D01*
X0184949Y0093815D02*
X0170000Y0093815D01*
X0170000Y0094814D02*
X0182409Y0094814D01*
X0180689Y0095812D02*
X0170000Y0095812D01*
X0170000Y0096811D02*
X0179886Y0096811D01*
X0179472Y0097809D02*
X0170000Y0097809D01*
X0170000Y0098808D02*
X0179400Y0098808D01*
X0179479Y0099806D02*
X0170000Y0099806D01*
X0170000Y0100805D02*
X0179893Y0100805D01*
X0180705Y0101803D02*
X0170000Y0101803D01*
X0170000Y0102802D02*
X0182448Y0102802D01*
X0170613Y0088823D02*
X0219873Y0088823D01*
X0218888Y0087824D02*
X0171611Y0087824D01*
X0172610Y0086826D02*
X0218888Y0086826D01*
X0218888Y0085827D02*
X0173608Y0085827D01*
X0174607Y0084829D02*
X0174853Y0084829D01*
X0177147Y0084829D02*
X0218888Y0084829D01*
X0218888Y0083830D02*
X0179099Y0083830D01*
X0180098Y0082832D02*
X0218888Y0082832D01*
X0219217Y0081833D02*
X0180544Y0081833D01*
X0180900Y0080835D02*
X0221000Y0080835D01*
X0221000Y0079836D02*
X0180900Y0079836D01*
X0180822Y0078838D02*
X0221000Y0078838D01*
X0221000Y0077839D02*
X0181596Y0077839D01*
X0182000Y0076841D02*
X0221000Y0076841D01*
X0221000Y0075842D02*
X0182000Y0075842D01*
X0182000Y0074844D02*
X0221000Y0074844D01*
X0221000Y0073845D02*
X0182000Y0073845D01*
X0182000Y0072847D02*
X0221000Y0072847D01*
X0221000Y0071848D02*
X0182000Y0071848D01*
X0182000Y0070850D02*
X0221000Y0070850D01*
X0221000Y0069851D02*
X0182000Y0069851D01*
X0182000Y0068853D02*
X0221000Y0068853D01*
X0220010Y0067854D02*
X0182000Y0067854D01*
X0182000Y0066856D02*
X0219012Y0066856D01*
X0218083Y0065857D02*
X0182000Y0065857D01*
X0182000Y0064859D02*
X0217507Y0064859D01*
X0216930Y0063860D02*
X0183090Y0063860D01*
X0184089Y0062862D02*
X0216598Y0062862D01*
X0216330Y0061863D02*
X0184112Y0061863D01*
X0184112Y0060865D02*
X0216101Y0060865D01*
X0216101Y0059866D02*
X0184112Y0059866D01*
X0184112Y0058868D02*
X0216101Y0058868D01*
X0216208Y0057869D02*
X0184112Y0057869D01*
X0183821Y0056870D02*
X0216475Y0056870D01*
X0215641Y0052876D02*
X0103600Y0052876D01*
X0103600Y0051878D02*
X0214642Y0051878D01*
X0213644Y0050879D02*
X0103600Y0050879D01*
X0103600Y0049881D02*
X0212645Y0049881D01*
X0211647Y0048882D02*
X0103600Y0048882D01*
X0103600Y0047884D02*
X0210648Y0047884D01*
X0209650Y0046885D02*
X0103600Y0046885D01*
X0109819Y0057869D02*
X0123181Y0057869D01*
X0122431Y0058868D02*
X0110568Y0058868D01*
X0123480Y0034903D02*
X0124480Y0034903D01*
X0124480Y0033905D02*
X0123480Y0033905D01*
X0123480Y0032906D02*
X0124480Y0032906D01*
X0124480Y0031908D02*
X0123480Y0031908D01*
X0123480Y0028912D02*
X0124480Y0028912D01*
X0124480Y0027914D02*
X0123480Y0027914D01*
X0123480Y0026915D02*
X0124480Y0026915D01*
X0124480Y0025917D02*
X0123480Y0025917D01*
X0123480Y0024918D02*
X0124480Y0024918D01*
X0159362Y0056870D02*
X0160331Y0056870D01*
X0160331Y0057869D02*
X0159362Y0057869D01*
X0159362Y0058868D02*
X0160331Y0058868D01*
X0160331Y0059866D02*
X0172669Y0059866D01*
X0173638Y0059866D02*
X0175581Y0059866D01*
X0173638Y0058868D02*
X0172669Y0058868D01*
X0172669Y0057869D02*
X0173638Y0057869D01*
X0173638Y0056870D02*
X0172669Y0056870D01*
X0170028Y0056870D02*
X0162972Y0056870D01*
X0163512Y0057869D02*
X0169488Y0057869D01*
X0169488Y0058868D02*
X0163512Y0058868D01*
X0163512Y0060865D02*
X0169488Y0060865D01*
X0169488Y0061863D02*
X0163512Y0061863D01*
X0163228Y0062862D02*
X0169772Y0062862D01*
X0172669Y0062862D02*
X0173638Y0062862D01*
X0173638Y0061863D02*
X0172669Y0061863D01*
X0172669Y0060865D02*
X0173638Y0060865D01*
X0176603Y0063860D02*
X0156400Y0063860D01*
X0156400Y0064859D02*
X0177000Y0064859D01*
X0177000Y0065857D02*
X0156400Y0065857D01*
X0156400Y0066856D02*
X0177000Y0066856D01*
X0177000Y0067854D02*
X0156400Y0067854D01*
X0156400Y0068853D02*
X0177000Y0068853D01*
X0177000Y0069851D02*
X0156400Y0069851D01*
X0156400Y0070850D02*
X0177000Y0070850D01*
X0177000Y0071848D02*
X0156400Y0071848D01*
X0156400Y0072847D02*
X0177000Y0072847D01*
X0177000Y0073845D02*
X0156400Y0073845D01*
X0156400Y0074844D02*
X0177000Y0074844D01*
X0173233Y0075842D02*
X0159766Y0075842D01*
X0160770Y0076841D02*
X0172230Y0076841D01*
X0171591Y0077839D02*
X0161409Y0077839D01*
X0161822Y0078838D02*
X0171178Y0078838D01*
X0171100Y0079836D02*
X0161900Y0079836D01*
X0161900Y0080835D02*
X0171100Y0080835D01*
X0170531Y0081833D02*
X0162069Y0081833D01*
X0163067Y0082832D02*
X0169533Y0082832D01*
X0168534Y0083830D02*
X0164066Y0083830D01*
X0165064Y0084829D02*
X0167536Y0084829D01*
X0166537Y0085827D02*
X0166063Y0085827D01*
X0160331Y0062862D02*
X0159362Y0062862D01*
X0159362Y0061863D02*
X0160331Y0061863D01*
X0160331Y0060865D02*
X0159362Y0060865D01*
X0178970Y0027914D02*
X0184030Y0027914D01*
X0182720Y0026915D02*
X0180280Y0026915D01*
X0181111Y0025917D02*
X0181889Y0025917D01*
X0188970Y0027914D02*
X0190678Y0027914D01*
X0191800Y0020924D02*
X0248888Y0020924D01*
X0248888Y0019926D02*
X0191800Y0019926D01*
X0191800Y0018927D02*
X0248888Y0018927D01*
X0249119Y0017929D02*
X0191800Y0017929D01*
X0191800Y0016930D02*
X0249533Y0016930D01*
X0249946Y0015932D02*
X0191800Y0015932D01*
X0191463Y0014933D02*
X0250802Y0014933D01*
X0251801Y0013934D02*
X0191050Y0013934D01*
X0190131Y0012936D02*
X0253663Y0012936D01*
X0259337Y0012936D02*
X0264321Y0012936D01*
X0264321Y0013934D02*
X0261199Y0013934D01*
X0262198Y0014933D02*
X0264321Y0014933D01*
X0264321Y0015932D02*
X0263054Y0015932D01*
X0263467Y0016930D02*
X0264321Y0016930D01*
X0264321Y0017929D02*
X0263881Y0017929D01*
X0264112Y0018927D02*
X0264321Y0018927D01*
X0264321Y0019926D02*
X0264112Y0019926D01*
X0264112Y0020924D02*
X0264321Y0020924D01*
X0264321Y0021923D02*
X0263943Y0021923D01*
X0264321Y0022921D02*
X0263529Y0022921D01*
X0263115Y0023920D02*
X0264321Y0023920D01*
X0264321Y0024918D02*
X0262347Y0024918D01*
X0261348Y0025917D02*
X0264321Y0025917D01*
X0264321Y0026915D02*
X0259696Y0026915D01*
X0264321Y0047884D02*
X0250885Y0047884D01*
X0250755Y0048882D02*
X0264321Y0048882D01*
X0264321Y0049881D02*
X0250516Y0049881D01*
X0250157Y0050879D02*
X0264321Y0050879D01*
X0264321Y0051878D02*
X0249661Y0051878D01*
X0249002Y0052876D02*
X0264321Y0052876D01*
X0264321Y0053875D02*
X0248137Y0053875D01*
X0246992Y0054873D02*
X0264321Y0054873D01*
X0264321Y0055872D02*
X0245274Y0055872D01*
X0230331Y0081833D02*
X0229362Y0081833D01*
X0229362Y0082832D02*
X0230331Y0082832D01*
X0230331Y0083830D02*
X0229362Y0083830D01*
X0230331Y0084829D02*
X0264321Y0084829D01*
X0230331Y0085827D02*
X0229362Y0085827D01*
X0229362Y0086826D02*
X0230331Y0086826D01*
X0230331Y0087824D02*
X0229362Y0087824D01*
X0229362Y0096811D02*
X0230331Y0096811D01*
X0230331Y0097809D02*
X0229362Y0097809D01*
X0229362Y0098808D02*
X0230331Y0098808D01*
X0230331Y0126766D02*
X0229362Y0126766D01*
X0229362Y0127765D02*
X0230331Y0127765D01*
X0230331Y0128763D02*
X0229362Y0128763D01*
X0230331Y0129762D02*
X0264321Y0129762D01*
X0230331Y0130760D02*
X0229362Y0130760D01*
X0229362Y0131759D02*
X0230331Y0131759D01*
X0230331Y0132757D02*
X0229362Y0132757D01*
M02*
