%
M48
M72
T01C0.02000
T02C0.02559
T03C0.03200
T04C0.03600
T05C0.04000
T06C0.09000
T07C0.11024
T08C0.11800
T09C0.12598
%
T01
X91500Y90000
X102700Y106800
X79500Y125200
X113100Y131600
X133100Y142000
X131500Y146800
X157100Y130000
X151500Y110000
X143500Y106800
X183500Y98800
X192300Y95600
X196300Y98800
X193100Y102800
X183500Y115600
X185100Y120400
X188300Y126800
X182700Y167600
X131500Y170000
X126700Y193200
T02
X186579Y40000
X196421Y40000
T03
X176000Y80000
X157000Y80000
T04
X51421Y62800
X51421Y55000
X41579Y55000
X41579Y62800
T05
X121500Y115000
X131500Y115000
X131500Y125000
X121500Y125000
X121500Y135000
X131500Y135000
X126500Y235000
X116500Y235000
X106500Y235000
X96500Y235000
X136500Y235000
X146500Y235000
X176500Y20000
X186500Y20000
T06
X70200Y44300
X22800Y44300
T07
X11500Y20000
X256500Y20000
X256500Y240000
X11500Y240000
T08
X241309Y47126
X226600Y30815
T09
X226500Y59637
M30
