G75*
%MOIN*%
%OFA0B0*%
%FSLAX25Y25*%
%IPPOS*%
%LPD*%
%AMOC8*
5,1,8,0,0,1.08239X$1,22.5*
%
%ADD10C,0.11824*%
%ADD11R,0.05131X0.04737*%
%ADD12R,0.04737X0.05131*%
%ADD13C,0.05759*%
%ADD14OC8,0.08200*%
%ADD15C,0.17398*%
%ADD16C,0.17000*%
%ADD17C,0.07200*%
%ADD18OC8,0.07137*%
%ADD19R,0.03950X0.03950*%
%ADD20R,0.03800X0.06800*%
%ADD21R,0.03950X0.04343*%
%ADD22R,0.05800X0.03000*%
%ADD23R,0.03000X0.05800*%
%ADD24R,0.02170X0.06300*%
%ADD25C,0.07400*%
%ADD26C,0.13800*%
%ADD27C,0.06400*%
%ADD28R,0.17729X0.09068*%
%ADD29C,0.01421*%
D10*
X0011500Y0020000D03*
X0011500Y0240000D03*
X0256500Y0240000D03*
X0256500Y0020000D03*
D11*
X0229846Y0085000D03*
X0223154Y0085000D03*
X0223154Y0100000D03*
X0229846Y0100000D03*
X0229846Y0115000D03*
X0223154Y0115000D03*
X0223154Y0130000D03*
X0229846Y0130000D03*
X0229846Y0145000D03*
X0223154Y0145000D03*
X0224846Y0165000D03*
X0218154Y0165000D03*
X0194846Y0165000D03*
X0188154Y0165000D03*
X0164846Y0165000D03*
X0158154Y0165000D03*
X0134846Y0165000D03*
X0128154Y0165000D03*
X0128154Y0155000D03*
X0134846Y0155000D03*
X0104846Y0165000D03*
X0098154Y0165000D03*
X0074846Y0165000D03*
X0068154Y0165000D03*
X0153154Y0060000D03*
X0159846Y0060000D03*
X0173154Y0060000D03*
X0179846Y0060000D03*
D12*
X0126500Y0061654D03*
X0126500Y0068346D03*
X0106500Y0068346D03*
X0106500Y0061654D03*
X0086500Y0061654D03*
X0086500Y0068346D03*
X0086500Y0086654D03*
X0086500Y0093346D03*
X0071500Y0093346D03*
X0071500Y0086654D03*
X0071500Y0186654D03*
X0071500Y0193346D03*
X0101500Y0193346D03*
X0101500Y0186654D03*
X0131500Y0186654D03*
X0131500Y0193346D03*
X0156500Y0193346D03*
X0156500Y0186654D03*
X0181500Y0186654D03*
X0181500Y0193346D03*
X0206500Y0193346D03*
X0206500Y0186654D03*
D13*
X0196421Y0040000D03*
X0186579Y0040000D03*
D14*
X0131500Y0115000D03*
X0131500Y0125000D03*
X0131500Y0135000D03*
X0121500Y0135000D03*
X0121500Y0125000D03*
X0121500Y0115000D03*
D15*
X0226500Y0059637D03*
D16*
X0241309Y0047126D03*
X0226600Y0030815D03*
D17*
X0186500Y0023200D02*
X0186500Y0016800D01*
X0176500Y0016800D02*
X0176500Y0023200D01*
D18*
X0146500Y0235000D03*
X0136500Y0235000D03*
X0126500Y0235000D03*
X0116500Y0235000D03*
X0106500Y0235000D03*
X0096500Y0235000D03*
D19*
X0106500Y0092953D03*
X0106500Y0087047D03*
X0126500Y0087047D03*
X0126500Y0092953D03*
D20*
X0104000Y0041000D03*
X0089000Y0041000D03*
X0089000Y0019000D03*
X0104000Y0019000D03*
D21*
X0105240Y0211063D03*
X0097760Y0211063D03*
X0101500Y0218937D03*
X0080240Y0211063D03*
X0072760Y0211063D03*
X0076500Y0218937D03*
X0122760Y0211063D03*
X0130240Y0211063D03*
X0126500Y0218937D03*
X0147760Y0211063D03*
X0155240Y0211063D03*
X0151500Y0218937D03*
X0172760Y0211063D03*
X0180240Y0211063D03*
X0176500Y0218937D03*
X0197760Y0211063D03*
X0205240Y0211063D03*
X0201500Y0218937D03*
D22*
X0198400Y0136024D03*
X0198400Y0132874D03*
X0198400Y0129724D03*
X0198400Y0126575D03*
X0198400Y0123425D03*
X0198400Y0120276D03*
X0198400Y0117126D03*
X0198400Y0113976D03*
X0164600Y0113976D03*
X0164600Y0117126D03*
X0164600Y0120276D03*
X0164600Y0123425D03*
X0164600Y0126575D03*
X0164600Y0129724D03*
X0164600Y0132874D03*
X0164600Y0136024D03*
D23*
X0170476Y0141900D03*
X0173626Y0141900D03*
X0176776Y0141900D03*
X0179925Y0141900D03*
X0183075Y0141900D03*
X0186224Y0141900D03*
X0189374Y0141900D03*
X0192524Y0141900D03*
X0192524Y0108100D03*
X0189374Y0108100D03*
X0186224Y0108100D03*
X0183075Y0108100D03*
X0179925Y0108100D03*
X0176776Y0108100D03*
X0173626Y0108100D03*
X0170476Y0108100D03*
D24*
X0083134Y0110606D03*
X0080575Y0110606D03*
X0078016Y0110606D03*
X0075457Y0110606D03*
X0072898Y0110606D03*
X0070339Y0110606D03*
X0067780Y0110606D03*
X0065220Y0110606D03*
X0062661Y0110606D03*
X0060102Y0110606D03*
X0057543Y0110606D03*
X0054984Y0110606D03*
X0052425Y0110606D03*
X0049866Y0110606D03*
X0049866Y0139394D03*
X0052425Y0139394D03*
X0054984Y0139394D03*
X0057543Y0139394D03*
X0060102Y0139394D03*
X0062661Y0139394D03*
X0065220Y0139394D03*
X0067780Y0139394D03*
X0070339Y0139394D03*
X0072898Y0139394D03*
X0075457Y0139394D03*
X0078016Y0139394D03*
X0080575Y0139394D03*
X0083134Y0139394D03*
D25*
X0051421Y0062800D03*
X0051421Y0055000D03*
X0041579Y0055000D03*
X0041579Y0062800D03*
D26*
X0022800Y0044300D03*
X0070200Y0044300D03*
D27*
X0157000Y0080000D03*
X0176000Y0080000D03*
D28*
X0159020Y0030000D03*
X0123980Y0030000D03*
D29*
X0119111Y0153342D02*
X0119111Y0156658D01*
X0119111Y0153342D02*
X0115795Y0153342D01*
X0115795Y0156658D01*
X0119111Y0156658D01*
X0119111Y0154762D02*
X0115795Y0154762D01*
X0115795Y0156182D02*
X0119111Y0156182D01*
X0112205Y0156658D02*
X0112205Y0153342D01*
X0108889Y0153342D01*
X0108889Y0156658D01*
X0112205Y0156658D01*
X0112205Y0154762D02*
X0108889Y0154762D01*
X0108889Y0156182D02*
X0112205Y0156182D01*
M02*
