G75*
%MOIN*%
%OFA0B0*%
%FSLAX25Y25*%
%IPPOS*%
%LPD*%
%AMOC8*
5,1,8,0,0,1.08239X$1,22.5*
%
%ADD10R,0.06299X0.07087*%
D10*
G36*
X0128173Y0134058D02*
X0123078Y0130356D01*
X0118913Y0136088D01*
X0124008Y0139790D01*
X0128173Y0134058D01*
G37*
G36*
X0137092Y0140538D02*
X0131997Y0136836D01*
X0127832Y0142568D01*
X0132927Y0146270D01*
X0137092Y0140538D01*
G37*
G36*
X0229190Y0124975D02*
X0231136Y0118986D01*
X0224398Y0116797D01*
X0222452Y0122786D01*
X0229190Y0124975D01*
G37*
G36*
X0232597Y0114491D02*
X0234543Y0108502D01*
X0227805Y0106313D01*
X0225859Y0112302D01*
X0232597Y0114491D01*
G37*
X0281488Y0191000D03*
X0292512Y0191000D03*
G36*
X0222452Y0269214D02*
X0224398Y0275203D01*
X0231136Y0273014D01*
X0229190Y0267025D01*
X0222452Y0269214D01*
G37*
G36*
X0225859Y0279698D02*
X0227805Y0285687D01*
X0234543Y0283498D01*
X0232597Y0277509D01*
X0225859Y0279698D01*
G37*
G36*
X0127927Y0235730D02*
X0122832Y0239432D01*
X0126997Y0245164D01*
X0132092Y0241462D01*
X0127927Y0235730D01*
G37*
G36*
X0119008Y0242210D02*
X0113913Y0245912D01*
X0118078Y0251644D01*
X0123173Y0247942D01*
X0119008Y0242210D01*
G37*
M02*
