%
M48
M72
T01C0.03200
T02C0.04200
T03C0.11024
%
T01
X48759Y84023
X56849Y89901
X139759Y17908
X142849Y27418
X249151Y27418
X252241Y17908
X335151Y89901
X343241Y84023
X368000Y191000
X378000Y191000
X335151Y292099
X343241Y297977
X252241Y364092
X249151Y354582
X142849Y354582
X139759Y364092
X56849Y292099
X48759Y297977
X24000Y191000
X14000Y191000
T02
X191000Y191000
X206000Y191000
T03
X16000Y21000
X21000Y361000
X371000Y361000
X371000Y21000
M30
