G75*
%MOIN*%
%OFA0B0*%
%FSLAX25Y25*%
%IPPOS*%
%LPD*%
%AMOC8*
5,1,8,0,0,1.08239X$1,22.5*
%
%ADD10C,0.00800*%
%ADD11C,0.01000*%
%ADD12C,0.00600*%
%ADD13C,0.00500*%
%ADD14C,0.00400*%
D10*
X0049122Y0075017D02*
X0040305Y0087152D01*
X0131081Y0015470D02*
X0145347Y0010835D01*
X0246653Y0010835D02*
X0260919Y0015470D01*
X0342878Y0075017D02*
X0351695Y0087152D01*
X0351127Y0121400D02*
X0351127Y0125604D01*
X0348758Y0125604D02*
X0348758Y0126304D01*
X0348758Y0124202D02*
X0348758Y0121400D01*
X0348058Y0121400D02*
X0349459Y0121400D01*
X0351127Y0122801D02*
X0353229Y0124202D01*
X0354963Y0123502D02*
X0354963Y0122101D01*
X0355664Y0121400D01*
X0357065Y0121400D01*
X0357766Y0122101D01*
X0357766Y0123502D01*
X0357065Y0124202D01*
X0355664Y0124202D01*
X0354963Y0123502D01*
X0353229Y0121400D02*
X0351127Y0122801D01*
X0348758Y0124202D02*
X0348058Y0124202D01*
X0346256Y0125604D02*
X0346256Y0121400D01*
X0343454Y0125604D01*
X0343454Y0121400D01*
X0337048Y0122101D02*
X0336348Y0122801D01*
X0334946Y0122801D01*
X0334246Y0123502D01*
X0334946Y0124202D01*
X0337048Y0124202D01*
X0337048Y0122101D02*
X0336348Y0121400D01*
X0334246Y0121400D01*
X0332444Y0122101D02*
X0332444Y0123502D01*
X0331744Y0124202D01*
X0330342Y0124202D01*
X0329642Y0123502D01*
X0329642Y0122101D01*
X0330342Y0121400D01*
X0331744Y0121400D01*
X0332444Y0122101D01*
X0327974Y0121400D02*
X0326573Y0121400D01*
X0327273Y0121400D02*
X0327273Y0124202D01*
X0326573Y0124202D01*
X0327273Y0125604D02*
X0327273Y0126304D01*
X0324838Y0124202D02*
X0324137Y0124202D01*
X0322736Y0122801D01*
X0322736Y0121400D02*
X0322736Y0124202D01*
X0320934Y0123502D02*
X0320934Y0122801D01*
X0318132Y0122801D01*
X0318132Y0122101D02*
X0318132Y0123502D01*
X0318833Y0124202D01*
X0320234Y0124202D01*
X0320934Y0123502D01*
X0320234Y0121400D02*
X0318833Y0121400D01*
X0318132Y0122101D01*
X0316331Y0121400D02*
X0316331Y0123502D01*
X0315630Y0124202D01*
X0314229Y0124202D01*
X0313528Y0123502D01*
X0311860Y0124202D02*
X0310459Y0124202D01*
X0311159Y0124903D02*
X0311159Y0122101D01*
X0311860Y0121400D01*
X0313528Y0121400D02*
X0313528Y0125604D01*
X0308791Y0125604D02*
X0308090Y0124903D01*
X0308090Y0121400D01*
X0307390Y0123502D02*
X0308791Y0123502D01*
X0305588Y0123502D02*
X0305588Y0122801D01*
X0302786Y0122801D01*
X0302786Y0122101D02*
X0302786Y0123502D01*
X0303486Y0124202D01*
X0304887Y0124202D01*
X0305588Y0123502D01*
X0304887Y0121400D02*
X0303486Y0121400D01*
X0302786Y0122101D01*
X0301118Y0121400D02*
X0299716Y0121400D01*
X0300417Y0121400D02*
X0300417Y0125604D01*
X0299716Y0125604D01*
X0297915Y0125604D02*
X0295112Y0125604D01*
X0295112Y0121400D01*
X0297915Y0121400D01*
X0296514Y0123502D02*
X0295112Y0123502D01*
X0288707Y0124202D02*
X0288707Y0120699D01*
X0288006Y0119999D01*
X0287306Y0119999D01*
X0286605Y0121400D02*
X0288707Y0121400D01*
X0286605Y0121400D02*
X0285905Y0122101D01*
X0285905Y0124202D01*
X0284103Y0123502D02*
X0283402Y0124202D01*
X0281301Y0124202D01*
X0281301Y0125604D02*
X0281301Y0121400D01*
X0283402Y0121400D01*
X0284103Y0122101D01*
X0284103Y0123502D01*
X0274895Y0124202D02*
X0272793Y0124202D01*
X0272093Y0123502D01*
X0272093Y0122101D01*
X0272793Y0121400D01*
X0274895Y0121400D01*
X0274895Y0125604D01*
X0270291Y0123502D02*
X0270291Y0122801D01*
X0267489Y0122801D01*
X0267489Y0122101D02*
X0267489Y0123502D01*
X0268189Y0124202D01*
X0269591Y0124202D01*
X0270291Y0123502D01*
X0269591Y0121400D02*
X0268189Y0121400D01*
X0267489Y0122101D01*
X0265687Y0121400D02*
X0265687Y0123502D01*
X0264987Y0124202D01*
X0262885Y0124202D01*
X0262885Y0121400D01*
X0261083Y0121400D02*
X0258982Y0121400D01*
X0258281Y0122101D01*
X0258281Y0123502D01*
X0258982Y0124202D01*
X0261083Y0124202D01*
X0261083Y0120699D01*
X0260383Y0119999D01*
X0259682Y0119999D01*
X0256613Y0121400D02*
X0255212Y0121400D01*
X0255912Y0121400D02*
X0255912Y0124202D01*
X0255212Y0124202D01*
X0255912Y0125604D02*
X0255912Y0126304D01*
X0253410Y0124202D02*
X0251308Y0124202D01*
X0250608Y0123502D01*
X0251308Y0122801D01*
X0252710Y0122801D01*
X0253410Y0122101D01*
X0252710Y0121400D01*
X0250608Y0121400D01*
X0248806Y0122801D02*
X0246004Y0122801D01*
X0246004Y0122101D02*
X0246004Y0123502D01*
X0246705Y0124202D01*
X0248106Y0124202D01*
X0248806Y0123502D01*
X0248806Y0122801D01*
X0248106Y0121400D02*
X0246705Y0121400D01*
X0246004Y0122101D01*
X0244202Y0122101D02*
X0244202Y0124903D01*
X0243502Y0125604D01*
X0241400Y0125604D01*
X0241400Y0121400D01*
X0243502Y0121400D01*
X0244202Y0122101D01*
X0208500Y0186000D02*
X0203500Y0186000D01*
X0201000Y0188500D01*
X0198500Y0186000D01*
X0193500Y0186000D01*
X0191000Y0188500D01*
X0191000Y0193500D01*
X0193500Y0196000D01*
X0198500Y0196000D01*
X0201000Y0193500D01*
X0203500Y0196000D01*
X0208500Y0196000D01*
X0211000Y0193500D01*
X0211000Y0188500D01*
X0208500Y0186000D01*
X0351695Y0294848D02*
X0342878Y0306983D01*
X0260919Y0366530D02*
X0246653Y0371165D01*
X0145347Y0371165D02*
X0131081Y0366530D01*
X0049122Y0306983D02*
X0040305Y0294848D01*
X0009000Y0198500D02*
X0009000Y0183500D01*
X0359567Y0125604D02*
X0360268Y0125604D01*
X0360268Y0121400D01*
X0359567Y0121400D02*
X0360969Y0121400D01*
X0362637Y0122101D02*
X0363337Y0122801D01*
X0365439Y0122801D01*
X0365439Y0123502D02*
X0365439Y0121400D01*
X0363337Y0121400D01*
X0362637Y0122101D01*
X0363337Y0124202D02*
X0364738Y0124202D01*
X0365439Y0123502D01*
X0367241Y0124202D02*
X0367941Y0124202D01*
X0367941Y0121400D01*
X0367241Y0121400D02*
X0368642Y0121400D01*
X0370310Y0122101D02*
X0370310Y0123502D01*
X0371010Y0124202D01*
X0373112Y0124202D01*
X0373112Y0125604D02*
X0373112Y0121400D01*
X0371010Y0121400D01*
X0370310Y0122101D01*
X0367941Y0125604D02*
X0367941Y0126304D01*
X0374914Y0124202D02*
X0375614Y0124202D01*
X0375614Y0121400D01*
X0374914Y0121400D02*
X0376315Y0121400D01*
X0377983Y0121400D02*
X0380085Y0121400D01*
X0380785Y0122101D01*
X0380085Y0122801D01*
X0378684Y0122801D01*
X0377983Y0123502D01*
X0378684Y0124202D01*
X0380785Y0124202D01*
X0375614Y0125604D02*
X0375614Y0126304D01*
X0383000Y0183500D02*
X0383000Y0198500D01*
D11*
X0382813Y0198743D01*
X0382621Y0198981D01*
X0382422Y0199214D01*
X0382218Y0199442D01*
X0382009Y0199665D01*
X0381794Y0199883D01*
X0381574Y0200096D01*
X0381349Y0200303D01*
X0381118Y0200505D01*
X0380883Y0200701D01*
X0380643Y0200891D01*
X0380399Y0201075D01*
X0380150Y0201253D01*
X0379896Y0201425D01*
X0379639Y0201591D01*
X0379378Y0201751D01*
X0379113Y0201904D01*
X0378844Y0202050D01*
X0378571Y0202190D01*
X0378296Y0202323D01*
X0378017Y0202449D01*
X0377735Y0202569D01*
X0377450Y0202681D01*
X0377163Y0202786D01*
X0376873Y0202885D01*
X0376581Y0202976D01*
X0376286Y0203060D01*
X0375990Y0203137D01*
X0375692Y0203207D01*
X0375392Y0203269D01*
X0375091Y0203324D01*
X0374789Y0203371D01*
X0374485Y0203411D01*
X0374181Y0203444D01*
X0373876Y0203469D01*
X0373570Y0203487D01*
X0373264Y0203497D01*
X0372958Y0203500D01*
X0372652Y0203495D01*
X0372346Y0203483D01*
X0372040Y0203463D01*
X0371736Y0203436D01*
X0371431Y0203401D01*
X0371128Y0203359D01*
X0370826Y0203310D01*
X0370525Y0203253D01*
X0370226Y0203188D01*
X0369928Y0203117D01*
X0369633Y0203038D01*
X0369339Y0202952D01*
X0369047Y0202859D01*
X0368758Y0202758D01*
X0368471Y0202651D01*
X0368187Y0202536D01*
X0367906Y0202415D01*
X0367628Y0202287D01*
X0367353Y0202152D01*
X0367082Y0202010D01*
X0366814Y0201862D01*
X0366550Y0201707D01*
X0366290Y0201546D01*
X0366034Y0201379D01*
X0365781Y0201205D01*
X0365534Y0201025D01*
X0365290Y0200839D01*
X0365052Y0200648D01*
X0364818Y0200450D01*
X0364589Y0200247D01*
X0364365Y0200038D01*
X0364146Y0199824D01*
X0363933Y0199604D01*
X0363725Y0199380D01*
X0363522Y0199150D01*
X0363326Y0198916D01*
X0363135Y0198676D01*
X0362950Y0198433D01*
X0362771Y0198184D01*
X0362598Y0197932D01*
X0362431Y0197675D01*
X0362271Y0197414D01*
X0362117Y0197149D01*
X0361970Y0196881D01*
X0361829Y0196609D01*
X0361695Y0196334D01*
X0361568Y0196055D01*
X0361447Y0195774D01*
X0361334Y0195489D01*
X0361228Y0195202D01*
X0361128Y0194913D01*
X0361036Y0194621D01*
X0360951Y0194327D01*
X0360873Y0194031D01*
X0360802Y0193733D01*
X0360739Y0193433D01*
X0360683Y0193132D01*
X0360635Y0192830D01*
X0360594Y0192527D01*
X0360560Y0192223D01*
X0360534Y0191918D01*
X0360515Y0191612D01*
X0360504Y0191306D01*
X0360500Y0191000D01*
X0360504Y0190694D01*
X0360515Y0190388D01*
X0360534Y0190082D01*
X0360560Y0189777D01*
X0360594Y0189473D01*
X0360635Y0189170D01*
X0360683Y0188868D01*
X0360739Y0188567D01*
X0360802Y0188267D01*
X0360873Y0187969D01*
X0360951Y0187673D01*
X0361036Y0187379D01*
X0361128Y0187087D01*
X0361228Y0186798D01*
X0361334Y0186511D01*
X0361447Y0186226D01*
X0361568Y0185945D01*
X0361695Y0185666D01*
X0361829Y0185391D01*
X0361970Y0185119D01*
X0362117Y0184851D01*
X0362271Y0184586D01*
X0362431Y0184325D01*
X0362598Y0184068D01*
X0362771Y0183816D01*
X0362950Y0183567D01*
X0363135Y0183324D01*
X0363326Y0183084D01*
X0363522Y0182850D01*
X0363725Y0182620D01*
X0363933Y0182396D01*
X0364146Y0182176D01*
X0364365Y0181962D01*
X0364589Y0181753D01*
X0364818Y0181550D01*
X0365052Y0181352D01*
X0365290Y0181161D01*
X0365534Y0180975D01*
X0365781Y0180795D01*
X0366034Y0180621D01*
X0366290Y0180454D01*
X0366550Y0180293D01*
X0366814Y0180138D01*
X0367082Y0179990D01*
X0367353Y0179848D01*
X0367628Y0179713D01*
X0367906Y0179585D01*
X0368187Y0179464D01*
X0368471Y0179349D01*
X0368758Y0179242D01*
X0369047Y0179141D01*
X0369339Y0179048D01*
X0369633Y0178962D01*
X0369928Y0178883D01*
X0370226Y0178812D01*
X0370525Y0178747D01*
X0370826Y0178690D01*
X0371128Y0178641D01*
X0371431Y0178599D01*
X0371736Y0178564D01*
X0372040Y0178537D01*
X0372346Y0178517D01*
X0372652Y0178505D01*
X0372958Y0178500D01*
X0373264Y0178503D01*
X0373570Y0178513D01*
X0373876Y0178531D01*
X0374181Y0178556D01*
X0374485Y0178589D01*
X0374789Y0178629D01*
X0375091Y0178676D01*
X0375392Y0178731D01*
X0375692Y0178793D01*
X0375990Y0178863D01*
X0376286Y0178940D01*
X0376581Y0179024D01*
X0376873Y0179115D01*
X0377163Y0179214D01*
X0377450Y0179319D01*
X0377735Y0179431D01*
X0378017Y0179551D01*
X0378296Y0179677D01*
X0378571Y0179810D01*
X0378844Y0179950D01*
X0379113Y0180096D01*
X0379378Y0180249D01*
X0379639Y0180409D01*
X0379896Y0180575D01*
X0380150Y0180747D01*
X0380399Y0180925D01*
X0380643Y0181109D01*
X0380883Y0181299D01*
X0381118Y0181495D01*
X0381349Y0181697D01*
X0381574Y0181904D01*
X0381794Y0182117D01*
X0382009Y0182335D01*
X0382218Y0182558D01*
X0382422Y0182786D01*
X0382621Y0183019D01*
X0382813Y0183257D01*
X0383000Y0183500D01*
X0351695Y0087152D02*
X0351686Y0087458D01*
X0351670Y0087764D01*
X0351647Y0088069D01*
X0351616Y0088373D01*
X0351578Y0088677D01*
X0351532Y0088980D01*
X0351479Y0089281D01*
X0351418Y0089581D01*
X0351351Y0089880D01*
X0351276Y0090177D01*
X0351193Y0090471D01*
X0351104Y0090764D01*
X0351007Y0091055D01*
X0350903Y0091343D01*
X0350792Y0091628D01*
X0350675Y0091911D01*
X0350550Y0092190D01*
X0350419Y0092467D01*
X0350280Y0092740D01*
X0350136Y0093010D01*
X0349984Y0093276D01*
X0349826Y0093538D01*
X0349662Y0093796D01*
X0349492Y0094051D01*
X0349315Y0094301D01*
X0349132Y0094546D01*
X0348944Y0094787D01*
X0348749Y0095024D01*
X0348549Y0095255D01*
X0348343Y0095482D01*
X0348131Y0095703D01*
X0347915Y0095919D01*
X0347693Y0096130D01*
X0347466Y0096335D01*
X0347234Y0096535D01*
X0346997Y0096729D01*
X0346755Y0096917D01*
X0346509Y0097099D01*
X0346259Y0097275D01*
X0346004Y0097445D01*
X0345745Y0097609D01*
X0345483Y0097766D01*
X0345216Y0097917D01*
X0344946Y0098061D01*
X0344673Y0098198D01*
X0344396Y0098329D01*
X0344116Y0098453D01*
X0343833Y0098570D01*
X0343547Y0098680D01*
X0343259Y0098783D01*
X0342968Y0098879D01*
X0342675Y0098968D01*
X0342380Y0099050D01*
X0342083Y0099124D01*
X0341785Y0099191D01*
X0341484Y0099251D01*
X0341183Y0099303D01*
X0340880Y0099348D01*
X0340576Y0099386D01*
X0340272Y0099416D01*
X0339966Y0099438D01*
X0339660Y0099453D01*
X0339354Y0099461D01*
X0339048Y0099461D01*
X0338742Y0099454D01*
X0338436Y0099439D01*
X0338131Y0099417D01*
X0337826Y0099387D01*
X0337523Y0099349D01*
X0337220Y0099305D01*
X0336918Y0099253D01*
X0336618Y0099193D01*
X0336319Y0099126D01*
X0336022Y0099052D01*
X0335727Y0098971D01*
X0335434Y0098882D01*
X0335143Y0098787D01*
X0334855Y0098684D01*
X0334569Y0098574D01*
X0334286Y0098457D01*
X0334006Y0098334D01*
X0333729Y0098203D01*
X0333455Y0098066D01*
X0333185Y0097922D01*
X0332919Y0097771D01*
X0332656Y0097614D01*
X0332397Y0097451D01*
X0332142Y0097281D01*
X0331891Y0097106D01*
X0331645Y0096924D01*
X0331404Y0096736D01*
X0331167Y0096542D01*
X0330934Y0096343D01*
X0330707Y0096137D01*
X0330485Y0095927D01*
X0330268Y0095711D01*
X0330056Y0095490D01*
X0329850Y0095263D01*
X0329650Y0095032D01*
X0329455Y0094796D01*
X0329266Y0094555D01*
X0329083Y0094309D01*
X0328906Y0094059D01*
X0328736Y0093805D01*
X0328571Y0093547D01*
X0328413Y0093285D01*
X0328262Y0093019D01*
X0328116Y0092749D01*
X0327978Y0092476D01*
X0327846Y0092200D01*
X0327722Y0091921D01*
X0327604Y0091638D01*
X0327493Y0091353D01*
X0327389Y0091065D01*
X0327292Y0090774D01*
X0327202Y0090482D01*
X0327119Y0090187D01*
X0327044Y0089890D01*
X0326976Y0089592D01*
X0326915Y0089292D01*
X0326862Y0088990D01*
X0326816Y0088688D01*
X0326777Y0088384D01*
X0326746Y0088079D01*
X0326722Y0087774D01*
X0326706Y0087469D01*
X0326698Y0087163D01*
X0326696Y0086856D01*
X0326703Y0086550D01*
X0326717Y0086244D01*
X0326738Y0085939D01*
X0326767Y0085634D01*
X0326803Y0085330D01*
X0326847Y0085027D01*
X0326898Y0084726D01*
X0326956Y0084425D01*
X0327022Y0084126D01*
X0327095Y0083829D01*
X0327175Y0083533D01*
X0327263Y0083240D01*
X0327358Y0082949D01*
X0327460Y0082660D01*
X0327568Y0082374D01*
X0327684Y0082091D01*
X0327807Y0081810D01*
X0327937Y0081533D01*
X0328073Y0081259D01*
X0328216Y0080988D01*
X0328365Y0080721D01*
X0328522Y0080458D01*
X0328684Y0080198D01*
X0328853Y0079943D01*
X0329028Y0079692D01*
X0329209Y0079445D01*
X0329396Y0079203D01*
X0329589Y0078965D01*
X0329788Y0078732D01*
X0329992Y0078504D01*
X0330202Y0078281D01*
X0330417Y0078064D01*
X0330638Y0077851D01*
X0330863Y0077644D01*
X0331094Y0077443D01*
X0331330Y0077248D01*
X0331570Y0077058D01*
X0331815Y0076874D01*
X0332064Y0076696D01*
X0332317Y0076525D01*
X0332575Y0076359D01*
X0332837Y0076200D01*
X0333102Y0076048D01*
X0333371Y0075902D01*
X0333644Y0075763D01*
X0333920Y0075630D01*
X0334199Y0075504D01*
X0334481Y0075385D01*
X0334766Y0075273D01*
X0335053Y0075168D01*
X0335343Y0075070D01*
X0335636Y0074980D01*
X0335930Y0074896D01*
X0336227Y0074820D01*
X0336525Y0074751D01*
X0336825Y0074689D01*
X0337126Y0074635D01*
X0337429Y0074588D01*
X0337732Y0074548D01*
X0338037Y0074516D01*
X0338342Y0074491D01*
X0338647Y0074474D01*
X0338953Y0074464D01*
X0339260Y0074462D01*
X0339566Y0074467D01*
X0339871Y0074480D01*
X0340177Y0074501D01*
X0340482Y0074528D01*
X0340786Y0074564D01*
X0341089Y0074606D01*
X0341391Y0074656D01*
X0341692Y0074714D01*
X0341991Y0074778D01*
X0342288Y0074851D01*
X0342584Y0074930D01*
X0342878Y0075017D01*
X0260919Y0015470D02*
X0261092Y0015723D01*
X0261259Y0015979D01*
X0261420Y0016240D01*
X0261574Y0016504D01*
X0261721Y0016773D01*
X0261862Y0017044D01*
X0261996Y0017320D01*
X0262124Y0017598D01*
X0262244Y0017879D01*
X0262358Y0018164D01*
X0262465Y0018450D01*
X0262564Y0018740D01*
X0262657Y0019032D01*
X0262742Y0019326D01*
X0262820Y0019622D01*
X0262891Y0019920D01*
X0262955Y0020219D01*
X0263011Y0020520D01*
X0263060Y0020822D01*
X0263101Y0021125D01*
X0263135Y0021430D01*
X0263161Y0021735D01*
X0263180Y0022040D01*
X0263192Y0022346D01*
X0263196Y0022652D01*
X0263193Y0022958D01*
X0263182Y0023264D01*
X0263163Y0023570D01*
X0263137Y0023875D01*
X0263104Y0024179D01*
X0263063Y0024483D01*
X0263015Y0024785D01*
X0262959Y0025086D01*
X0262896Y0025386D01*
X0262826Y0025683D01*
X0262748Y0025980D01*
X0262663Y0026274D01*
X0262571Y0026566D01*
X0262472Y0026855D01*
X0262366Y0027142D01*
X0262253Y0027427D01*
X0262132Y0027708D01*
X0262005Y0027987D01*
X0261872Y0028262D01*
X0261731Y0028534D01*
X0261584Y0028803D01*
X0261431Y0029068D01*
X0261270Y0029329D01*
X0261104Y0029586D01*
X0260931Y0029838D01*
X0260753Y0030087D01*
X0260568Y0030331D01*
X0260377Y0030570D01*
X0260181Y0030805D01*
X0259978Y0031035D01*
X0259771Y0031260D01*
X0259557Y0031479D01*
X0259339Y0031694D01*
X0259115Y0031903D01*
X0258886Y0032106D01*
X0258652Y0032304D01*
X0258414Y0032496D01*
X0258171Y0032682D01*
X0257923Y0032862D01*
X0257671Y0033036D01*
X0257415Y0033203D01*
X0257155Y0033365D01*
X0256891Y0033520D01*
X0256623Y0033668D01*
X0256352Y0033810D01*
X0256077Y0033945D01*
X0255800Y0034074D01*
X0255519Y0034195D01*
X0255235Y0034310D01*
X0254948Y0034418D01*
X0254659Y0034518D01*
X0254368Y0034612D01*
X0254074Y0034698D01*
X0253778Y0034777D01*
X0253480Y0034849D01*
X0253181Y0034913D01*
X0252881Y0034971D01*
X0252578Y0035020D01*
X0252275Y0035063D01*
X0251971Y0035098D01*
X0251666Y0035125D01*
X0251361Y0035145D01*
X0251055Y0035158D01*
X0250749Y0035163D01*
X0250443Y0035160D01*
X0250137Y0035150D01*
X0249831Y0035133D01*
X0249526Y0035108D01*
X0249222Y0035076D01*
X0248918Y0035036D01*
X0248616Y0034989D01*
X0248314Y0034934D01*
X0248015Y0034872D01*
X0247716Y0034803D01*
X0247420Y0034726D01*
X0247126Y0034642D01*
X0246833Y0034551D01*
X0246543Y0034453D01*
X0246256Y0034348D01*
X0245971Y0034236D01*
X0245689Y0034116D01*
X0245410Y0033990D01*
X0245134Y0033858D01*
X0244862Y0033718D01*
X0244593Y0033572D01*
X0244328Y0033419D01*
X0244066Y0033260D01*
X0243809Y0033094D01*
X0243555Y0032923D01*
X0243306Y0032745D01*
X0243061Y0032561D01*
X0242821Y0032371D01*
X0242586Y0032175D01*
X0242355Y0031973D01*
X0242130Y0031766D01*
X0241910Y0031554D01*
X0241694Y0031336D01*
X0241485Y0031113D01*
X0241281Y0030885D01*
X0241082Y0030652D01*
X0240889Y0030414D01*
X0240702Y0030172D01*
X0240522Y0029925D01*
X0240347Y0029673D01*
X0240178Y0029418D01*
X0240016Y0029158D01*
X0239860Y0028895D01*
X0239711Y0028627D01*
X0239568Y0028357D01*
X0239432Y0028082D01*
X0239303Y0027805D01*
X0239180Y0027524D01*
X0239064Y0027241D01*
X0238956Y0026955D01*
X0238854Y0026666D01*
X0238760Y0026375D01*
X0238672Y0026081D01*
X0238592Y0025786D01*
X0238520Y0025489D01*
X0238454Y0025189D01*
X0238396Y0024889D01*
X0238345Y0024587D01*
X0238302Y0024284D01*
X0238266Y0023980D01*
X0238237Y0023675D01*
X0238216Y0023370D01*
X0238202Y0023064D01*
X0238196Y0022758D01*
X0238198Y0022452D01*
X0238207Y0022146D01*
X0238223Y0021840D01*
X0238247Y0021535D01*
X0238278Y0021230D01*
X0238317Y0020927D01*
X0238363Y0020624D01*
X0238417Y0020323D01*
X0238478Y0020023D01*
X0238546Y0019724D01*
X0238622Y0019428D01*
X0238705Y0019133D01*
X0238795Y0018840D01*
X0238892Y0018550D01*
X0238996Y0018262D01*
X0239108Y0017977D01*
X0239226Y0017695D01*
X0239351Y0017415D01*
X0239483Y0017139D01*
X0239621Y0016866D01*
X0239767Y0016597D01*
X0239919Y0016331D01*
X0240077Y0016069D01*
X0240242Y0015811D01*
X0240412Y0015557D01*
X0240590Y0015307D01*
X0240773Y0015062D01*
X0240962Y0014821D01*
X0241157Y0014585D01*
X0241358Y0014354D01*
X0241564Y0014128D01*
X0241776Y0013907D01*
X0241993Y0013691D01*
X0242215Y0013480D01*
X0242442Y0013275D01*
X0242675Y0013076D01*
X0242912Y0012882D01*
X0243154Y0012695D01*
X0243400Y0012513D01*
X0243651Y0012337D01*
X0243906Y0012168D01*
X0244165Y0012005D01*
X0244428Y0011848D01*
X0244695Y0011698D01*
X0244965Y0011554D01*
X0245239Y0011417D01*
X0245516Y0011287D01*
X0245796Y0011163D01*
X0246079Y0011047D01*
X0246365Y0010937D01*
X0246653Y0010835D01*
X0145347Y0010835D02*
X0145635Y0010937D01*
X0145921Y0011047D01*
X0146204Y0011163D01*
X0146484Y0011287D01*
X0146761Y0011417D01*
X0147035Y0011554D01*
X0147305Y0011698D01*
X0147572Y0011848D01*
X0147835Y0012005D01*
X0148094Y0012168D01*
X0148349Y0012337D01*
X0148600Y0012513D01*
X0148846Y0012695D01*
X0149088Y0012882D01*
X0149325Y0013076D01*
X0149558Y0013275D01*
X0149785Y0013480D01*
X0150007Y0013691D01*
X0150224Y0013907D01*
X0150436Y0014128D01*
X0150642Y0014354D01*
X0150843Y0014585D01*
X0151038Y0014821D01*
X0151227Y0015062D01*
X0151410Y0015307D01*
X0151588Y0015557D01*
X0151758Y0015811D01*
X0151923Y0016069D01*
X0152081Y0016331D01*
X0152233Y0016597D01*
X0152379Y0016866D01*
X0152517Y0017139D01*
X0152649Y0017415D01*
X0152774Y0017695D01*
X0152892Y0017977D01*
X0153004Y0018262D01*
X0153108Y0018550D01*
X0153205Y0018840D01*
X0153295Y0019133D01*
X0153378Y0019428D01*
X0153454Y0019724D01*
X0153522Y0020023D01*
X0153583Y0020323D01*
X0153637Y0020624D01*
X0153683Y0020927D01*
X0153722Y0021230D01*
X0153753Y0021535D01*
X0153777Y0021840D01*
X0153793Y0022146D01*
X0153802Y0022452D01*
X0153804Y0022758D01*
X0153798Y0023064D01*
X0153784Y0023370D01*
X0153763Y0023675D01*
X0153734Y0023980D01*
X0153698Y0024284D01*
X0153655Y0024587D01*
X0153604Y0024889D01*
X0153546Y0025189D01*
X0153480Y0025489D01*
X0153408Y0025786D01*
X0153328Y0026081D01*
X0153240Y0026375D01*
X0153146Y0026666D01*
X0153044Y0026955D01*
X0152936Y0027241D01*
X0152820Y0027524D01*
X0152697Y0027805D01*
X0152568Y0028082D01*
X0152432Y0028357D01*
X0152289Y0028627D01*
X0152140Y0028895D01*
X0151984Y0029158D01*
X0151822Y0029418D01*
X0151653Y0029673D01*
X0151478Y0029925D01*
X0151298Y0030172D01*
X0151111Y0030414D01*
X0150918Y0030652D01*
X0150719Y0030885D01*
X0150515Y0031113D01*
X0150306Y0031336D01*
X0150090Y0031554D01*
X0149870Y0031766D01*
X0149645Y0031973D01*
X0149414Y0032175D01*
X0149179Y0032371D01*
X0148939Y0032561D01*
X0148694Y0032745D01*
X0148445Y0032923D01*
X0148191Y0033094D01*
X0147934Y0033260D01*
X0147672Y0033419D01*
X0147407Y0033572D01*
X0147138Y0033718D01*
X0146866Y0033858D01*
X0146590Y0033990D01*
X0146311Y0034116D01*
X0146029Y0034236D01*
X0145744Y0034348D01*
X0145457Y0034453D01*
X0145167Y0034551D01*
X0144874Y0034642D01*
X0144580Y0034726D01*
X0144284Y0034803D01*
X0143985Y0034872D01*
X0143686Y0034934D01*
X0143384Y0034989D01*
X0143082Y0035036D01*
X0142778Y0035076D01*
X0142474Y0035108D01*
X0142169Y0035133D01*
X0141863Y0035150D01*
X0141557Y0035160D01*
X0141251Y0035163D01*
X0140945Y0035158D01*
X0140639Y0035145D01*
X0140334Y0035125D01*
X0140029Y0035098D01*
X0139725Y0035063D01*
X0139422Y0035020D01*
X0139119Y0034971D01*
X0138819Y0034913D01*
X0138520Y0034849D01*
X0138222Y0034777D01*
X0137926Y0034698D01*
X0137632Y0034612D01*
X0137341Y0034518D01*
X0137052Y0034418D01*
X0136765Y0034310D01*
X0136481Y0034195D01*
X0136200Y0034074D01*
X0135923Y0033945D01*
X0135648Y0033810D01*
X0135377Y0033668D01*
X0135109Y0033520D01*
X0134845Y0033365D01*
X0134585Y0033203D01*
X0134329Y0033036D01*
X0134077Y0032862D01*
X0133829Y0032682D01*
X0133586Y0032496D01*
X0133348Y0032304D01*
X0133114Y0032106D01*
X0132885Y0031903D01*
X0132661Y0031694D01*
X0132443Y0031479D01*
X0132229Y0031260D01*
X0132022Y0031035D01*
X0131819Y0030805D01*
X0131623Y0030570D01*
X0131432Y0030331D01*
X0131247Y0030087D01*
X0131069Y0029838D01*
X0130896Y0029586D01*
X0130730Y0029329D01*
X0130569Y0029068D01*
X0130416Y0028803D01*
X0130269Y0028534D01*
X0130128Y0028262D01*
X0129995Y0027987D01*
X0129868Y0027708D01*
X0129747Y0027427D01*
X0129634Y0027142D01*
X0129528Y0026855D01*
X0129429Y0026566D01*
X0129337Y0026274D01*
X0129252Y0025980D01*
X0129174Y0025683D01*
X0129104Y0025386D01*
X0129041Y0025086D01*
X0128985Y0024785D01*
X0128937Y0024483D01*
X0128896Y0024179D01*
X0128863Y0023875D01*
X0128837Y0023570D01*
X0128818Y0023264D01*
X0128807Y0022958D01*
X0128804Y0022652D01*
X0128808Y0022346D01*
X0128820Y0022040D01*
X0128839Y0021735D01*
X0128865Y0021430D01*
X0128899Y0021125D01*
X0128940Y0020822D01*
X0128989Y0020520D01*
X0129045Y0020219D01*
X0129109Y0019920D01*
X0129180Y0019622D01*
X0129258Y0019326D01*
X0129343Y0019032D01*
X0129436Y0018740D01*
X0129535Y0018450D01*
X0129642Y0018164D01*
X0129756Y0017879D01*
X0129876Y0017598D01*
X0130004Y0017320D01*
X0130138Y0017044D01*
X0130279Y0016773D01*
X0130426Y0016504D01*
X0130580Y0016240D01*
X0130741Y0015979D01*
X0130908Y0015723D01*
X0131081Y0015470D01*
X0049122Y0075017D02*
X0049416Y0074930D01*
X0049712Y0074851D01*
X0050009Y0074778D01*
X0050308Y0074714D01*
X0050609Y0074656D01*
X0050911Y0074606D01*
X0051214Y0074564D01*
X0051518Y0074528D01*
X0051823Y0074501D01*
X0052129Y0074480D01*
X0052434Y0074467D01*
X0052740Y0074462D01*
X0053047Y0074464D01*
X0053353Y0074474D01*
X0053658Y0074491D01*
X0053963Y0074516D01*
X0054268Y0074548D01*
X0054571Y0074588D01*
X0054874Y0074635D01*
X0055175Y0074689D01*
X0055475Y0074751D01*
X0055773Y0074820D01*
X0056070Y0074896D01*
X0056364Y0074980D01*
X0056657Y0075070D01*
X0056947Y0075168D01*
X0057234Y0075273D01*
X0057519Y0075385D01*
X0057801Y0075504D01*
X0058080Y0075630D01*
X0058356Y0075763D01*
X0058629Y0075902D01*
X0058898Y0076048D01*
X0059163Y0076200D01*
X0059425Y0076359D01*
X0059683Y0076525D01*
X0059936Y0076696D01*
X0060185Y0076874D01*
X0060430Y0077058D01*
X0060670Y0077248D01*
X0060906Y0077443D01*
X0061137Y0077644D01*
X0061362Y0077851D01*
X0061583Y0078064D01*
X0061798Y0078281D01*
X0062008Y0078504D01*
X0062212Y0078732D01*
X0062411Y0078965D01*
X0062604Y0079203D01*
X0062791Y0079445D01*
X0062972Y0079692D01*
X0063147Y0079943D01*
X0063316Y0080198D01*
X0063478Y0080458D01*
X0063635Y0080721D01*
X0063784Y0080988D01*
X0063927Y0081259D01*
X0064063Y0081533D01*
X0064193Y0081810D01*
X0064316Y0082091D01*
X0064432Y0082374D01*
X0064540Y0082660D01*
X0064642Y0082949D01*
X0064737Y0083240D01*
X0064825Y0083533D01*
X0064905Y0083829D01*
X0064978Y0084126D01*
X0065044Y0084425D01*
X0065102Y0084726D01*
X0065153Y0085027D01*
X0065197Y0085330D01*
X0065233Y0085634D01*
X0065262Y0085939D01*
X0065283Y0086244D01*
X0065297Y0086550D01*
X0065304Y0086856D01*
X0065302Y0087163D01*
X0065294Y0087469D01*
X0065278Y0087774D01*
X0065254Y0088079D01*
X0065223Y0088384D01*
X0065184Y0088688D01*
X0065138Y0088990D01*
X0065085Y0089292D01*
X0065024Y0089592D01*
X0064956Y0089890D01*
X0064881Y0090187D01*
X0064798Y0090482D01*
X0064708Y0090774D01*
X0064611Y0091065D01*
X0064507Y0091353D01*
X0064396Y0091638D01*
X0064278Y0091921D01*
X0064154Y0092200D01*
X0064022Y0092476D01*
X0063884Y0092749D01*
X0063738Y0093019D01*
X0063587Y0093285D01*
X0063429Y0093547D01*
X0063264Y0093805D01*
X0063094Y0094059D01*
X0062917Y0094309D01*
X0062734Y0094555D01*
X0062545Y0094796D01*
X0062350Y0095032D01*
X0062150Y0095263D01*
X0061944Y0095490D01*
X0061732Y0095711D01*
X0061515Y0095927D01*
X0061293Y0096137D01*
X0061066Y0096343D01*
X0060833Y0096542D01*
X0060596Y0096736D01*
X0060355Y0096924D01*
X0060109Y0097106D01*
X0059858Y0097281D01*
X0059603Y0097451D01*
X0059344Y0097614D01*
X0059081Y0097771D01*
X0058815Y0097922D01*
X0058545Y0098066D01*
X0058271Y0098203D01*
X0057994Y0098334D01*
X0057714Y0098457D01*
X0057431Y0098574D01*
X0057145Y0098684D01*
X0056857Y0098787D01*
X0056566Y0098882D01*
X0056273Y0098971D01*
X0055978Y0099052D01*
X0055681Y0099126D01*
X0055382Y0099193D01*
X0055082Y0099253D01*
X0054780Y0099305D01*
X0054477Y0099349D01*
X0054174Y0099387D01*
X0053869Y0099417D01*
X0053564Y0099439D01*
X0053258Y0099454D01*
X0052952Y0099461D01*
X0052646Y0099461D01*
X0052340Y0099453D01*
X0052034Y0099438D01*
X0051728Y0099416D01*
X0051424Y0099386D01*
X0051120Y0099348D01*
X0050817Y0099303D01*
X0050516Y0099251D01*
X0050215Y0099191D01*
X0049917Y0099124D01*
X0049620Y0099050D01*
X0049325Y0098968D01*
X0049032Y0098879D01*
X0048741Y0098783D01*
X0048453Y0098680D01*
X0048167Y0098570D01*
X0047884Y0098453D01*
X0047604Y0098329D01*
X0047327Y0098198D01*
X0047054Y0098061D01*
X0046784Y0097917D01*
X0046517Y0097766D01*
X0046255Y0097609D01*
X0045996Y0097445D01*
X0045741Y0097275D01*
X0045491Y0097099D01*
X0045245Y0096917D01*
X0045003Y0096729D01*
X0044766Y0096535D01*
X0044534Y0096335D01*
X0044307Y0096130D01*
X0044085Y0095919D01*
X0043869Y0095703D01*
X0043657Y0095482D01*
X0043451Y0095255D01*
X0043251Y0095024D01*
X0043056Y0094787D01*
X0042868Y0094546D01*
X0042685Y0094301D01*
X0042508Y0094051D01*
X0042338Y0093796D01*
X0042174Y0093538D01*
X0042016Y0093276D01*
X0041864Y0093010D01*
X0041720Y0092740D01*
X0041581Y0092467D01*
X0041450Y0092190D01*
X0041325Y0091911D01*
X0041208Y0091628D01*
X0041097Y0091343D01*
X0040993Y0091055D01*
X0040896Y0090764D01*
X0040807Y0090471D01*
X0040724Y0090177D01*
X0040649Y0089880D01*
X0040582Y0089581D01*
X0040521Y0089281D01*
X0040468Y0088980D01*
X0040422Y0088677D01*
X0040384Y0088373D01*
X0040353Y0088069D01*
X0040330Y0087764D01*
X0040314Y0087458D01*
X0040305Y0087152D01*
X0009000Y0183500D02*
X0009187Y0183257D01*
X0009379Y0183019D01*
X0009578Y0182786D01*
X0009782Y0182558D01*
X0009991Y0182335D01*
X0010206Y0182117D01*
X0010426Y0181904D01*
X0010651Y0181697D01*
X0010882Y0181495D01*
X0011117Y0181299D01*
X0011357Y0181109D01*
X0011601Y0180925D01*
X0011850Y0180747D01*
X0012104Y0180575D01*
X0012361Y0180409D01*
X0012622Y0180249D01*
X0012887Y0180096D01*
X0013156Y0179950D01*
X0013429Y0179810D01*
X0013704Y0179677D01*
X0013983Y0179551D01*
X0014265Y0179431D01*
X0014550Y0179319D01*
X0014837Y0179214D01*
X0015127Y0179115D01*
X0015419Y0179024D01*
X0015714Y0178940D01*
X0016010Y0178863D01*
X0016308Y0178793D01*
X0016608Y0178731D01*
X0016909Y0178676D01*
X0017211Y0178629D01*
X0017515Y0178589D01*
X0017819Y0178556D01*
X0018124Y0178531D01*
X0018430Y0178513D01*
X0018736Y0178503D01*
X0019042Y0178500D01*
X0019348Y0178505D01*
X0019654Y0178517D01*
X0019960Y0178537D01*
X0020264Y0178564D01*
X0020569Y0178599D01*
X0020872Y0178641D01*
X0021174Y0178690D01*
X0021475Y0178747D01*
X0021774Y0178812D01*
X0022072Y0178883D01*
X0022367Y0178962D01*
X0022661Y0179048D01*
X0022953Y0179141D01*
X0023242Y0179242D01*
X0023529Y0179349D01*
X0023813Y0179464D01*
X0024094Y0179585D01*
X0024372Y0179713D01*
X0024647Y0179848D01*
X0024918Y0179990D01*
X0025186Y0180138D01*
X0025450Y0180293D01*
X0025710Y0180454D01*
X0025966Y0180621D01*
X0026219Y0180795D01*
X0026466Y0180975D01*
X0026710Y0181161D01*
X0026948Y0181352D01*
X0027182Y0181550D01*
X0027411Y0181753D01*
X0027635Y0181962D01*
X0027854Y0182176D01*
X0028067Y0182396D01*
X0028275Y0182620D01*
X0028478Y0182850D01*
X0028674Y0183084D01*
X0028865Y0183324D01*
X0029050Y0183567D01*
X0029229Y0183816D01*
X0029402Y0184068D01*
X0029569Y0184325D01*
X0029729Y0184586D01*
X0029883Y0184851D01*
X0030030Y0185119D01*
X0030171Y0185391D01*
X0030305Y0185666D01*
X0030432Y0185945D01*
X0030553Y0186226D01*
X0030666Y0186511D01*
X0030772Y0186798D01*
X0030872Y0187087D01*
X0030964Y0187379D01*
X0031049Y0187673D01*
X0031127Y0187969D01*
X0031198Y0188267D01*
X0031261Y0188567D01*
X0031317Y0188868D01*
X0031365Y0189170D01*
X0031406Y0189473D01*
X0031440Y0189777D01*
X0031466Y0190082D01*
X0031485Y0190388D01*
X0031496Y0190694D01*
X0031500Y0191000D01*
X0031496Y0191306D01*
X0031485Y0191612D01*
X0031466Y0191918D01*
X0031440Y0192223D01*
X0031406Y0192527D01*
X0031365Y0192830D01*
X0031317Y0193132D01*
X0031261Y0193433D01*
X0031198Y0193733D01*
X0031127Y0194031D01*
X0031049Y0194327D01*
X0030964Y0194621D01*
X0030872Y0194913D01*
X0030772Y0195202D01*
X0030666Y0195489D01*
X0030553Y0195774D01*
X0030432Y0196055D01*
X0030305Y0196334D01*
X0030171Y0196609D01*
X0030030Y0196881D01*
X0029883Y0197149D01*
X0029729Y0197414D01*
X0029569Y0197675D01*
X0029402Y0197932D01*
X0029229Y0198184D01*
X0029050Y0198433D01*
X0028865Y0198676D01*
X0028674Y0198916D01*
X0028478Y0199150D01*
X0028275Y0199380D01*
X0028067Y0199604D01*
X0027854Y0199824D01*
X0027635Y0200038D01*
X0027411Y0200247D01*
X0027182Y0200450D01*
X0026948Y0200648D01*
X0026710Y0200839D01*
X0026466Y0201025D01*
X0026219Y0201205D01*
X0025966Y0201379D01*
X0025710Y0201546D01*
X0025450Y0201707D01*
X0025186Y0201862D01*
X0024918Y0202010D01*
X0024647Y0202152D01*
X0024372Y0202287D01*
X0024094Y0202415D01*
X0023813Y0202536D01*
X0023529Y0202651D01*
X0023242Y0202758D01*
X0022953Y0202859D01*
X0022661Y0202952D01*
X0022367Y0203038D01*
X0022072Y0203117D01*
X0021774Y0203188D01*
X0021475Y0203253D01*
X0021174Y0203310D01*
X0020872Y0203359D01*
X0020569Y0203401D01*
X0020264Y0203436D01*
X0019960Y0203463D01*
X0019654Y0203483D01*
X0019348Y0203495D01*
X0019042Y0203500D01*
X0018736Y0203497D01*
X0018430Y0203487D01*
X0018124Y0203469D01*
X0017819Y0203444D01*
X0017515Y0203411D01*
X0017211Y0203371D01*
X0016909Y0203324D01*
X0016608Y0203269D01*
X0016308Y0203207D01*
X0016010Y0203137D01*
X0015714Y0203060D01*
X0015419Y0202976D01*
X0015127Y0202885D01*
X0014837Y0202786D01*
X0014550Y0202681D01*
X0014265Y0202569D01*
X0013983Y0202449D01*
X0013704Y0202323D01*
X0013429Y0202190D01*
X0013156Y0202050D01*
X0012887Y0201904D01*
X0012622Y0201751D01*
X0012361Y0201591D01*
X0012104Y0201425D01*
X0011850Y0201253D01*
X0011601Y0201075D01*
X0011357Y0200891D01*
X0011117Y0200701D01*
X0010882Y0200505D01*
X0010651Y0200303D01*
X0010426Y0200096D01*
X0010206Y0199883D01*
X0009991Y0199665D01*
X0009782Y0199442D01*
X0009578Y0199214D01*
X0009379Y0198981D01*
X0009187Y0198743D01*
X0009000Y0198500D01*
X0040305Y0294848D02*
X0040314Y0294542D01*
X0040330Y0294236D01*
X0040353Y0293931D01*
X0040384Y0293627D01*
X0040422Y0293323D01*
X0040468Y0293020D01*
X0040521Y0292719D01*
X0040582Y0292419D01*
X0040649Y0292120D01*
X0040724Y0291823D01*
X0040807Y0291529D01*
X0040896Y0291236D01*
X0040993Y0290945D01*
X0041097Y0290657D01*
X0041208Y0290372D01*
X0041325Y0290089D01*
X0041450Y0289810D01*
X0041581Y0289533D01*
X0041720Y0289260D01*
X0041864Y0288990D01*
X0042016Y0288724D01*
X0042174Y0288462D01*
X0042338Y0288204D01*
X0042508Y0287949D01*
X0042685Y0287699D01*
X0042868Y0287454D01*
X0043056Y0287213D01*
X0043251Y0286976D01*
X0043451Y0286745D01*
X0043657Y0286518D01*
X0043869Y0286297D01*
X0044085Y0286081D01*
X0044307Y0285870D01*
X0044534Y0285665D01*
X0044766Y0285465D01*
X0045003Y0285271D01*
X0045245Y0285083D01*
X0045491Y0284901D01*
X0045741Y0284725D01*
X0045996Y0284555D01*
X0046255Y0284391D01*
X0046517Y0284234D01*
X0046784Y0284083D01*
X0047054Y0283939D01*
X0047327Y0283802D01*
X0047604Y0283671D01*
X0047884Y0283547D01*
X0048167Y0283430D01*
X0048453Y0283320D01*
X0048741Y0283217D01*
X0049032Y0283121D01*
X0049325Y0283032D01*
X0049620Y0282950D01*
X0049917Y0282876D01*
X0050215Y0282809D01*
X0050516Y0282749D01*
X0050817Y0282697D01*
X0051120Y0282652D01*
X0051424Y0282614D01*
X0051728Y0282584D01*
X0052034Y0282562D01*
X0052340Y0282547D01*
X0052646Y0282539D01*
X0052952Y0282539D01*
X0053258Y0282546D01*
X0053564Y0282561D01*
X0053869Y0282583D01*
X0054174Y0282613D01*
X0054477Y0282651D01*
X0054780Y0282695D01*
X0055082Y0282747D01*
X0055382Y0282807D01*
X0055681Y0282874D01*
X0055978Y0282948D01*
X0056273Y0283029D01*
X0056566Y0283118D01*
X0056857Y0283213D01*
X0057145Y0283316D01*
X0057431Y0283426D01*
X0057714Y0283543D01*
X0057994Y0283666D01*
X0058271Y0283797D01*
X0058545Y0283934D01*
X0058815Y0284078D01*
X0059081Y0284229D01*
X0059344Y0284386D01*
X0059603Y0284549D01*
X0059858Y0284719D01*
X0060109Y0284894D01*
X0060355Y0285076D01*
X0060596Y0285264D01*
X0060833Y0285458D01*
X0061066Y0285657D01*
X0061293Y0285863D01*
X0061515Y0286073D01*
X0061732Y0286289D01*
X0061944Y0286510D01*
X0062150Y0286737D01*
X0062350Y0286968D01*
X0062545Y0287204D01*
X0062734Y0287445D01*
X0062917Y0287691D01*
X0063094Y0287941D01*
X0063264Y0288195D01*
X0063429Y0288453D01*
X0063587Y0288715D01*
X0063738Y0288981D01*
X0063884Y0289251D01*
X0064022Y0289524D01*
X0064154Y0289800D01*
X0064278Y0290079D01*
X0064396Y0290362D01*
X0064507Y0290647D01*
X0064611Y0290935D01*
X0064708Y0291226D01*
X0064798Y0291518D01*
X0064881Y0291813D01*
X0064956Y0292110D01*
X0065024Y0292408D01*
X0065085Y0292708D01*
X0065138Y0293010D01*
X0065184Y0293312D01*
X0065223Y0293616D01*
X0065254Y0293921D01*
X0065278Y0294226D01*
X0065294Y0294531D01*
X0065302Y0294837D01*
X0065304Y0295144D01*
X0065297Y0295450D01*
X0065283Y0295756D01*
X0065262Y0296061D01*
X0065233Y0296366D01*
X0065197Y0296670D01*
X0065153Y0296973D01*
X0065102Y0297274D01*
X0065044Y0297575D01*
X0064978Y0297874D01*
X0064905Y0298171D01*
X0064825Y0298467D01*
X0064737Y0298760D01*
X0064642Y0299051D01*
X0064540Y0299340D01*
X0064432Y0299626D01*
X0064316Y0299909D01*
X0064193Y0300190D01*
X0064063Y0300467D01*
X0063927Y0300741D01*
X0063784Y0301012D01*
X0063635Y0301279D01*
X0063478Y0301542D01*
X0063316Y0301802D01*
X0063147Y0302057D01*
X0062972Y0302308D01*
X0062791Y0302555D01*
X0062604Y0302797D01*
X0062411Y0303035D01*
X0062212Y0303268D01*
X0062008Y0303496D01*
X0061798Y0303719D01*
X0061583Y0303936D01*
X0061362Y0304149D01*
X0061137Y0304356D01*
X0060906Y0304557D01*
X0060670Y0304752D01*
X0060430Y0304942D01*
X0060185Y0305126D01*
X0059936Y0305304D01*
X0059683Y0305475D01*
X0059425Y0305641D01*
X0059163Y0305800D01*
X0058898Y0305952D01*
X0058629Y0306098D01*
X0058356Y0306237D01*
X0058080Y0306370D01*
X0057801Y0306496D01*
X0057519Y0306615D01*
X0057234Y0306727D01*
X0056947Y0306832D01*
X0056657Y0306930D01*
X0056364Y0307020D01*
X0056070Y0307104D01*
X0055773Y0307180D01*
X0055475Y0307249D01*
X0055175Y0307311D01*
X0054874Y0307365D01*
X0054571Y0307412D01*
X0054268Y0307452D01*
X0053963Y0307484D01*
X0053658Y0307509D01*
X0053353Y0307526D01*
X0053047Y0307536D01*
X0052740Y0307538D01*
X0052434Y0307533D01*
X0052129Y0307520D01*
X0051823Y0307499D01*
X0051518Y0307472D01*
X0051214Y0307436D01*
X0050911Y0307394D01*
X0050609Y0307344D01*
X0050308Y0307286D01*
X0050009Y0307222D01*
X0049712Y0307149D01*
X0049416Y0307070D01*
X0049122Y0306983D01*
X0131081Y0366530D02*
X0130908Y0366277D01*
X0130741Y0366021D01*
X0130580Y0365760D01*
X0130426Y0365496D01*
X0130279Y0365227D01*
X0130138Y0364956D01*
X0130004Y0364680D01*
X0129876Y0364402D01*
X0129756Y0364121D01*
X0129642Y0363836D01*
X0129535Y0363550D01*
X0129436Y0363260D01*
X0129343Y0362968D01*
X0129258Y0362674D01*
X0129180Y0362378D01*
X0129109Y0362080D01*
X0129045Y0361781D01*
X0128989Y0361480D01*
X0128940Y0361178D01*
X0128899Y0360875D01*
X0128865Y0360570D01*
X0128839Y0360265D01*
X0128820Y0359960D01*
X0128808Y0359654D01*
X0128804Y0359348D01*
X0128807Y0359042D01*
X0128818Y0358736D01*
X0128837Y0358430D01*
X0128863Y0358125D01*
X0128896Y0357821D01*
X0128937Y0357517D01*
X0128985Y0357215D01*
X0129041Y0356914D01*
X0129104Y0356614D01*
X0129174Y0356317D01*
X0129252Y0356020D01*
X0129337Y0355726D01*
X0129429Y0355434D01*
X0129528Y0355145D01*
X0129634Y0354858D01*
X0129747Y0354573D01*
X0129868Y0354292D01*
X0129995Y0354013D01*
X0130128Y0353738D01*
X0130269Y0353466D01*
X0130416Y0353197D01*
X0130569Y0352932D01*
X0130730Y0352671D01*
X0130896Y0352414D01*
X0131069Y0352162D01*
X0131247Y0351913D01*
X0131432Y0351669D01*
X0131623Y0351430D01*
X0131819Y0351195D01*
X0132022Y0350965D01*
X0132229Y0350740D01*
X0132443Y0350521D01*
X0132661Y0350306D01*
X0132885Y0350097D01*
X0133114Y0349894D01*
X0133348Y0349696D01*
X0133586Y0349504D01*
X0133829Y0349318D01*
X0134077Y0349138D01*
X0134329Y0348964D01*
X0134585Y0348797D01*
X0134845Y0348635D01*
X0135109Y0348480D01*
X0135377Y0348332D01*
X0135648Y0348190D01*
X0135923Y0348055D01*
X0136200Y0347926D01*
X0136481Y0347805D01*
X0136765Y0347690D01*
X0137052Y0347582D01*
X0137341Y0347482D01*
X0137632Y0347388D01*
X0137926Y0347302D01*
X0138222Y0347223D01*
X0138520Y0347151D01*
X0138819Y0347087D01*
X0139119Y0347029D01*
X0139422Y0346980D01*
X0139725Y0346937D01*
X0140029Y0346902D01*
X0140334Y0346875D01*
X0140639Y0346855D01*
X0140945Y0346842D01*
X0141251Y0346837D01*
X0141557Y0346840D01*
X0141863Y0346850D01*
X0142169Y0346867D01*
X0142474Y0346892D01*
X0142778Y0346924D01*
X0143082Y0346964D01*
X0143384Y0347011D01*
X0143686Y0347066D01*
X0143985Y0347128D01*
X0144284Y0347197D01*
X0144580Y0347274D01*
X0144874Y0347358D01*
X0145167Y0347449D01*
X0145457Y0347547D01*
X0145744Y0347652D01*
X0146029Y0347764D01*
X0146311Y0347884D01*
X0146590Y0348010D01*
X0146866Y0348142D01*
X0147138Y0348282D01*
X0147407Y0348428D01*
X0147672Y0348581D01*
X0147934Y0348740D01*
X0148191Y0348906D01*
X0148445Y0349077D01*
X0148694Y0349255D01*
X0148939Y0349439D01*
X0149179Y0349629D01*
X0149414Y0349825D01*
X0149645Y0350027D01*
X0149870Y0350234D01*
X0150090Y0350446D01*
X0150306Y0350664D01*
X0150515Y0350887D01*
X0150719Y0351115D01*
X0150918Y0351348D01*
X0151111Y0351586D01*
X0151298Y0351828D01*
X0151478Y0352075D01*
X0151653Y0352327D01*
X0151822Y0352582D01*
X0151984Y0352842D01*
X0152140Y0353105D01*
X0152289Y0353373D01*
X0152432Y0353643D01*
X0152568Y0353918D01*
X0152697Y0354195D01*
X0152820Y0354476D01*
X0152936Y0354759D01*
X0153044Y0355045D01*
X0153146Y0355334D01*
X0153240Y0355625D01*
X0153328Y0355919D01*
X0153408Y0356214D01*
X0153480Y0356511D01*
X0153546Y0356811D01*
X0153604Y0357111D01*
X0153655Y0357413D01*
X0153698Y0357716D01*
X0153734Y0358020D01*
X0153763Y0358325D01*
X0153784Y0358630D01*
X0153798Y0358936D01*
X0153804Y0359242D01*
X0153802Y0359548D01*
X0153793Y0359854D01*
X0153777Y0360160D01*
X0153753Y0360465D01*
X0153722Y0360770D01*
X0153683Y0361073D01*
X0153637Y0361376D01*
X0153583Y0361677D01*
X0153522Y0361977D01*
X0153454Y0362276D01*
X0153378Y0362572D01*
X0153295Y0362867D01*
X0153205Y0363160D01*
X0153108Y0363450D01*
X0153004Y0363738D01*
X0152892Y0364023D01*
X0152774Y0364305D01*
X0152649Y0364585D01*
X0152517Y0364861D01*
X0152379Y0365134D01*
X0152233Y0365403D01*
X0152081Y0365669D01*
X0151923Y0365931D01*
X0151758Y0366189D01*
X0151588Y0366443D01*
X0151410Y0366693D01*
X0151227Y0366938D01*
X0151038Y0367179D01*
X0150843Y0367415D01*
X0150642Y0367646D01*
X0150436Y0367872D01*
X0150224Y0368093D01*
X0150007Y0368309D01*
X0149785Y0368520D01*
X0149558Y0368725D01*
X0149325Y0368924D01*
X0149088Y0369118D01*
X0148846Y0369305D01*
X0148600Y0369487D01*
X0148349Y0369663D01*
X0148094Y0369832D01*
X0147835Y0369995D01*
X0147572Y0370152D01*
X0147305Y0370302D01*
X0147035Y0370446D01*
X0146761Y0370583D01*
X0146484Y0370713D01*
X0146204Y0370837D01*
X0145921Y0370953D01*
X0145635Y0371063D01*
X0145347Y0371165D01*
X0246653Y0371165D02*
X0246365Y0371063D01*
X0246079Y0370953D01*
X0245796Y0370837D01*
X0245516Y0370713D01*
X0245239Y0370583D01*
X0244965Y0370446D01*
X0244695Y0370302D01*
X0244428Y0370152D01*
X0244165Y0369995D01*
X0243906Y0369832D01*
X0243651Y0369663D01*
X0243400Y0369487D01*
X0243154Y0369305D01*
X0242912Y0369118D01*
X0242675Y0368924D01*
X0242442Y0368725D01*
X0242215Y0368520D01*
X0241993Y0368309D01*
X0241776Y0368093D01*
X0241564Y0367872D01*
X0241358Y0367646D01*
X0241157Y0367415D01*
X0240962Y0367179D01*
X0240773Y0366938D01*
X0240590Y0366693D01*
X0240412Y0366443D01*
X0240242Y0366189D01*
X0240077Y0365931D01*
X0239919Y0365669D01*
X0239767Y0365403D01*
X0239621Y0365134D01*
X0239483Y0364861D01*
X0239351Y0364585D01*
X0239226Y0364305D01*
X0239108Y0364023D01*
X0238996Y0363738D01*
X0238892Y0363450D01*
X0238795Y0363160D01*
X0238705Y0362867D01*
X0238622Y0362572D01*
X0238546Y0362276D01*
X0238478Y0361977D01*
X0238417Y0361677D01*
X0238363Y0361376D01*
X0238317Y0361073D01*
X0238278Y0360770D01*
X0238247Y0360465D01*
X0238223Y0360160D01*
X0238207Y0359854D01*
X0238198Y0359548D01*
X0238196Y0359242D01*
X0238202Y0358936D01*
X0238216Y0358630D01*
X0238237Y0358325D01*
X0238266Y0358020D01*
X0238302Y0357716D01*
X0238345Y0357413D01*
X0238396Y0357111D01*
X0238454Y0356811D01*
X0238520Y0356511D01*
X0238592Y0356214D01*
X0238672Y0355919D01*
X0238760Y0355625D01*
X0238854Y0355334D01*
X0238956Y0355045D01*
X0239064Y0354759D01*
X0239180Y0354476D01*
X0239303Y0354195D01*
X0239432Y0353918D01*
X0239568Y0353643D01*
X0239711Y0353373D01*
X0239860Y0353105D01*
X0240016Y0352842D01*
X0240178Y0352582D01*
X0240347Y0352327D01*
X0240522Y0352075D01*
X0240702Y0351828D01*
X0240889Y0351586D01*
X0241082Y0351348D01*
X0241281Y0351115D01*
X0241485Y0350887D01*
X0241694Y0350664D01*
X0241910Y0350446D01*
X0242130Y0350234D01*
X0242355Y0350027D01*
X0242586Y0349825D01*
X0242821Y0349629D01*
X0243061Y0349439D01*
X0243306Y0349255D01*
X0243555Y0349077D01*
X0243809Y0348906D01*
X0244066Y0348740D01*
X0244328Y0348581D01*
X0244593Y0348428D01*
X0244862Y0348282D01*
X0245134Y0348142D01*
X0245410Y0348010D01*
X0245689Y0347884D01*
X0245971Y0347764D01*
X0246256Y0347652D01*
X0246543Y0347547D01*
X0246833Y0347449D01*
X0247126Y0347358D01*
X0247420Y0347274D01*
X0247716Y0347197D01*
X0248015Y0347128D01*
X0248314Y0347066D01*
X0248616Y0347011D01*
X0248918Y0346964D01*
X0249222Y0346924D01*
X0249526Y0346892D01*
X0249831Y0346867D01*
X0250137Y0346850D01*
X0250443Y0346840D01*
X0250749Y0346837D01*
X0251055Y0346842D01*
X0251361Y0346855D01*
X0251666Y0346875D01*
X0251971Y0346902D01*
X0252275Y0346937D01*
X0252578Y0346980D01*
X0252881Y0347029D01*
X0253181Y0347087D01*
X0253480Y0347151D01*
X0253778Y0347223D01*
X0254074Y0347302D01*
X0254368Y0347388D01*
X0254659Y0347482D01*
X0254948Y0347582D01*
X0255235Y0347690D01*
X0255519Y0347805D01*
X0255800Y0347926D01*
X0256077Y0348055D01*
X0256352Y0348190D01*
X0256623Y0348332D01*
X0256891Y0348480D01*
X0257155Y0348635D01*
X0257415Y0348797D01*
X0257671Y0348964D01*
X0257923Y0349138D01*
X0258171Y0349318D01*
X0258414Y0349504D01*
X0258652Y0349696D01*
X0258886Y0349894D01*
X0259115Y0350097D01*
X0259339Y0350306D01*
X0259557Y0350521D01*
X0259771Y0350740D01*
X0259978Y0350965D01*
X0260181Y0351195D01*
X0260377Y0351430D01*
X0260568Y0351669D01*
X0260753Y0351913D01*
X0260931Y0352162D01*
X0261104Y0352414D01*
X0261270Y0352671D01*
X0261431Y0352932D01*
X0261584Y0353197D01*
X0261731Y0353466D01*
X0261872Y0353738D01*
X0262005Y0354013D01*
X0262132Y0354292D01*
X0262253Y0354573D01*
X0262366Y0354858D01*
X0262472Y0355145D01*
X0262571Y0355434D01*
X0262663Y0355726D01*
X0262748Y0356020D01*
X0262826Y0356317D01*
X0262896Y0356614D01*
X0262959Y0356914D01*
X0263015Y0357215D01*
X0263063Y0357517D01*
X0263104Y0357821D01*
X0263137Y0358125D01*
X0263163Y0358430D01*
X0263182Y0358736D01*
X0263193Y0359042D01*
X0263196Y0359348D01*
X0263192Y0359654D01*
X0263180Y0359960D01*
X0263161Y0360265D01*
X0263135Y0360570D01*
X0263101Y0360875D01*
X0263060Y0361178D01*
X0263011Y0361480D01*
X0262955Y0361781D01*
X0262891Y0362080D01*
X0262820Y0362378D01*
X0262742Y0362674D01*
X0262657Y0362968D01*
X0262564Y0363260D01*
X0262465Y0363550D01*
X0262358Y0363836D01*
X0262244Y0364121D01*
X0262124Y0364402D01*
X0261996Y0364680D01*
X0261862Y0364956D01*
X0261721Y0365227D01*
X0261574Y0365496D01*
X0261420Y0365760D01*
X0261259Y0366021D01*
X0261092Y0366277D01*
X0260919Y0366530D01*
X0342878Y0306983D02*
X0342584Y0307070D01*
X0342288Y0307149D01*
X0341991Y0307222D01*
X0341692Y0307286D01*
X0341391Y0307344D01*
X0341089Y0307394D01*
X0340786Y0307436D01*
X0340482Y0307472D01*
X0340177Y0307499D01*
X0339871Y0307520D01*
X0339566Y0307533D01*
X0339260Y0307538D01*
X0338953Y0307536D01*
X0338647Y0307526D01*
X0338342Y0307509D01*
X0338037Y0307484D01*
X0337732Y0307452D01*
X0337429Y0307412D01*
X0337126Y0307365D01*
X0336825Y0307311D01*
X0336525Y0307249D01*
X0336227Y0307180D01*
X0335930Y0307104D01*
X0335636Y0307020D01*
X0335343Y0306930D01*
X0335053Y0306832D01*
X0334766Y0306727D01*
X0334481Y0306615D01*
X0334199Y0306496D01*
X0333920Y0306370D01*
X0333644Y0306237D01*
X0333371Y0306098D01*
X0333102Y0305952D01*
X0332837Y0305800D01*
X0332575Y0305641D01*
X0332317Y0305475D01*
X0332064Y0305304D01*
X0331815Y0305126D01*
X0331570Y0304942D01*
X0331330Y0304752D01*
X0331094Y0304557D01*
X0330863Y0304356D01*
X0330638Y0304149D01*
X0330417Y0303936D01*
X0330202Y0303719D01*
X0329992Y0303496D01*
X0329788Y0303268D01*
X0329589Y0303035D01*
X0329396Y0302797D01*
X0329209Y0302555D01*
X0329028Y0302308D01*
X0328853Y0302057D01*
X0328684Y0301802D01*
X0328522Y0301542D01*
X0328365Y0301279D01*
X0328216Y0301012D01*
X0328073Y0300741D01*
X0327937Y0300467D01*
X0327807Y0300190D01*
X0327684Y0299909D01*
X0327568Y0299626D01*
X0327460Y0299340D01*
X0327358Y0299051D01*
X0327263Y0298760D01*
X0327175Y0298467D01*
X0327095Y0298171D01*
X0327022Y0297874D01*
X0326956Y0297575D01*
X0326898Y0297274D01*
X0326847Y0296973D01*
X0326803Y0296670D01*
X0326767Y0296366D01*
X0326738Y0296061D01*
X0326717Y0295756D01*
X0326703Y0295450D01*
X0326696Y0295144D01*
X0326698Y0294837D01*
X0326706Y0294531D01*
X0326722Y0294226D01*
X0326746Y0293921D01*
X0326777Y0293616D01*
X0326816Y0293312D01*
X0326862Y0293010D01*
X0326915Y0292708D01*
X0326976Y0292408D01*
X0327044Y0292110D01*
X0327119Y0291813D01*
X0327202Y0291518D01*
X0327292Y0291226D01*
X0327389Y0290935D01*
X0327493Y0290647D01*
X0327604Y0290362D01*
X0327722Y0290079D01*
X0327846Y0289800D01*
X0327978Y0289524D01*
X0328116Y0289251D01*
X0328262Y0288981D01*
X0328413Y0288715D01*
X0328571Y0288453D01*
X0328736Y0288195D01*
X0328906Y0287941D01*
X0329083Y0287691D01*
X0329266Y0287445D01*
X0329455Y0287204D01*
X0329650Y0286968D01*
X0329850Y0286737D01*
X0330056Y0286510D01*
X0330268Y0286289D01*
X0330485Y0286073D01*
X0330707Y0285863D01*
X0330934Y0285657D01*
X0331167Y0285458D01*
X0331404Y0285264D01*
X0331645Y0285076D01*
X0331891Y0284894D01*
X0332142Y0284719D01*
X0332397Y0284549D01*
X0332656Y0284386D01*
X0332919Y0284229D01*
X0333185Y0284078D01*
X0333455Y0283934D01*
X0333729Y0283797D01*
X0334006Y0283666D01*
X0334286Y0283543D01*
X0334569Y0283426D01*
X0334855Y0283316D01*
X0335143Y0283213D01*
X0335434Y0283118D01*
X0335727Y0283029D01*
X0336022Y0282948D01*
X0336319Y0282874D01*
X0336618Y0282807D01*
X0336918Y0282747D01*
X0337220Y0282695D01*
X0337523Y0282651D01*
X0337826Y0282613D01*
X0338131Y0282583D01*
X0338436Y0282561D01*
X0338742Y0282546D01*
X0339048Y0282539D01*
X0339354Y0282539D01*
X0339660Y0282547D01*
X0339966Y0282562D01*
X0340272Y0282584D01*
X0340576Y0282614D01*
X0340880Y0282652D01*
X0341183Y0282697D01*
X0341484Y0282749D01*
X0341785Y0282809D01*
X0342083Y0282876D01*
X0342380Y0282950D01*
X0342675Y0283032D01*
X0342968Y0283121D01*
X0343259Y0283217D01*
X0343547Y0283320D01*
X0343833Y0283430D01*
X0344116Y0283547D01*
X0344396Y0283671D01*
X0344673Y0283802D01*
X0344946Y0283939D01*
X0345216Y0284083D01*
X0345483Y0284234D01*
X0345745Y0284391D01*
X0346004Y0284555D01*
X0346259Y0284725D01*
X0346509Y0284901D01*
X0346755Y0285083D01*
X0346997Y0285271D01*
X0347234Y0285465D01*
X0347466Y0285665D01*
X0347693Y0285870D01*
X0347915Y0286081D01*
X0348131Y0286297D01*
X0348343Y0286518D01*
X0348549Y0286745D01*
X0348749Y0286976D01*
X0348944Y0287213D01*
X0349132Y0287454D01*
X0349315Y0287699D01*
X0349492Y0287949D01*
X0349662Y0288204D01*
X0349826Y0288462D01*
X0349984Y0288724D01*
X0350136Y0288990D01*
X0350280Y0289260D01*
X0350419Y0289533D01*
X0350550Y0289810D01*
X0350675Y0290089D01*
X0350792Y0290372D01*
X0350903Y0290657D01*
X0351007Y0290945D01*
X0351104Y0291236D01*
X0351193Y0291529D01*
X0351276Y0291823D01*
X0351351Y0292120D01*
X0351418Y0292419D01*
X0351479Y0292719D01*
X0351532Y0293020D01*
X0351578Y0293323D01*
X0351616Y0293627D01*
X0351647Y0293931D01*
X0351670Y0294236D01*
X0351686Y0294542D01*
X0351695Y0294848D01*
D12*
X0329196Y0295038D02*
X0329199Y0295283D01*
X0329208Y0295529D01*
X0329223Y0295774D01*
X0329244Y0296018D01*
X0329271Y0296262D01*
X0329304Y0296505D01*
X0329343Y0296748D01*
X0329388Y0296989D01*
X0329439Y0297229D01*
X0329496Y0297468D01*
X0329558Y0297705D01*
X0329627Y0297941D01*
X0329701Y0298175D01*
X0329781Y0298407D01*
X0329866Y0298637D01*
X0329957Y0298865D01*
X0330054Y0299090D01*
X0330156Y0299314D01*
X0330264Y0299534D01*
X0330377Y0299752D01*
X0330495Y0299967D01*
X0330619Y0300179D01*
X0330747Y0300388D01*
X0330881Y0300594D01*
X0331020Y0300796D01*
X0331164Y0300995D01*
X0331313Y0301190D01*
X0331466Y0301382D01*
X0331624Y0301570D01*
X0331786Y0301754D01*
X0331954Y0301933D01*
X0332125Y0302109D01*
X0332301Y0302280D01*
X0332480Y0302448D01*
X0332664Y0302610D01*
X0332852Y0302768D01*
X0333044Y0302921D01*
X0333239Y0303070D01*
X0333438Y0303214D01*
X0333640Y0303353D01*
X0333846Y0303487D01*
X0334055Y0303615D01*
X0334267Y0303739D01*
X0334482Y0303857D01*
X0334700Y0303970D01*
X0334920Y0304078D01*
X0335144Y0304180D01*
X0335369Y0304277D01*
X0335597Y0304368D01*
X0335827Y0304453D01*
X0336059Y0304533D01*
X0336293Y0304607D01*
X0336529Y0304676D01*
X0336766Y0304738D01*
X0337005Y0304795D01*
X0337245Y0304846D01*
X0337486Y0304891D01*
X0337729Y0304930D01*
X0337972Y0304963D01*
X0338216Y0304990D01*
X0338460Y0305011D01*
X0338705Y0305026D01*
X0338951Y0305035D01*
X0339196Y0305038D01*
X0339441Y0305035D01*
X0339687Y0305026D01*
X0339932Y0305011D01*
X0340176Y0304990D01*
X0340420Y0304963D01*
X0340663Y0304930D01*
X0340906Y0304891D01*
X0341147Y0304846D01*
X0341387Y0304795D01*
X0341626Y0304738D01*
X0341863Y0304676D01*
X0342099Y0304607D01*
X0342333Y0304533D01*
X0342565Y0304453D01*
X0342795Y0304368D01*
X0343023Y0304277D01*
X0343248Y0304180D01*
X0343472Y0304078D01*
X0343692Y0303970D01*
X0343910Y0303857D01*
X0344125Y0303739D01*
X0344337Y0303615D01*
X0344546Y0303487D01*
X0344752Y0303353D01*
X0344954Y0303214D01*
X0345153Y0303070D01*
X0345348Y0302921D01*
X0345540Y0302768D01*
X0345728Y0302610D01*
X0345912Y0302448D01*
X0346091Y0302280D01*
X0346267Y0302109D01*
X0346438Y0301933D01*
X0346606Y0301754D01*
X0346768Y0301570D01*
X0346926Y0301382D01*
X0347079Y0301190D01*
X0347228Y0300995D01*
X0347372Y0300796D01*
X0347511Y0300594D01*
X0347645Y0300388D01*
X0347773Y0300179D01*
X0347897Y0299967D01*
X0348015Y0299752D01*
X0348128Y0299534D01*
X0348236Y0299314D01*
X0348338Y0299090D01*
X0348435Y0298865D01*
X0348526Y0298637D01*
X0348611Y0298407D01*
X0348691Y0298175D01*
X0348765Y0297941D01*
X0348834Y0297705D01*
X0348896Y0297468D01*
X0348953Y0297229D01*
X0349004Y0296989D01*
X0349049Y0296748D01*
X0349088Y0296505D01*
X0349121Y0296262D01*
X0349148Y0296018D01*
X0349169Y0295774D01*
X0349184Y0295529D01*
X0349193Y0295283D01*
X0349196Y0295038D01*
X0349193Y0294793D01*
X0349184Y0294547D01*
X0349169Y0294302D01*
X0349148Y0294058D01*
X0349121Y0293814D01*
X0349088Y0293571D01*
X0349049Y0293328D01*
X0349004Y0293087D01*
X0348953Y0292847D01*
X0348896Y0292608D01*
X0348834Y0292371D01*
X0348765Y0292135D01*
X0348691Y0291901D01*
X0348611Y0291669D01*
X0348526Y0291439D01*
X0348435Y0291211D01*
X0348338Y0290986D01*
X0348236Y0290762D01*
X0348128Y0290542D01*
X0348015Y0290324D01*
X0347897Y0290109D01*
X0347773Y0289897D01*
X0347645Y0289688D01*
X0347511Y0289482D01*
X0347372Y0289280D01*
X0347228Y0289081D01*
X0347079Y0288886D01*
X0346926Y0288694D01*
X0346768Y0288506D01*
X0346606Y0288322D01*
X0346438Y0288143D01*
X0346267Y0287967D01*
X0346091Y0287796D01*
X0345912Y0287628D01*
X0345728Y0287466D01*
X0345540Y0287308D01*
X0345348Y0287155D01*
X0345153Y0287006D01*
X0344954Y0286862D01*
X0344752Y0286723D01*
X0344546Y0286589D01*
X0344337Y0286461D01*
X0344125Y0286337D01*
X0343910Y0286219D01*
X0343692Y0286106D01*
X0343472Y0285998D01*
X0343248Y0285896D01*
X0343023Y0285799D01*
X0342795Y0285708D01*
X0342565Y0285623D01*
X0342333Y0285543D01*
X0342099Y0285469D01*
X0341863Y0285400D01*
X0341626Y0285338D01*
X0341387Y0285281D01*
X0341147Y0285230D01*
X0340906Y0285185D01*
X0340663Y0285146D01*
X0340420Y0285113D01*
X0340176Y0285086D01*
X0339932Y0285065D01*
X0339687Y0285050D01*
X0339441Y0285041D01*
X0339196Y0285038D01*
X0338951Y0285041D01*
X0338705Y0285050D01*
X0338460Y0285065D01*
X0338216Y0285086D01*
X0337972Y0285113D01*
X0337729Y0285146D01*
X0337486Y0285185D01*
X0337245Y0285230D01*
X0337005Y0285281D01*
X0336766Y0285338D01*
X0336529Y0285400D01*
X0336293Y0285469D01*
X0336059Y0285543D01*
X0335827Y0285623D01*
X0335597Y0285708D01*
X0335369Y0285799D01*
X0335144Y0285896D01*
X0334920Y0285998D01*
X0334700Y0286106D01*
X0334482Y0286219D01*
X0334267Y0286337D01*
X0334055Y0286461D01*
X0333846Y0286589D01*
X0333640Y0286723D01*
X0333438Y0286862D01*
X0333239Y0287006D01*
X0333044Y0287155D01*
X0332852Y0287308D01*
X0332664Y0287466D01*
X0332480Y0287628D01*
X0332301Y0287796D01*
X0332125Y0287967D01*
X0331954Y0288143D01*
X0331786Y0288322D01*
X0331624Y0288506D01*
X0331466Y0288694D01*
X0331313Y0288886D01*
X0331164Y0289081D01*
X0331020Y0289280D01*
X0330881Y0289482D01*
X0330747Y0289688D01*
X0330619Y0289897D01*
X0330495Y0290109D01*
X0330377Y0290324D01*
X0330264Y0290542D01*
X0330156Y0290762D01*
X0330054Y0290986D01*
X0329957Y0291211D01*
X0329866Y0291439D01*
X0329781Y0291669D01*
X0329701Y0291901D01*
X0329627Y0292135D01*
X0329558Y0292371D01*
X0329496Y0292608D01*
X0329439Y0292847D01*
X0329388Y0293087D01*
X0329343Y0293328D01*
X0329304Y0293571D01*
X0329271Y0293814D01*
X0329244Y0294058D01*
X0329223Y0294302D01*
X0329208Y0294547D01*
X0329199Y0294793D01*
X0329196Y0295038D01*
X0240696Y0359337D02*
X0240699Y0359582D01*
X0240708Y0359828D01*
X0240723Y0360073D01*
X0240744Y0360317D01*
X0240771Y0360561D01*
X0240804Y0360804D01*
X0240843Y0361047D01*
X0240888Y0361288D01*
X0240939Y0361528D01*
X0240996Y0361767D01*
X0241058Y0362004D01*
X0241127Y0362240D01*
X0241201Y0362474D01*
X0241281Y0362706D01*
X0241366Y0362936D01*
X0241457Y0363164D01*
X0241554Y0363389D01*
X0241656Y0363613D01*
X0241764Y0363833D01*
X0241877Y0364051D01*
X0241995Y0364266D01*
X0242119Y0364478D01*
X0242247Y0364687D01*
X0242381Y0364893D01*
X0242520Y0365095D01*
X0242664Y0365294D01*
X0242813Y0365489D01*
X0242966Y0365681D01*
X0243124Y0365869D01*
X0243286Y0366053D01*
X0243454Y0366232D01*
X0243625Y0366408D01*
X0243801Y0366579D01*
X0243980Y0366747D01*
X0244164Y0366909D01*
X0244352Y0367067D01*
X0244544Y0367220D01*
X0244739Y0367369D01*
X0244938Y0367513D01*
X0245140Y0367652D01*
X0245346Y0367786D01*
X0245555Y0367914D01*
X0245767Y0368038D01*
X0245982Y0368156D01*
X0246200Y0368269D01*
X0246420Y0368377D01*
X0246644Y0368479D01*
X0246869Y0368576D01*
X0247097Y0368667D01*
X0247327Y0368752D01*
X0247559Y0368832D01*
X0247793Y0368906D01*
X0248029Y0368975D01*
X0248266Y0369037D01*
X0248505Y0369094D01*
X0248745Y0369145D01*
X0248986Y0369190D01*
X0249229Y0369229D01*
X0249472Y0369262D01*
X0249716Y0369289D01*
X0249960Y0369310D01*
X0250205Y0369325D01*
X0250451Y0369334D01*
X0250696Y0369337D01*
X0250941Y0369334D01*
X0251187Y0369325D01*
X0251432Y0369310D01*
X0251676Y0369289D01*
X0251920Y0369262D01*
X0252163Y0369229D01*
X0252406Y0369190D01*
X0252647Y0369145D01*
X0252887Y0369094D01*
X0253126Y0369037D01*
X0253363Y0368975D01*
X0253599Y0368906D01*
X0253833Y0368832D01*
X0254065Y0368752D01*
X0254295Y0368667D01*
X0254523Y0368576D01*
X0254748Y0368479D01*
X0254972Y0368377D01*
X0255192Y0368269D01*
X0255410Y0368156D01*
X0255625Y0368038D01*
X0255837Y0367914D01*
X0256046Y0367786D01*
X0256252Y0367652D01*
X0256454Y0367513D01*
X0256653Y0367369D01*
X0256848Y0367220D01*
X0257040Y0367067D01*
X0257228Y0366909D01*
X0257412Y0366747D01*
X0257591Y0366579D01*
X0257767Y0366408D01*
X0257938Y0366232D01*
X0258106Y0366053D01*
X0258268Y0365869D01*
X0258426Y0365681D01*
X0258579Y0365489D01*
X0258728Y0365294D01*
X0258872Y0365095D01*
X0259011Y0364893D01*
X0259145Y0364687D01*
X0259273Y0364478D01*
X0259397Y0364266D01*
X0259515Y0364051D01*
X0259628Y0363833D01*
X0259736Y0363613D01*
X0259838Y0363389D01*
X0259935Y0363164D01*
X0260026Y0362936D01*
X0260111Y0362706D01*
X0260191Y0362474D01*
X0260265Y0362240D01*
X0260334Y0362004D01*
X0260396Y0361767D01*
X0260453Y0361528D01*
X0260504Y0361288D01*
X0260549Y0361047D01*
X0260588Y0360804D01*
X0260621Y0360561D01*
X0260648Y0360317D01*
X0260669Y0360073D01*
X0260684Y0359828D01*
X0260693Y0359582D01*
X0260696Y0359337D01*
X0260693Y0359092D01*
X0260684Y0358846D01*
X0260669Y0358601D01*
X0260648Y0358357D01*
X0260621Y0358113D01*
X0260588Y0357870D01*
X0260549Y0357627D01*
X0260504Y0357386D01*
X0260453Y0357146D01*
X0260396Y0356907D01*
X0260334Y0356670D01*
X0260265Y0356434D01*
X0260191Y0356200D01*
X0260111Y0355968D01*
X0260026Y0355738D01*
X0259935Y0355510D01*
X0259838Y0355285D01*
X0259736Y0355061D01*
X0259628Y0354841D01*
X0259515Y0354623D01*
X0259397Y0354408D01*
X0259273Y0354196D01*
X0259145Y0353987D01*
X0259011Y0353781D01*
X0258872Y0353579D01*
X0258728Y0353380D01*
X0258579Y0353185D01*
X0258426Y0352993D01*
X0258268Y0352805D01*
X0258106Y0352621D01*
X0257938Y0352442D01*
X0257767Y0352266D01*
X0257591Y0352095D01*
X0257412Y0351927D01*
X0257228Y0351765D01*
X0257040Y0351607D01*
X0256848Y0351454D01*
X0256653Y0351305D01*
X0256454Y0351161D01*
X0256252Y0351022D01*
X0256046Y0350888D01*
X0255837Y0350760D01*
X0255625Y0350636D01*
X0255410Y0350518D01*
X0255192Y0350405D01*
X0254972Y0350297D01*
X0254748Y0350195D01*
X0254523Y0350098D01*
X0254295Y0350007D01*
X0254065Y0349922D01*
X0253833Y0349842D01*
X0253599Y0349768D01*
X0253363Y0349699D01*
X0253126Y0349637D01*
X0252887Y0349580D01*
X0252647Y0349529D01*
X0252406Y0349484D01*
X0252163Y0349445D01*
X0251920Y0349412D01*
X0251676Y0349385D01*
X0251432Y0349364D01*
X0251187Y0349349D01*
X0250941Y0349340D01*
X0250696Y0349337D01*
X0250451Y0349340D01*
X0250205Y0349349D01*
X0249960Y0349364D01*
X0249716Y0349385D01*
X0249472Y0349412D01*
X0249229Y0349445D01*
X0248986Y0349484D01*
X0248745Y0349529D01*
X0248505Y0349580D01*
X0248266Y0349637D01*
X0248029Y0349699D01*
X0247793Y0349768D01*
X0247559Y0349842D01*
X0247327Y0349922D01*
X0247097Y0350007D01*
X0246869Y0350098D01*
X0246644Y0350195D01*
X0246420Y0350297D01*
X0246200Y0350405D01*
X0245982Y0350518D01*
X0245767Y0350636D01*
X0245555Y0350760D01*
X0245346Y0350888D01*
X0245140Y0351022D01*
X0244938Y0351161D01*
X0244739Y0351305D01*
X0244544Y0351454D01*
X0244352Y0351607D01*
X0244164Y0351765D01*
X0243980Y0351927D01*
X0243801Y0352095D01*
X0243625Y0352266D01*
X0243454Y0352442D01*
X0243286Y0352621D01*
X0243124Y0352805D01*
X0242966Y0352993D01*
X0242813Y0353185D01*
X0242664Y0353380D01*
X0242520Y0353579D01*
X0242381Y0353781D01*
X0242247Y0353987D01*
X0242119Y0354196D01*
X0241995Y0354408D01*
X0241877Y0354623D01*
X0241764Y0354841D01*
X0241656Y0355061D01*
X0241554Y0355285D01*
X0241457Y0355510D01*
X0241366Y0355738D01*
X0241281Y0355968D01*
X0241201Y0356200D01*
X0241127Y0356434D01*
X0241058Y0356670D01*
X0240996Y0356907D01*
X0240939Y0357146D01*
X0240888Y0357386D01*
X0240843Y0357627D01*
X0240804Y0357870D01*
X0240771Y0358113D01*
X0240744Y0358357D01*
X0240723Y0358601D01*
X0240708Y0358846D01*
X0240699Y0359092D01*
X0240696Y0359337D01*
X0131304Y0359337D02*
X0131307Y0359582D01*
X0131316Y0359828D01*
X0131331Y0360073D01*
X0131352Y0360317D01*
X0131379Y0360561D01*
X0131412Y0360804D01*
X0131451Y0361047D01*
X0131496Y0361288D01*
X0131547Y0361528D01*
X0131604Y0361767D01*
X0131666Y0362004D01*
X0131735Y0362240D01*
X0131809Y0362474D01*
X0131889Y0362706D01*
X0131974Y0362936D01*
X0132065Y0363164D01*
X0132162Y0363389D01*
X0132264Y0363613D01*
X0132372Y0363833D01*
X0132485Y0364051D01*
X0132603Y0364266D01*
X0132727Y0364478D01*
X0132855Y0364687D01*
X0132989Y0364893D01*
X0133128Y0365095D01*
X0133272Y0365294D01*
X0133421Y0365489D01*
X0133574Y0365681D01*
X0133732Y0365869D01*
X0133894Y0366053D01*
X0134062Y0366232D01*
X0134233Y0366408D01*
X0134409Y0366579D01*
X0134588Y0366747D01*
X0134772Y0366909D01*
X0134960Y0367067D01*
X0135152Y0367220D01*
X0135347Y0367369D01*
X0135546Y0367513D01*
X0135748Y0367652D01*
X0135954Y0367786D01*
X0136163Y0367914D01*
X0136375Y0368038D01*
X0136590Y0368156D01*
X0136808Y0368269D01*
X0137028Y0368377D01*
X0137252Y0368479D01*
X0137477Y0368576D01*
X0137705Y0368667D01*
X0137935Y0368752D01*
X0138167Y0368832D01*
X0138401Y0368906D01*
X0138637Y0368975D01*
X0138874Y0369037D01*
X0139113Y0369094D01*
X0139353Y0369145D01*
X0139594Y0369190D01*
X0139837Y0369229D01*
X0140080Y0369262D01*
X0140324Y0369289D01*
X0140568Y0369310D01*
X0140813Y0369325D01*
X0141059Y0369334D01*
X0141304Y0369337D01*
X0141549Y0369334D01*
X0141795Y0369325D01*
X0142040Y0369310D01*
X0142284Y0369289D01*
X0142528Y0369262D01*
X0142771Y0369229D01*
X0143014Y0369190D01*
X0143255Y0369145D01*
X0143495Y0369094D01*
X0143734Y0369037D01*
X0143971Y0368975D01*
X0144207Y0368906D01*
X0144441Y0368832D01*
X0144673Y0368752D01*
X0144903Y0368667D01*
X0145131Y0368576D01*
X0145356Y0368479D01*
X0145580Y0368377D01*
X0145800Y0368269D01*
X0146018Y0368156D01*
X0146233Y0368038D01*
X0146445Y0367914D01*
X0146654Y0367786D01*
X0146860Y0367652D01*
X0147062Y0367513D01*
X0147261Y0367369D01*
X0147456Y0367220D01*
X0147648Y0367067D01*
X0147836Y0366909D01*
X0148020Y0366747D01*
X0148199Y0366579D01*
X0148375Y0366408D01*
X0148546Y0366232D01*
X0148714Y0366053D01*
X0148876Y0365869D01*
X0149034Y0365681D01*
X0149187Y0365489D01*
X0149336Y0365294D01*
X0149480Y0365095D01*
X0149619Y0364893D01*
X0149753Y0364687D01*
X0149881Y0364478D01*
X0150005Y0364266D01*
X0150123Y0364051D01*
X0150236Y0363833D01*
X0150344Y0363613D01*
X0150446Y0363389D01*
X0150543Y0363164D01*
X0150634Y0362936D01*
X0150719Y0362706D01*
X0150799Y0362474D01*
X0150873Y0362240D01*
X0150942Y0362004D01*
X0151004Y0361767D01*
X0151061Y0361528D01*
X0151112Y0361288D01*
X0151157Y0361047D01*
X0151196Y0360804D01*
X0151229Y0360561D01*
X0151256Y0360317D01*
X0151277Y0360073D01*
X0151292Y0359828D01*
X0151301Y0359582D01*
X0151304Y0359337D01*
X0151301Y0359092D01*
X0151292Y0358846D01*
X0151277Y0358601D01*
X0151256Y0358357D01*
X0151229Y0358113D01*
X0151196Y0357870D01*
X0151157Y0357627D01*
X0151112Y0357386D01*
X0151061Y0357146D01*
X0151004Y0356907D01*
X0150942Y0356670D01*
X0150873Y0356434D01*
X0150799Y0356200D01*
X0150719Y0355968D01*
X0150634Y0355738D01*
X0150543Y0355510D01*
X0150446Y0355285D01*
X0150344Y0355061D01*
X0150236Y0354841D01*
X0150123Y0354623D01*
X0150005Y0354408D01*
X0149881Y0354196D01*
X0149753Y0353987D01*
X0149619Y0353781D01*
X0149480Y0353579D01*
X0149336Y0353380D01*
X0149187Y0353185D01*
X0149034Y0352993D01*
X0148876Y0352805D01*
X0148714Y0352621D01*
X0148546Y0352442D01*
X0148375Y0352266D01*
X0148199Y0352095D01*
X0148020Y0351927D01*
X0147836Y0351765D01*
X0147648Y0351607D01*
X0147456Y0351454D01*
X0147261Y0351305D01*
X0147062Y0351161D01*
X0146860Y0351022D01*
X0146654Y0350888D01*
X0146445Y0350760D01*
X0146233Y0350636D01*
X0146018Y0350518D01*
X0145800Y0350405D01*
X0145580Y0350297D01*
X0145356Y0350195D01*
X0145131Y0350098D01*
X0144903Y0350007D01*
X0144673Y0349922D01*
X0144441Y0349842D01*
X0144207Y0349768D01*
X0143971Y0349699D01*
X0143734Y0349637D01*
X0143495Y0349580D01*
X0143255Y0349529D01*
X0143014Y0349484D01*
X0142771Y0349445D01*
X0142528Y0349412D01*
X0142284Y0349385D01*
X0142040Y0349364D01*
X0141795Y0349349D01*
X0141549Y0349340D01*
X0141304Y0349337D01*
X0141059Y0349340D01*
X0140813Y0349349D01*
X0140568Y0349364D01*
X0140324Y0349385D01*
X0140080Y0349412D01*
X0139837Y0349445D01*
X0139594Y0349484D01*
X0139353Y0349529D01*
X0139113Y0349580D01*
X0138874Y0349637D01*
X0138637Y0349699D01*
X0138401Y0349768D01*
X0138167Y0349842D01*
X0137935Y0349922D01*
X0137705Y0350007D01*
X0137477Y0350098D01*
X0137252Y0350195D01*
X0137028Y0350297D01*
X0136808Y0350405D01*
X0136590Y0350518D01*
X0136375Y0350636D01*
X0136163Y0350760D01*
X0135954Y0350888D01*
X0135748Y0351022D01*
X0135546Y0351161D01*
X0135347Y0351305D01*
X0135152Y0351454D01*
X0134960Y0351607D01*
X0134772Y0351765D01*
X0134588Y0351927D01*
X0134409Y0352095D01*
X0134233Y0352266D01*
X0134062Y0352442D01*
X0133894Y0352621D01*
X0133732Y0352805D01*
X0133574Y0352993D01*
X0133421Y0353185D01*
X0133272Y0353380D01*
X0133128Y0353579D01*
X0132989Y0353781D01*
X0132855Y0353987D01*
X0132727Y0354196D01*
X0132603Y0354408D01*
X0132485Y0354623D01*
X0132372Y0354841D01*
X0132264Y0355061D01*
X0132162Y0355285D01*
X0132065Y0355510D01*
X0131974Y0355738D01*
X0131889Y0355968D01*
X0131809Y0356200D01*
X0131735Y0356434D01*
X0131666Y0356670D01*
X0131604Y0356907D01*
X0131547Y0357146D01*
X0131496Y0357386D01*
X0131451Y0357627D01*
X0131412Y0357870D01*
X0131379Y0358113D01*
X0131352Y0358357D01*
X0131331Y0358601D01*
X0131316Y0358846D01*
X0131307Y0359092D01*
X0131304Y0359337D01*
X0042804Y0295038D02*
X0042807Y0295283D01*
X0042816Y0295529D01*
X0042831Y0295774D01*
X0042852Y0296018D01*
X0042879Y0296262D01*
X0042912Y0296505D01*
X0042951Y0296748D01*
X0042996Y0296989D01*
X0043047Y0297229D01*
X0043104Y0297468D01*
X0043166Y0297705D01*
X0043235Y0297941D01*
X0043309Y0298175D01*
X0043389Y0298407D01*
X0043474Y0298637D01*
X0043565Y0298865D01*
X0043662Y0299090D01*
X0043764Y0299314D01*
X0043872Y0299534D01*
X0043985Y0299752D01*
X0044103Y0299967D01*
X0044227Y0300179D01*
X0044355Y0300388D01*
X0044489Y0300594D01*
X0044628Y0300796D01*
X0044772Y0300995D01*
X0044921Y0301190D01*
X0045074Y0301382D01*
X0045232Y0301570D01*
X0045394Y0301754D01*
X0045562Y0301933D01*
X0045733Y0302109D01*
X0045909Y0302280D01*
X0046088Y0302448D01*
X0046272Y0302610D01*
X0046460Y0302768D01*
X0046652Y0302921D01*
X0046847Y0303070D01*
X0047046Y0303214D01*
X0047248Y0303353D01*
X0047454Y0303487D01*
X0047663Y0303615D01*
X0047875Y0303739D01*
X0048090Y0303857D01*
X0048308Y0303970D01*
X0048528Y0304078D01*
X0048752Y0304180D01*
X0048977Y0304277D01*
X0049205Y0304368D01*
X0049435Y0304453D01*
X0049667Y0304533D01*
X0049901Y0304607D01*
X0050137Y0304676D01*
X0050374Y0304738D01*
X0050613Y0304795D01*
X0050853Y0304846D01*
X0051094Y0304891D01*
X0051337Y0304930D01*
X0051580Y0304963D01*
X0051824Y0304990D01*
X0052068Y0305011D01*
X0052313Y0305026D01*
X0052559Y0305035D01*
X0052804Y0305038D01*
X0053049Y0305035D01*
X0053295Y0305026D01*
X0053540Y0305011D01*
X0053784Y0304990D01*
X0054028Y0304963D01*
X0054271Y0304930D01*
X0054514Y0304891D01*
X0054755Y0304846D01*
X0054995Y0304795D01*
X0055234Y0304738D01*
X0055471Y0304676D01*
X0055707Y0304607D01*
X0055941Y0304533D01*
X0056173Y0304453D01*
X0056403Y0304368D01*
X0056631Y0304277D01*
X0056856Y0304180D01*
X0057080Y0304078D01*
X0057300Y0303970D01*
X0057518Y0303857D01*
X0057733Y0303739D01*
X0057945Y0303615D01*
X0058154Y0303487D01*
X0058360Y0303353D01*
X0058562Y0303214D01*
X0058761Y0303070D01*
X0058956Y0302921D01*
X0059148Y0302768D01*
X0059336Y0302610D01*
X0059520Y0302448D01*
X0059699Y0302280D01*
X0059875Y0302109D01*
X0060046Y0301933D01*
X0060214Y0301754D01*
X0060376Y0301570D01*
X0060534Y0301382D01*
X0060687Y0301190D01*
X0060836Y0300995D01*
X0060980Y0300796D01*
X0061119Y0300594D01*
X0061253Y0300388D01*
X0061381Y0300179D01*
X0061505Y0299967D01*
X0061623Y0299752D01*
X0061736Y0299534D01*
X0061844Y0299314D01*
X0061946Y0299090D01*
X0062043Y0298865D01*
X0062134Y0298637D01*
X0062219Y0298407D01*
X0062299Y0298175D01*
X0062373Y0297941D01*
X0062442Y0297705D01*
X0062504Y0297468D01*
X0062561Y0297229D01*
X0062612Y0296989D01*
X0062657Y0296748D01*
X0062696Y0296505D01*
X0062729Y0296262D01*
X0062756Y0296018D01*
X0062777Y0295774D01*
X0062792Y0295529D01*
X0062801Y0295283D01*
X0062804Y0295038D01*
X0062801Y0294793D01*
X0062792Y0294547D01*
X0062777Y0294302D01*
X0062756Y0294058D01*
X0062729Y0293814D01*
X0062696Y0293571D01*
X0062657Y0293328D01*
X0062612Y0293087D01*
X0062561Y0292847D01*
X0062504Y0292608D01*
X0062442Y0292371D01*
X0062373Y0292135D01*
X0062299Y0291901D01*
X0062219Y0291669D01*
X0062134Y0291439D01*
X0062043Y0291211D01*
X0061946Y0290986D01*
X0061844Y0290762D01*
X0061736Y0290542D01*
X0061623Y0290324D01*
X0061505Y0290109D01*
X0061381Y0289897D01*
X0061253Y0289688D01*
X0061119Y0289482D01*
X0060980Y0289280D01*
X0060836Y0289081D01*
X0060687Y0288886D01*
X0060534Y0288694D01*
X0060376Y0288506D01*
X0060214Y0288322D01*
X0060046Y0288143D01*
X0059875Y0287967D01*
X0059699Y0287796D01*
X0059520Y0287628D01*
X0059336Y0287466D01*
X0059148Y0287308D01*
X0058956Y0287155D01*
X0058761Y0287006D01*
X0058562Y0286862D01*
X0058360Y0286723D01*
X0058154Y0286589D01*
X0057945Y0286461D01*
X0057733Y0286337D01*
X0057518Y0286219D01*
X0057300Y0286106D01*
X0057080Y0285998D01*
X0056856Y0285896D01*
X0056631Y0285799D01*
X0056403Y0285708D01*
X0056173Y0285623D01*
X0055941Y0285543D01*
X0055707Y0285469D01*
X0055471Y0285400D01*
X0055234Y0285338D01*
X0054995Y0285281D01*
X0054755Y0285230D01*
X0054514Y0285185D01*
X0054271Y0285146D01*
X0054028Y0285113D01*
X0053784Y0285086D01*
X0053540Y0285065D01*
X0053295Y0285050D01*
X0053049Y0285041D01*
X0052804Y0285038D01*
X0052559Y0285041D01*
X0052313Y0285050D01*
X0052068Y0285065D01*
X0051824Y0285086D01*
X0051580Y0285113D01*
X0051337Y0285146D01*
X0051094Y0285185D01*
X0050853Y0285230D01*
X0050613Y0285281D01*
X0050374Y0285338D01*
X0050137Y0285400D01*
X0049901Y0285469D01*
X0049667Y0285543D01*
X0049435Y0285623D01*
X0049205Y0285708D01*
X0048977Y0285799D01*
X0048752Y0285896D01*
X0048528Y0285998D01*
X0048308Y0286106D01*
X0048090Y0286219D01*
X0047875Y0286337D01*
X0047663Y0286461D01*
X0047454Y0286589D01*
X0047248Y0286723D01*
X0047046Y0286862D01*
X0046847Y0287006D01*
X0046652Y0287155D01*
X0046460Y0287308D01*
X0046272Y0287466D01*
X0046088Y0287628D01*
X0045909Y0287796D01*
X0045733Y0287967D01*
X0045562Y0288143D01*
X0045394Y0288322D01*
X0045232Y0288506D01*
X0045074Y0288694D01*
X0044921Y0288886D01*
X0044772Y0289081D01*
X0044628Y0289280D01*
X0044489Y0289482D01*
X0044355Y0289688D01*
X0044227Y0289897D01*
X0044103Y0290109D01*
X0043985Y0290324D01*
X0043872Y0290542D01*
X0043764Y0290762D01*
X0043662Y0290986D01*
X0043565Y0291211D01*
X0043474Y0291439D01*
X0043389Y0291669D01*
X0043309Y0291901D01*
X0043235Y0292135D01*
X0043166Y0292371D01*
X0043104Y0292608D01*
X0043047Y0292847D01*
X0042996Y0293087D01*
X0042951Y0293328D01*
X0042912Y0293571D01*
X0042879Y0293814D01*
X0042852Y0294058D01*
X0042831Y0294302D01*
X0042816Y0294547D01*
X0042807Y0294793D01*
X0042804Y0295038D01*
X0009000Y0191000D02*
X0009003Y0191245D01*
X0009012Y0191491D01*
X0009027Y0191736D01*
X0009048Y0191980D01*
X0009075Y0192224D01*
X0009108Y0192467D01*
X0009147Y0192710D01*
X0009192Y0192951D01*
X0009243Y0193191D01*
X0009300Y0193430D01*
X0009362Y0193667D01*
X0009431Y0193903D01*
X0009505Y0194137D01*
X0009585Y0194369D01*
X0009670Y0194599D01*
X0009761Y0194827D01*
X0009858Y0195052D01*
X0009960Y0195276D01*
X0010068Y0195496D01*
X0010181Y0195714D01*
X0010299Y0195929D01*
X0010423Y0196141D01*
X0010551Y0196350D01*
X0010685Y0196556D01*
X0010824Y0196758D01*
X0010968Y0196957D01*
X0011117Y0197152D01*
X0011270Y0197344D01*
X0011428Y0197532D01*
X0011590Y0197716D01*
X0011758Y0197895D01*
X0011929Y0198071D01*
X0012105Y0198242D01*
X0012284Y0198410D01*
X0012468Y0198572D01*
X0012656Y0198730D01*
X0012848Y0198883D01*
X0013043Y0199032D01*
X0013242Y0199176D01*
X0013444Y0199315D01*
X0013650Y0199449D01*
X0013859Y0199577D01*
X0014071Y0199701D01*
X0014286Y0199819D01*
X0014504Y0199932D01*
X0014724Y0200040D01*
X0014948Y0200142D01*
X0015173Y0200239D01*
X0015401Y0200330D01*
X0015631Y0200415D01*
X0015863Y0200495D01*
X0016097Y0200569D01*
X0016333Y0200638D01*
X0016570Y0200700D01*
X0016809Y0200757D01*
X0017049Y0200808D01*
X0017290Y0200853D01*
X0017533Y0200892D01*
X0017776Y0200925D01*
X0018020Y0200952D01*
X0018264Y0200973D01*
X0018509Y0200988D01*
X0018755Y0200997D01*
X0019000Y0201000D01*
X0019245Y0200997D01*
X0019491Y0200988D01*
X0019736Y0200973D01*
X0019980Y0200952D01*
X0020224Y0200925D01*
X0020467Y0200892D01*
X0020710Y0200853D01*
X0020951Y0200808D01*
X0021191Y0200757D01*
X0021430Y0200700D01*
X0021667Y0200638D01*
X0021903Y0200569D01*
X0022137Y0200495D01*
X0022369Y0200415D01*
X0022599Y0200330D01*
X0022827Y0200239D01*
X0023052Y0200142D01*
X0023276Y0200040D01*
X0023496Y0199932D01*
X0023714Y0199819D01*
X0023929Y0199701D01*
X0024141Y0199577D01*
X0024350Y0199449D01*
X0024556Y0199315D01*
X0024758Y0199176D01*
X0024957Y0199032D01*
X0025152Y0198883D01*
X0025344Y0198730D01*
X0025532Y0198572D01*
X0025716Y0198410D01*
X0025895Y0198242D01*
X0026071Y0198071D01*
X0026242Y0197895D01*
X0026410Y0197716D01*
X0026572Y0197532D01*
X0026730Y0197344D01*
X0026883Y0197152D01*
X0027032Y0196957D01*
X0027176Y0196758D01*
X0027315Y0196556D01*
X0027449Y0196350D01*
X0027577Y0196141D01*
X0027701Y0195929D01*
X0027819Y0195714D01*
X0027932Y0195496D01*
X0028040Y0195276D01*
X0028142Y0195052D01*
X0028239Y0194827D01*
X0028330Y0194599D01*
X0028415Y0194369D01*
X0028495Y0194137D01*
X0028569Y0193903D01*
X0028638Y0193667D01*
X0028700Y0193430D01*
X0028757Y0193191D01*
X0028808Y0192951D01*
X0028853Y0192710D01*
X0028892Y0192467D01*
X0028925Y0192224D01*
X0028952Y0191980D01*
X0028973Y0191736D01*
X0028988Y0191491D01*
X0028997Y0191245D01*
X0029000Y0191000D01*
X0028997Y0190755D01*
X0028988Y0190509D01*
X0028973Y0190264D01*
X0028952Y0190020D01*
X0028925Y0189776D01*
X0028892Y0189533D01*
X0028853Y0189290D01*
X0028808Y0189049D01*
X0028757Y0188809D01*
X0028700Y0188570D01*
X0028638Y0188333D01*
X0028569Y0188097D01*
X0028495Y0187863D01*
X0028415Y0187631D01*
X0028330Y0187401D01*
X0028239Y0187173D01*
X0028142Y0186948D01*
X0028040Y0186724D01*
X0027932Y0186504D01*
X0027819Y0186286D01*
X0027701Y0186071D01*
X0027577Y0185859D01*
X0027449Y0185650D01*
X0027315Y0185444D01*
X0027176Y0185242D01*
X0027032Y0185043D01*
X0026883Y0184848D01*
X0026730Y0184656D01*
X0026572Y0184468D01*
X0026410Y0184284D01*
X0026242Y0184105D01*
X0026071Y0183929D01*
X0025895Y0183758D01*
X0025716Y0183590D01*
X0025532Y0183428D01*
X0025344Y0183270D01*
X0025152Y0183117D01*
X0024957Y0182968D01*
X0024758Y0182824D01*
X0024556Y0182685D01*
X0024350Y0182551D01*
X0024141Y0182423D01*
X0023929Y0182299D01*
X0023714Y0182181D01*
X0023496Y0182068D01*
X0023276Y0181960D01*
X0023052Y0181858D01*
X0022827Y0181761D01*
X0022599Y0181670D01*
X0022369Y0181585D01*
X0022137Y0181505D01*
X0021903Y0181431D01*
X0021667Y0181362D01*
X0021430Y0181300D01*
X0021191Y0181243D01*
X0020951Y0181192D01*
X0020710Y0181147D01*
X0020467Y0181108D01*
X0020224Y0181075D01*
X0019980Y0181048D01*
X0019736Y0181027D01*
X0019491Y0181012D01*
X0019245Y0181003D01*
X0019000Y0181000D01*
X0018755Y0181003D01*
X0018509Y0181012D01*
X0018264Y0181027D01*
X0018020Y0181048D01*
X0017776Y0181075D01*
X0017533Y0181108D01*
X0017290Y0181147D01*
X0017049Y0181192D01*
X0016809Y0181243D01*
X0016570Y0181300D01*
X0016333Y0181362D01*
X0016097Y0181431D01*
X0015863Y0181505D01*
X0015631Y0181585D01*
X0015401Y0181670D01*
X0015173Y0181761D01*
X0014948Y0181858D01*
X0014724Y0181960D01*
X0014504Y0182068D01*
X0014286Y0182181D01*
X0014071Y0182299D01*
X0013859Y0182423D01*
X0013650Y0182551D01*
X0013444Y0182685D01*
X0013242Y0182824D01*
X0013043Y0182968D01*
X0012848Y0183117D01*
X0012656Y0183270D01*
X0012468Y0183428D01*
X0012284Y0183590D01*
X0012105Y0183758D01*
X0011929Y0183929D01*
X0011758Y0184105D01*
X0011590Y0184284D01*
X0011428Y0184468D01*
X0011270Y0184656D01*
X0011117Y0184848D01*
X0010968Y0185043D01*
X0010824Y0185242D01*
X0010685Y0185444D01*
X0010551Y0185650D01*
X0010423Y0185859D01*
X0010299Y0186071D01*
X0010181Y0186286D01*
X0010068Y0186504D01*
X0009960Y0186724D01*
X0009858Y0186948D01*
X0009761Y0187173D01*
X0009670Y0187401D01*
X0009585Y0187631D01*
X0009505Y0187863D01*
X0009431Y0188097D01*
X0009362Y0188333D01*
X0009300Y0188570D01*
X0009243Y0188809D01*
X0009192Y0189049D01*
X0009147Y0189290D01*
X0009108Y0189533D01*
X0009075Y0189776D01*
X0009048Y0190020D01*
X0009027Y0190264D01*
X0009012Y0190509D01*
X0009003Y0190755D01*
X0009000Y0191000D01*
X0042804Y0086962D02*
X0042807Y0087207D01*
X0042816Y0087453D01*
X0042831Y0087698D01*
X0042852Y0087942D01*
X0042879Y0088186D01*
X0042912Y0088429D01*
X0042951Y0088672D01*
X0042996Y0088913D01*
X0043047Y0089153D01*
X0043104Y0089392D01*
X0043166Y0089629D01*
X0043235Y0089865D01*
X0043309Y0090099D01*
X0043389Y0090331D01*
X0043474Y0090561D01*
X0043565Y0090789D01*
X0043662Y0091014D01*
X0043764Y0091238D01*
X0043872Y0091458D01*
X0043985Y0091676D01*
X0044103Y0091891D01*
X0044227Y0092103D01*
X0044355Y0092312D01*
X0044489Y0092518D01*
X0044628Y0092720D01*
X0044772Y0092919D01*
X0044921Y0093114D01*
X0045074Y0093306D01*
X0045232Y0093494D01*
X0045394Y0093678D01*
X0045562Y0093857D01*
X0045733Y0094033D01*
X0045909Y0094204D01*
X0046088Y0094372D01*
X0046272Y0094534D01*
X0046460Y0094692D01*
X0046652Y0094845D01*
X0046847Y0094994D01*
X0047046Y0095138D01*
X0047248Y0095277D01*
X0047454Y0095411D01*
X0047663Y0095539D01*
X0047875Y0095663D01*
X0048090Y0095781D01*
X0048308Y0095894D01*
X0048528Y0096002D01*
X0048752Y0096104D01*
X0048977Y0096201D01*
X0049205Y0096292D01*
X0049435Y0096377D01*
X0049667Y0096457D01*
X0049901Y0096531D01*
X0050137Y0096600D01*
X0050374Y0096662D01*
X0050613Y0096719D01*
X0050853Y0096770D01*
X0051094Y0096815D01*
X0051337Y0096854D01*
X0051580Y0096887D01*
X0051824Y0096914D01*
X0052068Y0096935D01*
X0052313Y0096950D01*
X0052559Y0096959D01*
X0052804Y0096962D01*
X0053049Y0096959D01*
X0053295Y0096950D01*
X0053540Y0096935D01*
X0053784Y0096914D01*
X0054028Y0096887D01*
X0054271Y0096854D01*
X0054514Y0096815D01*
X0054755Y0096770D01*
X0054995Y0096719D01*
X0055234Y0096662D01*
X0055471Y0096600D01*
X0055707Y0096531D01*
X0055941Y0096457D01*
X0056173Y0096377D01*
X0056403Y0096292D01*
X0056631Y0096201D01*
X0056856Y0096104D01*
X0057080Y0096002D01*
X0057300Y0095894D01*
X0057518Y0095781D01*
X0057733Y0095663D01*
X0057945Y0095539D01*
X0058154Y0095411D01*
X0058360Y0095277D01*
X0058562Y0095138D01*
X0058761Y0094994D01*
X0058956Y0094845D01*
X0059148Y0094692D01*
X0059336Y0094534D01*
X0059520Y0094372D01*
X0059699Y0094204D01*
X0059875Y0094033D01*
X0060046Y0093857D01*
X0060214Y0093678D01*
X0060376Y0093494D01*
X0060534Y0093306D01*
X0060687Y0093114D01*
X0060836Y0092919D01*
X0060980Y0092720D01*
X0061119Y0092518D01*
X0061253Y0092312D01*
X0061381Y0092103D01*
X0061505Y0091891D01*
X0061623Y0091676D01*
X0061736Y0091458D01*
X0061844Y0091238D01*
X0061946Y0091014D01*
X0062043Y0090789D01*
X0062134Y0090561D01*
X0062219Y0090331D01*
X0062299Y0090099D01*
X0062373Y0089865D01*
X0062442Y0089629D01*
X0062504Y0089392D01*
X0062561Y0089153D01*
X0062612Y0088913D01*
X0062657Y0088672D01*
X0062696Y0088429D01*
X0062729Y0088186D01*
X0062756Y0087942D01*
X0062777Y0087698D01*
X0062792Y0087453D01*
X0062801Y0087207D01*
X0062804Y0086962D01*
X0062801Y0086717D01*
X0062792Y0086471D01*
X0062777Y0086226D01*
X0062756Y0085982D01*
X0062729Y0085738D01*
X0062696Y0085495D01*
X0062657Y0085252D01*
X0062612Y0085011D01*
X0062561Y0084771D01*
X0062504Y0084532D01*
X0062442Y0084295D01*
X0062373Y0084059D01*
X0062299Y0083825D01*
X0062219Y0083593D01*
X0062134Y0083363D01*
X0062043Y0083135D01*
X0061946Y0082910D01*
X0061844Y0082686D01*
X0061736Y0082466D01*
X0061623Y0082248D01*
X0061505Y0082033D01*
X0061381Y0081821D01*
X0061253Y0081612D01*
X0061119Y0081406D01*
X0060980Y0081204D01*
X0060836Y0081005D01*
X0060687Y0080810D01*
X0060534Y0080618D01*
X0060376Y0080430D01*
X0060214Y0080246D01*
X0060046Y0080067D01*
X0059875Y0079891D01*
X0059699Y0079720D01*
X0059520Y0079552D01*
X0059336Y0079390D01*
X0059148Y0079232D01*
X0058956Y0079079D01*
X0058761Y0078930D01*
X0058562Y0078786D01*
X0058360Y0078647D01*
X0058154Y0078513D01*
X0057945Y0078385D01*
X0057733Y0078261D01*
X0057518Y0078143D01*
X0057300Y0078030D01*
X0057080Y0077922D01*
X0056856Y0077820D01*
X0056631Y0077723D01*
X0056403Y0077632D01*
X0056173Y0077547D01*
X0055941Y0077467D01*
X0055707Y0077393D01*
X0055471Y0077324D01*
X0055234Y0077262D01*
X0054995Y0077205D01*
X0054755Y0077154D01*
X0054514Y0077109D01*
X0054271Y0077070D01*
X0054028Y0077037D01*
X0053784Y0077010D01*
X0053540Y0076989D01*
X0053295Y0076974D01*
X0053049Y0076965D01*
X0052804Y0076962D01*
X0052559Y0076965D01*
X0052313Y0076974D01*
X0052068Y0076989D01*
X0051824Y0077010D01*
X0051580Y0077037D01*
X0051337Y0077070D01*
X0051094Y0077109D01*
X0050853Y0077154D01*
X0050613Y0077205D01*
X0050374Y0077262D01*
X0050137Y0077324D01*
X0049901Y0077393D01*
X0049667Y0077467D01*
X0049435Y0077547D01*
X0049205Y0077632D01*
X0048977Y0077723D01*
X0048752Y0077820D01*
X0048528Y0077922D01*
X0048308Y0078030D01*
X0048090Y0078143D01*
X0047875Y0078261D01*
X0047663Y0078385D01*
X0047454Y0078513D01*
X0047248Y0078647D01*
X0047046Y0078786D01*
X0046847Y0078930D01*
X0046652Y0079079D01*
X0046460Y0079232D01*
X0046272Y0079390D01*
X0046088Y0079552D01*
X0045909Y0079720D01*
X0045733Y0079891D01*
X0045562Y0080067D01*
X0045394Y0080246D01*
X0045232Y0080430D01*
X0045074Y0080618D01*
X0044921Y0080810D01*
X0044772Y0081005D01*
X0044628Y0081204D01*
X0044489Y0081406D01*
X0044355Y0081612D01*
X0044227Y0081821D01*
X0044103Y0082033D01*
X0043985Y0082248D01*
X0043872Y0082466D01*
X0043764Y0082686D01*
X0043662Y0082910D01*
X0043565Y0083135D01*
X0043474Y0083363D01*
X0043389Y0083593D01*
X0043309Y0083825D01*
X0043235Y0084059D01*
X0043166Y0084295D01*
X0043104Y0084532D01*
X0043047Y0084771D01*
X0042996Y0085011D01*
X0042951Y0085252D01*
X0042912Y0085495D01*
X0042879Y0085738D01*
X0042852Y0085982D01*
X0042831Y0086226D01*
X0042816Y0086471D01*
X0042807Y0086717D01*
X0042804Y0086962D01*
X0131304Y0022663D02*
X0131307Y0022908D01*
X0131316Y0023154D01*
X0131331Y0023399D01*
X0131352Y0023643D01*
X0131379Y0023887D01*
X0131412Y0024130D01*
X0131451Y0024373D01*
X0131496Y0024614D01*
X0131547Y0024854D01*
X0131604Y0025093D01*
X0131666Y0025330D01*
X0131735Y0025566D01*
X0131809Y0025800D01*
X0131889Y0026032D01*
X0131974Y0026262D01*
X0132065Y0026490D01*
X0132162Y0026715D01*
X0132264Y0026939D01*
X0132372Y0027159D01*
X0132485Y0027377D01*
X0132603Y0027592D01*
X0132727Y0027804D01*
X0132855Y0028013D01*
X0132989Y0028219D01*
X0133128Y0028421D01*
X0133272Y0028620D01*
X0133421Y0028815D01*
X0133574Y0029007D01*
X0133732Y0029195D01*
X0133894Y0029379D01*
X0134062Y0029558D01*
X0134233Y0029734D01*
X0134409Y0029905D01*
X0134588Y0030073D01*
X0134772Y0030235D01*
X0134960Y0030393D01*
X0135152Y0030546D01*
X0135347Y0030695D01*
X0135546Y0030839D01*
X0135748Y0030978D01*
X0135954Y0031112D01*
X0136163Y0031240D01*
X0136375Y0031364D01*
X0136590Y0031482D01*
X0136808Y0031595D01*
X0137028Y0031703D01*
X0137252Y0031805D01*
X0137477Y0031902D01*
X0137705Y0031993D01*
X0137935Y0032078D01*
X0138167Y0032158D01*
X0138401Y0032232D01*
X0138637Y0032301D01*
X0138874Y0032363D01*
X0139113Y0032420D01*
X0139353Y0032471D01*
X0139594Y0032516D01*
X0139837Y0032555D01*
X0140080Y0032588D01*
X0140324Y0032615D01*
X0140568Y0032636D01*
X0140813Y0032651D01*
X0141059Y0032660D01*
X0141304Y0032663D01*
X0141549Y0032660D01*
X0141795Y0032651D01*
X0142040Y0032636D01*
X0142284Y0032615D01*
X0142528Y0032588D01*
X0142771Y0032555D01*
X0143014Y0032516D01*
X0143255Y0032471D01*
X0143495Y0032420D01*
X0143734Y0032363D01*
X0143971Y0032301D01*
X0144207Y0032232D01*
X0144441Y0032158D01*
X0144673Y0032078D01*
X0144903Y0031993D01*
X0145131Y0031902D01*
X0145356Y0031805D01*
X0145580Y0031703D01*
X0145800Y0031595D01*
X0146018Y0031482D01*
X0146233Y0031364D01*
X0146445Y0031240D01*
X0146654Y0031112D01*
X0146860Y0030978D01*
X0147062Y0030839D01*
X0147261Y0030695D01*
X0147456Y0030546D01*
X0147648Y0030393D01*
X0147836Y0030235D01*
X0148020Y0030073D01*
X0148199Y0029905D01*
X0148375Y0029734D01*
X0148546Y0029558D01*
X0148714Y0029379D01*
X0148876Y0029195D01*
X0149034Y0029007D01*
X0149187Y0028815D01*
X0149336Y0028620D01*
X0149480Y0028421D01*
X0149619Y0028219D01*
X0149753Y0028013D01*
X0149881Y0027804D01*
X0150005Y0027592D01*
X0150123Y0027377D01*
X0150236Y0027159D01*
X0150344Y0026939D01*
X0150446Y0026715D01*
X0150543Y0026490D01*
X0150634Y0026262D01*
X0150719Y0026032D01*
X0150799Y0025800D01*
X0150873Y0025566D01*
X0150942Y0025330D01*
X0151004Y0025093D01*
X0151061Y0024854D01*
X0151112Y0024614D01*
X0151157Y0024373D01*
X0151196Y0024130D01*
X0151229Y0023887D01*
X0151256Y0023643D01*
X0151277Y0023399D01*
X0151292Y0023154D01*
X0151301Y0022908D01*
X0151304Y0022663D01*
X0151301Y0022418D01*
X0151292Y0022172D01*
X0151277Y0021927D01*
X0151256Y0021683D01*
X0151229Y0021439D01*
X0151196Y0021196D01*
X0151157Y0020953D01*
X0151112Y0020712D01*
X0151061Y0020472D01*
X0151004Y0020233D01*
X0150942Y0019996D01*
X0150873Y0019760D01*
X0150799Y0019526D01*
X0150719Y0019294D01*
X0150634Y0019064D01*
X0150543Y0018836D01*
X0150446Y0018611D01*
X0150344Y0018387D01*
X0150236Y0018167D01*
X0150123Y0017949D01*
X0150005Y0017734D01*
X0149881Y0017522D01*
X0149753Y0017313D01*
X0149619Y0017107D01*
X0149480Y0016905D01*
X0149336Y0016706D01*
X0149187Y0016511D01*
X0149034Y0016319D01*
X0148876Y0016131D01*
X0148714Y0015947D01*
X0148546Y0015768D01*
X0148375Y0015592D01*
X0148199Y0015421D01*
X0148020Y0015253D01*
X0147836Y0015091D01*
X0147648Y0014933D01*
X0147456Y0014780D01*
X0147261Y0014631D01*
X0147062Y0014487D01*
X0146860Y0014348D01*
X0146654Y0014214D01*
X0146445Y0014086D01*
X0146233Y0013962D01*
X0146018Y0013844D01*
X0145800Y0013731D01*
X0145580Y0013623D01*
X0145356Y0013521D01*
X0145131Y0013424D01*
X0144903Y0013333D01*
X0144673Y0013248D01*
X0144441Y0013168D01*
X0144207Y0013094D01*
X0143971Y0013025D01*
X0143734Y0012963D01*
X0143495Y0012906D01*
X0143255Y0012855D01*
X0143014Y0012810D01*
X0142771Y0012771D01*
X0142528Y0012738D01*
X0142284Y0012711D01*
X0142040Y0012690D01*
X0141795Y0012675D01*
X0141549Y0012666D01*
X0141304Y0012663D01*
X0141059Y0012666D01*
X0140813Y0012675D01*
X0140568Y0012690D01*
X0140324Y0012711D01*
X0140080Y0012738D01*
X0139837Y0012771D01*
X0139594Y0012810D01*
X0139353Y0012855D01*
X0139113Y0012906D01*
X0138874Y0012963D01*
X0138637Y0013025D01*
X0138401Y0013094D01*
X0138167Y0013168D01*
X0137935Y0013248D01*
X0137705Y0013333D01*
X0137477Y0013424D01*
X0137252Y0013521D01*
X0137028Y0013623D01*
X0136808Y0013731D01*
X0136590Y0013844D01*
X0136375Y0013962D01*
X0136163Y0014086D01*
X0135954Y0014214D01*
X0135748Y0014348D01*
X0135546Y0014487D01*
X0135347Y0014631D01*
X0135152Y0014780D01*
X0134960Y0014933D01*
X0134772Y0015091D01*
X0134588Y0015253D01*
X0134409Y0015421D01*
X0134233Y0015592D01*
X0134062Y0015768D01*
X0133894Y0015947D01*
X0133732Y0016131D01*
X0133574Y0016319D01*
X0133421Y0016511D01*
X0133272Y0016706D01*
X0133128Y0016905D01*
X0132989Y0017107D01*
X0132855Y0017313D01*
X0132727Y0017522D01*
X0132603Y0017734D01*
X0132485Y0017949D01*
X0132372Y0018167D01*
X0132264Y0018387D01*
X0132162Y0018611D01*
X0132065Y0018836D01*
X0131974Y0019064D01*
X0131889Y0019294D01*
X0131809Y0019526D01*
X0131735Y0019760D01*
X0131666Y0019996D01*
X0131604Y0020233D01*
X0131547Y0020472D01*
X0131496Y0020712D01*
X0131451Y0020953D01*
X0131412Y0021196D01*
X0131379Y0021439D01*
X0131352Y0021683D01*
X0131331Y0021927D01*
X0131316Y0022172D01*
X0131307Y0022418D01*
X0131304Y0022663D01*
X0240696Y0022663D02*
X0240699Y0022908D01*
X0240708Y0023154D01*
X0240723Y0023399D01*
X0240744Y0023643D01*
X0240771Y0023887D01*
X0240804Y0024130D01*
X0240843Y0024373D01*
X0240888Y0024614D01*
X0240939Y0024854D01*
X0240996Y0025093D01*
X0241058Y0025330D01*
X0241127Y0025566D01*
X0241201Y0025800D01*
X0241281Y0026032D01*
X0241366Y0026262D01*
X0241457Y0026490D01*
X0241554Y0026715D01*
X0241656Y0026939D01*
X0241764Y0027159D01*
X0241877Y0027377D01*
X0241995Y0027592D01*
X0242119Y0027804D01*
X0242247Y0028013D01*
X0242381Y0028219D01*
X0242520Y0028421D01*
X0242664Y0028620D01*
X0242813Y0028815D01*
X0242966Y0029007D01*
X0243124Y0029195D01*
X0243286Y0029379D01*
X0243454Y0029558D01*
X0243625Y0029734D01*
X0243801Y0029905D01*
X0243980Y0030073D01*
X0244164Y0030235D01*
X0244352Y0030393D01*
X0244544Y0030546D01*
X0244739Y0030695D01*
X0244938Y0030839D01*
X0245140Y0030978D01*
X0245346Y0031112D01*
X0245555Y0031240D01*
X0245767Y0031364D01*
X0245982Y0031482D01*
X0246200Y0031595D01*
X0246420Y0031703D01*
X0246644Y0031805D01*
X0246869Y0031902D01*
X0247097Y0031993D01*
X0247327Y0032078D01*
X0247559Y0032158D01*
X0247793Y0032232D01*
X0248029Y0032301D01*
X0248266Y0032363D01*
X0248505Y0032420D01*
X0248745Y0032471D01*
X0248986Y0032516D01*
X0249229Y0032555D01*
X0249472Y0032588D01*
X0249716Y0032615D01*
X0249960Y0032636D01*
X0250205Y0032651D01*
X0250451Y0032660D01*
X0250696Y0032663D01*
X0250941Y0032660D01*
X0251187Y0032651D01*
X0251432Y0032636D01*
X0251676Y0032615D01*
X0251920Y0032588D01*
X0252163Y0032555D01*
X0252406Y0032516D01*
X0252647Y0032471D01*
X0252887Y0032420D01*
X0253126Y0032363D01*
X0253363Y0032301D01*
X0253599Y0032232D01*
X0253833Y0032158D01*
X0254065Y0032078D01*
X0254295Y0031993D01*
X0254523Y0031902D01*
X0254748Y0031805D01*
X0254972Y0031703D01*
X0255192Y0031595D01*
X0255410Y0031482D01*
X0255625Y0031364D01*
X0255837Y0031240D01*
X0256046Y0031112D01*
X0256252Y0030978D01*
X0256454Y0030839D01*
X0256653Y0030695D01*
X0256848Y0030546D01*
X0257040Y0030393D01*
X0257228Y0030235D01*
X0257412Y0030073D01*
X0257591Y0029905D01*
X0257767Y0029734D01*
X0257938Y0029558D01*
X0258106Y0029379D01*
X0258268Y0029195D01*
X0258426Y0029007D01*
X0258579Y0028815D01*
X0258728Y0028620D01*
X0258872Y0028421D01*
X0259011Y0028219D01*
X0259145Y0028013D01*
X0259273Y0027804D01*
X0259397Y0027592D01*
X0259515Y0027377D01*
X0259628Y0027159D01*
X0259736Y0026939D01*
X0259838Y0026715D01*
X0259935Y0026490D01*
X0260026Y0026262D01*
X0260111Y0026032D01*
X0260191Y0025800D01*
X0260265Y0025566D01*
X0260334Y0025330D01*
X0260396Y0025093D01*
X0260453Y0024854D01*
X0260504Y0024614D01*
X0260549Y0024373D01*
X0260588Y0024130D01*
X0260621Y0023887D01*
X0260648Y0023643D01*
X0260669Y0023399D01*
X0260684Y0023154D01*
X0260693Y0022908D01*
X0260696Y0022663D01*
X0260693Y0022418D01*
X0260684Y0022172D01*
X0260669Y0021927D01*
X0260648Y0021683D01*
X0260621Y0021439D01*
X0260588Y0021196D01*
X0260549Y0020953D01*
X0260504Y0020712D01*
X0260453Y0020472D01*
X0260396Y0020233D01*
X0260334Y0019996D01*
X0260265Y0019760D01*
X0260191Y0019526D01*
X0260111Y0019294D01*
X0260026Y0019064D01*
X0259935Y0018836D01*
X0259838Y0018611D01*
X0259736Y0018387D01*
X0259628Y0018167D01*
X0259515Y0017949D01*
X0259397Y0017734D01*
X0259273Y0017522D01*
X0259145Y0017313D01*
X0259011Y0017107D01*
X0258872Y0016905D01*
X0258728Y0016706D01*
X0258579Y0016511D01*
X0258426Y0016319D01*
X0258268Y0016131D01*
X0258106Y0015947D01*
X0257938Y0015768D01*
X0257767Y0015592D01*
X0257591Y0015421D01*
X0257412Y0015253D01*
X0257228Y0015091D01*
X0257040Y0014933D01*
X0256848Y0014780D01*
X0256653Y0014631D01*
X0256454Y0014487D01*
X0256252Y0014348D01*
X0256046Y0014214D01*
X0255837Y0014086D01*
X0255625Y0013962D01*
X0255410Y0013844D01*
X0255192Y0013731D01*
X0254972Y0013623D01*
X0254748Y0013521D01*
X0254523Y0013424D01*
X0254295Y0013333D01*
X0254065Y0013248D01*
X0253833Y0013168D01*
X0253599Y0013094D01*
X0253363Y0013025D01*
X0253126Y0012963D01*
X0252887Y0012906D01*
X0252647Y0012855D01*
X0252406Y0012810D01*
X0252163Y0012771D01*
X0251920Y0012738D01*
X0251676Y0012711D01*
X0251432Y0012690D01*
X0251187Y0012675D01*
X0250941Y0012666D01*
X0250696Y0012663D01*
X0250451Y0012666D01*
X0250205Y0012675D01*
X0249960Y0012690D01*
X0249716Y0012711D01*
X0249472Y0012738D01*
X0249229Y0012771D01*
X0248986Y0012810D01*
X0248745Y0012855D01*
X0248505Y0012906D01*
X0248266Y0012963D01*
X0248029Y0013025D01*
X0247793Y0013094D01*
X0247559Y0013168D01*
X0247327Y0013248D01*
X0247097Y0013333D01*
X0246869Y0013424D01*
X0246644Y0013521D01*
X0246420Y0013623D01*
X0246200Y0013731D01*
X0245982Y0013844D01*
X0245767Y0013962D01*
X0245555Y0014086D01*
X0245346Y0014214D01*
X0245140Y0014348D01*
X0244938Y0014487D01*
X0244739Y0014631D01*
X0244544Y0014780D01*
X0244352Y0014933D01*
X0244164Y0015091D01*
X0243980Y0015253D01*
X0243801Y0015421D01*
X0243625Y0015592D01*
X0243454Y0015768D01*
X0243286Y0015947D01*
X0243124Y0016131D01*
X0242966Y0016319D01*
X0242813Y0016511D01*
X0242664Y0016706D01*
X0242520Y0016905D01*
X0242381Y0017107D01*
X0242247Y0017313D01*
X0242119Y0017522D01*
X0241995Y0017734D01*
X0241877Y0017949D01*
X0241764Y0018167D01*
X0241656Y0018387D01*
X0241554Y0018611D01*
X0241457Y0018836D01*
X0241366Y0019064D01*
X0241281Y0019294D01*
X0241201Y0019526D01*
X0241127Y0019760D01*
X0241058Y0019996D01*
X0240996Y0020233D01*
X0240939Y0020472D01*
X0240888Y0020712D01*
X0240843Y0020953D01*
X0240804Y0021196D01*
X0240771Y0021439D01*
X0240744Y0021683D01*
X0240723Y0021927D01*
X0240708Y0022172D01*
X0240699Y0022418D01*
X0240696Y0022663D01*
X0329196Y0086962D02*
X0329199Y0087207D01*
X0329208Y0087453D01*
X0329223Y0087698D01*
X0329244Y0087942D01*
X0329271Y0088186D01*
X0329304Y0088429D01*
X0329343Y0088672D01*
X0329388Y0088913D01*
X0329439Y0089153D01*
X0329496Y0089392D01*
X0329558Y0089629D01*
X0329627Y0089865D01*
X0329701Y0090099D01*
X0329781Y0090331D01*
X0329866Y0090561D01*
X0329957Y0090789D01*
X0330054Y0091014D01*
X0330156Y0091238D01*
X0330264Y0091458D01*
X0330377Y0091676D01*
X0330495Y0091891D01*
X0330619Y0092103D01*
X0330747Y0092312D01*
X0330881Y0092518D01*
X0331020Y0092720D01*
X0331164Y0092919D01*
X0331313Y0093114D01*
X0331466Y0093306D01*
X0331624Y0093494D01*
X0331786Y0093678D01*
X0331954Y0093857D01*
X0332125Y0094033D01*
X0332301Y0094204D01*
X0332480Y0094372D01*
X0332664Y0094534D01*
X0332852Y0094692D01*
X0333044Y0094845D01*
X0333239Y0094994D01*
X0333438Y0095138D01*
X0333640Y0095277D01*
X0333846Y0095411D01*
X0334055Y0095539D01*
X0334267Y0095663D01*
X0334482Y0095781D01*
X0334700Y0095894D01*
X0334920Y0096002D01*
X0335144Y0096104D01*
X0335369Y0096201D01*
X0335597Y0096292D01*
X0335827Y0096377D01*
X0336059Y0096457D01*
X0336293Y0096531D01*
X0336529Y0096600D01*
X0336766Y0096662D01*
X0337005Y0096719D01*
X0337245Y0096770D01*
X0337486Y0096815D01*
X0337729Y0096854D01*
X0337972Y0096887D01*
X0338216Y0096914D01*
X0338460Y0096935D01*
X0338705Y0096950D01*
X0338951Y0096959D01*
X0339196Y0096962D01*
X0339441Y0096959D01*
X0339687Y0096950D01*
X0339932Y0096935D01*
X0340176Y0096914D01*
X0340420Y0096887D01*
X0340663Y0096854D01*
X0340906Y0096815D01*
X0341147Y0096770D01*
X0341387Y0096719D01*
X0341626Y0096662D01*
X0341863Y0096600D01*
X0342099Y0096531D01*
X0342333Y0096457D01*
X0342565Y0096377D01*
X0342795Y0096292D01*
X0343023Y0096201D01*
X0343248Y0096104D01*
X0343472Y0096002D01*
X0343692Y0095894D01*
X0343910Y0095781D01*
X0344125Y0095663D01*
X0344337Y0095539D01*
X0344546Y0095411D01*
X0344752Y0095277D01*
X0344954Y0095138D01*
X0345153Y0094994D01*
X0345348Y0094845D01*
X0345540Y0094692D01*
X0345728Y0094534D01*
X0345912Y0094372D01*
X0346091Y0094204D01*
X0346267Y0094033D01*
X0346438Y0093857D01*
X0346606Y0093678D01*
X0346768Y0093494D01*
X0346926Y0093306D01*
X0347079Y0093114D01*
X0347228Y0092919D01*
X0347372Y0092720D01*
X0347511Y0092518D01*
X0347645Y0092312D01*
X0347773Y0092103D01*
X0347897Y0091891D01*
X0348015Y0091676D01*
X0348128Y0091458D01*
X0348236Y0091238D01*
X0348338Y0091014D01*
X0348435Y0090789D01*
X0348526Y0090561D01*
X0348611Y0090331D01*
X0348691Y0090099D01*
X0348765Y0089865D01*
X0348834Y0089629D01*
X0348896Y0089392D01*
X0348953Y0089153D01*
X0349004Y0088913D01*
X0349049Y0088672D01*
X0349088Y0088429D01*
X0349121Y0088186D01*
X0349148Y0087942D01*
X0349169Y0087698D01*
X0349184Y0087453D01*
X0349193Y0087207D01*
X0349196Y0086962D01*
X0349193Y0086717D01*
X0349184Y0086471D01*
X0349169Y0086226D01*
X0349148Y0085982D01*
X0349121Y0085738D01*
X0349088Y0085495D01*
X0349049Y0085252D01*
X0349004Y0085011D01*
X0348953Y0084771D01*
X0348896Y0084532D01*
X0348834Y0084295D01*
X0348765Y0084059D01*
X0348691Y0083825D01*
X0348611Y0083593D01*
X0348526Y0083363D01*
X0348435Y0083135D01*
X0348338Y0082910D01*
X0348236Y0082686D01*
X0348128Y0082466D01*
X0348015Y0082248D01*
X0347897Y0082033D01*
X0347773Y0081821D01*
X0347645Y0081612D01*
X0347511Y0081406D01*
X0347372Y0081204D01*
X0347228Y0081005D01*
X0347079Y0080810D01*
X0346926Y0080618D01*
X0346768Y0080430D01*
X0346606Y0080246D01*
X0346438Y0080067D01*
X0346267Y0079891D01*
X0346091Y0079720D01*
X0345912Y0079552D01*
X0345728Y0079390D01*
X0345540Y0079232D01*
X0345348Y0079079D01*
X0345153Y0078930D01*
X0344954Y0078786D01*
X0344752Y0078647D01*
X0344546Y0078513D01*
X0344337Y0078385D01*
X0344125Y0078261D01*
X0343910Y0078143D01*
X0343692Y0078030D01*
X0343472Y0077922D01*
X0343248Y0077820D01*
X0343023Y0077723D01*
X0342795Y0077632D01*
X0342565Y0077547D01*
X0342333Y0077467D01*
X0342099Y0077393D01*
X0341863Y0077324D01*
X0341626Y0077262D01*
X0341387Y0077205D01*
X0341147Y0077154D01*
X0340906Y0077109D01*
X0340663Y0077070D01*
X0340420Y0077037D01*
X0340176Y0077010D01*
X0339932Y0076989D01*
X0339687Y0076974D01*
X0339441Y0076965D01*
X0339196Y0076962D01*
X0338951Y0076965D01*
X0338705Y0076974D01*
X0338460Y0076989D01*
X0338216Y0077010D01*
X0337972Y0077037D01*
X0337729Y0077070D01*
X0337486Y0077109D01*
X0337245Y0077154D01*
X0337005Y0077205D01*
X0336766Y0077262D01*
X0336529Y0077324D01*
X0336293Y0077393D01*
X0336059Y0077467D01*
X0335827Y0077547D01*
X0335597Y0077632D01*
X0335369Y0077723D01*
X0335144Y0077820D01*
X0334920Y0077922D01*
X0334700Y0078030D01*
X0334482Y0078143D01*
X0334267Y0078261D01*
X0334055Y0078385D01*
X0333846Y0078513D01*
X0333640Y0078647D01*
X0333438Y0078786D01*
X0333239Y0078930D01*
X0333044Y0079079D01*
X0332852Y0079232D01*
X0332664Y0079390D01*
X0332480Y0079552D01*
X0332301Y0079720D01*
X0332125Y0079891D01*
X0331954Y0080067D01*
X0331786Y0080246D01*
X0331624Y0080430D01*
X0331466Y0080618D01*
X0331313Y0080810D01*
X0331164Y0081005D01*
X0331020Y0081204D01*
X0330881Y0081406D01*
X0330747Y0081612D01*
X0330619Y0081821D01*
X0330495Y0082033D01*
X0330377Y0082248D01*
X0330264Y0082466D01*
X0330156Y0082686D01*
X0330054Y0082910D01*
X0329957Y0083135D01*
X0329866Y0083363D01*
X0329781Y0083593D01*
X0329701Y0083825D01*
X0329627Y0084059D01*
X0329558Y0084295D01*
X0329496Y0084532D01*
X0329439Y0084771D01*
X0329388Y0085011D01*
X0329343Y0085252D01*
X0329304Y0085495D01*
X0329271Y0085738D01*
X0329244Y0085982D01*
X0329223Y0086226D01*
X0329208Y0086471D01*
X0329199Y0086717D01*
X0329196Y0086962D01*
X0363000Y0191000D02*
X0363003Y0191245D01*
X0363012Y0191491D01*
X0363027Y0191736D01*
X0363048Y0191980D01*
X0363075Y0192224D01*
X0363108Y0192467D01*
X0363147Y0192710D01*
X0363192Y0192951D01*
X0363243Y0193191D01*
X0363300Y0193430D01*
X0363362Y0193667D01*
X0363431Y0193903D01*
X0363505Y0194137D01*
X0363585Y0194369D01*
X0363670Y0194599D01*
X0363761Y0194827D01*
X0363858Y0195052D01*
X0363960Y0195276D01*
X0364068Y0195496D01*
X0364181Y0195714D01*
X0364299Y0195929D01*
X0364423Y0196141D01*
X0364551Y0196350D01*
X0364685Y0196556D01*
X0364824Y0196758D01*
X0364968Y0196957D01*
X0365117Y0197152D01*
X0365270Y0197344D01*
X0365428Y0197532D01*
X0365590Y0197716D01*
X0365758Y0197895D01*
X0365929Y0198071D01*
X0366105Y0198242D01*
X0366284Y0198410D01*
X0366468Y0198572D01*
X0366656Y0198730D01*
X0366848Y0198883D01*
X0367043Y0199032D01*
X0367242Y0199176D01*
X0367444Y0199315D01*
X0367650Y0199449D01*
X0367859Y0199577D01*
X0368071Y0199701D01*
X0368286Y0199819D01*
X0368504Y0199932D01*
X0368724Y0200040D01*
X0368948Y0200142D01*
X0369173Y0200239D01*
X0369401Y0200330D01*
X0369631Y0200415D01*
X0369863Y0200495D01*
X0370097Y0200569D01*
X0370333Y0200638D01*
X0370570Y0200700D01*
X0370809Y0200757D01*
X0371049Y0200808D01*
X0371290Y0200853D01*
X0371533Y0200892D01*
X0371776Y0200925D01*
X0372020Y0200952D01*
X0372264Y0200973D01*
X0372509Y0200988D01*
X0372755Y0200997D01*
X0373000Y0201000D01*
X0373245Y0200997D01*
X0373491Y0200988D01*
X0373736Y0200973D01*
X0373980Y0200952D01*
X0374224Y0200925D01*
X0374467Y0200892D01*
X0374710Y0200853D01*
X0374951Y0200808D01*
X0375191Y0200757D01*
X0375430Y0200700D01*
X0375667Y0200638D01*
X0375903Y0200569D01*
X0376137Y0200495D01*
X0376369Y0200415D01*
X0376599Y0200330D01*
X0376827Y0200239D01*
X0377052Y0200142D01*
X0377276Y0200040D01*
X0377496Y0199932D01*
X0377714Y0199819D01*
X0377929Y0199701D01*
X0378141Y0199577D01*
X0378350Y0199449D01*
X0378556Y0199315D01*
X0378758Y0199176D01*
X0378957Y0199032D01*
X0379152Y0198883D01*
X0379344Y0198730D01*
X0379532Y0198572D01*
X0379716Y0198410D01*
X0379895Y0198242D01*
X0380071Y0198071D01*
X0380242Y0197895D01*
X0380410Y0197716D01*
X0380572Y0197532D01*
X0380730Y0197344D01*
X0380883Y0197152D01*
X0381032Y0196957D01*
X0381176Y0196758D01*
X0381315Y0196556D01*
X0381449Y0196350D01*
X0381577Y0196141D01*
X0381701Y0195929D01*
X0381819Y0195714D01*
X0381932Y0195496D01*
X0382040Y0195276D01*
X0382142Y0195052D01*
X0382239Y0194827D01*
X0382330Y0194599D01*
X0382415Y0194369D01*
X0382495Y0194137D01*
X0382569Y0193903D01*
X0382638Y0193667D01*
X0382700Y0193430D01*
X0382757Y0193191D01*
X0382808Y0192951D01*
X0382853Y0192710D01*
X0382892Y0192467D01*
X0382925Y0192224D01*
X0382952Y0191980D01*
X0382973Y0191736D01*
X0382988Y0191491D01*
X0382997Y0191245D01*
X0383000Y0191000D01*
X0382997Y0190755D01*
X0382988Y0190509D01*
X0382973Y0190264D01*
X0382952Y0190020D01*
X0382925Y0189776D01*
X0382892Y0189533D01*
X0382853Y0189290D01*
X0382808Y0189049D01*
X0382757Y0188809D01*
X0382700Y0188570D01*
X0382638Y0188333D01*
X0382569Y0188097D01*
X0382495Y0187863D01*
X0382415Y0187631D01*
X0382330Y0187401D01*
X0382239Y0187173D01*
X0382142Y0186948D01*
X0382040Y0186724D01*
X0381932Y0186504D01*
X0381819Y0186286D01*
X0381701Y0186071D01*
X0381577Y0185859D01*
X0381449Y0185650D01*
X0381315Y0185444D01*
X0381176Y0185242D01*
X0381032Y0185043D01*
X0380883Y0184848D01*
X0380730Y0184656D01*
X0380572Y0184468D01*
X0380410Y0184284D01*
X0380242Y0184105D01*
X0380071Y0183929D01*
X0379895Y0183758D01*
X0379716Y0183590D01*
X0379532Y0183428D01*
X0379344Y0183270D01*
X0379152Y0183117D01*
X0378957Y0182968D01*
X0378758Y0182824D01*
X0378556Y0182685D01*
X0378350Y0182551D01*
X0378141Y0182423D01*
X0377929Y0182299D01*
X0377714Y0182181D01*
X0377496Y0182068D01*
X0377276Y0181960D01*
X0377052Y0181858D01*
X0376827Y0181761D01*
X0376599Y0181670D01*
X0376369Y0181585D01*
X0376137Y0181505D01*
X0375903Y0181431D01*
X0375667Y0181362D01*
X0375430Y0181300D01*
X0375191Y0181243D01*
X0374951Y0181192D01*
X0374710Y0181147D01*
X0374467Y0181108D01*
X0374224Y0181075D01*
X0373980Y0181048D01*
X0373736Y0181027D01*
X0373491Y0181012D01*
X0373245Y0181003D01*
X0373000Y0181000D01*
X0372755Y0181003D01*
X0372509Y0181012D01*
X0372264Y0181027D01*
X0372020Y0181048D01*
X0371776Y0181075D01*
X0371533Y0181108D01*
X0371290Y0181147D01*
X0371049Y0181192D01*
X0370809Y0181243D01*
X0370570Y0181300D01*
X0370333Y0181362D01*
X0370097Y0181431D01*
X0369863Y0181505D01*
X0369631Y0181585D01*
X0369401Y0181670D01*
X0369173Y0181761D01*
X0368948Y0181858D01*
X0368724Y0181960D01*
X0368504Y0182068D01*
X0368286Y0182181D01*
X0368071Y0182299D01*
X0367859Y0182423D01*
X0367650Y0182551D01*
X0367444Y0182685D01*
X0367242Y0182824D01*
X0367043Y0182968D01*
X0366848Y0183117D01*
X0366656Y0183270D01*
X0366468Y0183428D01*
X0366284Y0183590D01*
X0366105Y0183758D01*
X0365929Y0183929D01*
X0365758Y0184105D01*
X0365590Y0184284D01*
X0365428Y0184468D01*
X0365270Y0184656D01*
X0365117Y0184848D01*
X0364968Y0185043D01*
X0364824Y0185242D01*
X0364685Y0185444D01*
X0364551Y0185650D01*
X0364423Y0185859D01*
X0364299Y0186071D01*
X0364181Y0186286D01*
X0364068Y0186504D01*
X0363960Y0186724D01*
X0363858Y0186948D01*
X0363761Y0187173D01*
X0363670Y0187401D01*
X0363585Y0187631D01*
X0363505Y0187863D01*
X0363431Y0188097D01*
X0363362Y0188333D01*
X0363300Y0188570D01*
X0363243Y0188809D01*
X0363192Y0189049D01*
X0363147Y0189290D01*
X0363108Y0189533D01*
X0363075Y0189776D01*
X0363048Y0190020D01*
X0363027Y0190264D01*
X0363012Y0190509D01*
X0363003Y0190755D01*
X0363000Y0191000D01*
D13*
X0357564Y0193350D02*
X0354562Y0193350D01*
X0356063Y0193350D02*
X0356063Y0197854D01*
X0354562Y0196353D01*
X0352960Y0197103D02*
X0352210Y0197854D01*
X0349958Y0197854D01*
X0349958Y0193350D01*
X0352210Y0193350D01*
X0352960Y0194101D01*
X0352960Y0197103D01*
X0348356Y0197854D02*
X0345354Y0197854D01*
X0345354Y0193350D01*
X0348356Y0193350D01*
X0346855Y0195602D02*
X0345354Y0195602D01*
X0343753Y0193350D02*
X0340750Y0193350D01*
X0340750Y0197854D01*
X0313130Y0274433D02*
X0315559Y0276198D01*
X0316854Y0277140D02*
X0319283Y0278904D01*
X0320579Y0279846D02*
X0322401Y0281169D01*
X0322567Y0282218D01*
X0320802Y0284647D01*
X0319754Y0284813D01*
X0317932Y0283489D01*
X0320579Y0279846D01*
X0316745Y0279844D02*
X0315531Y0278961D01*
X0316854Y0277140D02*
X0314207Y0280783D01*
X0316636Y0282548D01*
X0310482Y0278077D02*
X0313130Y0274433D01*
X0324304Y0282552D02*
X0324968Y0286746D01*
X0324527Y0287353D01*
X0323478Y0287519D01*
X0322264Y0286637D01*
X0322098Y0285588D01*
X0324304Y0282552D02*
X0326733Y0284317D01*
X0243249Y0336093D02*
X0243945Y0338235D01*
X0243463Y0339181D01*
X0240607Y0340109D01*
X0239661Y0339627D01*
X0238966Y0337485D01*
X0243249Y0336093D01*
X0242754Y0334570D02*
X0241826Y0331715D01*
X0237543Y0333107D01*
X0238471Y0335962D01*
X0240148Y0333839D02*
X0239685Y0332411D01*
X0241331Y0330192D02*
X0240404Y0327336D01*
X0236120Y0328728D01*
X0241102Y0341632D02*
X0240620Y0342578D01*
X0241084Y0344006D01*
X0242030Y0344487D01*
X0242744Y0344256D01*
X0243226Y0343310D01*
X0244172Y0343792D01*
X0244886Y0343560D01*
X0245367Y0342614D01*
X0244904Y0341186D01*
X0243958Y0340704D01*
X0242994Y0342596D02*
X0243226Y0343310D01*
X0156118Y0327377D02*
X0153281Y0328823D01*
X0154209Y0325968D01*
X0156118Y0327377D02*
X0151835Y0325986D01*
X0151358Y0329882D02*
X0154214Y0330810D01*
X0154696Y0331756D01*
X0154000Y0333898D01*
X0149716Y0332506D01*
X0150412Y0330364D01*
X0151358Y0329882D01*
X0149221Y0334029D02*
X0148294Y0336885D01*
X0152577Y0338276D01*
X0153505Y0335421D01*
X0150899Y0336153D02*
X0150435Y0337580D01*
X0147799Y0338408D02*
X0146871Y0341263D01*
X0151154Y0342655D01*
X0082143Y0275129D02*
X0079713Y0276894D01*
X0078390Y0275072D01*
X0080046Y0274797D01*
X0080653Y0274356D01*
X0080819Y0273308D01*
X0079937Y0272093D01*
X0078888Y0271927D01*
X0077673Y0272809D01*
X0077507Y0273858D01*
X0076212Y0274799D02*
X0077977Y0277228D01*
X0077811Y0278277D01*
X0075989Y0279600D01*
X0073342Y0275957D01*
X0075163Y0274633D01*
X0076212Y0274799D01*
X0072046Y0276898D02*
X0069617Y0278663D01*
X0072264Y0282306D01*
X0074693Y0280542D01*
X0072155Y0279602D02*
X0070941Y0280485D01*
X0068321Y0279604D02*
X0065892Y0281369D01*
X0068540Y0285013D01*
X0052564Y0192854D02*
X0051063Y0192103D01*
X0049562Y0190602D01*
X0051814Y0190602D01*
X0052564Y0189851D01*
X0052564Y0189101D01*
X0051814Y0188350D01*
X0050312Y0188350D01*
X0049562Y0189101D01*
X0049562Y0190602D01*
X0047960Y0189101D02*
X0047960Y0192103D01*
X0047210Y0192854D01*
X0044958Y0192854D01*
X0044958Y0188350D01*
X0047210Y0188350D01*
X0047960Y0189101D01*
X0043356Y0188350D02*
X0040354Y0188350D01*
X0040354Y0192854D01*
X0043356Y0192854D01*
X0041855Y0190602D02*
X0040354Y0190602D01*
X0038753Y0188350D02*
X0035750Y0188350D01*
X0035750Y0192854D01*
X0079085Y0107960D02*
X0079527Y0107353D01*
X0078862Y0103159D01*
X0079304Y0102552D01*
X0077567Y0102218D02*
X0075802Y0104647D01*
X0074754Y0104813D01*
X0072932Y0103489D01*
X0075579Y0099846D01*
X0077401Y0101169D01*
X0077567Y0102218D01*
X0076656Y0106195D02*
X0079085Y0107960D01*
X0071636Y0102548D02*
X0069207Y0100783D01*
X0071854Y0097140D01*
X0074283Y0098904D01*
X0071745Y0099844D02*
X0070531Y0098961D01*
X0070559Y0096198D02*
X0068130Y0094433D01*
X0065482Y0098077D01*
X0148118Y0038581D02*
X0152401Y0037189D01*
X0153329Y0040045D01*
X0153824Y0041568D02*
X0154752Y0044423D01*
X0155246Y0045946D02*
X0150963Y0047338D01*
X0151659Y0049480D01*
X0152605Y0049962D01*
X0155460Y0049034D01*
X0155942Y0048088D01*
X0155246Y0045946D01*
X0152146Y0043691D02*
X0151682Y0042264D01*
X0149540Y0042960D02*
X0153824Y0041568D01*
X0149540Y0042960D02*
X0150468Y0045815D01*
X0153100Y0051485D02*
X0152618Y0052431D01*
X0153082Y0053858D01*
X0154027Y0054340D01*
X0154741Y0054108D01*
X0155223Y0053163D01*
X0154759Y0051735D01*
X0153813Y0051253D01*
X0153100Y0051485D01*
X0154759Y0051735D02*
X0155241Y0050789D01*
X0155955Y0050557D01*
X0156901Y0051039D01*
X0157365Y0052467D01*
X0156883Y0053412D01*
X0156169Y0053644D01*
X0155223Y0053163D01*
X0235313Y0056385D02*
X0236241Y0053529D01*
X0236736Y0052006D02*
X0237664Y0049151D01*
X0238158Y0047628D02*
X0238854Y0045486D01*
X0239800Y0045004D01*
X0242656Y0045932D01*
X0243138Y0046878D01*
X0242442Y0049020D01*
X0238158Y0047628D01*
X0239341Y0051275D02*
X0238877Y0052702D01*
X0236736Y0052006D02*
X0241019Y0053398D01*
X0241947Y0050543D01*
X0239596Y0057777D02*
X0235313Y0056385D01*
X0240295Y0043481D02*
X0239813Y0042535D01*
X0240277Y0041108D01*
X0241223Y0040626D01*
X0244078Y0041553D01*
X0244560Y0042499D01*
X0244096Y0043927D01*
X0243151Y0044409D01*
X0242437Y0044177D01*
X0241955Y0043231D01*
X0242651Y0041090D01*
X0305244Y0110227D02*
X0307673Y0108462D01*
X0308969Y0107521D02*
X0311398Y0105756D01*
X0312693Y0104815D02*
X0314515Y0103491D01*
X0315563Y0103657D01*
X0317328Y0106086D01*
X0317162Y0107135D01*
X0315340Y0108459D01*
X0312693Y0104815D01*
X0311507Y0108460D02*
X0310292Y0109343D01*
X0308969Y0107521D02*
X0311616Y0111165D01*
X0314045Y0109400D01*
X0318183Y0104538D02*
X0320280Y0104870D01*
X0317632Y0101226D01*
X0316418Y0102109D02*
X0318847Y0100344D01*
X0320584Y0100010D02*
X0324778Y0100674D01*
X0323013Y0098245D01*
X0321964Y0098079D01*
X0320750Y0098961D01*
X0320584Y0100010D01*
X0322349Y0102439D01*
X0323397Y0102605D01*
X0324612Y0101723D01*
X0324778Y0100674D01*
X0307891Y0113871D02*
X0305244Y0110227D01*
X0209949Y0179050D02*
X0206946Y0179050D01*
X0208447Y0179050D02*
X0208447Y0183554D01*
X0206946Y0182053D01*
X0205345Y0183554D02*
X0203843Y0183554D01*
X0204594Y0183554D02*
X0204594Y0179801D01*
X0203843Y0179050D01*
X0203093Y0179050D01*
X0202342Y0179801D01*
D14*
X0222410Y0116687D02*
X0223377Y0116194D01*
X0223851Y0114735D01*
X0223358Y0113768D01*
X0221899Y0113294D02*
X0220695Y0114516D01*
X0220458Y0115246D01*
X0220950Y0116213D01*
X0222410Y0116687D01*
X0221899Y0113294D02*
X0219709Y0112582D01*
X0218761Y0115502D01*
X0220914Y0111360D02*
X0222373Y0111834D01*
X0223340Y0111342D01*
X0224051Y0109152D01*
X0223577Y0110612D02*
X0224562Y0112546D01*
X0225511Y0109627D02*
X0221132Y0108204D01*
X0220421Y0110393D01*
X0220914Y0111360D01*
X0280200Y0195700D02*
X0280200Y0200304D01*
X0282502Y0200304D01*
X0283269Y0199537D01*
X0283269Y0198002D01*
X0282502Y0197235D01*
X0280200Y0197235D01*
X0281735Y0197235D02*
X0283269Y0195700D01*
X0284804Y0195700D02*
X0287873Y0195700D01*
X0286339Y0195700D02*
X0286339Y0200304D01*
X0284804Y0198769D01*
X0236695Y0271478D02*
X0235728Y0270985D01*
X0234999Y0271223D01*
X0233028Y0275090D01*
X0232080Y0272171D01*
X0233502Y0276550D02*
X0235436Y0277535D01*
X0235199Y0276805D02*
X0235692Y0275838D01*
X0237151Y0275364D01*
X0238118Y0275857D01*
X0238829Y0278046D01*
X0234451Y0279469D01*
X0235910Y0278994D02*
X0235199Y0276805D01*
X0236677Y0273904D02*
X0237169Y0272938D01*
X0236695Y0271478D01*
X0130175Y0249976D02*
X0130345Y0248905D01*
X0129894Y0248284D01*
X0128822Y0248114D01*
X0128992Y0247042D01*
X0128541Y0246421D01*
X0127469Y0246252D01*
X0126227Y0247154D01*
X0126057Y0248225D01*
X0124365Y0248507D02*
X0124025Y0250650D01*
X0124646Y0250199D02*
X0122784Y0251552D01*
X0121882Y0250311D02*
X0124588Y0254035D01*
X0126450Y0252682D01*
X0126620Y0251611D01*
X0125718Y0250369D01*
X0124646Y0250199D01*
X0127862Y0250709D02*
X0128933Y0250878D01*
X0130175Y0249976D01*
X0128822Y0248114D02*
X0128201Y0248565D01*
X0124237Y0147078D02*
X0123728Y0143862D01*
X0126211Y0145666D01*
X0126944Y0143353D02*
X0124237Y0147078D01*
X0121585Y0144202D02*
X0120513Y0144372D01*
X0118651Y0143019D01*
X0121357Y0139294D01*
X0120455Y0140535D02*
X0122317Y0141888D01*
X0122487Y0142960D01*
X0121585Y0144202D01*
X0121696Y0141437D02*
X0123840Y0141098D01*
M02*
