G75*
%MOIN*%
%OFA0B0*%
%FSLAX25Y25*%
%IPPOS*%
%LPD*%
%AMOC8*
5,1,8,0,0,1.08239X$1,22.5*
%
%ADD10C,0.11824*%
%ADD11OC8,0.06400*%
%ADD12R,0.07099X0.07887*%
%ADD13C,0.07400*%
%ADD14C,0.01280*%
D10*
X0016000Y0021000D03*
X0021000Y0361000D03*
X0371000Y0361000D03*
X0371000Y0021000D03*
D11*
X0368000Y0191000D03*
X0378000Y0191000D03*
X0024000Y0191000D03*
X0014000Y0191000D03*
D12*
G36*
X0119096Y0241651D02*
X0113355Y0245824D01*
X0117990Y0252203D01*
X0123731Y0248030D01*
X0119096Y0241651D01*
G37*
G36*
X0128015Y0235171D02*
X0122274Y0239344D01*
X0126909Y0245723D01*
X0132650Y0241550D01*
X0128015Y0235171D01*
G37*
G36*
X0137650Y0140450D02*
X0131909Y0136277D01*
X0127274Y0142656D01*
X0133015Y0146829D01*
X0137650Y0140450D01*
G37*
G36*
X0128731Y0133970D02*
X0122990Y0129797D01*
X0118355Y0136176D01*
X0124096Y0140349D01*
X0128731Y0133970D01*
G37*
G36*
X0229447Y0125479D02*
X0231640Y0118730D01*
X0224141Y0116293D01*
X0221948Y0123042D01*
X0229447Y0125479D01*
G37*
G36*
X0232854Y0114995D02*
X0235047Y0108246D01*
X0227548Y0105809D01*
X0225355Y0112558D01*
X0232854Y0114995D01*
G37*
X0281488Y0191000D03*
X0292512Y0191000D03*
G36*
X0221948Y0268958D02*
X0224141Y0275707D01*
X0231640Y0273270D01*
X0229447Y0266521D01*
X0221948Y0268958D01*
G37*
G36*
X0225355Y0279442D02*
X0227548Y0286191D01*
X0235047Y0283754D01*
X0232854Y0277005D01*
X0225355Y0279442D01*
G37*
D13*
X0206000Y0191000D03*
X0191000Y0191000D03*
D14*
X0054795Y0089894D02*
X0054155Y0089254D01*
X0054487Y0091349D01*
X0056202Y0092595D01*
X0058297Y0092263D01*
X0059543Y0090548D01*
X0059211Y0088453D01*
X0057496Y0087207D01*
X0055401Y0087539D01*
X0054155Y0089254D01*
X0055166Y0089497D01*
X0055373Y0090806D01*
X0056445Y0091584D01*
X0057754Y0091377D01*
X0058532Y0090305D01*
X0058325Y0088996D01*
X0057253Y0088218D01*
X0055944Y0088425D01*
X0055166Y0089497D01*
X0056176Y0089740D01*
X0056259Y0090263D01*
X0056688Y0090574D01*
X0057211Y0090491D01*
X0057522Y0090062D01*
X0057439Y0089539D01*
X0057010Y0089228D01*
X0056487Y0089311D01*
X0056176Y0089740D01*
X0046705Y0084016D02*
X0046065Y0083376D01*
X0046397Y0085471D01*
X0048112Y0086717D01*
X0050207Y0086385D01*
X0051453Y0084670D01*
X0051121Y0082575D01*
X0049406Y0081329D01*
X0047311Y0081661D01*
X0046065Y0083376D01*
X0047076Y0083619D01*
X0047283Y0084928D01*
X0048355Y0085706D01*
X0049664Y0085499D01*
X0050442Y0084427D01*
X0050235Y0083118D01*
X0049163Y0082340D01*
X0047854Y0082547D01*
X0047076Y0083619D01*
X0048086Y0083862D01*
X0048169Y0084385D01*
X0048598Y0084696D01*
X0049121Y0084613D01*
X0049432Y0084184D01*
X0049349Y0083661D01*
X0048920Y0083350D01*
X0048397Y0083433D01*
X0048086Y0083862D01*
X0138600Y0016441D02*
X0137960Y0015801D01*
X0136997Y0017691D01*
X0137652Y0019707D01*
X0139542Y0020670D01*
X0141558Y0020015D01*
X0142521Y0018125D01*
X0141866Y0016109D01*
X0139976Y0015146D01*
X0137960Y0015801D01*
X0138635Y0016591D01*
X0138033Y0017773D01*
X0138442Y0019032D01*
X0139624Y0019634D01*
X0140883Y0019225D01*
X0141485Y0018043D01*
X0141076Y0016784D01*
X0139894Y0016182D01*
X0138635Y0016591D01*
X0139310Y0017382D01*
X0139069Y0017854D01*
X0139233Y0018357D01*
X0139705Y0018598D01*
X0140208Y0018434D01*
X0140449Y0017962D01*
X0140285Y0017459D01*
X0139813Y0017218D01*
X0139310Y0017382D01*
X0141690Y0025951D02*
X0141050Y0025311D01*
X0140087Y0027201D01*
X0140742Y0029217D01*
X0142632Y0030180D01*
X0144648Y0029525D01*
X0145611Y0027635D01*
X0144956Y0025619D01*
X0143066Y0024656D01*
X0141050Y0025311D01*
X0141725Y0026101D01*
X0141123Y0027283D01*
X0141532Y0028542D01*
X0142714Y0029144D01*
X0143973Y0028735D01*
X0144575Y0027553D01*
X0144166Y0026294D01*
X0142984Y0025692D01*
X0141725Y0026101D01*
X0142400Y0026892D01*
X0142159Y0027364D01*
X0142323Y0027867D01*
X0142795Y0028108D01*
X0143298Y0027944D01*
X0143539Y0027472D01*
X0143375Y0026969D01*
X0142903Y0026728D01*
X0142400Y0026892D01*
X0249574Y0025296D02*
X0248934Y0024656D01*
X0247044Y0025619D01*
X0246389Y0027635D01*
X0247352Y0029525D01*
X0249368Y0030180D01*
X0251258Y0029217D01*
X0251913Y0027201D01*
X0250950Y0025311D01*
X0248934Y0024656D01*
X0249016Y0025692D01*
X0247834Y0026294D01*
X0247425Y0027553D01*
X0248027Y0028735D01*
X0249286Y0029144D01*
X0250468Y0028542D01*
X0250877Y0027283D01*
X0250275Y0026101D01*
X0249016Y0025692D01*
X0249097Y0026728D01*
X0248625Y0026969D01*
X0248461Y0027472D01*
X0248702Y0027944D01*
X0249205Y0028108D01*
X0249677Y0027867D01*
X0249841Y0027364D01*
X0249600Y0026892D01*
X0249097Y0026728D01*
X0252664Y0015786D02*
X0252024Y0015146D01*
X0250134Y0016109D01*
X0249479Y0018125D01*
X0250442Y0020015D01*
X0252458Y0020670D01*
X0254348Y0019707D01*
X0255003Y0017691D01*
X0254040Y0015801D01*
X0252024Y0015146D01*
X0252106Y0016182D01*
X0250924Y0016784D01*
X0250515Y0018043D01*
X0251117Y0019225D01*
X0252376Y0019634D01*
X0253558Y0019032D01*
X0253967Y0017773D01*
X0253365Y0016591D01*
X0252106Y0016182D01*
X0252187Y0017218D01*
X0251715Y0017459D01*
X0251551Y0017962D01*
X0251792Y0018434D01*
X0252295Y0018598D01*
X0252767Y0018357D01*
X0252931Y0017854D01*
X0252690Y0017382D01*
X0252187Y0017218D01*
X0335959Y0088179D02*
X0336599Y0087539D01*
X0334504Y0087207D01*
X0332789Y0088453D01*
X0332457Y0090548D01*
X0333703Y0092263D01*
X0335798Y0092595D01*
X0337513Y0091349D01*
X0337845Y0089254D01*
X0336599Y0087539D01*
X0336056Y0088425D01*
X0334747Y0088218D01*
X0333675Y0088996D01*
X0333468Y0090305D01*
X0334246Y0091377D01*
X0335555Y0091584D01*
X0336627Y0090806D01*
X0336834Y0089497D01*
X0336056Y0088425D01*
X0335513Y0089311D01*
X0334990Y0089228D01*
X0334561Y0089539D01*
X0334478Y0090062D01*
X0334789Y0090491D01*
X0335312Y0090574D01*
X0335741Y0090263D01*
X0335824Y0089740D01*
X0335513Y0089311D01*
X0344049Y0082301D02*
X0344689Y0081661D01*
X0342594Y0081329D01*
X0340879Y0082575D01*
X0340547Y0084670D01*
X0341793Y0086385D01*
X0343888Y0086717D01*
X0345603Y0085471D01*
X0345935Y0083376D01*
X0344689Y0081661D01*
X0344146Y0082547D01*
X0342837Y0082340D01*
X0341765Y0083118D01*
X0341558Y0084427D01*
X0342336Y0085499D01*
X0343645Y0085706D01*
X0344717Y0084928D01*
X0344924Y0083619D01*
X0344146Y0082547D01*
X0343603Y0083433D01*
X0343080Y0083350D01*
X0342651Y0083661D01*
X0342568Y0084184D01*
X0342879Y0084613D01*
X0343402Y0084696D01*
X0343831Y0084385D01*
X0343914Y0083862D01*
X0343603Y0083433D01*
X0337205Y0292106D02*
X0337845Y0292746D01*
X0337513Y0290651D01*
X0335798Y0289405D01*
X0333703Y0289737D01*
X0332457Y0291452D01*
X0332789Y0293547D01*
X0334504Y0294793D01*
X0336599Y0294461D01*
X0337845Y0292746D01*
X0336834Y0292503D01*
X0336627Y0291194D01*
X0335555Y0290416D01*
X0334246Y0290623D01*
X0333468Y0291695D01*
X0333675Y0293004D01*
X0334747Y0293782D01*
X0336056Y0293575D01*
X0336834Y0292503D01*
X0335824Y0292260D01*
X0335741Y0291737D01*
X0335312Y0291426D01*
X0334789Y0291509D01*
X0334478Y0291938D01*
X0334561Y0292461D01*
X0334990Y0292772D01*
X0335513Y0292689D01*
X0335824Y0292260D01*
X0345295Y0297984D02*
X0345935Y0298624D01*
X0345603Y0296529D01*
X0343888Y0295283D01*
X0341793Y0295615D01*
X0340547Y0297330D01*
X0340879Y0299425D01*
X0342594Y0300671D01*
X0344689Y0300339D01*
X0345935Y0298624D01*
X0344924Y0298381D01*
X0344717Y0297072D01*
X0343645Y0296294D01*
X0342336Y0296501D01*
X0341558Y0297573D01*
X0341765Y0298882D01*
X0342837Y0299660D01*
X0344146Y0299453D01*
X0344924Y0298381D01*
X0343914Y0298138D01*
X0343831Y0297615D01*
X0343402Y0297304D01*
X0342879Y0297387D01*
X0342568Y0297816D01*
X0342651Y0298339D01*
X0343080Y0298650D01*
X0343603Y0298567D01*
X0343914Y0298138D01*
X0253400Y0365559D02*
X0254040Y0366199D01*
X0255003Y0364309D01*
X0254348Y0362293D01*
X0252458Y0361330D01*
X0250442Y0361985D01*
X0249479Y0363875D01*
X0250134Y0365891D01*
X0252024Y0366854D01*
X0254040Y0366199D01*
X0253365Y0365409D01*
X0253967Y0364227D01*
X0253558Y0362968D01*
X0252376Y0362366D01*
X0251117Y0362775D01*
X0250515Y0363957D01*
X0250924Y0365216D01*
X0252106Y0365818D01*
X0253365Y0365409D01*
X0252690Y0364618D01*
X0252931Y0364146D01*
X0252767Y0363643D01*
X0252295Y0363402D01*
X0251792Y0363566D01*
X0251551Y0364038D01*
X0251715Y0364541D01*
X0252187Y0364782D01*
X0252690Y0364618D01*
X0250310Y0356049D02*
X0250950Y0356689D01*
X0251913Y0354799D01*
X0251258Y0352783D01*
X0249368Y0351820D01*
X0247352Y0352475D01*
X0246389Y0354365D01*
X0247044Y0356381D01*
X0248934Y0357344D01*
X0250950Y0356689D01*
X0250275Y0355899D01*
X0250877Y0354717D01*
X0250468Y0353458D01*
X0249286Y0352856D01*
X0248027Y0353265D01*
X0247425Y0354447D01*
X0247834Y0355706D01*
X0249016Y0356308D01*
X0250275Y0355899D01*
X0249600Y0355108D01*
X0249841Y0354636D01*
X0249677Y0354133D01*
X0249205Y0353892D01*
X0248702Y0354056D01*
X0248461Y0354528D01*
X0248625Y0355031D01*
X0249097Y0355272D01*
X0249600Y0355108D01*
X0142426Y0356704D02*
X0143066Y0357344D01*
X0144956Y0356381D01*
X0145611Y0354365D01*
X0144648Y0352475D01*
X0142632Y0351820D01*
X0140742Y0352783D01*
X0140087Y0354799D01*
X0141050Y0356689D01*
X0143066Y0357344D01*
X0142984Y0356308D01*
X0144166Y0355706D01*
X0144575Y0354447D01*
X0143973Y0353265D01*
X0142714Y0352856D01*
X0141532Y0353458D01*
X0141123Y0354717D01*
X0141725Y0355899D01*
X0142984Y0356308D01*
X0142903Y0355272D01*
X0143375Y0355031D01*
X0143539Y0354528D01*
X0143298Y0354056D01*
X0142795Y0353892D01*
X0142323Y0354133D01*
X0142159Y0354636D01*
X0142400Y0355108D01*
X0142903Y0355272D01*
X0139336Y0366214D02*
X0139976Y0366854D01*
X0141866Y0365891D01*
X0142521Y0363875D01*
X0141558Y0361985D01*
X0139542Y0361330D01*
X0137652Y0362293D01*
X0136997Y0364309D01*
X0137960Y0366199D01*
X0139976Y0366854D01*
X0139894Y0365818D01*
X0141076Y0365216D01*
X0141485Y0363957D01*
X0140883Y0362775D01*
X0139624Y0362366D01*
X0138442Y0362968D01*
X0138033Y0364227D01*
X0138635Y0365409D01*
X0139894Y0365818D01*
X0139813Y0364782D01*
X0140285Y0364541D01*
X0140449Y0364038D01*
X0140208Y0363566D01*
X0139705Y0363402D01*
X0139233Y0363643D01*
X0139069Y0364146D01*
X0139310Y0364618D01*
X0139813Y0364782D01*
X0056041Y0293821D02*
X0055401Y0294461D01*
X0057496Y0294793D01*
X0059211Y0293547D01*
X0059543Y0291452D01*
X0058297Y0289737D01*
X0056202Y0289405D01*
X0054487Y0290651D01*
X0054155Y0292746D01*
X0055401Y0294461D01*
X0055944Y0293575D01*
X0057253Y0293782D01*
X0058325Y0293004D01*
X0058532Y0291695D01*
X0057754Y0290623D01*
X0056445Y0290416D01*
X0055373Y0291194D01*
X0055166Y0292503D01*
X0055944Y0293575D01*
X0056487Y0292689D01*
X0057010Y0292772D01*
X0057439Y0292461D01*
X0057522Y0291938D01*
X0057211Y0291509D01*
X0056688Y0291426D01*
X0056259Y0291737D01*
X0056176Y0292260D01*
X0056487Y0292689D01*
X0047951Y0299699D02*
X0047311Y0300339D01*
X0049406Y0300671D01*
X0051121Y0299425D01*
X0051453Y0297330D01*
X0050207Y0295615D01*
X0048112Y0295283D01*
X0046397Y0296529D01*
X0046065Y0298624D01*
X0047311Y0300339D01*
X0047854Y0299453D01*
X0049163Y0299660D01*
X0050235Y0298882D01*
X0050442Y0297573D01*
X0049664Y0296501D01*
X0048355Y0296294D01*
X0047283Y0297072D01*
X0047076Y0298381D01*
X0047854Y0299453D01*
X0048397Y0298567D01*
X0048920Y0298650D01*
X0049349Y0298339D01*
X0049432Y0297816D01*
X0049121Y0297387D01*
X0048598Y0297304D01*
X0048169Y0297615D01*
X0048086Y0298138D01*
X0048397Y0298567D01*
M02*
