G75*
%MOIN*%
%OFA0B0*%
%FSLAX25Y25*%
%IPPOS*%
%LPD*%
%AMOC8*
5,1,8,0,0,1.08239X$1,22.5*
%
%ADD10OC8,0.05600*%
%ADD11C,0.07400*%
%ADD12C,0.01120*%
D10*
X0014000Y0191000D03*
X0024000Y0191000D03*
X0368000Y0191000D03*
X0378000Y0191000D03*
D11*
X0206700Y0191000D03*
X0195300Y0191000D03*
D12*
X0046962Y0084017D02*
X0046402Y0083457D01*
X0046693Y0085290D01*
X0048193Y0086380D01*
X0050026Y0086089D01*
X0051116Y0084589D01*
X0050825Y0082756D01*
X0049325Y0081666D01*
X0047492Y0081957D01*
X0046402Y0083457D01*
X0047287Y0083669D01*
X0047468Y0084815D01*
X0048405Y0085495D01*
X0049551Y0085314D01*
X0050231Y0084377D01*
X0050050Y0083231D01*
X0049113Y0082551D01*
X0047967Y0082732D01*
X0047287Y0083669D01*
X0048171Y0083881D01*
X0048243Y0084340D01*
X0048617Y0084611D01*
X0049076Y0084539D01*
X0049347Y0084165D01*
X0049275Y0083706D01*
X0048901Y0083435D01*
X0048442Y0083507D01*
X0048171Y0083881D01*
X0055052Y0089895D02*
X0054492Y0089335D01*
X0054783Y0091168D01*
X0056283Y0092258D01*
X0058116Y0091967D01*
X0059206Y0090467D01*
X0058915Y0088634D01*
X0057415Y0087544D01*
X0055582Y0087835D01*
X0054492Y0089335D01*
X0055377Y0089547D01*
X0055558Y0090693D01*
X0056495Y0091373D01*
X0057641Y0091192D01*
X0058321Y0090255D01*
X0058140Y0089109D01*
X0057203Y0088429D01*
X0056057Y0088610D01*
X0055377Y0089547D01*
X0056261Y0089759D01*
X0056333Y0090218D01*
X0056707Y0090489D01*
X0057166Y0090417D01*
X0057437Y0090043D01*
X0057365Y0089584D01*
X0056991Y0089313D01*
X0056532Y0089385D01*
X0056261Y0089759D01*
X0138746Y0016625D02*
X0138186Y0016065D01*
X0137343Y0017719D01*
X0137916Y0019481D01*
X0139570Y0020324D01*
X0141332Y0019751D01*
X0142175Y0018097D01*
X0141602Y0016335D01*
X0139948Y0015492D01*
X0138186Y0016065D01*
X0138776Y0016756D01*
X0138249Y0017790D01*
X0138607Y0018891D01*
X0139641Y0019418D01*
X0140742Y0019060D01*
X0141269Y0018026D01*
X0140911Y0016925D01*
X0139877Y0016398D01*
X0138776Y0016756D01*
X0139367Y0017447D01*
X0139156Y0017862D01*
X0139298Y0018300D01*
X0139713Y0018511D01*
X0140151Y0018369D01*
X0140362Y0017954D01*
X0140220Y0017516D01*
X0139805Y0017305D01*
X0139367Y0017447D01*
X0141836Y0026135D02*
X0141276Y0025575D01*
X0140433Y0027229D01*
X0141006Y0028991D01*
X0142660Y0029834D01*
X0144422Y0029261D01*
X0145265Y0027607D01*
X0144692Y0025845D01*
X0143038Y0025002D01*
X0141276Y0025575D01*
X0141866Y0026266D01*
X0141339Y0027300D01*
X0141697Y0028401D01*
X0142731Y0028928D01*
X0143832Y0028570D01*
X0144359Y0027536D01*
X0144001Y0026435D01*
X0142967Y0025908D01*
X0141866Y0026266D01*
X0142457Y0026957D01*
X0142246Y0027372D01*
X0142388Y0027810D01*
X0142803Y0028021D01*
X0143241Y0027879D01*
X0143452Y0027464D01*
X0143310Y0027026D01*
X0142895Y0026815D01*
X0142457Y0026957D01*
X0249522Y0025562D02*
X0248962Y0025002D01*
X0247308Y0025845D01*
X0246735Y0027607D01*
X0247578Y0029261D01*
X0249340Y0029834D01*
X0250994Y0028991D01*
X0251567Y0027229D01*
X0250724Y0025575D01*
X0248962Y0025002D01*
X0249033Y0025908D01*
X0247999Y0026435D01*
X0247641Y0027536D01*
X0248168Y0028570D01*
X0249269Y0028928D01*
X0250303Y0028401D01*
X0250661Y0027300D01*
X0250134Y0026266D01*
X0249033Y0025908D01*
X0249105Y0026815D01*
X0248690Y0027026D01*
X0248548Y0027464D01*
X0248759Y0027879D01*
X0249197Y0028021D01*
X0249612Y0027810D01*
X0249754Y0027372D01*
X0249543Y0026957D01*
X0249105Y0026815D01*
X0252612Y0016052D02*
X0252052Y0015492D01*
X0250398Y0016335D01*
X0249825Y0018097D01*
X0250668Y0019751D01*
X0252430Y0020324D01*
X0254084Y0019481D01*
X0254657Y0017719D01*
X0253814Y0016065D01*
X0252052Y0015492D01*
X0252123Y0016398D01*
X0251089Y0016925D01*
X0250731Y0018026D01*
X0251258Y0019060D01*
X0252359Y0019418D01*
X0253393Y0018891D01*
X0253751Y0017790D01*
X0253224Y0016756D01*
X0252123Y0016398D01*
X0252195Y0017305D01*
X0251780Y0017516D01*
X0251638Y0017954D01*
X0251849Y0018369D01*
X0252287Y0018511D01*
X0252702Y0018300D01*
X0252844Y0017862D01*
X0252633Y0017447D01*
X0252195Y0017305D01*
X0335858Y0088395D02*
X0336418Y0087835D01*
X0334585Y0087544D01*
X0333085Y0088634D01*
X0332794Y0090467D01*
X0333884Y0091967D01*
X0335717Y0092258D01*
X0337217Y0091168D01*
X0337508Y0089335D01*
X0336418Y0087835D01*
X0335943Y0088610D01*
X0334797Y0088429D01*
X0333860Y0089109D01*
X0333679Y0090255D01*
X0334359Y0091192D01*
X0335505Y0091373D01*
X0336442Y0090693D01*
X0336623Y0089547D01*
X0335943Y0088610D01*
X0335468Y0089385D01*
X0335009Y0089313D01*
X0334635Y0089584D01*
X0334563Y0090043D01*
X0334834Y0090417D01*
X0335293Y0090489D01*
X0335667Y0090218D01*
X0335739Y0089759D01*
X0335468Y0089385D01*
X0343948Y0082517D02*
X0344508Y0081957D01*
X0342675Y0081666D01*
X0341175Y0082756D01*
X0340884Y0084589D01*
X0341974Y0086089D01*
X0343807Y0086380D01*
X0345307Y0085290D01*
X0345598Y0083457D01*
X0344508Y0081957D01*
X0344033Y0082732D01*
X0342887Y0082551D01*
X0341950Y0083231D01*
X0341769Y0084377D01*
X0342449Y0085314D01*
X0343595Y0085495D01*
X0344532Y0084815D01*
X0344713Y0083669D01*
X0344033Y0082732D01*
X0343558Y0083507D01*
X0343099Y0083435D01*
X0342725Y0083706D01*
X0342653Y0084165D01*
X0342924Y0084539D01*
X0343383Y0084611D01*
X0343757Y0084340D01*
X0343829Y0083881D01*
X0343558Y0083507D01*
X0336948Y0292105D02*
X0337508Y0292665D01*
X0337217Y0290832D01*
X0335717Y0289742D01*
X0333884Y0290033D01*
X0332794Y0291533D01*
X0333085Y0293366D01*
X0334585Y0294456D01*
X0336418Y0294165D01*
X0337508Y0292665D01*
X0336623Y0292453D01*
X0336442Y0291307D01*
X0335505Y0290627D01*
X0334359Y0290808D01*
X0333679Y0291745D01*
X0333860Y0292891D01*
X0334797Y0293571D01*
X0335943Y0293390D01*
X0336623Y0292453D01*
X0335739Y0292241D01*
X0335667Y0291782D01*
X0335293Y0291511D01*
X0334834Y0291583D01*
X0334563Y0291957D01*
X0334635Y0292416D01*
X0335009Y0292687D01*
X0335468Y0292615D01*
X0335739Y0292241D01*
X0345038Y0297983D02*
X0345598Y0298543D01*
X0345307Y0296710D01*
X0343807Y0295620D01*
X0341974Y0295911D01*
X0340884Y0297411D01*
X0341175Y0299244D01*
X0342675Y0300334D01*
X0344508Y0300043D01*
X0345598Y0298543D01*
X0344713Y0298331D01*
X0344532Y0297185D01*
X0343595Y0296505D01*
X0342449Y0296686D01*
X0341769Y0297623D01*
X0341950Y0298769D01*
X0342887Y0299449D01*
X0344033Y0299268D01*
X0344713Y0298331D01*
X0343829Y0298119D01*
X0343757Y0297660D01*
X0343383Y0297389D01*
X0342924Y0297461D01*
X0342653Y0297835D01*
X0342725Y0298294D01*
X0343099Y0298565D01*
X0343558Y0298493D01*
X0343829Y0298119D01*
X0253254Y0365375D02*
X0253814Y0365935D01*
X0254657Y0364281D01*
X0254084Y0362519D01*
X0252430Y0361676D01*
X0250668Y0362249D01*
X0249825Y0363903D01*
X0250398Y0365665D01*
X0252052Y0366508D01*
X0253814Y0365935D01*
X0253224Y0365244D01*
X0253751Y0364210D01*
X0253393Y0363109D01*
X0252359Y0362582D01*
X0251258Y0362940D01*
X0250731Y0363974D01*
X0251089Y0365075D01*
X0252123Y0365602D01*
X0253224Y0365244D01*
X0252633Y0364553D01*
X0252844Y0364138D01*
X0252702Y0363700D01*
X0252287Y0363489D01*
X0251849Y0363631D01*
X0251638Y0364046D01*
X0251780Y0364484D01*
X0252195Y0364695D01*
X0252633Y0364553D01*
X0250164Y0355865D02*
X0250724Y0356425D01*
X0251567Y0354771D01*
X0250994Y0353009D01*
X0249340Y0352166D01*
X0247578Y0352739D01*
X0246735Y0354393D01*
X0247308Y0356155D01*
X0248962Y0356998D01*
X0250724Y0356425D01*
X0250134Y0355734D01*
X0250661Y0354700D01*
X0250303Y0353599D01*
X0249269Y0353072D01*
X0248168Y0353430D01*
X0247641Y0354464D01*
X0247999Y0355565D01*
X0249033Y0356092D01*
X0250134Y0355734D01*
X0249543Y0355043D01*
X0249754Y0354628D01*
X0249612Y0354190D01*
X0249197Y0353979D01*
X0248759Y0354121D01*
X0248548Y0354536D01*
X0248690Y0354974D01*
X0249105Y0355185D01*
X0249543Y0355043D01*
X0142478Y0356438D02*
X0143038Y0356998D01*
X0144692Y0356155D01*
X0145265Y0354393D01*
X0144422Y0352739D01*
X0142660Y0352166D01*
X0141006Y0353009D01*
X0140433Y0354771D01*
X0141276Y0356425D01*
X0143038Y0356998D01*
X0142967Y0356092D01*
X0144001Y0355565D01*
X0144359Y0354464D01*
X0143832Y0353430D01*
X0142731Y0353072D01*
X0141697Y0353599D01*
X0141339Y0354700D01*
X0141866Y0355734D01*
X0142967Y0356092D01*
X0142895Y0355185D01*
X0143310Y0354974D01*
X0143452Y0354536D01*
X0143241Y0354121D01*
X0142803Y0353979D01*
X0142388Y0354190D01*
X0142246Y0354628D01*
X0142457Y0355043D01*
X0142895Y0355185D01*
X0139388Y0365948D02*
X0139948Y0366508D01*
X0141602Y0365665D01*
X0142175Y0363903D01*
X0141332Y0362249D01*
X0139570Y0361676D01*
X0137916Y0362519D01*
X0137343Y0364281D01*
X0138186Y0365935D01*
X0139948Y0366508D01*
X0139877Y0365602D01*
X0140911Y0365075D01*
X0141269Y0363974D01*
X0140742Y0362940D01*
X0139641Y0362582D01*
X0138607Y0363109D01*
X0138249Y0364210D01*
X0138776Y0365244D01*
X0139877Y0365602D01*
X0139805Y0364695D01*
X0140220Y0364484D01*
X0140362Y0364046D01*
X0140151Y0363631D01*
X0139713Y0363489D01*
X0139298Y0363700D01*
X0139156Y0364138D01*
X0139367Y0364553D01*
X0139805Y0364695D01*
X0056142Y0293605D02*
X0055582Y0294165D01*
X0057415Y0294456D01*
X0058915Y0293366D01*
X0059206Y0291533D01*
X0058116Y0290033D01*
X0056283Y0289742D01*
X0054783Y0290832D01*
X0054492Y0292665D01*
X0055582Y0294165D01*
X0056057Y0293390D01*
X0057203Y0293571D01*
X0058140Y0292891D01*
X0058321Y0291745D01*
X0057641Y0290808D01*
X0056495Y0290627D01*
X0055558Y0291307D01*
X0055377Y0292453D01*
X0056057Y0293390D01*
X0056532Y0292615D01*
X0056991Y0292687D01*
X0057365Y0292416D01*
X0057437Y0291957D01*
X0057166Y0291583D01*
X0056707Y0291511D01*
X0056333Y0291782D01*
X0056261Y0292241D01*
X0056532Y0292615D01*
X0048052Y0299483D02*
X0047492Y0300043D01*
X0049325Y0300334D01*
X0050825Y0299244D01*
X0051116Y0297411D01*
X0050026Y0295911D01*
X0048193Y0295620D01*
X0046693Y0296710D01*
X0046402Y0298543D01*
X0047492Y0300043D01*
X0047967Y0299268D01*
X0049113Y0299449D01*
X0050050Y0298769D01*
X0050231Y0297623D01*
X0049551Y0296686D01*
X0048405Y0296505D01*
X0047468Y0297185D01*
X0047287Y0298331D01*
X0047967Y0299268D01*
X0048442Y0298493D01*
X0048901Y0298565D01*
X0049275Y0298294D01*
X0049347Y0297835D01*
X0049076Y0297461D01*
X0048617Y0297389D01*
X0048243Y0297660D01*
X0048171Y0298119D01*
X0048442Y0298493D01*
M02*
